G04*
G04 #@! TF.GenerationSoftware,Altium Limited,Altium Designer,18.1.9 (240)*
G04*
G04 Layer_Color=65535*
%FSLAX25Y25*%
%MOIN*%
G70*
G01*
G75*
%ADD10C,0.00984*%
%ADD11C,0.02362*%
%ADD12C,0.01000*%
%ADD13C,0.00787*%
%ADD14C,0.01500*%
%ADD15C,0.01181*%
%ADD16C,0.01968*%
%ADD17C,0.00800*%
%ADD18C,0.00598*%
%ADD19C,0.00600*%
%ADD20C,0.00591*%
G36*
X30308Y4431D02*
Y2069D01*
X29915Y1675D01*
X27553D01*
X30308Y4431D01*
D02*
G37*
G36*
X215433Y4488D02*
Y2125D01*
X215039Y1732D01*
X212677D01*
X215433Y4488D01*
D02*
G37*
G36*
X147379Y10562D02*
X149043D01*
Y738D01*
X87074D01*
Y10562D01*
X124091D01*
Y22609D01*
X147379D01*
Y10562D01*
D02*
G37*
%LPC*%
G36*
X136331Y20389D02*
X136236Y20317D01*
X135821Y19998D01*
X134236D01*
X133698Y20353D01*
X133598Y20025D01*
X133507Y19734D01*
X133462Y19597D01*
X133425Y19469D01*
X133389Y19351D01*
X133352Y19242D01*
X133325Y19150D01*
X133298Y19059D01*
X133270Y18986D01*
X133252Y18932D01*
X133234Y18877D01*
X133225Y18841D01*
X133216Y18823D01*
Y18813D01*
X132366Y16313D01*
X132368Y16308D01*
X132364D01*
X130902Y12008D01*
X125591D01*
X135921D01*
D01*
X130902D01*
X131703Y12354D01*
X134163Y19588D01*
X135657D01*
X133926Y17137D01*
X134017Y16946D01*
X134090Y16764D01*
X134145Y16591D01*
X134200Y16436D01*
X134236Y16299D01*
X134263Y16162D01*
X134291Y16053D01*
X134309Y15944D01*
X134318Y15853D01*
Y15780D01*
Y15707D01*
Y15652D01*
Y15616D01*
X134309Y15588D01*
Y15570D01*
Y15561D01*
X134272Y15388D01*
X134236Y15242D01*
X134200Y15124D01*
X134181Y15024D01*
X134154Y14951D01*
X134136Y14896D01*
X134127Y14869D01*
Y14860D01*
X134081Y14732D01*
X134026Y14632D01*
X133972Y14559D01*
X133926Y14504D01*
X133881Y14468D01*
X133844Y14441D01*
X133826Y14432D01*
X133817D01*
X133744Y14413D01*
X133671Y14404D01*
X133516Y14395D01*
X133452Y14386D01*
X133216D01*
X133061Y14395D01*
X132906Y14404D01*
X132760Y14413D01*
X132633D01*
X132532Y14422D01*
X132496Y14432D01*
X132441D01*
X132323Y14104D01*
X132478Y14058D01*
X132614Y14003D01*
X132724Y13949D01*
X132815Y13885D01*
X132888Y13821D01*
X132951Y13757D01*
X132988Y13694D01*
X133024Y13630D01*
X133043Y13575D01*
X133052Y13511D01*
X133061Y13420D01*
X133052Y13384D01*
Y13356D01*
X133043Y13338D01*
Y13329D01*
X133216Y13366D01*
X133370Y13411D01*
X133516Y13457D01*
X133653Y13511D01*
X133771Y13557D01*
X133881Y13612D01*
X133972Y13657D01*
X134054Y13703D01*
X134127Y13748D01*
X134190Y13794D01*
X134245Y13830D01*
X134282Y13867D01*
X134318Y13894D01*
X134336Y13912D01*
X134354Y13930D01*
X134482Y14085D01*
X134591Y14240D01*
X134682Y14395D01*
X134755Y14532D01*
X134810Y14650D01*
X134855Y14741D01*
X134864Y14778D01*
X134874Y14805D01*
X134883Y14814D01*
Y14823D01*
X134919Y14942D01*
X134947Y15069D01*
X134983Y15197D01*
X135001Y15324D01*
X135019Y15434D01*
X135038Y15516D01*
Y15552D01*
X135047Y15579D01*
Y15588D01*
Y15598D01*
Y15698D01*
X135038Y15798D01*
X135010Y15916D01*
X134965Y16044D01*
X134919Y16172D01*
X134855Y16308D01*
X134728Y16563D01*
X134664Y16682D01*
X134600Y16800D01*
X134537Y16900D01*
X134482Y16991D01*
X134436Y17073D01*
X134400Y17128D01*
X134373Y17165D01*
X134363Y17174D01*
X134591Y17447D01*
X134819Y17711D01*
X135038Y17966D01*
X135238Y18194D01*
X135329Y18294D01*
X135411Y18385D01*
X135475Y18467D01*
X135539Y18540D01*
X135593Y18595D01*
X135630Y18631D01*
X135648Y18658D01*
X135657Y18668D01*
X135785Y18804D01*
X135903Y18932D01*
X135921Y18949D01*
D01*
X136012Y19032D01*
X136021Y19041D01*
X136131Y19141D01*
X136240Y19232D01*
X136340Y19305D01*
X136422Y19369D01*
X136513Y19424D01*
X136586Y19469D01*
X136650Y19506D01*
X136705Y19542D01*
X136750Y19560D01*
X136796Y19579D01*
X136823Y19588D01*
X136832Y19597D01*
X136841D01*
X136718Y19788D01*
X136331Y20389D01*
D02*
G37*
G36*
X129626Y20763D02*
X129408Y20599D01*
X129481Y20317D01*
X129526Y20062D01*
X129553Y19843D01*
X129562Y19752D01*
Y19661D01*
Y19588D01*
Y19515D01*
Y19460D01*
X129553Y19415D01*
Y19369D01*
X129544Y19342D01*
Y19333D01*
Y19324D01*
X129526Y19242D01*
X129517Y19178D01*
Y19114D01*
Y19059D01*
X129544Y18977D01*
X129572Y18923D01*
X129608Y18895D01*
X129645Y18877D01*
X129672Y18868D01*
X129681D01*
X129717Y18877D01*
X129772Y18895D01*
X129827Y18932D01*
X129891Y18968D01*
X129945Y19005D01*
X129991Y19041D01*
X130027Y19059D01*
X130036Y19069D01*
X130136Y19150D01*
X130218Y19242D01*
X130282Y19333D01*
X130337Y19424D01*
X130364Y19506D01*
X130392Y19570D01*
X130410Y19615D01*
Y19633D01*
X130419Y19706D01*
X130401Y19788D01*
X130364Y19870D01*
X130319Y19961D01*
X130264Y20062D01*
X130200Y20153D01*
X130045Y20335D01*
X129900Y20499D01*
X129827Y20572D01*
X129763Y20635D01*
X129708Y20690D01*
X129663Y20727D01*
X129635Y20754D01*
X129626Y20763D01*
D02*
G37*
G36*
X141287Y19069D02*
X141005Y18986D01*
X140996Y18795D01*
Y18613D01*
X140986Y18449D01*
X140968Y18285D01*
X140959Y18148D01*
X140941Y18012D01*
X140932Y17893D01*
X140914Y17784D01*
X140904Y17693D01*
X140886Y17602D01*
X140877Y17538D01*
X140868Y17474D01*
X140859Y17429D01*
X140850Y17401D01*
X140841Y17383D01*
Y17374D01*
X140813Y17292D01*
X140795Y17219D01*
X140786Y17155D01*
X140777Y17101D01*
X140786Y17019D01*
X140804Y16964D01*
X140832Y16928D01*
X140868Y16909D01*
X140886Y16900D01*
X140895D01*
X140941Y16909D01*
X141005Y16937D01*
X141077Y16973D01*
X141150Y17019D01*
X141214Y17064D01*
X141269Y17101D01*
X141314Y17128D01*
X141323Y17137D01*
X141433Y17237D01*
X141515Y17338D01*
X141579Y17447D01*
X141633Y17547D01*
X141661Y17638D01*
X141688Y17711D01*
X141697Y17757D01*
Y17775D01*
X141706Y17857D01*
X141697Y17948D01*
X141679Y18039D01*
X141661Y18148D01*
X141588Y18358D01*
X141515Y18577D01*
X141433Y18768D01*
X141396Y18850D01*
X141360Y18923D01*
X141333Y18986D01*
X141305Y19032D01*
X141296Y19059D01*
X141287Y19069D01*
D02*
G37*
G36*
X145879Y21109D02*
X135921D01*
D01*
X139766D01*
X139684Y20845D01*
X139602Y20599D01*
X139529Y20362D01*
X139456Y20134D01*
X139392Y19925D01*
X139328Y19734D01*
X139274Y19551D01*
X139219Y19397D01*
X139174Y19251D01*
X139128Y19123D01*
X139092Y19005D01*
X139064Y18914D01*
X139037Y18841D01*
X139028Y18795D01*
X139010Y18759D01*
Y18750D01*
X137497D01*
X137698Y18258D01*
X138117Y18340D01*
X138864D01*
X138627Y17930D01*
X138381Y17538D01*
X138135Y17155D01*
X137889Y16782D01*
X137634Y16436D01*
X137397Y16099D01*
X137160Y15798D01*
X136933Y15507D01*
X136723Y15251D01*
X136532Y15014D01*
X136359Y14814D01*
X136213Y14650D01*
X136085Y14514D01*
X136047Y14468D01*
X136040Y14459D01*
X135994Y14413D01*
X135967Y14377D01*
X135940Y14349D01*
X135930Y14340D01*
X135921Y14331D01*
X136103Y14186D01*
D01*
D01*
D01*
X136125Y14204D01*
D01*
D01*
D01*
X136169Y14240D01*
D01*
X136190Y14258D01*
X136223Y14286D01*
D01*
X136234Y14295D01*
X136277Y14331D01*
D01*
X136288Y14340D01*
D01*
D01*
X136299Y14349D01*
D01*
D01*
X136310Y14359D01*
X136331Y14377D01*
D01*
D01*
X136550Y14568D01*
X136759Y14760D01*
X136841Y14841D01*
X136960Y14960D01*
X137142Y15160D01*
X137315Y15352D01*
X137479Y15534D01*
X137634Y15707D01*
X137761Y15871D01*
X137889Y16017D01*
X137989Y16153D01*
X138071Y16272D01*
X138144Y16363D01*
X138199Y16436D01*
X138226Y16472D01*
X138235Y16490D01*
X137962Y15680D01*
X137825Y15279D01*
X137689Y14878D01*
X137552Y14495D01*
X137424Y14122D01*
X137297Y13767D01*
X137188Y13439D01*
X137078Y13138D01*
X136978Y12855D01*
X136896Y12609D01*
X136851Y12500D01*
X136841Y12470D01*
X136823Y12409D01*
D01*
X136787Y12318D01*
X136759Y12236D01*
X136732Y12172D01*
X136714Y12109D01*
X136696Y12072D01*
X136687Y12036D01*
X136677Y12017D01*
Y12008D01*
D01*
D01*
D01*
X136841Y12059D01*
X137525Y12272D01*
X137607Y12518D01*
X137670Y12746D01*
X137743Y12956D01*
X137807Y13147D01*
X137862Y13320D01*
X137916Y13484D01*
X137962Y13630D01*
X137998Y13748D01*
X138035Y13867D01*
X138071Y13958D01*
X138090Y14040D01*
X138117Y14104D01*
X138135Y14149D01*
X138144Y14186D01*
X138153Y14204D01*
Y14213D01*
X139174Y17201D01*
X139228Y17046D01*
X139274Y16882D01*
X139310Y16736D01*
X139338Y16591D01*
X139365Y16472D01*
X139374Y16372D01*
Y16335D01*
X139383Y16308D01*
Y16299D01*
Y16290D01*
X139392Y16208D01*
X139401Y16144D01*
X139410Y16080D01*
X139429Y16035D01*
X139465Y15953D01*
X139502Y15898D01*
X139538Y15871D01*
X139565Y15853D01*
X139584Y15844D01*
X139593D01*
X139638Y15853D01*
X139684Y15889D01*
X139738Y15926D01*
X139793Y15980D01*
X139839Y16026D01*
X139875Y16071D01*
X139902Y16099D01*
X139911Y16108D01*
X139984Y16208D01*
X140048Y16290D01*
X140094Y16354D01*
X140130Y16418D01*
X140148Y16463D01*
X140167Y16490D01*
X140176Y16509D01*
Y16518D01*
X140194Y16609D01*
Y16700D01*
X140185Y16791D01*
X140157Y16864D01*
X140121Y16928D01*
X140094Y16973D01*
X140076Y17010D01*
X140066Y17019D01*
X139975Y17110D01*
X139857Y17201D01*
X139729Y17292D01*
X139602Y17374D01*
X139483Y17447D01*
X139383Y17502D01*
X139347Y17520D01*
X139319Y17538D01*
X139301Y17547D01*
X139292D01*
X139556Y18340D01*
X140914D01*
X140485Y19141D01*
X139930Y18750D01*
X139702D01*
X140212Y20271D01*
X140704Y20599D01*
X139766Y21109D01*
X145879D01*
D02*
G37*
G36*
X144266Y21027D02*
X144166Y20699D01*
X144075Y20399D01*
X143984Y20116D01*
X143947Y19989D01*
X143911Y19870D01*
X143874Y19770D01*
X143838Y19670D01*
X143810Y19588D01*
X143792Y19515D01*
X143774Y19460D01*
X143756Y19424D01*
X143747Y19397D01*
Y19387D01*
X141670Y13274D01*
X141624Y13138D01*
X141606Y13020D01*
Y12919D01*
X141633Y12837D01*
X141670Y12764D01*
X141724Y12701D01*
X141788Y12655D01*
X141852Y12619D01*
X141998Y12564D01*
X142134Y12546D01*
X142189Y12537D01*
X143328D01*
X143446Y12546D01*
X143565Y12564D01*
X143674Y12591D01*
X143783Y12637D01*
X143965Y12737D01*
X144129Y12855D01*
X144257Y12974D01*
X144348Y13074D01*
X144385Y13120D01*
X144412Y13147D01*
X144421Y13165D01*
X144430Y13174D01*
X144330Y13229D01*
X144266Y13311D01*
X144220Y13393D01*
X144193Y13475D01*
X144184Y13557D01*
Y13621D01*
Y13666D01*
Y13684D01*
X144211Y13839D01*
X144257Y14013D01*
X144302Y14186D01*
X144348Y14349D01*
X144394Y14495D01*
X144412Y14559D01*
X144430Y14614D01*
X144448Y14659D01*
X144457Y14696D01*
X144466Y14714D01*
Y14723D01*
X144120D01*
X144029Y14468D01*
X143947Y14240D01*
X143865Y14049D01*
X143801Y13885D01*
X143747Y13757D01*
X143719Y13703D01*
X143701Y13657D01*
X143683Y13630D01*
X143674Y13602D01*
X143665Y13593D01*
Y13584D01*
X143628Y13511D01*
X143583Y13448D01*
X143501Y13347D01*
X143428Y13274D01*
X143355Y13229D01*
X143291Y13193D01*
X143246Y13183D01*
X143209Y13174D01*
X142581D01*
X142526Y13193D01*
X142490Y13211D01*
X142462Y13229D01*
X142426Y13293D01*
X142417Y13366D01*
Y13429D01*
X142435Y13493D01*
X142444Y13530D01*
X142453Y13548D01*
X143346Y16190D01*
X143519Y16007D01*
X143656Y15825D01*
X143774Y15661D01*
X143856Y15516D01*
X143920Y15388D01*
X143965Y15297D01*
X143984Y15260D01*
X143993Y15233D01*
X144002Y15224D01*
Y15215D01*
X144029Y15115D01*
X144075Y15033D01*
X144111Y14978D01*
X144157Y14942D01*
X144193Y14923D01*
X144220Y14914D01*
X144239Y14905D01*
X144248D01*
X144284Y14914D01*
X144321Y14923D01*
X144394Y14969D01*
X144466Y15042D01*
X144530Y15124D01*
X144585Y15197D01*
X144630Y15270D01*
X144658Y15315D01*
X144667Y15333D01*
X144703Y15415D01*
X144731Y15488D01*
X144740Y15561D01*
X144749Y15625D01*
X144740Y15743D01*
X144712Y15853D01*
X144667Y15935D01*
X144630Y15989D01*
X144594Y16035D01*
X144585Y16044D01*
X144521Y16099D01*
X144448Y16153D01*
X144284Y16253D01*
X144102Y16345D01*
X143920Y16427D01*
X143756Y16490D01*
X143674Y16518D01*
X143610Y16536D01*
X143555Y16554D01*
X143519Y16572D01*
X143492Y16581D01*
X143483D01*
X143701Y17228D01*
X144002Y17438D01*
X144275Y17620D01*
X144521Y17775D01*
X144749Y17921D01*
X144949Y18048D01*
X145122Y18148D01*
X145277Y18239D01*
X145414Y18322D01*
X145532Y18376D01*
X145633Y18431D01*
X145705Y18467D01*
X145769Y18495D01*
X145824Y18522D01*
X145851Y18531D01*
X145869Y18540D01*
X145879D01*
X145396Y19296D01*
X145296Y19160D01*
X145177Y19023D01*
X144931Y18731D01*
X144676Y18449D01*
X144421Y18185D01*
X144302Y18066D01*
X144184Y17957D01*
X144084Y17857D01*
X144002Y17766D01*
X143929Y17702D01*
X143874Y17647D01*
X143838Y17611D01*
X143829Y17602D01*
X144740Y20271D01*
X145177Y20562D01*
X144266Y21027D01*
D02*
G37*
G36*
X135921Y20881D02*
X125591D01*
X132132D01*
X132004Y20663D01*
X131876Y20453D01*
X131767Y20271D01*
X131658Y20107D01*
X131576Y19970D01*
X131539Y19916D01*
X131503Y19870D01*
X131485Y19834D01*
X131466Y19806D01*
X131448Y19797D01*
Y19788D01*
X131321Y19606D01*
X131202Y19433D01*
X131084Y19260D01*
X130975Y19114D01*
X130884Y18986D01*
X130811Y18886D01*
X130783Y18850D01*
X130765Y18823D01*
X130756Y18804D01*
X130747Y18795D01*
X128005D01*
X128232Y18267D01*
X128415Y18303D01*
X128569Y18340D01*
X128697Y18358D01*
X128815Y18367D01*
X128898Y18376D01*
X128961Y18385D01*
X130009D01*
X129945Y18194D01*
X129881Y18012D01*
X129827Y17839D01*
X129763Y17675D01*
X129717Y17529D01*
X129663Y17392D01*
X129617Y17265D01*
X129581Y17155D01*
X129544Y17055D01*
X129508Y16964D01*
X129481Y16891D01*
X129462Y16827D01*
X129444Y16782D01*
X129426Y16745D01*
X129417Y16727D01*
Y16718D01*
X127112D01*
X127340Y16190D01*
X127522Y16226D01*
X127695Y16263D01*
X127850Y16281D01*
X127977Y16290D01*
X128087Y16299D01*
X128169Y16308D01*
X129235D01*
X129134Y16108D01*
X129034Y15907D01*
X128797Y15516D01*
X128533Y15142D01*
X128251Y14787D01*
X127959Y14450D01*
X127649Y14131D01*
X127349Y13839D01*
X127048Y13566D01*
X126757Y13320D01*
X126483Y13111D01*
X126237Y12919D01*
X126128Y12837D01*
X126019Y12764D01*
X125928Y12701D01*
X125846Y12637D01*
X125773Y12591D01*
X125709Y12546D01*
X125654Y12518D01*
X125618Y12491D01*
X125600Y12482D01*
X125591Y12473D01*
X125654Y12245D01*
X126064Y12445D01*
X126456Y12655D01*
X126830Y12874D01*
X127176Y13111D01*
X127495Y13347D01*
X127786Y13584D01*
X128059Y13821D01*
X128305Y14040D01*
X128524Y14258D01*
X128715Y14459D01*
X128879Y14632D01*
X129016Y14787D01*
X129125Y14914D01*
X129198Y15014D01*
X129225Y15051D01*
X129244Y15078D01*
X129262Y15087D01*
Y15097D01*
X129462Y14805D01*
X129562Y14668D01*
X129645Y14550D01*
X129708Y14441D01*
X129763Y14359D01*
X129799Y14304D01*
X129808Y14295D01*
Y14286D01*
X129900Y14122D01*
X129982Y13967D01*
X130045Y13821D01*
X130091Y13684D01*
X130136Y13575D01*
X130164Y13484D01*
X130173Y13429D01*
X130182Y13420D01*
Y13411D01*
X130209Y13293D01*
X130246Y13211D01*
X130282Y13147D01*
X130319Y13111D01*
X130355Y13083D01*
X130392Y13074D01*
X130410Y13065D01*
X130419D01*
X130473Y13074D01*
X130528Y13111D01*
X130583Y13147D01*
X130638Y13202D01*
X130683Y13247D01*
X130719Y13293D01*
X130738Y13320D01*
X130747Y13329D01*
X130811Y13429D01*
X130865Y13511D01*
X130902Y13584D01*
X130938Y13648D01*
X130956Y13703D01*
X130975Y13739D01*
X130984Y13757D01*
Y13767D01*
X131011Y13885D01*
X131020Y14003D01*
X131011Y14113D01*
X131002Y14204D01*
X130975Y14286D01*
X130956Y14340D01*
X130938Y14386D01*
X130929Y14395D01*
X130884Y14459D01*
X130820Y14532D01*
X130738Y14605D01*
X130638Y14687D01*
X130519Y14778D01*
X130401Y14860D01*
X130146Y15033D01*
X129891Y15188D01*
X129781Y15251D01*
X129681Y15315D01*
X129590Y15361D01*
X129526Y15406D01*
X129490Y15425D01*
X129471Y15434D01*
X129562Y15598D01*
X129654Y15753D01*
X129736Y15898D01*
X129808Y16035D01*
X129863Y16144D01*
X129909Y16235D01*
X129936Y16290D01*
X129945Y16299D01*
Y16308D01*
X132364D01*
X132366Y16313D01*
X131867Y17219D01*
X131129Y16718D01*
X130136D01*
X130264Y17019D01*
X130382Y17310D01*
X130492Y17593D01*
X130537Y17729D01*
X130583Y17848D01*
X130628Y17966D01*
X130665Y18066D01*
X130692Y18158D01*
X130719Y18239D01*
X130747Y18303D01*
X130765Y18349D01*
X130774Y18376D01*
Y18385D01*
X132888D01*
X132459Y19296D01*
X131795Y18795D01*
X131111D01*
X131330Y18996D01*
X131558Y19205D01*
X131776Y19415D01*
X131986Y19615D01*
X132086Y19706D01*
X132177Y19788D01*
X132250Y19870D01*
X132323Y19934D01*
X132378Y19989D01*
X132414Y20025D01*
X132441Y20052D01*
X132450Y20062D01*
X132851Y20271D01*
X132132Y20881D01*
X135921D01*
D01*
D02*
G37*
G36*
X142881Y20954D02*
X142772Y20626D01*
X142663Y20271D01*
X142544Y19907D01*
X142417Y19524D01*
X142162Y18750D01*
X142034Y18376D01*
X141916Y18012D01*
X141797Y17666D01*
X141697Y17356D01*
X141642Y17210D01*
X141597Y17064D01*
X141551Y16937D01*
X141515Y16818D01*
X141478Y16709D01*
X141442Y16618D01*
X141415Y16536D01*
X141396Y16463D01*
X141378Y16408D01*
X141360Y16372D01*
X141351Y16345D01*
Y16335D01*
X141105Y16208D01*
X140859Y16080D01*
X140640Y15971D01*
X140422Y15862D01*
X140221Y15771D01*
X140039Y15680D01*
X139866Y15607D01*
X139711Y15534D01*
X139574Y15470D01*
X139456Y15415D01*
X139347Y15370D01*
X139265Y15333D01*
X139192Y15306D01*
X139137Y15288D01*
X139110Y15270D01*
X139101D01*
X139456Y14532D01*
X139547Y14623D01*
X139656Y14723D01*
X139784Y14832D01*
X139921Y14942D01*
X140212Y15179D01*
X140504Y15415D01*
X140649Y15525D01*
X140786Y15625D01*
X140904Y15716D01*
X141014Y15798D01*
X141096Y15871D01*
X141169Y15916D01*
X141205Y15953D01*
X141223Y15962D01*
X141141Y15753D01*
X141041Y15543D01*
X140832Y15142D01*
X140595Y14769D01*
X140331Y14422D01*
X140057Y14094D01*
X139775Y13794D01*
X139492Y13521D01*
X139210Y13274D01*
X138937Y13047D01*
X138682Y12855D01*
X138445Y12691D01*
X138244Y12555D01*
X138153Y12500D01*
X138071Y12445D01*
X138007Y12409D01*
X137944Y12373D01*
X137898Y12345D01*
X137862Y12327D01*
X137844Y12309D01*
X137834D01*
X137944Y12090D01*
X138226Y12209D01*
X138499Y12345D01*
X138764Y12482D01*
X139010Y12619D01*
X139246Y12774D01*
X139474Y12919D01*
X139684Y13074D01*
X139884Y13238D01*
X140076Y13393D01*
X140249Y13557D01*
X140422Y13721D01*
X140577Y13885D01*
X140722Y14049D01*
X140859Y14204D01*
X140986Y14368D01*
X141105Y14523D01*
X141214Y14668D01*
X141314Y14814D01*
X141488Y15097D01*
X141633Y15352D01*
X141688Y15461D01*
X141743Y15570D01*
X141788Y15661D01*
X141825Y15743D01*
X141861Y15816D01*
X141879Y15880D01*
X141897Y15935D01*
X141916Y15971D01*
X141925Y15989D01*
Y15998D01*
X143328Y20125D01*
X143783Y20453D01*
X142881Y20954D01*
D02*
G37*
G36*
X138378Y9025D02*
X137777D01*
X138378D01*
D01*
D02*
G37*
G36*
X132347D02*
X132311D01*
D01*
X128767D01*
X132311D01*
X132138Y9016D01*
X131965Y8989D01*
X131800Y8943D01*
X131637Y8879D01*
X131473Y8807D01*
X131327Y8725D01*
X131181Y8643D01*
X131053Y8561D01*
X130926Y8469D01*
X130817Y8388D01*
X130726Y8305D01*
X130644Y8233D01*
X130580Y8178D01*
X130525Y8123D01*
X130498Y8096D01*
X130489Y8087D01*
X130325Y7905D01*
X130179Y7713D01*
X130033Y7513D01*
X129896Y7312D01*
X129778Y7103D01*
X129660Y6903D01*
X129560Y6711D01*
X129468Y6520D01*
X129386Y6338D01*
X129314Y6174D01*
X129250Y6028D01*
X129195Y5900D01*
X129159Y5800D01*
X129131Y5718D01*
X129113Y5673D01*
X129104Y5655D01*
X129013Y5363D01*
X128940Y5081D01*
X128876Y4816D01*
X128831Y4580D01*
X128794Y4352D01*
X128776Y4142D01*
X128767Y3951D01*
Y3632D01*
X128776Y3505D01*
X128785Y3386D01*
X128794Y3295D01*
X128812Y3222D01*
X128822Y3177D01*
X128831Y3140D01*
Y3131D01*
X128894Y2976D01*
X128958Y2840D01*
X129040Y2721D01*
X129131Y2612D01*
X129222Y2530D01*
X129323Y2457D01*
X129423Y2393D01*
X129523Y2348D01*
X129614Y2311D01*
X129705Y2284D01*
X129787Y2266D01*
X129851Y2256D01*
X129915Y2247D01*
X129960Y2238D01*
X128767D01*
X133513D01*
Y7622D01*
X133504Y7759D01*
X133495Y7868D01*
X133486Y7959D01*
X133468Y8032D01*
X133458Y8078D01*
X133449Y8114D01*
Y8123D01*
X133395Y8278D01*
X133331Y8424D01*
X133249Y8542D01*
X133167Y8643D01*
X133076Y8734D01*
X132976Y8807D01*
X132885Y8861D01*
X132784Y8916D01*
X132693Y8952D01*
X132602Y8980D01*
X132520Y8998D01*
X132456Y9007D01*
X132393Y9016D01*
X132347Y9025D01*
D02*
G37*
G36*
X99014Y9025D02*
X97850D01*
X99014D01*
D01*
D02*
G37*
G36*
X128585Y9025D02*
X123838D01*
D01*
X127382D01*
X127209Y9016D01*
X127036Y8989D01*
X126872Y8943D01*
X126708Y8879D01*
X126544Y8807D01*
X126398Y8725D01*
X126252Y8643D01*
X126125Y8561D01*
X125997Y8469D01*
X125888Y8388D01*
X125797Y8305D01*
X125715Y8233D01*
X125651Y8178D01*
X125597Y8123D01*
X125569Y8096D01*
X125560Y8087D01*
X125396Y7905D01*
X125250Y7713D01*
X125105Y7513D01*
X124968Y7312D01*
X124850Y7103D01*
X124731Y6903D01*
X124631Y6711D01*
X124540Y6520D01*
X124458Y6338D01*
X124385Y6174D01*
X124321Y6028D01*
X124267Y5900D01*
X124230Y5800D01*
X124203Y5718D01*
X124185Y5673D01*
X124176Y5655D01*
X124084Y5363D01*
X124012Y5081D01*
X123948Y4816D01*
X123902Y4580D01*
X123866Y4352D01*
X123847Y4142D01*
X123838Y3951D01*
Y3632D01*
X123847Y3505D01*
X123857Y3386D01*
X123866Y3295D01*
X123884Y3222D01*
X123893Y3177D01*
X123902Y3140D01*
Y3131D01*
X123966Y2976D01*
X124030Y2840D01*
X124112Y2721D01*
X124203Y2612D01*
X124294Y2530D01*
X124394Y2457D01*
X124494Y2393D01*
X124594Y2348D01*
X124686Y2311D01*
X124777Y2284D01*
X124859Y2266D01*
X124923Y2256D01*
X124986Y2247D01*
X125032Y2238D01*
X125068D01*
X125232Y2247D01*
X125396Y2275D01*
X125560Y2320D01*
X125715Y2384D01*
X125870Y2448D01*
X126016Y2530D01*
X126152Y2612D01*
X126280Y2703D01*
X126398Y2785D01*
X126508Y2867D01*
X126608Y2949D01*
X126681Y3013D01*
X126744Y3076D01*
X126799Y3122D01*
X126827Y3149D01*
X126836Y3158D01*
X126999Y3341D01*
X127154Y3532D01*
X127291Y3732D01*
X127428Y3933D01*
X127555Y4142D01*
X127674Y4352D01*
X127783Y4552D01*
X127874Y4753D01*
X127965Y4935D01*
X128038Y5108D01*
X128102Y5263D01*
X128156Y5390D01*
X128202Y5500D01*
X128229Y5582D01*
X128248Y5636D01*
X128257Y5655D01*
X128348Y5937D01*
X128421Y6210D01*
X128475Y6465D01*
X128521Y6702D01*
X128548Y6921D01*
X128576Y7121D01*
X128585Y7312D01*
Y2748D01*
Y7622D01*
X128576Y7759D01*
X128567Y7868D01*
X128557Y7959D01*
X128539Y8032D01*
X128530Y8078D01*
X128521Y8114D01*
Y8123D01*
X128466Y8278D01*
X128402Y8424D01*
X128321Y8542D01*
X128238Y8643D01*
X128147Y8734D01*
X128047Y8807D01*
X127956Y8861D01*
X127856Y8916D01*
X127765Y8952D01*
X127674Y8980D01*
X127592Y8998D01*
X127528Y9007D01*
X127464Y9016D01*
X127419Y9025D01*
X128585D01*
D01*
D02*
G37*
G36*
X142095D02*
X142049D01*
X141876Y9016D01*
X141703Y8998D01*
X141539Y8970D01*
X141384Y8925D01*
X141238Y8879D01*
X141093Y8825D01*
X140965Y8770D01*
X140847Y8706D01*
X140737Y8652D01*
X140646Y8588D01*
X140564Y8533D01*
X140491Y8488D01*
X140437Y8442D01*
X140400Y8415D01*
X140373Y8397D01*
X140364Y8388D01*
X140236Y8269D01*
X140109Y8141D01*
X139999Y8005D01*
X139890Y7877D01*
X139708Y7613D01*
X139571Y7367D01*
X139508Y7249D01*
X139453Y7148D01*
X139417Y7057D01*
X139380Y6975D01*
X139353Y6912D01*
X139334Y6866D01*
X139316Y6830D01*
Y6821D01*
X139252Y6620D01*
X139207Y6438D01*
X139171Y6265D01*
X139152Y6101D01*
X139134Y5964D01*
Y5828D01*
Y5709D01*
X139143Y5609D01*
X139161Y5518D01*
X139171Y5436D01*
X139189Y5363D01*
X139207Y5317D01*
X139225Y5272D01*
X139243Y5244D01*
X139252Y5226D01*
Y5217D01*
X139316Y5135D01*
X139389Y5053D01*
X139471Y4989D01*
X139553Y4935D01*
X139744Y4844D01*
X139927Y4789D01*
X140091Y4753D01*
X140173Y4744D01*
X140236Y4734D01*
X140291Y4725D01*
X140364D01*
X140583Y4744D01*
X140783Y4780D01*
X140974Y4826D01*
X141138Y4889D01*
X141275Y4944D01*
X141330Y4971D01*
X141375Y4999D01*
X141412Y5017D01*
X141439Y5035D01*
X141457Y5044D01*
X141466D01*
X141639Y5172D01*
X141785Y5290D01*
X141903Y5418D01*
X141985Y5527D01*
X142049Y5627D01*
X142091Y5694D01*
X142004Y5472D01*
X141885Y5199D01*
X141767Y4944D01*
X141657Y4716D01*
X141548Y4498D01*
X141439Y4306D01*
X141339Y4133D01*
X141248Y3978D01*
X141166Y3842D01*
X141084Y3732D01*
X141020Y3632D01*
X140956Y3550D01*
X140910Y3495D01*
X140874Y3450D01*
X140856Y3422D01*
X140847Y3413D01*
X140728Y3286D01*
X140610Y3177D01*
X140491Y3076D01*
X140382Y2994D01*
X140273Y2931D01*
X140173Y2867D01*
X140072Y2821D01*
X139981Y2785D01*
X139899Y2757D01*
X139826Y2730D01*
X139763Y2712D01*
X139708Y2703D01*
X139662D01*
X139626Y2694D01*
X139526D01*
X139471Y2703D01*
X139426D01*
X139389Y2721D01*
X139362Y2730D01*
X139344Y2739D01*
X139334Y2757D01*
Y2794D01*
X139325Y2821D01*
Y2830D01*
X139334Y2903D01*
X139353Y2967D01*
X139362Y3031D01*
X139371Y3040D01*
Y3049D01*
X139398Y3140D01*
X139417Y3222D01*
X139426Y3304D01*
Y3368D01*
X139435Y3422D01*
X139426Y3468D01*
Y3495D01*
Y3505D01*
X139407Y3577D01*
X139371Y3623D01*
X139316Y3659D01*
X139262Y3687D01*
X139207Y3705D01*
X139161Y3714D01*
X139116D01*
X139016Y3705D01*
X138925Y3687D01*
X138843Y3650D01*
X138779Y3623D01*
X138724Y3587D01*
X138688Y3550D01*
X138660Y3532D01*
X138651Y3523D01*
X138587Y3459D01*
X138542Y3395D01*
X138496Y3331D01*
X138469Y3277D01*
X138442Y3231D01*
X138424Y3195D01*
X138414Y3177D01*
Y3167D01*
X138396Y3086D01*
X138378Y3013D01*
Y2876D01*
X138396Y2757D01*
X138442Y2666D01*
X138478Y2584D01*
X138524Y2530D01*
X138560Y2493D01*
X138569Y2484D01*
X138697Y2402D01*
X138833Y2338D01*
X138970Y2302D01*
X139107Y2266D01*
X139225Y2247D01*
X139316Y2238D01*
X143416D01*
X139407D01*
X139617Y2247D01*
X139826Y2284D01*
X140036Y2338D01*
X140227Y2402D01*
X140419Y2484D01*
X140592Y2575D01*
X140756Y2675D01*
X140910Y2776D01*
X141056Y2867D01*
X141184Y2967D01*
X141293Y3058D01*
X141384Y3140D01*
X141457Y3204D01*
X141512Y3259D01*
X141548Y3295D01*
X141557Y3304D01*
X141739Y3514D01*
X141913Y3732D01*
X142077Y3951D01*
X142232Y4179D01*
X142368Y4406D01*
X142496Y4625D01*
X142614Y4844D01*
X142714Y5053D01*
X142805Y5244D01*
X142887Y5427D01*
X142960Y5582D01*
X143015Y5727D01*
X143061Y5837D01*
X143088Y5919D01*
X143106Y5973D01*
X143115Y5992D01*
X143197Y6256D01*
X143270Y6511D01*
X143325Y6739D01*
X143361Y6957D01*
X143388Y7158D01*
X143407Y7340D01*
D01*
X143416Y7513D01*
Y7659D01*
X143407Y7795D01*
X143398Y7905D01*
X143388Y8005D01*
D01*
X143370Y8087D01*
X143361Y8151D01*
X143343Y8196D01*
X143334Y8224D01*
Y8233D01*
X143270Y8369D01*
X143197Y8497D01*
X143115Y8597D01*
X143015Y8688D01*
X142915Y8770D01*
X142805Y8834D01*
X142696Y8889D01*
X142587Y8925D01*
X142477Y8961D01*
X142377Y8980D01*
X142286Y8998D01*
X142213Y9016D01*
X142140D01*
X142095Y9025D01*
D02*
G37*
G36*
X117480D02*
X103778Y9025D01*
X107668D01*
X107504Y9016D01*
X107340Y9007D01*
X107039Y8952D01*
X106894Y8916D01*
X106766Y8870D01*
X106639Y8825D01*
X106529Y8788D01*
X106429Y8743D01*
X106338Y8697D01*
X106256Y8652D01*
X106192Y8615D01*
X106147Y8588D01*
X106101Y8561D01*
X106083Y8551D01*
X106074Y8542D01*
X105955Y8451D01*
X105837Y8351D01*
X105737Y8260D01*
X105646Y8160D01*
X105491Y7968D01*
X105363Y7786D01*
X105272Y7622D01*
X105236Y7559D01*
X105208Y7495D01*
X105190Y7449D01*
X105172Y7413D01*
X105163Y7395D01*
Y7385D01*
X105108Y7194D01*
X105090Y7012D01*
X105081Y6857D01*
X105090Y6711D01*
X105108Y6602D01*
X105126Y6511D01*
X105136Y6456D01*
X105145Y6447D01*
Y6438D01*
X105218Y6292D01*
X105299Y6174D01*
X105400Y6064D01*
X105491Y5982D01*
X105582Y5910D01*
X105655Y5864D01*
X105710Y5837D01*
X105719Y5828D01*
X105728D01*
X105491Y5718D01*
X105263Y5600D01*
X105063Y5481D01*
X104899Y5363D01*
X104753Y5254D01*
X104698Y5208D01*
X104653Y5172D01*
X104616Y5135D01*
X104589Y5108D01*
X104571Y5099D01*
X104562Y5090D01*
X104388Y4907D01*
X104243Y4716D01*
X104115Y4525D01*
X104015Y4343D01*
X103942Y4188D01*
X103906Y4124D01*
X103887Y4060D01*
X103869Y4015D01*
X103851Y3978D01*
X103842Y3960D01*
Y3951D01*
X103805Y3823D01*
X103787Y3705D01*
X103778Y3587D01*
Y3477D01*
X103805Y3268D01*
X103851Y3095D01*
X103915Y2949D01*
X103942Y2894D01*
X103970Y2840D01*
X103997Y2803D01*
X104015Y2776D01*
X104033Y2757D01*
Y2748D01*
X104115Y2657D01*
X104206Y2584D01*
X104306Y2512D01*
X104407Y2457D01*
X104616Y2366D01*
X104817Y2302D01*
X104999Y2266D01*
X105081Y2256D01*
X105145Y2247D01*
X105199Y2238D01*
X105281D01*
X105454Y2247D01*
X105609Y2256D01*
X105919Y2320D01*
X106201Y2402D01*
X106329Y2448D01*
X106447Y2493D01*
X106548Y2539D01*
X106639Y2584D01*
X106721Y2630D01*
X106794Y2666D01*
X106848Y2703D01*
X106885Y2730D01*
X106912Y2739D01*
X106921Y2748D01*
X107058Y2849D01*
X107176Y2949D01*
X107285Y3058D01*
X107386Y3167D01*
X107477Y3277D01*
X107559Y3386D01*
X107632Y3486D01*
X107695Y3587D01*
X107796Y3760D01*
X107832Y3842D01*
X107859Y3905D01*
X107887Y3960D01*
X107905Y3997D01*
X107914Y4024D01*
Y4033D01*
X107969Y4233D01*
X108005Y4425D01*
X108014Y4598D01*
X108005Y4753D01*
X107987Y4871D01*
X107969Y4971D01*
X107960Y5008D01*
Y5035D01*
X107950Y5044D01*
Y5053D01*
X107878Y5226D01*
X107777Y5372D01*
X107668Y5509D01*
X107559Y5618D01*
X107459Y5709D01*
X107368Y5773D01*
X107331Y5800D01*
X107304Y5818D01*
X107295Y5828D01*
X107285D01*
X107522Y5928D01*
X107732Y6028D01*
X107914Y6137D01*
X108069Y6247D01*
X108196Y6338D01*
X108288Y6411D01*
X108324Y6447D01*
X108351Y6465D01*
X108361Y6483D01*
X108370D01*
X108525Y6638D01*
X108652Y6802D01*
X108761Y6957D01*
X108783Y6994D01*
D01*
X108789Y7003D01*
X108800Y7021D01*
D01*
D01*
D01*
D01*
X108805Y7030D01*
D01*
D01*
D01*
X108810Y7039D01*
D01*
X108816Y7048D01*
X108821Y7057D01*
D01*
D01*
X108827Y7067D01*
D01*
D01*
X108843Y7094D01*
D01*
X108858Y7121D01*
D01*
X108863Y7130D01*
X108873Y7148D01*
D01*
D01*
X108878Y7158D01*
D01*
D01*
X108883Y7167D01*
D01*
D01*
X108888Y7176D01*
D01*
X108892Y7185D01*
X108897Y7194D01*
D01*
X108902Y7203D01*
X108907Y7212D01*
D01*
X108943Y7303D01*
X108962Y7340D01*
X108971Y7367D01*
X108980Y7376D01*
Y7385D01*
X109016Y7513D01*
X109044Y7631D01*
X109053Y7741D01*
X109062Y7850D01*
X109044Y8050D01*
X109021Y8151D01*
X109007Y8214D01*
X108962Y8351D01*
X108934Y8406D01*
X108916Y8460D01*
X108889Y8497D01*
X108880Y8524D01*
X108861Y8533D01*
Y8542D01*
X108789Y8624D01*
X108743Y8670D01*
D01*
X108707Y8706D01*
X108616Y8770D01*
X108525Y8825D01*
X108324Y8907D01*
X108133Y8961D01*
X107950Y8998D01*
X107878Y9007D01*
X107805Y9016D01*
X107750Y9025D01*
X109062D01*
D01*
X112351D01*
X112232Y9007D01*
X111986Y8961D01*
X111758Y8898D01*
X111558Y8834D01*
X111476Y8797D01*
X111394Y8761D01*
X111321Y8725D01*
X111258Y8697D01*
X111212Y8670D01*
X111176Y8652D01*
X111157Y8643D01*
X111148Y8634D01*
X111030Y8561D01*
X110920Y8479D01*
X110829Y8397D01*
X110738Y8315D01*
X110583Y8151D01*
X110474Y7996D01*
X110383Y7859D01*
X110356Y7804D01*
X110328Y7750D01*
X110310Y7704D01*
X110292Y7677D01*
X110283Y7659D01*
Y7650D01*
X110246Y7531D01*
X110237Y7422D01*
X110228Y7340D01*
X110237Y7267D01*
X110255Y7221D01*
X110265Y7185D01*
X110274Y7167D01*
X110283Y7158D01*
X110328Y7112D01*
X110383Y7076D01*
X110429Y7057D01*
X110474Y7039D01*
X110520Y7030D01*
X110556Y7021D01*
X110583D01*
X110674Y7030D01*
X110747Y7048D01*
X110820Y7067D01*
X110875Y7094D01*
X110920Y7121D01*
X110948Y7148D01*
X110966Y7158D01*
X110975Y7167D01*
X111075Y7285D01*
X111148Y7404D01*
X111176Y7458D01*
X111194Y7495D01*
X111203Y7522D01*
Y7531D01*
X111212Y7586D01*
X111221Y7631D01*
X111212Y7713D01*
X111194Y7768D01*
X111185Y7777D01*
Y7786D01*
X111176Y7813D01*
X111185Y7850D01*
X111194Y7905D01*
X111203Y7959D01*
X111221Y8014D01*
X111239Y8050D01*
X111248Y8087D01*
Y8096D01*
X111285Y8178D01*
X111339Y8251D01*
X111403Y8315D01*
X111467Y8360D01*
X111522Y8406D01*
X111576Y8433D01*
X111613Y8442D01*
X111622Y8451D01*
X111731Y8488D01*
X111840Y8524D01*
X111932Y8542D01*
X112014Y8551D01*
X112086Y8561D01*
X112132Y8570D01*
X112278D01*
X112360Y8551D01*
X112515Y8515D01*
X112633Y8451D01*
X112724Y8388D01*
X112788Y8324D01*
X112833Y8260D01*
X112852Y8224D01*
X112861Y8205D01*
X112897Y8069D01*
X112916Y7914D01*
Y7777D01*
X112897Y7641D01*
X112879Y7522D01*
X112861Y7431D01*
X112852Y7395D01*
X112843Y7367D01*
X112833Y7358D01*
Y7349D01*
X112742Y7130D01*
X112642Y6948D01*
X112533Y6784D01*
X112424Y6647D01*
X112332Y6547D01*
X112250Y6474D01*
X112196Y6429D01*
X112187Y6411D01*
X112178D01*
X111995Y6301D01*
X111795Y6219D01*
X111594Y6165D01*
X111394Y6128D01*
X111212Y6101D01*
X111130Y6092D01*
X111066D01*
X111012Y6083D01*
X110930D01*
X110775Y5627D01*
X110957D01*
X111130Y5609D01*
X111276Y5591D01*
X111403Y5563D01*
X111522Y5536D01*
X111622Y5500D01*
X111713Y5472D01*
X111786Y5436D01*
X111850Y5399D01*
X111895Y5363D01*
X111932Y5327D01*
X111968Y5299D01*
X112004Y5254D01*
X112014Y5244D01*
Y5235D01*
X112050Y5162D01*
X112068Y5081D01*
X112096Y4917D01*
Y4744D01*
X112077Y4580D01*
X112050Y4434D01*
X112041Y4379D01*
X112023Y4324D01*
X112014Y4279D01*
X112004Y4242D01*
X111995Y4224D01*
Y4215D01*
X111941Y4069D01*
X111886Y3942D01*
X111831Y3814D01*
X111768Y3696D01*
X111713Y3596D01*
X111649Y3505D01*
X111594Y3413D01*
X111540Y3340D01*
X111485Y3277D01*
X111440Y3213D01*
X111358Y3131D01*
X111303Y3076D01*
X111294Y3067D01*
X111285Y3058D01*
X111112Y2940D01*
X110930Y2849D01*
X110756Y2785D01*
X110583Y2739D01*
X110438Y2712D01*
X110374Y2703D01*
X110319D01*
X110274Y2694D01*
X110210D01*
X110100Y2703D01*
X110000Y2712D01*
X109909Y2730D01*
X109836Y2757D01*
X109773Y2785D01*
X109727Y2803D01*
X109700Y2812D01*
X109691Y2821D01*
X109627Y2876D01*
X109581Y2922D01*
X109563Y2976D01*
X109545Y3022D01*
Y3067D01*
Y3104D01*
X109554Y3122D01*
Y3131D01*
X109590Y3195D01*
X109636Y3268D01*
X109672Y3322D01*
X109691Y3331D01*
Y3340D01*
X109782Y3450D01*
X109845Y3568D01*
X109873Y3623D01*
X109891Y3659D01*
X109900Y3687D01*
Y3696D01*
X109918Y3805D01*
Y3915D01*
X109909Y3960D01*
Y3997D01*
X109900Y4024D01*
Y4033D01*
X109873Y4106D01*
X109827Y4151D01*
X109773Y4188D01*
X109718Y4215D01*
X109663Y4233D01*
X109618Y4242D01*
X109572D01*
X109499Y4233D01*
X109417Y4215D01*
X109344Y4179D01*
X109272Y4142D01*
X109217Y4106D01*
X109171Y4069D01*
X109135Y4051D01*
X109126Y4042D01*
X109062Y3985D01*
D01*
X109044Y3969D01*
D01*
X108971Y3887D01*
X108907Y3805D01*
X108861Y3732D01*
X108834Y3669D01*
X108807Y3623D01*
X108798Y3587D01*
X108789Y3577D01*
X108761Y3477D01*
X108743Y3386D01*
D01*
Y3295D01*
Y3204D01*
X108770Y3049D01*
X108825Y2903D01*
X108880Y2794D01*
X108934Y2712D01*
X108971Y2657D01*
X108989Y2648D01*
Y2639D01*
X109044Y2584D01*
X109062Y2566D01*
X109153Y2512D01*
X109326Y2411D01*
X109518Y2338D01*
X109691Y2293D01*
X109854Y2256D01*
X109918Y2247D01*
X109982D01*
X110028Y2238D01*
X110100D01*
X110283Y2247D01*
X110456Y2266D01*
X110629Y2293D01*
X110784Y2329D01*
X110939Y2375D01*
X111084Y2420D01*
X111212Y2475D01*
X111339Y2530D01*
X111449Y2575D01*
X111540Y2630D01*
X111631Y2675D01*
X111704Y2721D01*
X111758Y2757D01*
X111795Y2785D01*
X111822Y2803D01*
X111831Y2812D01*
X111968Y2922D01*
X112096Y3031D01*
X112205Y3149D01*
X112305Y3259D01*
X112405Y3377D01*
X112487Y3486D01*
X112560Y3596D01*
X112624Y3696D01*
X112679Y3787D01*
X112724Y3869D01*
X112761Y3951D01*
X112788Y4015D01*
X112815Y4069D01*
X112833Y4106D01*
X112843Y4133D01*
Y4142D01*
X112897Y4333D01*
X112925Y4516D01*
X112934Y4689D01*
Y4844D01*
X112916Y4971D01*
X112897Y5071D01*
X112888Y5108D01*
Y5144D01*
X112879Y5153D01*
Y5162D01*
X112843Y5254D01*
X112797Y5345D01*
X112742Y5427D01*
X112679Y5500D01*
X112542Y5627D01*
X112396Y5727D01*
X112250Y5800D01*
X112187Y5837D01*
X112132Y5855D01*
X112077Y5873D01*
X112041Y5891D01*
X112023Y5900D01*
X112014D01*
X112232Y5955D01*
X112433Y6028D01*
X112606Y6119D01*
X112761Y6210D01*
X112888Y6292D01*
X112979Y6365D01*
X113016Y6392D01*
X113043Y6411D01*
X113052Y6429D01*
X113061D01*
X113216Y6593D01*
X113353Y6775D01*
X113462Y6939D01*
X113553Y7103D01*
X113617Y7249D01*
X113644Y7303D01*
X113672Y7358D01*
X113690Y7404D01*
X113696Y7422D01*
X113699Y7431D01*
Y7431D01*
D01*
X113708Y7449D01*
Y7458D01*
D01*
X113735Y7568D01*
X113763Y7668D01*
X113772Y7768D01*
Y7859D01*
X113754Y8041D01*
X113717Y8205D01*
X113701Y8260D01*
X113681Y8333D01*
X113653Y8388D01*
X113635Y8433D01*
X113617Y8479D01*
X113599Y8506D01*
X113590Y8515D01*
Y8524D01*
X113526Y8615D01*
X113453Y8688D01*
X113371Y8761D01*
X113289Y8816D01*
X113098Y8907D01*
X112916Y8961D01*
X112751Y8998D01*
X112670Y9007D01*
X112606Y9016D01*
X112551Y9025D01*
X113672D01*
X117279Y9025D01*
X117161Y9007D01*
X116915Y8961D01*
X116687Y8898D01*
X116487Y8834D01*
X116405Y8797D01*
X116323Y8761D01*
X116250Y8725D01*
X116186Y8697D01*
X116140Y8670D01*
X116104Y8652D01*
X116086Y8643D01*
X116077Y8634D01*
X115958Y8561D01*
X115849Y8479D01*
X115758Y8397D01*
X115667Y8315D01*
X115512Y8151D01*
X115402Y7996D01*
X115311Y7859D01*
X115284Y7804D01*
X115257Y7750D01*
X115238Y7704D01*
X115220Y7677D01*
X115211Y7659D01*
Y7650D01*
X115175Y7531D01*
X115166Y7422D01*
X115156Y7340D01*
X115166Y7267D01*
X115184Y7221D01*
X115193Y7185D01*
X115202Y7167D01*
X115211Y7158D01*
X115257Y7112D01*
X115311Y7076D01*
X115357Y7057D01*
X115402Y7039D01*
X115448Y7030D01*
X115484Y7021D01*
X115512D01*
X115603Y7030D01*
X115676Y7048D01*
X115749Y7067D01*
X115803Y7094D01*
X115849Y7121D01*
X115876Y7148D01*
X115894Y7158D01*
X115904Y7167D01*
X116004Y7285D01*
X116077Y7404D01*
X116104Y7458D01*
X116122Y7495D01*
X116131Y7522D01*
Y7531D01*
X116140Y7586D01*
X116149Y7631D01*
X116140Y7713D01*
X116122Y7768D01*
X116113Y7777D01*
Y7786D01*
X116104Y7813D01*
X116113Y7850D01*
X116122Y7905D01*
X116131Y7959D01*
X116149Y8014D01*
X116168Y8050D01*
X116177Y8087D01*
Y8096D01*
X116213Y8178D01*
X116268Y8251D01*
X116332Y8315D01*
X116395Y8360D01*
X116450Y8406D01*
X116505Y8433D01*
X116541Y8442D01*
X116550Y8451D01*
X116660Y8488D01*
X116769Y8524D01*
X116860Y8542D01*
X116942Y8551D01*
X117015Y8561D01*
X117060Y8570D01*
X117206Y8570D01*
X117288Y8551D01*
X117443Y8515D01*
X117562Y8451D01*
X117653Y8388D01*
X117717Y8324D01*
X117762Y8260D01*
X117780Y8224D01*
X117789Y8205D01*
X117826Y8069D01*
X117844Y7914D01*
Y7777D01*
X117826Y7641D01*
X117808Y7522D01*
X117789Y7431D01*
X117780Y7395D01*
X117771Y7367D01*
X117762Y7358D01*
Y7349D01*
X117671Y7130D01*
X117571Y6948D01*
X117461Y6784D01*
X117352Y6647D01*
X117261Y6547D01*
X117179Y6474D01*
X117124Y6429D01*
X117115Y6411D01*
X117106D01*
X116924Y6301D01*
X116724Y6219D01*
X116523Y6165D01*
X116323Y6128D01*
X116140Y6101D01*
X116058Y6092D01*
X115995D01*
X115940Y6083D01*
X115858D01*
X115703Y5627D01*
X115885D01*
X116058Y5609D01*
X116204Y5591D01*
X116332Y5563D01*
X116450Y5536D01*
X116550Y5500D01*
X116641Y5472D01*
X116714Y5436D01*
X116778Y5399D01*
X116824Y5363D01*
X116860Y5327D01*
X116897Y5299D01*
X116933Y5254D01*
X116942Y5244D01*
Y5235D01*
X116979Y5162D01*
X116997Y5081D01*
X117024Y4917D01*
Y4744D01*
X117006Y4580D01*
X116979Y4434D01*
X116969Y4379D01*
X116951Y4324D01*
X116942Y4279D01*
X116933Y4242D01*
X116924Y4224D01*
Y4215D01*
X116869Y4069D01*
X116815Y3942D01*
X116760Y3814D01*
X116696Y3696D01*
X116641Y3596D01*
X116578Y3505D01*
X116523Y3413D01*
X116468Y3340D01*
X116414Y3277D01*
X116368Y3213D01*
X116286Y3131D01*
X116232Y3076D01*
X116222Y3067D01*
X116213Y3058D01*
X116040Y2940D01*
X115858Y2849D01*
X115685Y2785D01*
X115512Y2739D01*
X115366Y2712D01*
X115302Y2703D01*
X115248D01*
X115202Y2694D01*
X115138D01*
X115029Y2703D01*
X114929Y2712D01*
X114838Y2730D01*
X114765Y2757D01*
X114701Y2785D01*
X114655Y2803D01*
X114628Y2812D01*
X114619Y2821D01*
X114555Y2876D01*
X114510Y2922D01*
X114491Y2976D01*
X114473Y3022D01*
Y3067D01*
Y3104D01*
X114482Y3122D01*
Y3131D01*
X114519Y3195D01*
X114564Y3268D01*
X114601Y3322D01*
X114619Y3331D01*
Y3340D01*
X114710Y3450D01*
X114774Y3568D01*
X114801Y3623D01*
X114820Y3659D01*
X114829Y3687D01*
Y3696D01*
X114847Y3805D01*
Y3915D01*
X114838Y3960D01*
Y3997D01*
X114829Y4024D01*
Y4033D01*
X114801Y4106D01*
X114756Y4151D01*
X114701Y4188D01*
X114646Y4215D01*
X114592Y4233D01*
X114546Y4242D01*
X114501D01*
X114428Y4233D01*
X114346Y4215D01*
X114273Y4179D01*
X114200Y4142D01*
X114145Y4106D01*
X114100Y4069D01*
X114063Y4051D01*
X114054Y4042D01*
X113972Y3969D01*
X113899Y3887D01*
X113836Y3805D01*
X113790Y3732D01*
X113772Y3690D01*
X113763Y3669D01*
X113735Y3623D01*
X113726Y3587D01*
X113717Y3577D01*
X113690Y3477D01*
X113672Y3386D01*
Y3295D01*
Y3204D01*
X113699Y3049D01*
X113754Y2903D01*
X113808Y2794D01*
X113863Y2712D01*
X113899Y2657D01*
X113918Y2648D01*
Y2639D01*
X113990Y2566D01*
X114082Y2512D01*
X114255Y2411D01*
X114446Y2338D01*
X114619Y2293D01*
X114783Y2256D01*
X114847Y2247D01*
X114911D01*
X114956Y2238D01*
X118700Y2238D01*
X115029Y2238D01*
X115211Y2247D01*
X115384Y2266D01*
X115557Y2293D01*
X115712Y2329D01*
X115867Y2375D01*
X116013Y2420D01*
X116140Y2475D01*
X116268Y2530D01*
X116377Y2575D01*
X116468Y2630D01*
X116560Y2675D01*
X116632Y2721D01*
X116687Y2757D01*
X116724Y2785D01*
X116751Y2803D01*
X116760Y2812D01*
X116897Y2922D01*
X117024Y3031D01*
X117133Y3149D01*
X117234Y3259D01*
X117334Y3377D01*
X117416Y3486D01*
X117489Y3596D01*
X117552Y3696D01*
X117607Y3787D01*
X117653Y3869D01*
X117689Y3951D01*
X117717Y4015D01*
X117744Y4069D01*
X117762Y4106D01*
X117771Y4133D01*
Y4142D01*
X117826Y4333D01*
X117853Y4516D01*
X117862Y4689D01*
Y4844D01*
X117844Y4971D01*
X117826Y5071D01*
X117817Y5108D01*
Y5144D01*
X117808Y5153D01*
Y5163D01*
X117771Y5254D01*
X117726Y5345D01*
X117671Y5427D01*
X117607Y5500D01*
X117471Y5627D01*
X117325Y5727D01*
X117179Y5800D01*
X117115Y5837D01*
X117060Y5855D01*
X117006Y5873D01*
X116969Y5891D01*
X116951Y5900D01*
X116942D01*
X117161Y5955D01*
X117361Y6028D01*
X117534Y6119D01*
X117689Y6210D01*
X117817Y6292D01*
X117908Y6365D01*
X117944Y6392D01*
X117972Y6411D01*
X117981Y6429D01*
X117990D01*
X118145Y6593D01*
X118281Y6775D01*
X118391Y6939D01*
X118482Y7103D01*
X118545Y7249D01*
X118573Y7303D01*
X118600Y7358D01*
X118618Y7404D01*
X118628Y7431D01*
X118637Y7449D01*
Y7458D01*
X118664Y7568D01*
X118691Y7668D01*
X118700Y7768D01*
Y7859D01*
X118682Y8041D01*
X118646Y8205D01*
X118609Y8333D01*
X118582Y8388D01*
X118564Y8433D01*
X118545Y8479D01*
X118527Y8506D01*
X118518Y8515D01*
Y8524D01*
X118454Y8615D01*
X118382Y8688D01*
X118299Y8761D01*
X118218Y8816D01*
X118026Y8907D01*
X117844Y8961D01*
X117680Y8998D01*
X117598Y9007D01*
X117534Y9016D01*
X117480Y9025D01*
D02*
G37*
G36*
X97848Y9025D02*
X94267D01*
X97811D01*
X97638Y9016D01*
X97465Y8989D01*
X97301Y8943D01*
X97137Y8879D01*
X96973Y8806D01*
X96827Y8725D01*
X96681Y8643D01*
X96554Y8561D01*
X96426Y8469D01*
X96317Y8388D01*
X96226Y8305D01*
X96144Y8233D01*
X96080Y8178D01*
X96026Y8123D01*
X95998Y8096D01*
X95989Y8087D01*
X95825Y7905D01*
X95679Y7713D01*
X95534Y7513D01*
X95397Y7312D01*
X95279Y7103D01*
X95160Y6903D01*
X95060Y6711D01*
X94969Y6520D01*
X94887Y6338D01*
X94814Y6174D01*
X94750Y6028D01*
X94696Y5900D01*
X94659Y5800D01*
X94632Y5718D01*
X94613Y5673D01*
X94604Y5655D01*
X94513Y5363D01*
X94440Y5081D01*
X94377Y4816D01*
X94331Y4580D01*
X94295Y4352D01*
X94276Y4142D01*
X94267Y3951D01*
Y3632D01*
X94276Y3505D01*
X94286Y3386D01*
X94295Y3295D01*
X94313Y3222D01*
X94322Y3177D01*
X94331Y3140D01*
Y3131D01*
X94395Y2976D01*
X94459Y2840D01*
X94541Y2721D01*
X94632Y2612D01*
X94723Y2530D01*
X94823Y2457D01*
X94923Y2393D01*
X95024Y2348D01*
X95114Y2311D01*
X95206Y2284D01*
X95288Y2266D01*
X95351Y2256D01*
X95415Y2247D01*
X95461Y2238D01*
X94267D01*
X95860D01*
X95497D01*
X95661Y2247D01*
X95825Y2275D01*
X95989Y2320D01*
X96144Y2384D01*
X96299Y2448D01*
X96445Y2530D01*
X96581Y2612D01*
X96709Y2703D01*
X96827Y2785D01*
X96937Y2867D01*
X97037Y2949D01*
X97110Y3013D01*
X97173Y3076D01*
X97228Y3122D01*
X97255Y3149D01*
X97264Y3158D01*
X97429Y3340D01*
X97583Y3532D01*
X97720Y3732D01*
X97857Y3933D01*
X97984Y4142D01*
X98103Y4352D01*
X98212Y4552D01*
X98303Y4753D01*
X98394Y4935D01*
X98467Y5108D01*
X98531Y5263D01*
X98585Y5390D01*
X98631Y5500D01*
X98658Y5582D01*
X98677Y5636D01*
X98686Y5655D01*
X98777Y5937D01*
X98850Y6210D01*
X98904Y6465D01*
X98950Y6702D01*
X98977Y6921D01*
X99005Y7121D01*
X99014Y7312D01*
Y2411D01*
Y7631D01*
Y7622D01*
X99005Y7759D01*
X98995Y7868D01*
X98986Y7959D01*
X98968Y8032D01*
X98959Y8078D01*
X98950Y8114D01*
Y8123D01*
X98895Y8278D01*
X98831Y8424D01*
X98749Y8542D01*
X98667Y8643D01*
X98576Y8734D01*
X98476Y8806D01*
X98385Y8861D01*
X98285Y8916D01*
X98194Y8952D01*
X98103Y8980D01*
X98021Y8998D01*
X97957Y9007D01*
X97893Y9016D01*
X97848Y9025D01*
D02*
G37*
G36*
X147543Y9062D02*
X143388D01*
X147224D01*
X147124Y8943D01*
X147014Y8843D01*
X146923Y8761D01*
X146832Y8697D01*
X146750Y8652D01*
X146695Y8615D01*
X146659Y8597D01*
X146641Y8588D01*
X146522Y8542D01*
X146404Y8515D01*
X146285Y8488D01*
X146167Y8479D01*
X146067Y8469D01*
X145994Y8460D01*
X145484D01*
X145338Y8041D01*
X146167D01*
X146203Y8032D01*
X146267Y8005D01*
X146294Y7977D01*
X146304Y7968D01*
X146322Y7914D01*
Y7859D01*
Y7814D01*
X146313Y7804D01*
Y7795D01*
X144764Y3249D01*
X144728Y3158D01*
X144682Y3076D01*
X144636Y3013D01*
X144591Y2958D01*
X144554Y2912D01*
X144518Y2885D01*
X144500Y2867D01*
X144491Y2858D01*
X144418Y2821D01*
X144336Y2794D01*
X144163Y2757D01*
X144090Y2748D01*
X144026Y2739D01*
X143534D01*
X143416Y2399D01*
X143388Y2320D01*
X143416D01*
X146340D01*
X146486Y2739D01*
X146012D01*
X145903Y2748D01*
X145812Y2757D01*
X145739Y2776D01*
X145684Y2803D01*
X145639Y2821D01*
X145611Y2840D01*
X145593Y2849D01*
X145584Y2858D01*
X145557Y2912D01*
X145538Y2976D01*
X145529Y3040D01*
X145538Y3104D01*
X145547Y3158D01*
X145557Y3204D01*
X145566Y3240D01*
Y3249D01*
X147543Y9062D01*
D02*
G37*
G36*
X122900D02*
X118746D01*
X122581D01*
X122481Y8943D01*
X122372Y8843D01*
X122281Y8761D01*
X122189Y8697D01*
X122108Y8652D01*
X122053Y8615D01*
X122016Y8597D01*
X121998Y8588D01*
X121880Y8542D01*
X121761Y8515D01*
X121643Y8488D01*
X121524Y8479D01*
X121424Y8469D01*
X121351Y8460D01*
X120841D01*
X120695Y8041D01*
X121524D01*
X121561Y8032D01*
X121625Y8005D01*
X121652Y7977D01*
X121661Y7968D01*
X121679Y7914D01*
Y7859D01*
Y7814D01*
X121670Y7804D01*
Y7795D01*
X120122Y3249D01*
X120085Y3158D01*
X120039Y3076D01*
X119994Y3013D01*
X119948Y2958D01*
X119912Y2912D01*
X119876Y2885D01*
X119857Y2867D01*
X119848Y2858D01*
X119775Y2821D01*
X119693Y2794D01*
X119520Y2757D01*
X119447Y2748D01*
X119384Y2739D01*
X118892D01*
X118746Y2320D01*
X121697D01*
X121843Y2739D01*
X121370D01*
X121260Y2748D01*
X121169Y2757D01*
X121096Y2776D01*
X121042Y2803D01*
X120996Y2821D01*
X120969Y2840D01*
X120950Y2849D01*
X120941Y2858D01*
X120914Y2912D01*
X120896Y2976D01*
X120887Y3040D01*
X120896Y3104D01*
X120905Y3158D01*
X120914Y3204D01*
X120923Y3240D01*
Y3249D01*
X122900Y9062D01*
D02*
G37*
G36*
X103186Y9062D02*
X99032D01*
D01*
X102867D01*
X102767Y8943D01*
X102658Y8843D01*
X102567Y8761D01*
X102475Y8697D01*
X102393Y8652D01*
X102339Y8615D01*
X102302Y8597D01*
X102284Y8588D01*
X102166Y8542D01*
X102047Y8515D01*
X101929Y8488D01*
X101810Y8479D01*
X101710Y8469D01*
X101637Y8460D01*
X101127D01*
X100981Y8041D01*
X101810D01*
X101847Y8032D01*
X101911Y8005D01*
X101938Y7977D01*
X101947Y7968D01*
X101965Y7914D01*
Y7859D01*
Y7813D01*
X101956Y7804D01*
Y7795D01*
X100408Y3249D01*
X100371Y3158D01*
X100326Y3076D01*
X100280Y3013D01*
X100234Y2958D01*
X100198Y2912D01*
X100162Y2885D01*
X100143Y2867D01*
X100134Y2858D01*
X100061Y2821D01*
X99979Y2794D01*
X99806Y2757D01*
X99733Y2748D01*
X99670Y2739D01*
X99178D01*
X99032Y2320D01*
X101983D01*
X102129Y2739D01*
X101655D01*
X101546Y2748D01*
X101455Y2757D01*
X101382Y2776D01*
X101328Y2803D01*
X101282Y2821D01*
X101255Y2840D01*
X101236Y2849D01*
X101227Y2858D01*
X101200Y2912D01*
X101182Y2976D01*
X101173Y3040D01*
X101182Y3104D01*
X101191Y3158D01*
X101200Y3204D01*
X101209Y3240D01*
Y3249D01*
X103186Y9062D01*
D02*
G37*
G36*
X92937Y9025D02*
X92333D01*
X92846D01*
X92719Y9016D01*
X92591Y9007D01*
X92336Y8952D01*
X92090Y8889D01*
X91871Y8806D01*
X91780Y8761D01*
X91689Y8725D01*
X91607Y8679D01*
X91543Y8652D01*
X91489Y8624D01*
X91452Y8597D01*
X91425Y8588D01*
X91416Y8579D01*
X91279Y8497D01*
X91161Y8397D01*
X91042Y8296D01*
X90942Y8196D01*
X90842Y8096D01*
X90760Y7987D01*
X90687Y7886D01*
X90623Y7786D01*
X90514Y7595D01*
X90478Y7522D01*
X90441Y7449D01*
X90414Y7395D01*
X90405Y7349D01*
X90386Y7322D01*
Y7312D01*
X90350Y7194D01*
X90332Y7085D01*
Y7003D01*
Y6930D01*
X90341Y6875D01*
X90359Y6830D01*
X90368Y6812D01*
Y6802D01*
X90414Y6748D01*
X90478Y6711D01*
X90532Y6684D01*
X90596Y6666D01*
X90651Y6657D01*
X90696Y6647D01*
X90742D01*
X90824Y6657D01*
X90906Y6666D01*
X90970Y6684D01*
X91033Y6711D01*
X91079Y6729D01*
X91115Y6748D01*
X91133Y6757D01*
X91143Y6766D01*
X91197Y6821D01*
X91252Y6875D01*
X91325Y6994D01*
X91352Y7039D01*
X91370Y7085D01*
X91389Y7112D01*
Y7121D01*
X91407Y7185D01*
Y7249D01*
X91398Y7367D01*
X91389Y7413D01*
X91379Y7449D01*
X91370Y7467D01*
Y7476D01*
X91343Y7531D01*
X91334Y7577D01*
Y7686D01*
Y7732D01*
X91343Y7768D01*
X91352Y7786D01*
Y7795D01*
X91407Y7914D01*
X91471Y8023D01*
X91553Y8114D01*
X91635Y8196D01*
X91707Y8260D01*
X91771Y8305D01*
X91808Y8333D01*
X91826Y8342D01*
X91962Y8415D01*
X92099Y8469D01*
X92236Y8515D01*
X92354Y8542D01*
X92454Y8561D01*
X92536Y8570D01*
X92709D01*
X92801Y8551D01*
X92965Y8515D01*
X93092Y8469D01*
X93183Y8406D01*
X93256Y8342D01*
X93302Y8296D01*
X93329Y8260D01*
X93338Y8242D01*
X93384Y8105D01*
X93402Y7950D01*
X93393Y7795D01*
X93375Y7641D01*
X93347Y7495D01*
X93329Y7431D01*
X93320Y7385D01*
X93302Y7340D01*
X93293Y7303D01*
X93283Y7285D01*
Y7276D01*
X93211Y7094D01*
X93120Y6921D01*
X93010Y6748D01*
X92910Y6593D01*
X92810Y6456D01*
X92764Y6402D01*
X92728Y6347D01*
X92691Y6310D01*
X92664Y6283D01*
X92655Y6265D01*
X92646Y6256D01*
X92454Y6046D01*
X92236Y5846D01*
X92017Y5645D01*
X91808Y5463D01*
X91707Y5381D01*
X91616Y5308D01*
X91534Y5244D01*
X91461Y5190D01*
X91407Y5144D01*
X91361Y5108D01*
X91334Y5090D01*
X91325Y5081D01*
X90979Y4816D01*
X90824Y4698D01*
X90669Y4580D01*
X90523Y4470D01*
X90396Y4370D01*
X90277Y4270D01*
X90168Y4179D01*
X90068Y4106D01*
X89977Y4033D01*
X89904Y3969D01*
X89840Y3915D01*
X89794Y3878D01*
X89758Y3851D01*
X89740Y3833D01*
X89731Y3823D01*
X89512Y3632D01*
X89321Y3459D01*
X89157Y3313D01*
X89029Y3177D01*
X88920Y3076D01*
X88847Y2994D01*
X88801Y2949D01*
X88783Y2931D01*
X88574Y2320D01*
D01*
X92272D01*
X93129Y4133D01*
X92709D01*
X92600Y3924D01*
X92500Y3751D01*
X92409Y3614D01*
X92318Y3495D01*
X92245Y3413D01*
X92190Y3350D01*
X92154Y3313D01*
X92145Y3304D01*
X92035Y3231D01*
X91935Y3177D01*
X91835Y3131D01*
X91753Y3104D01*
X91680Y3086D01*
X91625Y3076D01*
X89448D01*
X89476Y3095D01*
X89521Y3131D01*
X89576Y3167D01*
X89639Y3222D01*
X89785Y3340D01*
X89949Y3468D01*
X90104Y3587D01*
X90168Y3641D01*
X90232Y3696D01*
X90286Y3732D01*
X90323Y3769D01*
X90350Y3787D01*
X90359Y3796D01*
X90514Y3924D01*
X90687Y4051D01*
X90869Y4197D01*
X91052Y4333D01*
X91425Y4616D01*
X91607Y4762D01*
X91789Y4889D01*
X91962Y5017D01*
X92117Y5135D01*
X92254Y5235D01*
X92382Y5327D01*
X92482Y5399D01*
X92555Y5454D01*
X92600Y5491D01*
X92618Y5500D01*
X92837Y5664D01*
X93037Y5818D01*
X93201Y5973D01*
X93347Y6110D01*
X93457Y6228D01*
X93548Y6319D01*
X93575Y6356D01*
X93593Y6383D01*
X93611Y6392D01*
Y6402D01*
X93739Y6575D01*
X93857Y6748D01*
X93949Y6912D01*
X94021Y7057D01*
X94076Y7176D01*
X94122Y7267D01*
X94131Y7303D01*
X94140Y7331D01*
X94149Y7340D01*
Y7349D01*
X94185Y7476D01*
X94222Y7604D01*
X94240Y7722D01*
Y8041D01*
D01*
X94213Y8214D01*
X94176Y8351D01*
X94158Y8406D01*
X94140Y8460D01*
X94122Y8497D01*
X94103Y8524D01*
X94094Y8533D01*
Y8542D01*
X94030Y8624D01*
X93958Y8706D01*
X93866Y8770D01*
X93775Y8825D01*
X93566Y8907D01*
X93356Y8961D01*
X93165Y8998D01*
X93074Y9007D01*
X93001Y9016D01*
X92937Y9025D01*
D02*
G37*
G36*
X137276Y9025D02*
X133695D01*
X137239D01*
X137066Y9016D01*
X136893Y8989D01*
X136729Y8943D01*
X136565Y8879D01*
X136401Y8807D01*
X136255Y8725D01*
X136109Y8643D01*
X135982Y8561D01*
X135854Y8469D01*
X135745Y8388D01*
X135654Y8305D01*
X135572Y8233D01*
X135508Y8178D01*
X135454Y8123D01*
X135426Y8096D01*
X135417Y8087D01*
X135253Y7905D01*
X135107Y7713D01*
X134962Y7513D01*
X134825Y7312D01*
X134707Y7103D01*
X134588Y6903D01*
X134488Y6711D01*
X134397Y6520D01*
X134315Y6338D01*
X134242Y6174D01*
X134178Y6028D01*
X134124Y5900D01*
X134087Y5800D01*
X134060Y5718D01*
X134042Y5673D01*
X134032Y5655D01*
X133941Y5363D01*
X133869Y5081D01*
X133805Y4816D01*
X133759Y4580D01*
X133723Y4352D01*
X133704Y4142D01*
X133695Y3951D01*
Y3632D01*
X133704Y3505D01*
X133714Y3386D01*
X133723Y3295D01*
X133741Y3222D01*
X133750Y3177D01*
X133759Y3140D01*
Y3131D01*
X133823Y2976D01*
X133887Y2840D01*
X133969Y2721D01*
X134060Y2612D01*
X134151Y2530D01*
X134251Y2457D01*
X134351Y2393D01*
X134451Y2348D01*
X134543Y2311D01*
X134634Y2284D01*
X134716Y2266D01*
X134780Y2256D01*
X134843Y2247D01*
X134889Y2238D01*
X134925D01*
X135089Y2247D01*
X135253Y2275D01*
X135417Y2320D01*
X135572Y2384D01*
X135727Y2448D01*
X135873Y2530D01*
X136009Y2612D01*
X136137Y2703D01*
X136255Y2785D01*
X136365Y2867D01*
X136465Y2949D01*
X136538Y3013D01*
X136601Y3076D01*
X136656Y3122D01*
X136683Y3149D01*
X136693Y3158D01*
X136857Y3341D01*
X137011Y3532D01*
X137148Y3732D01*
X137285Y3933D01*
X137412Y4142D01*
X137531Y4352D01*
X137640Y4552D01*
X137731Y4753D01*
X137822Y4935D01*
X137895Y5108D01*
X137959Y5263D01*
X138014Y5390D01*
X138059Y5500D01*
X138086Y5582D01*
X138105Y5636D01*
X138114Y5655D01*
X138205Y5937D01*
X138278Y6210D01*
X138332Y6465D01*
X138378Y6702D01*
X138385Y6757D01*
X138405Y6921D01*
X138424Y7057D01*
D01*
X138425Y7067D01*
X138430Y7103D01*
D01*
X138433Y7121D01*
X138442Y7312D01*
D01*
Y7476D01*
Y7622D01*
D01*
X138435Y7722D01*
D01*
X138433Y7750D01*
X138433Y7759D01*
D01*
X138424Y7868D01*
X138414Y7959D01*
X138396Y8032D01*
X138387Y8078D01*
X138378Y8114D01*
Y8123D01*
X138323Y8278D01*
X138259Y8424D01*
X138178Y8542D01*
X138095Y8643D01*
X138004Y8734D01*
X137904Y8807D01*
X137813Y8861D01*
X137713Y8916D01*
X137622Y8952D01*
X137531Y8980D01*
X137449Y8998D01*
X137385Y9007D01*
X137321Y9016D01*
X137276Y9025D01*
D02*
G37*
%LPD*%
G36*
X132229Y8524D02*
X132311Y8497D01*
X132384Y8460D01*
X132447Y8415D01*
X132547Y8287D01*
X132611Y8151D01*
X132657Y8005D01*
X132684Y7877D01*
Y7832D01*
X132693Y7795D01*
Y7768D01*
Y7759D01*
Y7604D01*
X132684Y7449D01*
X132639Y7103D01*
X132566Y6757D01*
X132493Y6420D01*
X132447Y6265D01*
X132411Y6119D01*
X132375Y5982D01*
X132338Y5873D01*
X132311Y5782D01*
X132283Y5709D01*
X132274Y5673D01*
X132265Y5655D01*
X132174Y5399D01*
X132083Y5153D01*
X131992Y4926D01*
X131901Y4716D01*
X131810Y4516D01*
X131719Y4343D01*
X131637Y4179D01*
X131564Y4033D01*
X131491Y3905D01*
X131418Y3796D01*
X131363Y3696D01*
X131318Y3614D01*
X131272Y3559D01*
X131245Y3514D01*
X131227Y3486D01*
X131218Y3477D01*
X131117Y3350D01*
X131017Y3231D01*
X130917Y3131D01*
X130817Y3049D01*
X130726Y2976D01*
X130644Y2912D01*
X130562Y2867D01*
X130489Y2821D01*
X130352Y2767D01*
X130252Y2739D01*
X130215D01*
X130188Y2730D01*
X130170D01*
X130088Y2739D01*
X130015Y2767D01*
X129951Y2803D01*
X129887Y2849D01*
X129796Y2967D01*
X129723Y3104D01*
X129678Y3240D01*
X129641Y3359D01*
X129632Y3404D01*
Y3450D01*
X129623Y3468D01*
Y3477D01*
X129614Y3623D01*
Y3787D01*
X129632Y3960D01*
X129651Y4133D01*
X129714Y4498D01*
X129796Y4853D01*
X129833Y5017D01*
X129878Y5163D01*
X129915Y5299D01*
X129951Y5418D01*
X129979Y5518D01*
X130006Y5591D01*
X130015Y5636D01*
X130024Y5655D01*
X130115Y5900D01*
X130197Y6128D01*
X130288Y6347D01*
X130379Y6547D01*
X130471Y6729D01*
X130562Y6903D01*
X130644Y7067D01*
X130726Y7203D01*
X130798Y7331D01*
X130871Y7440D01*
X130926Y7540D01*
X130981Y7613D01*
X131026Y7677D01*
X131053Y7722D01*
X131072Y7750D01*
X131081Y7759D01*
X131190Y7896D01*
X131299Y8014D01*
X131400Y8114D01*
X131500Y8205D01*
X131591Y8278D01*
X131682Y8342D01*
X131764Y8397D01*
X131837Y8433D01*
X131965Y8497D01*
X132056Y8524D01*
X132092D01*
X132119Y8533D01*
X132138D01*
X132229Y8524D01*
D02*
G37*
G36*
X133513Y2238D02*
X129997D01*
X130161Y2247D01*
X130325Y2275D01*
X130489Y2320D01*
X130644Y2384D01*
X130798Y2448D01*
X130944Y2530D01*
X131081Y2612D01*
X131208Y2703D01*
X131327Y2785D01*
X131436Y2867D01*
X131536Y2949D01*
X131609Y3013D01*
X131673Y3076D01*
X131728Y3122D01*
X131755Y3149D01*
X131764Y3158D01*
X131928Y3341D01*
X132083Y3532D01*
X132220Y3732D01*
X132356Y3933D01*
X132484Y4142D01*
X132602Y4352D01*
X132712Y4552D01*
X132803Y4753D01*
X132894Y4935D01*
X132967Y5108D01*
X133030Y5263D01*
X133085Y5390D01*
X133131Y5500D01*
X133158Y5582D01*
X133176Y5636D01*
X133185Y5655D01*
X133276Y5937D01*
X133349Y6210D01*
X133404Y6465D01*
X133449Y6702D01*
X133477Y6921D01*
X133504Y7121D01*
X133513Y7312D01*
Y2238D01*
D02*
G37*
G36*
X127300Y8524D02*
X127382Y8497D01*
X127455Y8460D01*
X127519Y8415D01*
X127619Y8287D01*
X127683Y8151D01*
X127728Y8005D01*
X127756Y7877D01*
Y7832D01*
X127765Y7795D01*
Y7768D01*
Y7759D01*
Y7604D01*
X127756Y7449D01*
X127710Y7103D01*
X127637Y6757D01*
X127564Y6420D01*
X127519Y6265D01*
X127482Y6119D01*
X127446Y5982D01*
X127410Y5873D01*
X127382Y5782D01*
X127355Y5709D01*
X127346Y5673D01*
X127337Y5655D01*
X127245Y5399D01*
X127154Y5153D01*
X127063Y4926D01*
X126972Y4716D01*
X126881Y4516D01*
X126790Y4343D01*
X126708Y4179D01*
X126635Y4033D01*
X126562Y3905D01*
X126489Y3796D01*
X126435Y3696D01*
X126389Y3614D01*
X126344Y3559D01*
X126316Y3514D01*
X126298Y3486D01*
X126289Y3477D01*
X126189Y3350D01*
X126089Y3231D01*
X125988Y3131D01*
X125888Y3049D01*
X125797Y2976D01*
X125715Y2912D01*
X125633Y2867D01*
X125560Y2821D01*
X125424Y2767D01*
X125323Y2739D01*
X125287D01*
X125259Y2730D01*
X125241D01*
X125159Y2739D01*
X125086Y2767D01*
X125023Y2803D01*
X124959Y2849D01*
X124868Y2967D01*
X124795Y3104D01*
X124749Y3240D01*
X124713Y3359D01*
X124704Y3404D01*
Y3450D01*
X124695Y3468D01*
Y3477D01*
X124686Y3623D01*
Y3787D01*
X124704Y3960D01*
X124722Y4133D01*
X124786Y4498D01*
X124868Y4853D01*
X124904Y5017D01*
X124950Y5163D01*
X124986Y5299D01*
X125023Y5418D01*
X125050Y5518D01*
X125077Y5591D01*
X125086Y5636D01*
X125096Y5655D01*
X125187Y5900D01*
X125269Y6128D01*
X125360Y6347D01*
X125451Y6547D01*
X125542Y6729D01*
X125633Y6903D01*
X125715Y7067D01*
X125797Y7203D01*
X125870Y7331D01*
X125943Y7440D01*
X125997Y7540D01*
X126052Y7613D01*
X126098Y7677D01*
X126125Y7722D01*
X126143Y7750D01*
X126152Y7759D01*
X126262Y7896D01*
X126371Y8014D01*
X126471Y8114D01*
X126571Y8205D01*
X126663Y8278D01*
X126754Y8342D01*
X126836Y8397D01*
X126908Y8433D01*
X127036Y8497D01*
X127127Y8524D01*
X127164D01*
X127191Y8533D01*
X127209D01*
X127300Y8524D01*
D02*
G37*
G36*
X142004Y8561D02*
X142104Y8551D01*
X142195Y8524D01*
X142268Y8488D01*
X142332Y8451D01*
X142395Y8406D01*
X142487Y8315D01*
X142550Y8214D01*
X142587Y8132D01*
X142605Y8096D01*
Y8069D01*
X142614Y8060D01*
Y8050D01*
X142632Y7950D01*
X142641Y7841D01*
X142632Y7622D01*
X142605Y7385D01*
X142569Y7167D01*
X142541Y7067D01*
X142523Y6966D01*
X142496Y6884D01*
X142477Y6812D01*
X142459Y6748D01*
X142441Y6702D01*
X142432Y6675D01*
Y6666D01*
X142405Y6584D01*
X142359Y6502D01*
X142259Y6347D01*
X142140Y6192D01*
X142022Y6046D01*
X141903Y5928D01*
X141812Y5828D01*
X141776Y5791D01*
X141749Y5764D01*
X141730Y5755D01*
X141721Y5746D01*
X141621Y5664D01*
X141512Y5582D01*
X141421Y5518D01*
X141321Y5463D01*
X141138Y5372D01*
X140983Y5317D01*
X140847Y5281D01*
X140792Y5272D01*
X140746Y5263D01*
X140710Y5254D01*
X140655D01*
X140574Y5263D01*
X140501Y5272D01*
X140373Y5317D01*
X140273Y5381D01*
X140191Y5454D01*
X140127Y5527D01*
X140091Y5591D01*
X140063Y5636D01*
X140054Y5655D01*
X140027Y5737D01*
X140018Y5818D01*
X140009Y6010D01*
X140027Y6210D01*
X140054Y6411D01*
X140091Y6584D01*
X140118Y6657D01*
X140136Y6729D01*
X140145Y6784D01*
X140164Y6821D01*
X140173Y6848D01*
Y6857D01*
X140273Y7130D01*
X140391Y7376D01*
X140501Y7586D01*
X140619Y7768D01*
X140665Y7841D01*
X140710Y7905D01*
X140756Y7959D01*
X140792Y8014D01*
X140819Y8050D01*
X140847Y8078D01*
X140856Y8087D01*
X140865Y8096D01*
X140947Y8178D01*
X141038Y8251D01*
X141129Y8315D01*
X141211Y8369D01*
X141384Y8451D01*
X141548Y8515D01*
X141685Y8542D01*
X141749Y8551D01*
X141794Y8561D01*
X141840Y8570D01*
X141894D01*
X142004Y8561D01*
D02*
G37*
G36*
X107714Y8551D02*
X107805Y8533D01*
X107878Y8515D01*
X108005Y8451D01*
X108105Y8388D01*
X108178Y8324D01*
X108224Y8260D01*
X108242Y8224D01*
X108251Y8205D01*
X108297Y8069D01*
X108315Y7914D01*
Y7777D01*
X108306Y7641D01*
X108288Y7522D01*
X108269Y7431D01*
X108260Y7395D01*
X108251Y7367D01*
X108242Y7358D01*
Y7349D01*
X108178Y7194D01*
X108105Y7048D01*
X108033Y6921D01*
X107960Y6812D01*
X107887Y6729D01*
X107832Y6657D01*
X107796Y6620D01*
X107777Y6602D01*
X107650Y6493D01*
X107522Y6392D01*
X107395Y6301D01*
X107267Y6228D01*
X107167Y6174D01*
X107076Y6128D01*
X107021Y6101D01*
X107012Y6092D01*
X107003D01*
X106784Y6201D01*
X106593Y6310D01*
X106438Y6420D01*
X106311Y6520D01*
X106210Y6602D01*
X106147Y6675D01*
X106101Y6720D01*
X106092Y6739D01*
X106047Y6812D01*
X106001Y6884D01*
X105946Y7021D01*
X105919Y7148D01*
X105910Y7258D01*
Y7358D01*
X105919Y7431D01*
X105928Y7476D01*
X105937Y7495D01*
X106001Y7641D01*
X106074Y7768D01*
X106156Y7896D01*
X106247Y8005D01*
X106329Y8096D01*
X106393Y8160D01*
X106438Y8205D01*
X106456Y8224D01*
X106611Y8342D01*
X106784Y8424D01*
X106967Y8488D01*
X107131Y8524D01*
X107285Y8551D01*
X107349Y8561D01*
X107404D01*
X107449Y8570D01*
X107623D01*
X107714Y8551D01*
D02*
G37*
G36*
X106110Y5518D02*
X106229Y5454D01*
X106338Y5381D01*
X106438Y5308D01*
X106529Y5244D01*
X106611Y5181D01*
X106748Y5053D01*
X106848Y4944D01*
X106921Y4862D01*
X106967Y4807D01*
X106976Y4798D01*
Y4789D01*
X107021Y4707D01*
X107067Y4625D01*
X107122Y4470D01*
X107149Y4324D01*
X107158Y4188D01*
X107149Y4078D01*
X107131Y3987D01*
X107122Y3933D01*
X107112Y3924D01*
Y3915D01*
X107030Y3723D01*
X106939Y3559D01*
X106848Y3404D01*
X106748Y3277D01*
X106657Y3177D01*
X106584Y3104D01*
X106538Y3058D01*
X106529Y3040D01*
X106520D01*
X106356Y2922D01*
X106174Y2840D01*
X106001Y2776D01*
X105828Y2739D01*
X105673Y2712D01*
X105609Y2703D01*
X105545D01*
X105500Y2694D01*
X105436D01*
X105245Y2712D01*
X105072Y2748D01*
X104935Y2803D01*
X104826Y2867D01*
X104735Y2931D01*
X104671Y2985D01*
X104634Y3022D01*
X104625Y3040D01*
X104589Y3104D01*
X104552Y3177D01*
X104516Y3331D01*
X104498Y3477D01*
X104507Y3623D01*
X104525Y3751D01*
X104543Y3860D01*
X104552Y3896D01*
X104562Y3924D01*
X104571Y3942D01*
Y3951D01*
X104644Y4142D01*
X104726Y4315D01*
X104817Y4470D01*
X104908Y4616D01*
X104990Y4725D01*
X105054Y4816D01*
X105099Y4871D01*
X105117Y4880D01*
Y4889D01*
X105263Y5044D01*
X105418Y5181D01*
X105564Y5299D01*
X105691Y5399D01*
X105810Y5481D01*
X105901Y5545D01*
X105937Y5563D01*
X105965Y5582D01*
X105974Y5591D01*
X105983D01*
X106110Y5518D01*
D02*
G37*
G36*
X97729Y8524D02*
X97811Y8497D01*
X97884Y8460D01*
X97948Y8415D01*
X98048Y8287D01*
X98112Y8151D01*
X98157Y8005D01*
X98185Y7877D01*
Y7832D01*
X98194Y7795D01*
Y7768D01*
Y7759D01*
Y7604D01*
X98185Y7449D01*
X98139Y7103D01*
X98066Y6757D01*
X97993Y6420D01*
X97948Y6265D01*
X97911Y6119D01*
X97875Y5982D01*
X97838Y5873D01*
X97811Y5782D01*
X97784Y5709D01*
X97775Y5673D01*
X97766Y5655D01*
X97675Y5399D01*
X97583Y5153D01*
X97492Y4926D01*
X97401Y4716D01*
X97310Y4516D01*
X97219Y4343D01*
X97137Y4179D01*
X97064Y4033D01*
X96991Y3905D01*
X96918Y3796D01*
X96864Y3696D01*
X96818Y3614D01*
X96773Y3559D01*
X96745Y3514D01*
X96727Y3486D01*
X96718Y3477D01*
X96618Y3350D01*
X96517Y3231D01*
X96417Y3131D01*
X96317Y3049D01*
X96226Y2976D01*
X96144Y2912D01*
X96062Y2867D01*
X95989Y2821D01*
X95853Y2767D01*
X95752Y2739D01*
X95716D01*
X95688Y2730D01*
X95670D01*
X95588Y2739D01*
X95515Y2767D01*
X95452Y2803D01*
X95388Y2849D01*
X95297Y2967D01*
X95224Y3104D01*
X95178Y3240D01*
X95142Y3359D01*
X95133Y3404D01*
Y3450D01*
X95124Y3468D01*
Y3477D01*
X95114Y3623D01*
Y3787D01*
X95133Y3960D01*
X95151Y4133D01*
X95215Y4498D01*
X95297Y4853D01*
X95333Y5017D01*
X95379Y5162D01*
X95415Y5299D01*
X95452Y5418D01*
X95479Y5518D01*
X95506Y5591D01*
X95515Y5636D01*
X95525Y5655D01*
X95616Y5900D01*
X95698Y6128D01*
X95789Y6347D01*
X95880Y6547D01*
X95971Y6729D01*
X96062Y6903D01*
X96144Y7067D01*
X96226Y7203D01*
X96299Y7331D01*
X96372Y7440D01*
X96426Y7540D01*
X96481Y7613D01*
X96527Y7677D01*
X96554Y7722D01*
X96572Y7750D01*
X96581Y7759D01*
X96691Y7896D01*
X96800Y8014D01*
X96900Y8114D01*
X97000Y8205D01*
X97091Y8278D01*
X97183Y8342D01*
X97264Y8397D01*
X97337Y8433D01*
X97465Y8497D01*
X97556Y8524D01*
X97593D01*
X97620Y8533D01*
X97638D01*
X97729Y8524D01*
D02*
G37*
G36*
X137157Y8524D02*
X137239Y8497D01*
X137312Y8460D01*
X137376Y8415D01*
X137476Y8287D01*
X137540Y8151D01*
X137585Y8005D01*
X137613Y7877D01*
Y7832D01*
X137622Y7795D01*
Y7768D01*
Y7759D01*
Y7604D01*
X137613Y7449D01*
X137567Y7103D01*
X137494Y6757D01*
X137421Y6420D01*
X137376Y6265D01*
X137339Y6119D01*
X137303Y5982D01*
X137267Y5873D01*
X137239Y5782D01*
X137212Y5709D01*
X137203Y5673D01*
X137194Y5655D01*
X137102Y5399D01*
X137011Y5153D01*
X136920Y4926D01*
X136829Y4716D01*
X136738Y4516D01*
X136647Y4343D01*
X136565Y4179D01*
X136492Y4033D01*
X136419Y3905D01*
X136346Y3796D01*
X136292Y3696D01*
X136246Y3614D01*
X136201Y3559D01*
X136173Y3514D01*
X136155Y3486D01*
X136146Y3477D01*
X136046Y3350D01*
X135946Y3231D01*
X135845Y3131D01*
X135745Y3049D01*
X135654Y2976D01*
X135572Y2912D01*
X135490Y2867D01*
X135417Y2821D01*
X135281Y2767D01*
X135180Y2739D01*
X135144D01*
X135117Y2730D01*
X135098D01*
X135016Y2739D01*
X134943Y2767D01*
X134880Y2803D01*
X134816Y2849D01*
X134725Y2967D01*
X134652Y3104D01*
X134606Y3240D01*
X134570Y3359D01*
X134561Y3404D01*
Y3450D01*
X134552Y3468D01*
Y3477D01*
X134543Y3623D01*
Y3787D01*
X134561Y3960D01*
X134579Y4133D01*
X134643Y4498D01*
X134725Y4853D01*
X134761Y5017D01*
X134807Y5163D01*
X134843Y5299D01*
X134880Y5418D01*
X134907Y5518D01*
X134934Y5591D01*
X134943Y5636D01*
X134953Y5655D01*
X135044Y5900D01*
X135126Y6128D01*
X135217Y6347D01*
X135308Y6547D01*
X135399Y6729D01*
X135490Y6903D01*
X135572Y7067D01*
X135654Y7203D01*
X135727Y7331D01*
X135800Y7440D01*
X135854Y7540D01*
X135909Y7613D01*
X135955Y7677D01*
X135982Y7722D01*
X136000Y7750D01*
X136009Y7759D01*
X136119Y7896D01*
X136228Y8014D01*
X136328Y8114D01*
X136428Y8205D01*
X136520Y8278D01*
X136611Y8342D01*
X136693Y8397D01*
X136766Y8433D01*
X136893Y8497D01*
X136984Y8524D01*
X137021D01*
X137048Y8533D01*
X137066D01*
X137157Y8524D01*
D02*
G37*
D10*
X99606Y111712D02*
G03*
X99606Y111712I-492J0D01*
G01*
X18606Y77756D02*
G03*
X18606Y77756I-492J0D01*
G01*
D11*
X106496Y120275D02*
G03*
X106496Y120275I-1181J0D01*
G01*
D12*
X30705Y11518D02*
G03*
X30705Y11518I-5906J0D01*
G01*
X13380Y21360D02*
G03*
X13380Y21360I-394J0D01*
G01*
X55984Y46393D02*
G03*
X55984Y51393I0J2500D01*
G01*
X16850Y49917D02*
G03*
X16850Y49917I-500J0D01*
G01*
X50220Y72626D02*
G03*
X50220Y72626I-500J0D01*
G01*
X198505Y21416D02*
G03*
X198505Y21416I-394J0D01*
G01*
X215830Y11574D02*
G03*
X215830Y11574I-5906J0D01*
G01*
X89071Y162999D02*
X91071Y160999D01*
X89071Y150999D02*
X91071Y152999D01*
X91071Y160999D02*
X91071Y152999D01*
X66071Y150999D02*
Y162999D01*
X81322Y150999D02*
X89071D01*
X81322Y162999D02*
X89071Y162999D01*
X66071Y150999D02*
X75822D01*
X66071Y162999D02*
X75822Y162999D01*
X30308Y1675D02*
Y4431D01*
X27553Y1675D02*
X30308D01*
X27553D02*
X30308Y4432D01*
X14954Y21361D02*
X34639D01*
X14954Y8488D02*
Y14548D01*
Y20889D02*
Y21361D01*
Y1676D02*
Y2147D01*
Y1676D02*
X34639D01*
Y2147D01*
Y20889D02*
Y21361D01*
Y8488D02*
Y14548D01*
X55984Y43893D02*
X75984D01*
Y53893D01*
X55984Y53893D02*
X75984Y53893D01*
X55984Y53893D02*
X55984Y51393D01*
X55984Y46393D02*
X55984Y43893D01*
X2130Y25342D02*
X6630D01*
X2130Y34842D02*
X2130Y36842D01*
X11130Y31342D02*
X11130Y30842D01*
X2130Y25342D02*
Y27342D01*
X2130Y36842D02*
X6630Y36842D01*
X393Y75196D02*
X394Y73031D01*
X393Y59055D02*
X18504D01*
Y73033D02*
Y75193D01*
X393Y61220D02*
X394Y59055D01*
X18504Y61220D02*
X18504Y59055D01*
X393Y75196D02*
X18504Y75196D01*
X15850Y25787D02*
Y46417D01*
X26201Y25787D02*
X27850Y25787D01*
X27850Y46417D02*
X27850Y25787D01*
X15850D02*
X17598D01*
X25850Y46417D02*
X27850Y46417D01*
X25850Y42917D02*
X27165Y42917D01*
X15850Y46417D02*
X17850Y46417D01*
X16535Y42917D02*
X17850Y42917D01*
X20650Y35117D02*
X21850Y37617D01*
X23050Y35417D01*
X21650Y35417D02*
X23050Y35417D01*
X21650Y35417D02*
X21850Y36507D01*
X25591Y73126D02*
X46220Y73126D01*
X25591Y61126D02*
Y62775D01*
Y61126D02*
X46220Y61126D01*
X25590Y71378D02*
X25591Y73126D01*
X46220Y63126D02*
X46220Y61126D01*
X42720Y63126D02*
X42720Y61811D01*
X46220Y71126D02*
X46220Y73126D01*
X42720Y71126D02*
X42720Y72441D01*
X34920Y68326D02*
X37420Y67126D01*
X35220Y65926D02*
X37420Y67126D01*
X35220Y67326D02*
X35220Y65926D01*
X35220Y67326D02*
X36311Y67126D01*
X43209Y-2953D02*
X78642D01*
X43209D02*
Y3420D01*
Y11146D02*
Y18972D01*
X78925Y-2366D02*
Y3433D01*
Y11134D02*
Y18984D01*
X2756Y125825D02*
Y128425D01*
Y121425D02*
Y124025D01*
X-244Y119425D02*
X5656D01*
X-4244Y125525D02*
Y128425D01*
X9756D01*
Y125525D02*
Y128425D01*
X-9888Y130905D02*
X14915D01*
X-9888Y115945D02*
X14915D01*
X-9888Y127625D02*
Y130905D01*
X14915Y127625D02*
Y130905D01*
X-9888Y115945D02*
Y118825D01*
X14915Y115945D02*
Y118825D01*
X2756Y174053D02*
Y176653D01*
X2756Y172253D02*
X2756Y169653D01*
X-244Y167653D02*
X5656D01*
X-4244Y173753D02*
Y176653D01*
X9756D01*
Y173753D02*
Y176653D01*
X-9888Y179134D02*
X14915Y179134D01*
X-9888Y164173D02*
X14915D01*
X-9888Y175853D02*
Y179134D01*
X14915Y179134D02*
X14915Y175853D01*
X-9888Y164173D02*
Y167053D01*
X14915Y164173D02*
Y167053D01*
X2936Y157203D02*
Y159803D01*
Y152803D02*
Y155403D01*
X-64Y150803D02*
X5836D01*
X-4064Y156903D02*
Y159803D01*
X9936Y159803D01*
Y156903D02*
Y159803D01*
X-9708Y162283D02*
X15095D01*
X-9708Y147322D02*
X15095D01*
X-9708Y162283D02*
X-9708Y159003D01*
X15095Y162283D02*
X15095Y159003D01*
X-9708Y147322D02*
Y150203D01*
X15095Y150203D02*
X15095Y147322D01*
X239489Y160118D02*
X239489Y160079D01*
X239489Y154200D02*
X239489Y154160D01*
X239489Y148241D02*
X239489Y148281D01*
X239489Y142322D02*
X239489Y142362D01*
X239489Y136404D02*
X239489Y136444D01*
X239489Y130485D02*
X239489Y130525D01*
X239489Y124566D02*
Y124606D01*
X191068Y99941D02*
X196068Y99941D01*
X196068Y109941D02*
X196068Y99941D01*
X196068Y109941D02*
X201068Y109941D01*
X201068Y99941D01*
X206068Y99941D01*
X206068Y109941D01*
X211068Y109941D01*
Y99941D02*
Y109941D01*
Y99941D02*
X216068D01*
Y109941D01*
X221068D01*
X221068Y99941D01*
X228568Y99941D01*
X228568Y109941D02*
X228568Y99941D01*
X215433Y1732D02*
Y4488D01*
X212677Y1732D02*
X215433D01*
X212677D02*
X215433Y4489D01*
X200079Y21417D02*
X219764D01*
X200079Y8545D02*
Y14605D01*
Y20946D02*
Y21417D01*
Y1732D02*
Y2204D01*
Y1732D02*
X219764D01*
Y2204D01*
Y20946D02*
Y21417D01*
Y8545D02*
Y14605D01*
D13*
X5155Y7542D02*
G03*
X6730Y9116I0J1575D01*
G01*
X-1420Y9116D02*
G03*
X155Y7542I1575J0D01*
G01*
X155Y21479D02*
G03*
X-1420Y19904I0J-1575D01*
G01*
X6730Y19904D02*
G03*
X5155Y21479I-1575J0D01*
G01*
X-16477Y82362D02*
G03*
X-14902Y80787I1575J0D01*
G01*
X-9902Y80787D02*
G03*
X-8327Y82362I-0J1575D01*
G01*
X-8327Y93149D02*
G03*
X-9902Y94724I-1575J0D01*
G01*
X-14902Y94724D02*
G03*
X-16477Y93149I0J-1575D01*
G01*
X1319D02*
G03*
X-256Y94724I-1575J0D01*
G01*
X-5256Y94724D02*
G03*
X-6831Y93149I0J-1575D01*
G01*
Y82362D02*
G03*
X-5256Y80787I1575J0D01*
G01*
X-256Y80787D02*
G03*
X1319Y82362I0J1575D01*
G01*
X59980Y84134D02*
G03*
X58405Y85708I-1575J0D01*
G01*
X53405Y85708D02*
G03*
X51831Y84134I0J-1575D01*
G01*
X51831Y73346D02*
G03*
X53405Y71771I1575J0D01*
G01*
X58405Y71771D02*
G03*
X59980Y73346I0J1575D01*
G01*
X63248Y85708D02*
G03*
X61673Y84134I0J-1575D01*
G01*
X69823Y84134D02*
G03*
X68248Y85708I-1575J0D01*
G01*
X68248Y71771D02*
G03*
X69823Y73346I-0J1575D01*
G01*
X61673Y73346D02*
G03*
X63248Y71771I1575J0D01*
G01*
X94773Y90839D02*
G03*
X93199Y92414I-1575J0D01*
G01*
X88199Y92414D02*
G03*
X86624Y90839I0J-1575D01*
G01*
X86624Y80052D02*
G03*
X88199Y78477I1575J0D01*
G01*
X93199Y78477D02*
G03*
X94773Y80052I0J1575D01*
G01*
X86004Y61732D02*
G03*
X84429Y63307I-1575J0D01*
G01*
X79429Y63307D02*
G03*
X77854Y61732I0J-1575D01*
G01*
X77854Y50945D02*
G03*
X79429Y49370I1575J0D01*
G01*
X84429Y49370D02*
G03*
X86004Y50945I0J1575D01*
G01*
X95650Y61783D02*
G03*
X94075Y63358I-1575J0D01*
G01*
X89075Y63358D02*
G03*
X87500Y61783I0J-1575D01*
G01*
X87500Y50996D02*
G03*
X89075Y49421I1575J0D01*
G01*
X94075D02*
G03*
X95650Y50996I0J1575D01*
G01*
X135325Y90839D02*
G03*
X133750Y92414I-1575J0D01*
G01*
X128750Y92414D02*
G03*
X127175Y90839I0J-1575D01*
G01*
X127175Y80052D02*
G03*
X128750Y78477I1575J0D01*
G01*
X133750Y78477D02*
G03*
X135325Y80052I0J1575D01*
G01*
X3951Y105374D02*
G03*
X5525Y106949I0J1575D01*
G01*
Y111949D02*
G03*
X3951Y113524I-1575J-0D01*
G01*
X-6837D02*
G03*
X-8411Y111949I0J-1575D01*
G01*
X-8411Y106949D02*
G03*
X-6837Y105374I1575J0D01*
G01*
X67028Y135590D02*
G03*
X68603Y134016I1575J0D01*
G01*
X68603Y142165D02*
G03*
X67028Y140590I0J-1575D01*
G01*
X80965Y140590D02*
G03*
X79390Y142165I-1575J-0D01*
G01*
X79390Y134016D02*
G03*
X80965Y135590I0J1575D01*
G01*
X61535Y159500D02*
G03*
X59961Y161074I-1575J0D01*
G01*
X59961Y152925D02*
G03*
X61535Y154500I0J1575D01*
G01*
X47598Y154500D02*
G03*
X49173Y152925I1575J0D01*
G01*
X49173Y161074D02*
G03*
X47598Y159500I0J-1575D01*
G01*
X41067Y150885D02*
G03*
X46227Y150885I2580J0D01*
G01*
X171792Y117283D02*
G03*
X173366Y118858I0J1575D01*
G01*
X165217Y118858D02*
G03*
X166791Y117283I1575J0D01*
G01*
X166791Y131220D02*
G03*
X165217Y129646I0J-1575D01*
G01*
X173366Y129646D02*
G03*
X171792Y131220I-1575J0D01*
G01*
X192342Y7598D02*
G03*
X193917Y9173I0J1575D01*
G01*
X185768Y9173D02*
G03*
X187343Y7598I1575J0D01*
G01*
X187343Y21535D02*
G03*
X185768Y19960I0J-1575D01*
G01*
X193917Y19961D02*
G03*
X192343Y21535I-1575J0D01*
G01*
X150354Y73681D02*
G03*
X151929Y72106I1575J0D01*
G01*
X151929Y80256D02*
G03*
X150354Y78681I0J-1575D01*
G01*
X164291Y78681D02*
G03*
X162716Y80256I-1575J-0D01*
G01*
X162717Y72106D02*
G03*
X164291Y73681I0J1575D01*
G01*
X150315Y64232D02*
G03*
X151890Y62657I1575J0D01*
G01*
X151890Y70807D02*
G03*
X150315Y69232I0J-1575D01*
G01*
X164252D02*
G03*
X162677Y70807I-1575J-0D01*
G01*
X162677Y62657D02*
G03*
X164252Y64232I0J1575D01*
G01*
X209335Y55560D02*
G03*
X207760Y57135I-1575J0D01*
G01*
X202760Y57135D02*
G03*
X201185Y55560I0J-1575D01*
G01*
X201185Y44773D02*
G03*
X202760Y43198I1575J0D01*
G01*
X207760Y43198D02*
G03*
X209335Y44773I0J1575D01*
G01*
X219177Y55560D02*
G03*
X217602Y57135I-1575J0D01*
G01*
X212602Y57135D02*
G03*
X211028Y55560I0J-1575D01*
G01*
X211028Y44773D02*
G03*
X212602Y43198I1575J0D01*
G01*
X217602Y43198D02*
G03*
X219177Y44773I0J1575D01*
G01*
X207697Y27716D02*
G03*
X209272Y29291I0J1575D01*
G01*
X201122Y29291D02*
G03*
X202697Y27716I1575J0D01*
G01*
X202697Y41653D02*
G03*
X201122Y40079I0J-1575D01*
G01*
X209272Y40079D02*
G03*
X207697Y41653I-1575J0D01*
G01*
X217539Y27716D02*
G03*
X219114Y29291I0J1575D01*
G01*
X210965Y29291D02*
G03*
X212539Y27716I1575J0D01*
G01*
X212539Y41653D02*
G03*
X210965Y40078I0J-1575D01*
G01*
X219114Y40079D02*
G03*
X217539Y41653I-1575J0D01*
G01*
X180000Y62657D02*
Y70807D01*
X166063Y62657D02*
Y70807D01*
Y62657D02*
X171260D01*
X174803D02*
X180000D01*
X174803Y70807D02*
X180000D01*
X166063D02*
X171260D01*
X166063Y80256D02*
X171260D01*
X174803D02*
X180000Y80256D01*
X174803Y72106D02*
X180000D01*
X166063D02*
X171260D01*
X166063D02*
Y80256D01*
X180000Y80256D02*
X180000Y72106D01*
X78858Y109587D02*
X84055D01*
X87598D02*
X92795D01*
X87598Y101437D02*
X92795D01*
X78858D02*
X84055D01*
X78858D02*
X78858Y109587D01*
X92795Y101437D02*
Y109587D01*
X101378Y116338D02*
X123819D01*
X101378Y138779D02*
X123819D01*
X101378Y116338D02*
Y138779D01*
X123819Y116338D02*
Y138779D01*
X6730Y16282D02*
Y19904D01*
Y9116D02*
Y12739D01*
X-1420Y9116D02*
X-1420Y12739D01*
X155Y7542D02*
X5155D01*
X-1420Y19904D02*
X-1420Y16282D01*
X155Y21479D02*
X5155D01*
X-14902Y80787D02*
X-9902D01*
X-8327Y85984D02*
X-8327Y82362D01*
X-14902Y94724D02*
X-9902Y94724D01*
X-8327Y89527D02*
Y93149D01*
X-16477Y89527D02*
X-16477Y93149D01*
X-16477Y82362D02*
X-16477Y85984D01*
X-5256Y94724D02*
X-256Y94724D01*
X-6831Y93149D02*
X-6831Y89527D01*
X-5256Y80787D02*
X-256Y80787D01*
X-6831Y82362D02*
Y85984D01*
X1319Y82362D02*
X1319Y85984D01*
X1319Y93149D02*
X1319Y89527D01*
X9614Y78149D02*
X13583D01*
X9614Y90354D02*
X13583D01*
Y78149D02*
Y90354D01*
X9614Y78149D02*
Y90354D01*
X21712Y82716D02*
X21712Y77519D01*
X21712Y91456D02*
X21712Y86260D01*
X29862D02*
Y91456D01*
Y77519D02*
Y82716D01*
X21712Y77519D02*
X29862Y77519D01*
X21712Y91456D02*
X29862Y91456D01*
X53405Y85708D02*
X58405Y85708D01*
X51831Y84134D02*
X51831Y80511D01*
X53405Y71771D02*
X58405D01*
X51831Y73346D02*
Y76968D01*
X59980Y73346D02*
X59980Y76968D01*
Y80512D02*
X59980Y84134D01*
X61673Y73346D02*
X61673Y76968D01*
X61673Y80512D02*
X61673Y84134D01*
X69823Y80511D02*
Y84134D01*
X63248Y85708D02*
X68248Y85708D01*
X69823Y76968D02*
X69823Y73346D01*
X63248Y71771D02*
X68248D01*
X88199Y92414D02*
X93199D01*
X86624Y87217D02*
X86624Y90839D01*
X88199Y78477D02*
X93199Y78477D01*
X86624Y80052D02*
X86624Y83674D01*
X94773Y80052D02*
Y83674D01*
Y87217D02*
Y90839D01*
X79429Y63307D02*
X84429D01*
X77854Y61732D02*
X77854Y58110D01*
X79429Y49370D02*
X84429D01*
X77854Y50945D02*
Y54567D01*
X86004Y50945D02*
X86004Y54567D01*
X86004Y61732D02*
X86004Y58110D01*
X89075Y63358D02*
X94075Y63358D01*
X87500Y61783D02*
X87500Y58161D01*
X89075Y49421D02*
X94075Y49421D01*
X87500Y50996D02*
X87500Y54618D01*
X95650Y50996D02*
X95650Y54618D01*
Y58161D02*
Y61783D01*
X128750Y92414D02*
X133750Y92414D01*
X127175Y87217D02*
X127175Y90839D01*
X128750Y78477D02*
X133750Y78477D01*
X127175Y80052D02*
X127175Y83674D01*
X135325Y80052D02*
X135325Y83674D01*
X135325Y87217D02*
Y90839D01*
X3307Y100531D02*
X8504D01*
X12047D02*
X17244Y100531D01*
X12047Y92382D02*
X17244D01*
X3307Y92382D02*
X8504Y92382D01*
X3307Y92382D02*
X3307Y100531D01*
X17244Y100531D02*
X17244Y92382D01*
X39134Y40610D02*
X44331D01*
X30394D02*
X35590D01*
X30394Y48760D02*
X35590D01*
X39134D02*
X44331D01*
X44331Y40610D02*
X44331Y48760D01*
X30394D02*
X30394Y40610D01*
X29764Y23878D02*
X37913Y23878D01*
X29764Y37815D02*
X37913D01*
X29764D02*
X29764Y32618D01*
Y23878D02*
Y29074D01*
X37913Y23878D02*
Y29074D01*
Y32618D02*
Y37815D01*
X39468Y86260D02*
Y91456D01*
Y82716D02*
X39468Y77519D01*
X31319Y77519D02*
X31319Y82716D01*
X31319Y86260D02*
Y91456D01*
X39468D01*
X31319Y77519D02*
X39468Y77519D01*
X117746Y85159D02*
X117746Y77009D01*
X103809Y85159D02*
X103809Y77009D01*
X109006D01*
X112549Y77009D02*
X117746Y77009D01*
X112549Y85159D02*
X117746D01*
X103809Y85159D02*
X109006Y85159D01*
X105305Y58170D02*
Y63367D01*
Y49430D02*
Y54627D01*
X97155Y49430D02*
Y54627D01*
Y58170D02*
Y63367D01*
X105305Y63367D01*
X97155Y49430D02*
X105305Y49430D01*
X115482Y49430D02*
X123631D01*
X115482Y63367D02*
X123631D01*
X115482Y58170D02*
Y63367D01*
Y49430D02*
Y54627D01*
X123631D02*
X123631Y49430D01*
X123631Y63367D02*
X123631Y58170D01*
X30394Y58602D02*
X35590D01*
X39134D02*
X44331D01*
X39134Y50453D02*
X44331D01*
X30394D02*
X35590D01*
X30394D02*
X30394Y58602D01*
X44331D02*
X44331Y50453D01*
X-15236Y140886D02*
X-15236Y132736D01*
X-1299D02*
X-1299Y140886D01*
X-6496D02*
X-1299D01*
X-15236D02*
X-10040D01*
X-15236Y132736D02*
X-10040Y132736D01*
X-6496D02*
X-1299Y132736D01*
X1056Y140886D02*
X1056Y132736D01*
X14993D02*
X14993Y140886D01*
X9796D02*
X14993D01*
X1056D02*
X6253D01*
X1056Y132736D02*
X6253Y132736D01*
X9796D02*
X14993Y132736D01*
X7441Y113524D02*
X12638D01*
X16181D02*
X21378Y113524D01*
X16181Y105374D02*
X21378Y105374D01*
X7441Y105374D02*
X12638Y105374D01*
X7441Y105374D02*
Y113524D01*
X21378Y105374D02*
X21378Y113524D01*
X5525Y106949D02*
X5525Y111949D01*
X329Y113524D02*
X3951Y113524D01*
X-8411Y111949D02*
X-8411Y106949D01*
X-6837Y113524D02*
X-3215Y113524D01*
X-6837Y105374D02*
X-3215Y105374D01*
X329Y105374D02*
X3951Y105374D01*
X33472Y107736D02*
Y115886D01*
X47409Y107736D02*
Y115886D01*
X42212D02*
X47409D01*
X33472D02*
X38669D01*
X33472Y107736D02*
X38669Y107736D01*
X42212D02*
X47409D01*
X75768Y134016D02*
X79390D01*
X68603D02*
X72225D01*
X68603Y142165D02*
X72225Y142165D01*
X67028Y135590D02*
Y140590D01*
X75768Y142165D02*
X79390Y142165D01*
X80965Y135590D02*
Y140590D01*
X49173Y161074D02*
X52795D01*
X56339D02*
X59961D01*
X56339Y152925D02*
X59961D01*
X61535Y154500D02*
Y159500D01*
X49173Y152925D02*
X52795D01*
X47598Y154500D02*
Y159500D01*
X35517Y150885D02*
X41067D01*
X46227D02*
X51777D01*
Y117618D02*
Y150885D01*
X35517Y117618D02*
X51777D01*
X35517D02*
Y150885D01*
X221004Y43071D02*
X229153Y43071D01*
X221004Y57008D02*
X229153Y57008D01*
X221004Y51811D02*
Y57008D01*
Y43071D02*
Y48267D01*
X229153Y43071D02*
Y48267D01*
Y51811D02*
X229153Y57008D01*
X173366Y129646D02*
X173366Y126023D01*
Y118858D02*
X173366Y122480D01*
X165217Y118858D02*
X165217Y122480D01*
X166791Y117283D02*
X171792Y117283D01*
X165217Y129646D02*
X165217Y126023D01*
X166791Y131220D02*
X171792D01*
X165217Y132795D02*
X173366D01*
X165217Y146732D02*
X173366Y146732D01*
X165217Y141535D02*
X165217Y146732D01*
X165217Y132795D02*
Y137992D01*
X173366Y132795D02*
Y137992D01*
Y141535D02*
X173366Y146732D01*
X157244Y40985D02*
X157244Y32835D01*
X143307D02*
Y40985D01*
Y32835D02*
X148504D01*
X152047D02*
X157244D01*
X152047Y40985D02*
X157244D01*
X143307D02*
X148504D01*
X193917Y16338D02*
Y19961D01*
Y9173D02*
Y12795D01*
X185768Y9173D02*
X185768Y12795D01*
X187343Y7598D02*
X192342D01*
X185768Y19960D02*
X185768Y16338D01*
X187343Y21535D02*
X192342D01*
X182206Y169016D02*
X184568Y169016D01*
X239489Y166058D02*
X239489Y167598D01*
X239489Y109842D02*
X239489Y91850D01*
X180670Y167598D02*
X180670Y166058D01*
X180670Y91850D02*
X239489D01*
X180670Y119803D02*
X180670Y91850D01*
Y124605D02*
X180670Y124645D01*
X180670Y130524D02*
X180670Y130564D01*
X180670Y136482D02*
X180670Y136442D01*
X180670Y142401D02*
X180670Y142361D01*
X180670Y148320D02*
X180670Y148280D01*
X180670Y154199D02*
X180670Y154238D01*
X180670Y160117D02*
X180670Y160157D01*
X235710Y169016D02*
X238072Y169016D01*
X192324Y169252D02*
X192364Y169252D01*
X198242Y169252D02*
X198282Y169252D01*
X204161Y169252D02*
X204201Y169252D01*
X210080Y169252D02*
X210120Y169252D01*
X215999D02*
X216039Y169252D01*
X221917Y169252D02*
X221957Y169252D01*
X227836Y169252D02*
X227876D01*
X159095Y72106D02*
X162717D01*
X151929D02*
X155551D01*
X151929Y80256D02*
X155551D01*
X150354Y73681D02*
Y78681D01*
X159095Y80256D02*
X162716D01*
X164291Y73681D02*
Y78681D01*
X159055Y62657D02*
X162677D01*
X151890Y62657D02*
X155512Y62657D01*
X151890Y70807D02*
X155512D01*
X150315Y64232D02*
X150315Y69232D01*
X159055Y70807D02*
X162677D01*
X164252Y69232D02*
X164252Y64232D01*
X202760Y57135D02*
X207760D01*
X201185Y55560D02*
X201185Y51938D01*
X202760Y43198D02*
X207760D01*
X201185Y44773D02*
X201185Y48395D01*
X209335Y44773D02*
Y48395D01*
Y51938D02*
Y55560D01*
X212602Y57135D02*
X217602D01*
X211028Y55560D02*
X211028Y51938D01*
X212602Y43198D02*
X217602D01*
X211028Y44773D02*
X211028Y48395D01*
X219177Y44773D02*
Y48395D01*
Y51938D02*
Y55560D01*
X209272Y36457D02*
Y40079D01*
Y29291D02*
Y32913D01*
X201122Y29291D02*
X201122Y32913D01*
X202697Y27716D02*
X207697D01*
X201122Y40079D02*
X201122Y36457D01*
X202697Y41653D02*
X207697D01*
X219114Y36457D02*
Y40079D01*
Y29291D02*
Y32913D01*
X210965Y29291D02*
X210965Y32913D01*
X212539Y27716D02*
X217539D01*
X210965Y36457D02*
Y40078D01*
X212539Y41653D02*
X217539D01*
X221004Y27716D02*
X229153D01*
X221004Y41653D02*
X229153D01*
X221004Y36457D02*
Y41653D01*
Y27716D02*
Y32913D01*
X229153D02*
X229153Y27716D01*
X229153Y36457D02*
Y41653D01*
D14*
X29187Y151968D02*
G03*
X29187Y151968I-500J0D01*
G01*
D15*
X161324Y191870D02*
G03*
X161324Y191870I-591J0D01*
G01*
X154032Y190553D02*
G03*
X154032Y190553I-591J0D01*
G01*
X128598Y198034D02*
G03*
X128598Y198034I-591J0D01*
G01*
X135891Y199350D02*
G03*
X135891Y199350I-591J0D01*
G01*
X57855Y186657D02*
G03*
X57855Y186657I-591J0D01*
G01*
X63512Y191444D02*
G03*
X63512Y191444I-591J0D01*
G01*
X105628Y201763D02*
G03*
X105628Y201763I-591J0D01*
G01*
X112331Y204922D02*
G03*
X112331Y204922I-591J0D01*
G01*
X82658Y194138D02*
G03*
X82658Y194138I-591J0D01*
G01*
X88315Y198924D02*
G03*
X88315Y198924I-591J0D01*
G01*
D16*
X240518Y113421D02*
G03*
X240518Y113421I-984J0D01*
G01*
D17*
X19850Y34862D02*
X21850Y38362D01*
X19850Y34862D02*
X23850D01*
X21850Y38362D02*
X23850Y34862D01*
X19850Y38362D02*
X23850D01*
X34665Y69126D02*
X38165Y67126D01*
X34665Y65126D02*
Y69126D01*
Y65126D02*
X38165Y67126D01*
X38165Y65126D02*
Y69126D01*
D18*
X113717Y62460D02*
Y63460D01*
X106717Y62460D02*
Y63460D01*
X132043Y62460D02*
Y63460D01*
X125043Y62460D02*
Y63460D01*
X230791Y57850D02*
Y58850D01*
X237791Y57850D02*
Y58850D01*
X237870Y26874D02*
X237870Y25874D01*
X230870D02*
Y26874D01*
D19*
X106717Y62460D02*
X113717Y62460D01*
X106717Y58460D02*
Y62460D01*
Y63460D02*
X113717D01*
X106717Y48260D02*
Y52460D01*
Y48260D02*
X113717D01*
X113717Y58460D02*
Y62460D01*
X113717Y48460D02*
X113717Y52460D01*
X125043Y62460D02*
X132043Y62460D01*
X125043Y58460D02*
X125043Y62460D01*
Y63460D02*
X132043D01*
X125043Y48260D02*
Y52460D01*
Y48260D02*
X132043D01*
X132043Y58460D02*
Y62460D01*
X132043Y48460D02*
X132043Y52460D01*
X237791Y43850D02*
Y47850D01*
Y53850D02*
Y57850D01*
X230791Y43649D02*
X237791D01*
X230791D02*
Y47850D01*
Y58850D02*
X237791D01*
X230791Y53850D02*
Y57850D01*
X237791D01*
X189342Y28649D02*
Y30649D01*
X198343Y34149D02*
Y34649D01*
X189342Y38149D02*
Y40149D01*
Y28649D02*
X193842Y28649D01*
X189342Y40149D02*
X193842D01*
X170736Y36910D02*
Y38910D01*
X161736Y32910D02*
Y33410D01*
X170736Y27410D02*
Y29410D01*
X166236Y38910D02*
X170736D01*
X166236Y27410D02*
X170736D01*
X157364Y190739D02*
X160599Y202813D01*
X157364Y190739D02*
X158415Y188919D01*
X164291Y187344D01*
X167911Y200854D01*
X160599Y202813D02*
X167911Y200854D01*
X189342Y44041D02*
Y46042D01*
X198343Y49542D02*
Y50042D01*
X189342Y53541D02*
Y55541D01*
Y44041D02*
X193842D01*
X189342Y55541D02*
X193842D01*
X230870Y36874D02*
Y40874D01*
Y26874D02*
Y30874D01*
Y41075D02*
X237870D01*
Y36874D02*
Y41075D01*
X230870Y25874D02*
X237870D01*
X237870Y26874D02*
Y30874D01*
X230870Y26874D02*
X237870D01*
X135166Y210293D02*
X142478Y208334D01*
X138858Y194825D02*
X142478Y208334D01*
X132982Y196399D02*
X138858Y194825D01*
X131931Y198220D02*
X132982Y196399D01*
X131931Y198220D02*
X135166Y210293D01*
X57333Y200854D02*
X64645Y202813D01*
X68265Y189304D01*
X62389Y187729D02*
X68265Y189304D01*
X60569Y188780D02*
X62389Y187729D01*
X57333Y200854D02*
X60569Y188780D01*
X108778Y215458D02*
X116348Y215458D01*
Y201471D02*
Y215458D01*
X110265Y201471D02*
X116348Y201471D01*
X108778Y202958D02*
X110265Y201471D01*
X108778Y202958D02*
X108778Y215458D01*
X82137Y208334D02*
X89448Y210293D01*
X93068Y196784D01*
X87192Y195209D02*
X93068Y196784D01*
X85372Y196260D02*
X87192Y195209D01*
X82137Y208334D02*
X85372Y196260D01*
D20*
X178819Y36810D02*
Y33530D01*
X179475Y32874D01*
X180787D01*
X181443Y33530D01*
Y36810D01*
X185378D02*
X182755D01*
Y34842D01*
X184066Y35498D01*
X184722D01*
X185378Y34842D01*
Y33530D01*
X184722Y32874D01*
X183411D01*
X182755Y33530D01*
X-1116Y185169D02*
X-1772Y185826D01*
X-3084D01*
X-3740Y185169D01*
Y182546D01*
X-3084Y181890D01*
X-1772D01*
X-1116Y182546D01*
Y183858D01*
X-2428D01*
X196Y181890D02*
Y185826D01*
X2819Y181890D01*
Y185826D01*
X4131D02*
Y181890D01*
X6099D01*
X6755Y182546D01*
Y185169D01*
X6099Y185826D01*
X4131D01*
X22899Y185169D02*
X22243Y185826D01*
X20932D01*
X20276Y185169D01*
Y182546D01*
X20932Y181890D01*
X22243D01*
X22899Y182546D01*
X24211Y185826D02*
Y181890D01*
X26835D01*
X28147Y185826D02*
Y181890D01*
Y183202D01*
X30771Y185826D01*
X28803Y183858D01*
X30771Y181890D01*
X8465Y185826D02*
Y181890D01*
X10432D01*
X11088Y182546D01*
Y185169D01*
X10432Y185826D01*
X8465D01*
X12400D02*
X13712D01*
X13056D01*
Y181890D01*
X12400D01*
X13712D01*
X17648Y185826D02*
X16336D01*
X15680Y185169D01*
Y182546D01*
X16336Y181890D01*
X17648D01*
X18304Y182546D01*
Y185169D01*
X17648Y185826D01*
X-16010Y117847D02*
X-16666Y118503D01*
X-17978D01*
X-18634Y117847D01*
Y117191D01*
X-17978Y116535D01*
X-16666D01*
X-16010Y115879D01*
Y115224D01*
X-16666Y114568D01*
X-17978D01*
X-18634Y115224D01*
X-12075Y114568D02*
X-14698D01*
X-12075Y117191D01*
Y117847D01*
X-12731Y118503D01*
X-14042D01*
X-14698Y117847D01*
X-15486Y150130D02*
X-16142Y150786D01*
X-17454D01*
X-18110Y150130D01*
Y149474D01*
X-17454Y148818D01*
X-16142D01*
X-15486Y148162D01*
Y147506D01*
X-16142Y146850D01*
X-17454D01*
X-18110Y147506D01*
X-14175Y150130D02*
X-13519Y150786D01*
X-12207D01*
X-11551Y150130D01*
Y149474D01*
X-12207Y148818D01*
X-12863D01*
X-12207D01*
X-11551Y148162D01*
Y147506D01*
X-12207Y146850D01*
X-13519D01*
X-14175Y147506D01*
X-14502Y165288D02*
X-15158Y165944D01*
X-16470D01*
X-17126Y165288D01*
Y164632D01*
X-16470Y163976D01*
X-15158D01*
X-14502Y163320D01*
Y162664D01*
X-15158Y162008D01*
X-16470D01*
X-17126Y162664D01*
X-13190Y162008D02*
X-11878D01*
X-12534D01*
Y165944D01*
X-13190Y165288D01*
X22244Y102953D02*
Y106888D01*
X24212D01*
X24868Y106233D01*
Y104921D01*
X24212Y104265D01*
X22244D01*
X23556D02*
X24868Y102953D01*
X28804D02*
X26180D01*
X28804Y105577D01*
Y106233D01*
X28148Y106888D01*
X26836D01*
X26180Y106233D01*
X30116D02*
X30771Y106888D01*
X32083D01*
X32739Y106233D01*
Y105577D01*
X32083Y104921D01*
X32739Y104265D01*
Y103609D01*
X32083Y102953D01*
X30771D01*
X30116Y103609D01*
Y104265D01*
X30771Y104921D01*
X30116Y105577D01*
Y106233D01*
X30771Y104921D02*
X32083D01*
X-15290Y104264D02*
X-15946Y104920D01*
X-17257D01*
X-17913Y104264D01*
Y101640D01*
X-17257Y100984D01*
X-15946D01*
X-15290Y101640D01*
X-11354Y100984D02*
X-13978D01*
X-11354Y103608D01*
Y104264D01*
X-12010Y104920D01*
X-13322D01*
X-13978Y104264D01*
X-7418Y104920D02*
X-8730Y104264D01*
X-10042Y102952D01*
Y101640D01*
X-9386Y100984D01*
X-8074D01*
X-7418Y101640D01*
Y102296D01*
X-8074Y102952D01*
X-10042D01*
X168307Y81299D02*
Y85235D01*
X170275D01*
X170931Y84579D01*
Y83267D01*
X170275Y82611D01*
X168307D01*
X169619D02*
X170931Y81299D01*
X174211D02*
Y85235D01*
X172243Y83267D01*
X174867D01*
X176179Y81299D02*
X177490D01*
X176834D01*
Y85235D01*
X176179Y84579D01*
X55118Y7085D02*
Y3805D01*
X55774Y3149D01*
X57086D01*
X57742Y3805D01*
Y7085D01*
X61678Y6429D02*
X61022Y7085D01*
X59710D01*
X59054Y6429D01*
Y5773D01*
X59710Y5117D01*
X61022D01*
X61678Y4461D01*
Y3805D01*
X61022Y3149D01*
X59710D01*
X59054Y3805D01*
X62989Y7085D02*
Y3149D01*
X64957D01*
X65613Y3805D01*
Y4461D01*
X64957Y5117D01*
X62989D01*
X64957D01*
X65613Y5773D01*
Y6429D01*
X64957Y7085D01*
X62989D01*
X23089Y157872D02*
Y154593D01*
X23745Y153937D01*
X25057D01*
X25713Y154593D01*
Y157872D01*
X27024Y153937D02*
X28337D01*
X27681D01*
Y157872D01*
X27024Y157217D01*
X30304D02*
X30960Y157872D01*
X32272D01*
X32928Y157217D01*
Y154593D01*
X32272Y153937D01*
X30960D01*
X30304Y154593D01*
Y157217D01*
X1850Y5747D02*
Y2467D01*
X2506Y1811D01*
X3818D01*
X4474Y2467D01*
Y5747D01*
X5786Y2467D02*
X6442Y1811D01*
X7754D01*
X8410Y2467D01*
Y5091D01*
X7754Y5747D01*
X6442D01*
X5786Y5091D01*
Y4435D01*
X6442Y3779D01*
X8410D01*
X92520Y145274D02*
Y141994D01*
X93176Y141338D01*
X94488D01*
X95144Y141994D01*
Y145274D01*
X96455Y144618D02*
X97111Y145274D01*
X98423D01*
X99079Y144618D01*
Y143962D01*
X98423Y143306D01*
X99079Y142650D01*
Y141994D01*
X98423Y141338D01*
X97111D01*
X96455Y141994D01*
Y142650D01*
X97111Y143306D01*
X96455Y143962D01*
Y144618D01*
X97111Y143306D02*
X98423D01*
X222776Y13069D02*
Y9789D01*
X223432Y9133D01*
X224744D01*
X225399Y9789D01*
Y13069D01*
X226711D02*
X229335D01*
Y12413D01*
X226711Y9789D01*
Y9133D01*
X179374Y52330D02*
Y49051D01*
X180030Y48395D01*
X181342D01*
X181998Y49051D01*
Y52330D01*
X185934D02*
X184622Y51674D01*
X183310Y50362D01*
Y49051D01*
X183966Y48395D01*
X185278D01*
X185934Y49051D01*
Y49707D01*
X185278Y50362D01*
X183310D01*
X-8071Y79132D02*
Y75853D01*
X-7415Y75197D01*
X-6103D01*
X-5447Y75853D01*
Y79132D01*
X-4135Y78476D02*
X-3479Y79132D01*
X-2167D01*
X-1511Y78476D01*
Y77820D01*
X-2167Y77165D01*
X-2823D01*
X-2167D01*
X-1511Y76508D01*
Y75853D01*
X-2167Y75197D01*
X-3479D01*
X-4135Y75853D01*
X191457Y178699D02*
Y175420D01*
X192113Y174764D01*
X193425D01*
X194081Y175420D01*
Y178699D01*
X198017Y174764D02*
X195393D01*
X198017Y177387D01*
Y178043D01*
X197361Y178699D01*
X196049D01*
X195393Y178043D01*
X49409Y51180D02*
Y47900D01*
X50065Y47244D01*
X51377D01*
X52033Y47900D01*
Y51180D01*
X53345Y47244D02*
X54657D01*
X54001D01*
Y51180D01*
X53345Y50524D01*
X35394Y102205D02*
Y106140D01*
X37362D01*
X38017Y105484D01*
Y104173D01*
X37362Y103517D01*
X35394D01*
X36706D02*
X38017Y102205D01*
X41297D02*
Y106140D01*
X39329Y104173D01*
X41953D01*
X45889Y106140D02*
X44577Y105484D01*
X43265Y104173D01*
Y102861D01*
X43921Y102205D01*
X45233D01*
X45889Y102861D01*
Y103517D01*
X45233Y104173D01*
X43265D01*
X167756Y57677D02*
Y61613D01*
X169724D01*
X170380Y60957D01*
Y59645D01*
X169724Y58989D01*
X167756D01*
X169068D02*
X170380Y57677D01*
X171692Y60957D02*
X172348Y61613D01*
X173660D01*
X174316Y60957D01*
Y60301D01*
X173660Y59645D01*
X173004D01*
X173660D01*
X174316Y58989D01*
Y58333D01*
X173660Y57677D01*
X172348D01*
X171692Y58333D01*
X175627Y60957D02*
X176283Y61613D01*
X177595D01*
X178251Y60957D01*
Y60301D01*
X177595Y59645D01*
X178251Y58989D01*
Y58333D01*
X177595Y57677D01*
X176283D01*
X175627Y58333D01*
Y58989D01*
X176283Y59645D01*
X175627Y60301D01*
Y60957D01*
X176283Y59645D02*
X177595D01*
X105659Y71832D02*
Y75768D01*
X107627D01*
X108283Y75112D01*
Y73800D01*
X107627Y73144D01*
X105659D01*
X106971D02*
X108283Y71832D01*
X109595Y75112D02*
X110251Y75768D01*
X111563D01*
X112219Y75112D01*
Y74456D01*
X111563Y73800D01*
X110907D01*
X111563D01*
X112219Y73144D01*
Y72488D01*
X111563Y71832D01*
X110251D01*
X109595Y72488D01*
X116155Y75768D02*
X113531D01*
Y73800D01*
X114843Y74456D01*
X115499D01*
X116155Y73800D01*
Y72488D01*
X115499Y71832D01*
X114187D01*
X113531Y72488D01*
X-11772Y141929D02*
Y145865D01*
X-9804D01*
X-9148Y145209D01*
Y143897D01*
X-9804Y143241D01*
X-11772D01*
X-10460D02*
X-9148Y141929D01*
X-5212D02*
X-7836D01*
X-5212Y144553D01*
Y145209D01*
X-5868Y145865D01*
X-7180D01*
X-7836Y145209D01*
X-3900Y145865D02*
X-1276D01*
Y145209D01*
X-3900Y142585D01*
Y141929D01*
X144685Y42579D02*
Y46515D01*
X146653D01*
X147309Y45859D01*
Y44547D01*
X146653Y43891D01*
X144685D01*
X145997D02*
X147309Y42579D01*
X151245D02*
X148621D01*
X151245Y45203D01*
Y45859D01*
X150589Y46515D01*
X149277D01*
X148621Y45859D01*
X152557D02*
X153212Y46515D01*
X154524D01*
X155180Y45859D01*
Y43235D01*
X154524Y42579D01*
X153212D01*
X152557Y43235D01*
Y45859D01*
X3740Y141929D02*
Y145865D01*
X5708D01*
X6364Y145209D01*
Y143897D01*
X5708Y143241D01*
X3740D01*
X5052D02*
X6364Y141929D01*
X7676D02*
X8988D01*
X8332D01*
Y145865D01*
X7676Y145209D01*
X10956Y142585D02*
X11611Y141929D01*
X12923D01*
X13579Y142585D01*
Y145209D01*
X12923Y145865D01*
X11611D01*
X10956Y145209D01*
Y144553D01*
X11611Y143897D01*
X13579D01*
X74567Y95866D02*
Y99802D01*
X76535D01*
X77191Y99146D01*
Y97834D01*
X76535Y97178D01*
X74567D01*
X75879D02*
X77191Y95866D01*
X78503D02*
X79815D01*
X79159D01*
Y99802D01*
X78503Y99146D01*
X81782D02*
X82438Y99802D01*
X83750D01*
X84406Y99146D01*
Y98490D01*
X83750Y97834D01*
X84406Y97178D01*
Y96522D01*
X83750Y95866D01*
X82438D01*
X81782Y96522D01*
Y97178D01*
X82438Y97834D01*
X81782Y98490D01*
Y99146D01*
X82438Y97834D02*
X83750D01*
X45315Y38898D02*
Y42833D01*
X47283D01*
X47939Y42177D01*
Y40865D01*
X47283Y40210D01*
X45315D01*
X46627D02*
X47939Y38898D01*
X49251D02*
X50563D01*
X49907D01*
Y42833D01*
X49251Y42177D01*
X55154Y42833D02*
X52530D01*
Y40865D01*
X53842Y41521D01*
X54498D01*
X55154Y40865D01*
Y39554D01*
X54498Y38898D01*
X53186D01*
X52530Y39554D01*
X220354Y58583D02*
Y62518D01*
X222322D01*
X222978Y61862D01*
Y60550D01*
X222322Y59894D01*
X220354D01*
X221666D02*
X222978Y58583D01*
X224290D02*
X225602D01*
X224946D01*
Y62518D01*
X224290Y61862D01*
X229538Y58583D02*
Y62518D01*
X227570Y60550D01*
X230194D01*
X221142Y22126D02*
Y26061D01*
X223110D01*
X223766Y25406D01*
Y24094D01*
X223110Y23438D01*
X221142D01*
X222454D02*
X223766Y22126D01*
X225078D02*
X226389D01*
X225733D01*
Y26061D01*
X225078Y25406D01*
X230981Y22126D02*
X228357D01*
X230981Y24750D01*
Y25406D01*
X230325Y26061D01*
X229013D01*
X228357Y25406D01*
X45590Y55905D02*
Y59841D01*
X47558D01*
X48214Y59185D01*
Y57873D01*
X47558Y57217D01*
X45590D01*
X46902D02*
X48214Y55905D01*
X49526D02*
X50838D01*
X50182D01*
Y59841D01*
X49526Y59185D01*
X52806D02*
X53462Y59841D01*
X54774D01*
X55430Y59185D01*
Y56561D01*
X54774Y55905D01*
X53462D01*
X52806Y56561D01*
Y59185D01*
X39497Y31574D02*
Y35509D01*
X41465D01*
X42121Y34854D01*
Y33542D01*
X41465Y32886D01*
X39497D01*
X40809D02*
X42121Y31574D01*
X43433Y35509D02*
X46056D01*
Y34854D01*
X43433Y32230D01*
Y31574D01*
X97884Y64295D02*
Y68231D01*
X99852D01*
X100507Y67575D01*
Y66263D01*
X99852Y65607D01*
X97884D01*
X99196D02*
X100507Y64295D01*
X104443Y68231D02*
X103131Y67575D01*
X101819Y66263D01*
Y64951D01*
X102475Y64295D01*
X103787D01*
X104443Y64951D01*
Y65607D01*
X103787Y66263D01*
X101819D01*
X18256Y97441D02*
Y101377D01*
X20224D01*
X20880Y100721D01*
Y99409D01*
X20224Y98753D01*
X18256D01*
X19568D02*
X20880Y97441D01*
X24815Y101377D02*
X22192D01*
Y99409D01*
X23503Y100065D01*
X24159D01*
X24815Y99409D01*
Y98097D01*
X24159Y97441D01*
X22848D01*
X22192Y98097D01*
X116604Y64295D02*
Y68231D01*
X118572D01*
X119228Y67575D01*
Y66263D01*
X118572Y65607D01*
X116604D01*
X117916D02*
X119228Y64295D01*
X122507D02*
Y68231D01*
X120539Y66263D01*
X123163D01*
X23228Y92323D02*
Y96258D01*
X25196D01*
X25852Y95602D01*
Y94290D01*
X25196Y93634D01*
X23228D01*
X24540D02*
X25852Y92323D01*
X27164Y95602D02*
X27820Y96258D01*
X29132D01*
X29788Y95602D01*
Y94946D01*
X29132Y94290D01*
X28476D01*
X29132D01*
X29788Y93634D01*
Y92979D01*
X29132Y92323D01*
X27820D01*
X27164Y92979D01*
X156890Y137402D02*
Y141337D01*
X158858D01*
X159514Y140681D01*
Y139369D01*
X158858Y138714D01*
X156890D01*
X158202D02*
X159514Y137402D01*
X163449D02*
X160826D01*
X163449Y140025D01*
Y140681D01*
X162793Y141337D01*
X161481D01*
X160826Y140681D01*
X33228Y92559D02*
Y96495D01*
X35196D01*
X35852Y95839D01*
Y94527D01*
X35196Y93871D01*
X33228D01*
X34540D02*
X35852Y92559D01*
X37164D02*
X38476D01*
X37820D01*
Y96495D01*
X37164Y95839D01*
X164136Y40903D02*
Y43527D01*
X163480Y44183D01*
X162168D01*
X161512Y43527D01*
Y40903D01*
X162168Y40247D01*
X163480D01*
X162824Y41559D02*
X164136Y40247D01*
X163480D02*
X164136Y40903D01*
X168071Y40247D02*
X165448D01*
X168071Y42871D01*
Y43527D01*
X167415Y44183D01*
X166103D01*
X165448Y43527D01*
X3017Y38998D02*
Y41622D01*
X2361Y42278D01*
X1049D01*
X393Y41622D01*
Y38998D01*
X1049Y38342D01*
X2361D01*
X1705Y39654D02*
X3017Y38342D01*
X2361D02*
X3017Y38998D01*
X4329Y38342D02*
X5641D01*
X4985D01*
Y42278D01*
X4329Y41622D01*
X-8268Y69093D02*
Y65157D01*
X-5644D01*
X-4332D02*
X-3020D01*
X-3676D01*
Y69093D01*
X-4332Y68437D01*
X161969Y208266D02*
Y204330D01*
X163936D01*
X164592Y204987D01*
Y207610D01*
X163936Y208266D01*
X161969D01*
X165904Y204330D02*
X167216D01*
X166560D01*
Y208266D01*
X165904Y207610D01*
X169184Y204330D02*
X170496D01*
X169840D01*
Y208266D01*
X169184Y207610D01*
X144606Y212794D02*
Y208858D01*
X146574D01*
X147230Y209514D01*
Y212138D01*
X146574Y212794D01*
X144606D01*
X148542Y208858D02*
X149854D01*
X149198D01*
Y212794D01*
X148542Y212138D01*
X151822D02*
X152478Y212794D01*
X153790D01*
X154446Y212138D01*
Y209514D01*
X153790Y208858D01*
X152478D01*
X151822Y209514D01*
Y212138D01*
X110354Y200195D02*
Y196260D01*
X112322D01*
X112978Y196916D01*
Y199539D01*
X112322Y200195D01*
X110354D01*
X114290Y196916D02*
X114946Y196260D01*
X116258D01*
X116914Y196916D01*
Y199539D01*
X116258Y200195D01*
X114946D01*
X114290Y199539D01*
Y198883D01*
X114946Y198228D01*
X116914D01*
X73509Y211676D02*
X74528Y207874D01*
X76428Y208383D01*
X76892Y209187D01*
X76213Y211721D01*
X75410Y212185D01*
X73509Y211676D01*
X77480Y212060D02*
X77944Y212864D01*
X79211Y213203D01*
X80015Y212740D01*
X80185Y212106D01*
X79721Y211303D01*
X80524Y210839D01*
X80694Y210205D01*
X80230Y209402D01*
X78963Y209062D01*
X78159Y209526D01*
X77990Y210160D01*
X78453Y210963D01*
X77650Y211427D01*
X77480Y212060D01*
X78453Y210963D02*
X79721Y211303D01*
X53465Y207479D02*
Y203543D01*
X55432D01*
X56088Y204199D01*
Y206823D01*
X55432Y207479D01*
X53465D01*
X57400D02*
X60024D01*
Y206823D01*
X57400Y204199D01*
Y203543D01*
X231181Y63857D02*
Y59921D01*
X233149D01*
X233805Y60577D01*
Y63201D01*
X233149Y63857D01*
X231181D01*
X237741D02*
X236429Y63201D01*
X235117Y61889D01*
Y60577D01*
X235773Y59921D01*
X237085D01*
X237741Y60577D01*
Y61233D01*
X237085Y61889D01*
X235117D01*
X230870Y24605D02*
Y20669D01*
X232838D01*
X233494Y21325D01*
Y23949D01*
X232838Y24605D01*
X230870D01*
X237430D02*
X234806D01*
Y22637D01*
X236118Y23293D01*
X236774D01*
X237430Y22637D01*
Y21325D01*
X236774Y20669D01*
X235462D01*
X234806Y21325D01*
X19094Y55510D02*
Y51574D01*
X21062D01*
X21718Y52231D01*
Y54854D01*
X21062Y55510D01*
X19094D01*
X24998Y51574D02*
Y55510D01*
X23030Y53542D01*
X25654D01*
X106717Y68231D02*
Y64295D01*
X108685D01*
X109341Y64951D01*
Y67575D01*
X108685Y68231D01*
X106717D01*
X110653Y67575D02*
X111309Y68231D01*
X112620D01*
X113277Y67575D01*
Y66919D01*
X112620Y66263D01*
X111965D01*
X112620D01*
X113277Y65607D01*
Y64951D01*
X112620Y64295D01*
X111309D01*
X110653Y64951D01*
X125787Y68231D02*
Y64295D01*
X127755D01*
X128411Y64951D01*
Y67575D01*
X127755Y68231D01*
X125787D01*
X132347Y64295D02*
X129723D01*
X132347Y66919D01*
Y67575D01*
X131691Y68231D01*
X130379D01*
X129723Y67575D01*
X41890Y79050D02*
Y75115D01*
X43857D01*
X44513Y75771D01*
Y78395D01*
X43857Y79050D01*
X41890D01*
X45825Y75115D02*
X47137D01*
X46481D01*
Y79050D01*
X45825Y78395D01*
X40115Y157780D02*
X39460Y158435D01*
X38148D01*
X37492Y157780D01*
Y155156D01*
X38148Y154500D01*
X39460D01*
X40115Y155156D01*
X41427Y157780D02*
X42083Y158435D01*
X43395D01*
X44051Y157780D01*
Y157124D01*
X43395Y156468D01*
X42739D01*
X43395D01*
X44051Y155812D01*
Y155156D01*
X43395Y154500D01*
X42083D01*
X41427Y155156D01*
X45363Y154500D02*
X46675D01*
X46019D01*
Y158435D01*
X45363Y157780D01*
X75655Y168634D02*
X74999Y169290D01*
X73687D01*
X73032Y168634D01*
Y166010D01*
X73687Y165354D01*
X74999D01*
X75655Y166010D01*
X76967Y168634D02*
X77623Y169290D01*
X78935D01*
X79591Y168634D01*
Y167978D01*
X78935Y167322D01*
X78279D01*
X78935D01*
X79591Y166666D01*
Y166010D01*
X78935Y165354D01*
X77623D01*
X76967Y166010D01*
X80903Y168634D02*
X81559Y169290D01*
X82871D01*
X83527Y168634D01*
Y166010D01*
X82871Y165354D01*
X81559D01*
X80903Y166010D01*
Y168634D01*
X71780Y147354D02*
X71124Y148010D01*
X69812D01*
X69156Y147354D01*
Y144730D01*
X69812Y144074D01*
X71124D01*
X71780Y144730D01*
X75716Y144074D02*
X73092D01*
X75716Y146698D01*
Y147354D01*
X75060Y148010D01*
X73748D01*
X73092Y147354D01*
X77028Y144730D02*
X77684Y144074D01*
X78996D01*
X79652Y144730D01*
Y147354D01*
X78996Y148010D01*
X77684D01*
X77028Y147354D01*
Y146698D01*
X77684Y146042D01*
X79652D01*
X128165Y96954D02*
X127509Y97610D01*
X126197D01*
X125541Y96954D01*
Y94330D01*
X126197Y93674D01*
X127509D01*
X128165Y94330D01*
X132101Y93674D02*
X129477D01*
X132101Y96298D01*
Y96954D01*
X131445Y97610D01*
X130133D01*
X129477Y96954D01*
X133413D02*
X134069Y97610D01*
X135380D01*
X136036Y96954D01*
Y96298D01*
X135380Y95642D01*
X136036Y94986D01*
Y94330D01*
X135380Y93674D01*
X134069D01*
X133413Y94330D01*
Y94986D01*
X134069Y95642D01*
X133413Y96298D01*
Y96954D01*
X134069Y95642D02*
X135380D01*
X88598Y96820D02*
X87942Y97476D01*
X86630D01*
X85974Y96820D01*
Y94196D01*
X86630Y93540D01*
X87942D01*
X88598Y94196D01*
X92534Y93540D02*
X89910D01*
X92534Y96164D01*
Y96820D01*
X91878Y97476D01*
X90566D01*
X89910Y96820D01*
X93846Y97476D02*
X96469D01*
Y96820D01*
X93846Y94196D01*
Y93540D01*
X154710Y61024D02*
X154054Y61680D01*
X152743D01*
X152087Y61024D01*
Y58400D01*
X152743Y57744D01*
X154054D01*
X154710Y58400D01*
X158646Y57744D02*
X156022D01*
X158646Y60368D01*
Y61024D01*
X157990Y61680D01*
X156678D01*
X156022Y61024D01*
X159958D02*
X160614Y61680D01*
X161926D01*
X162582Y61024D01*
Y58400D01*
X161926Y57744D01*
X160614D01*
X159958Y58400D01*
Y61024D01*
X155143Y84531D02*
X154488Y85187D01*
X153176D01*
X152520Y84531D01*
Y81907D01*
X153176Y81251D01*
X154488D01*
X155143Y81907D01*
X156455Y81251D02*
X157767D01*
X157111D01*
Y85187D01*
X156455Y84531D01*
X159735Y81907D02*
X160391Y81251D01*
X161703D01*
X162359Y81907D01*
Y84531D01*
X161703Y85187D01*
X160391D01*
X159735Y84531D01*
Y83875D01*
X160391Y83219D01*
X162359D01*
X-9682Y15585D02*
X-10338Y16241D01*
X-11650D01*
X-12306Y15585D01*
Y12961D01*
X-11650Y12306D01*
X-10338D01*
X-9682Y12961D01*
X-8370Y12306D02*
X-7058D01*
X-7714D01*
Y16241D01*
X-8370Y15585D01*
X-5090D02*
X-4434Y16241D01*
X-3122D01*
X-2466Y15585D01*
Y14929D01*
X-3122Y14273D01*
X-2466Y13617D01*
Y12961D01*
X-3122Y12306D01*
X-4434D01*
X-5090Y12961D01*
Y13617D01*
X-4434Y14273D01*
X-5090Y14929D01*
Y15585D01*
X-4434Y14273D02*
X-3122D01*
X187939Y5248D02*
X187283Y5904D01*
X185971D01*
X185315Y5248D01*
Y2624D01*
X185971Y1968D01*
X187283D01*
X187939Y2624D01*
X189251Y1968D02*
X190563D01*
X189907D01*
Y5904D01*
X189251Y5248D01*
X192531Y5904D02*
X195154D01*
Y5248D01*
X192531Y2624D01*
Y1968D01*
X211821Y61783D02*
X211165Y62439D01*
X209853D01*
X209197Y61783D01*
Y59159D01*
X209853Y58503D01*
X211165D01*
X211821Y59159D01*
X213133Y58503D02*
X214444D01*
X213789D01*
Y62439D01*
X213133Y61783D01*
X216412D02*
X217068Y62439D01*
X218380D01*
X219036Y61783D01*
Y61127D01*
X218380Y60471D01*
X217724D01*
X218380D01*
X219036Y59815D01*
Y59159D01*
X218380Y58503D01*
X217068D01*
X216412Y59159D01*
X200206Y61783D02*
X199551Y62439D01*
X198239D01*
X197583Y61783D01*
Y59159D01*
X198239Y58503D01*
X199551D01*
X200206Y59159D01*
X201518Y58503D02*
X202830D01*
X202174D01*
Y62439D01*
X201518Y61783D01*
X207422Y58503D02*
X204798D01*
X207422Y61127D01*
Y61783D01*
X206766Y62439D01*
X205454D01*
X204798Y61783D01*
X213466Y25958D02*
X212810Y26614D01*
X211498D01*
X210842Y25958D01*
Y23334D01*
X211498Y22678D01*
X212810D01*
X213466Y23334D01*
X214778Y22678D02*
X216090D01*
X215434D01*
Y26614D01*
X214778Y25958D01*
X218058Y22678D02*
X219370D01*
X218714D01*
Y26614D01*
X218058Y25958D01*
X201852Y25761D02*
X201196Y26417D01*
X199884D01*
X199228Y25761D01*
Y23137D01*
X199884Y22481D01*
X201196D01*
X201852Y23137D01*
X203164Y22481D02*
X204476D01*
X203820D01*
Y26417D01*
X203164Y25761D01*
X206444D02*
X207100Y26417D01*
X208412D01*
X209068Y25761D01*
Y23137D01*
X208412Y22481D01*
X207100D01*
X206444Y23137D01*
Y25761D01*
X81403Y67847D02*
X80747Y68502D01*
X79435D01*
X78780Y67847D01*
Y65223D01*
X79435Y64567D01*
X80747D01*
X81403Y65223D01*
X82715Y67847D02*
X83371Y68502D01*
X84683D01*
X85339Y67847D01*
Y67191D01*
X84683Y66535D01*
X85339Y65879D01*
Y65223D01*
X84683Y64567D01*
X83371D01*
X82715Y65223D01*
Y65879D01*
X83371Y66535D01*
X82715Y67191D01*
Y67847D01*
X83371Y66535D02*
X84683D01*
X159963Y124736D02*
X159307Y125392D01*
X157995D01*
X157339Y124736D01*
Y122113D01*
X157995Y121457D01*
X159307D01*
X159963Y122113D01*
X161275Y125392D02*
X163898D01*
Y124736D01*
X161275Y122113D01*
Y121457D01*
X91246Y67575D02*
X90590Y68231D01*
X89278D01*
X88622Y67575D01*
Y64951D01*
X89278Y64295D01*
X90590D01*
X91246Y64951D01*
X95182Y68231D02*
X93870Y67575D01*
X92558Y66263D01*
Y64951D01*
X93214Y64295D01*
X94526D01*
X95182Y64951D01*
Y65607D01*
X94526Y66263D01*
X92558D01*
X65222Y90484D02*
X64566Y91140D01*
X63254D01*
X62598Y90484D01*
Y87860D01*
X63254Y87204D01*
X64566D01*
X65222Y87860D01*
X69158Y91140D02*
X66534D01*
Y89172D01*
X67846Y89828D01*
X68502D01*
X69158Y89172D01*
Y87860D01*
X68502Y87204D01*
X67190D01*
X66534Y87860D01*
X55576Y90484D02*
X54921Y91140D01*
X53609D01*
X52953Y90484D01*
Y87860D01*
X53609Y87204D01*
X54921D01*
X55576Y87860D01*
X58856Y87204D02*
Y91140D01*
X56888Y89172D01*
X59512D01*
X-3479Y99146D02*
X-4135Y99802D01*
X-5446D01*
X-6103Y99146D01*
Y96522D01*
X-5446Y95866D01*
X-4135D01*
X-3479Y96522D01*
X-2167Y99146D02*
X-1511Y99802D01*
X-199D01*
X457Y99146D01*
Y98490D01*
X-199Y97834D01*
X-855D01*
X-199D01*
X457Y97178D01*
Y96522D01*
X-199Y95866D01*
X-1511D01*
X-2167Y96522D01*
X-12927Y99146D02*
X-13583Y99802D01*
X-14895D01*
X-15551Y99146D01*
Y96522D01*
X-14895Y95866D01*
X-13583D01*
X-12927Y96522D01*
X-8992Y95866D02*
X-11616D01*
X-8992Y98490D01*
Y99146D01*
X-9648Y99802D01*
X-10960D01*
X-11616Y99146D01*
M02*
