G04*
G04 #@! TF.GenerationSoftware,Altium Limited,Altium Designer,18.1.9 (240)*
G04*
G04 Layer_Color=8421504*
%FSLAX25Y25*%
%MOIN*%
G70*
G01*
G75*
%ADD21R,0.04567X0.05787*%
%ADD22R,0.07500X0.09000*%
%ADD23O,0.01181X0.04724*%
%ADD24O,0.04724X0.01181*%
%ADD25R,0.07874X0.03937*%
%ADD26R,0.05787X0.04567*%
%ADD27O,0.02400X0.08000*%
%ADD28R,0.05000X0.04000*%
%ADD29R,0.04000X0.04000*%
%ADD30R,0.05906X0.09843*%
%ADD31R,0.03937X0.01772*%
%ADD32R,0.06890X0.08661*%
%ADD33R,0.08661X0.06890*%
%ADD34R,0.02362X0.04331*%
%ADD35R,0.01181X0.04331*%
%ADD36R,0.07874X0.05906*%
%ADD37O,0.06693X0.01378*%
%ADD38R,0.06693X0.01378*%
%ADD39R,0.03600X0.03600*%
%ADD40R,0.05000X0.03600*%
G04:AMPARAMS|DCode=41|XSize=27.56mil|YSize=56.81mil|CornerRadius=0mil|HoleSize=0mil|Usage=FLASHONLY|Rotation=75.000|XOffset=0mil|YOffset=0mil|HoleType=Round|Shape=Rectangle|*
%AMROTATEDRECTD41*
4,1,4,0.02387,-0.02066,-0.03100,-0.00596,-0.02387,0.02066,0.03100,0.00596,0.02387,-0.02066,0.0*
%
%ADD41ROTATEDRECTD41*%

%ADD42R,0.06299X0.03150*%
%ADD43R,0.03150X0.06299*%
G04:AMPARAMS|DCode=44|XSize=27.56mil|YSize=56.81mil|CornerRadius=0mil|HoleSize=0mil|Usage=FLASHONLY|Rotation=105.000|XOffset=0mil|YOffset=0mil|HoleType=Round|Shape=Rectangle|*
%AMROTATEDRECTD44*
4,1,4,0.03100,-0.00596,-0.02387,-0.02066,-0.03100,0.00596,0.02387,0.02066,0.03100,-0.00596,0.0*
%
%ADD44ROTATEDRECTD44*%

%ADD45R,0.05681X0.02756*%
G36*
X60531Y23819D02*
X59350D01*
Y28149D01*
X60531D01*
Y23819D01*
D02*
G37*
G36*
X58563D02*
X57382D01*
Y28149D01*
X58563D01*
Y23819D01*
D02*
G37*
G36*
X56595D02*
X55414D01*
Y28149D01*
X56595D01*
Y23819D01*
D02*
G37*
G36*
X54626D02*
X53445D01*
Y28149D01*
X54626D01*
Y23819D01*
D02*
G37*
G36*
X52657D02*
X50295D01*
Y28149D01*
X52657D01*
Y23819D01*
D02*
G37*
G36*
X49507D02*
X47145D01*
Y28149D01*
X49507D01*
Y23819D01*
D02*
G37*
G36*
X45235Y27396D02*
X45900Y26732D01*
X46259Y25864D01*
Y25394D01*
Y22244D01*
Y21774D01*
X45900Y20906D01*
X45235Y20242D01*
X44367Y19882D01*
X43427D01*
X42559Y20242D01*
X41895Y20906D01*
X41535Y21774D01*
Y22244D01*
Y25394D01*
Y25864D01*
X41895Y26732D01*
X42559Y27396D01*
X43427Y27756D01*
X44367D01*
X45235Y27396D01*
D02*
G37*
G36*
Y9876D02*
X45900Y9211D01*
X46259Y8343D01*
Y7873D01*
Y6692D01*
Y6222D01*
X45900Y5354D01*
X45235Y4690D01*
X44367Y4330D01*
X43427D01*
X42559Y4690D01*
X41895Y5354D01*
X41535Y6222D01*
Y6692D01*
Y7873D01*
Y8343D01*
X41895Y9211D01*
X42559Y9876D01*
X43427Y10236D01*
X44367D01*
X45235Y9876D01*
D02*
G37*
G36*
X74704Y23819D02*
X72342D01*
Y28149D01*
X74704D01*
Y23819D01*
D02*
G37*
G36*
X71555D02*
X69193D01*
Y28149D01*
X71555D01*
Y23819D01*
D02*
G37*
G36*
X68406D02*
X67225D01*
Y28149D01*
X68406D01*
Y23819D01*
D02*
G37*
G36*
X66437D02*
X65256D01*
Y28149D01*
X66437D01*
Y23819D01*
D02*
G37*
G36*
X64468D02*
X63287D01*
Y28149D01*
X64468D01*
Y23819D01*
D02*
G37*
G36*
X62500D02*
X61319D01*
Y28149D01*
X62500D01*
Y23819D01*
D02*
G37*
G36*
X79290Y27396D02*
X79955Y26732D01*
X80314Y25864D01*
Y25394D01*
Y22244D01*
Y21774D01*
X79955Y20906D01*
X79290Y20242D01*
X78422Y19882D01*
X77482D01*
X76614Y20242D01*
X75950Y20906D01*
X75590Y21774D01*
Y22244D01*
Y25394D01*
Y25864D01*
X75950Y26732D01*
X76614Y27396D01*
X77482Y27756D01*
X78422D01*
X79290Y27396D01*
D02*
G37*
G36*
Y9876D02*
X79955Y9211D01*
X80314Y8343D01*
Y7873D01*
Y6692D01*
Y6222D01*
X79955Y5354D01*
X79290Y4690D01*
X78422Y4330D01*
X77482D01*
X76614Y4690D01*
X75950Y5354D01*
X75590Y6222D01*
Y6692D01*
Y7873D01*
Y8343D01*
X75950Y9211D01*
X76614Y9876D01*
X77482Y10236D01*
X78422D01*
X79290Y9876D01*
D02*
G37*
D21*
X169528Y66732D02*
D03*
X176535D02*
D03*
Y76181D02*
D03*
X169528D02*
D03*
X89331Y105512D02*
D03*
X82323D02*
D03*
X13779Y96456D02*
D03*
X6771Y96456D02*
D03*
X33858Y44685D02*
D03*
X40866D02*
D03*
X107273Y81084D02*
D03*
X114281D02*
D03*
X40866Y54527D02*
D03*
X33858D02*
D03*
X-4764Y136811D02*
D03*
X-11772D02*
D03*
X11529D02*
D03*
X4521D02*
D03*
X17913Y109449D02*
D03*
X10905D02*
D03*
X-4947Y109449D02*
D03*
X2061D02*
D03*
X43944Y111811D02*
D03*
X36936D02*
D03*
X77500Y138090D02*
D03*
X70492D02*
D03*
X51063Y157000D02*
D03*
X58071D02*
D03*
X146772Y36910D02*
D03*
X153779D02*
D03*
X160827Y76181D02*
D03*
X153819D02*
D03*
X160787Y66732D02*
D03*
X153779Y66732D02*
D03*
D22*
X85159Y157000D02*
D03*
X70986D02*
D03*
D23*
X101772Y110827D02*
D03*
X103740D02*
D03*
X105709D02*
D03*
X107677Y110827D02*
D03*
X109646Y110827D02*
D03*
X111614D02*
D03*
X113583D02*
D03*
X115551D02*
D03*
X117520Y110827D02*
D03*
X119488D02*
D03*
X121457D02*
D03*
X123425Y110827D02*
D03*
Y144291D02*
D03*
X121457Y144291D02*
D03*
X119488D02*
D03*
X117520D02*
D03*
X115551Y144291D02*
D03*
X113583D02*
D03*
X111614D02*
D03*
X109646D02*
D03*
X107677Y144291D02*
D03*
X105709Y144291D02*
D03*
X103740D02*
D03*
X101772D02*
D03*
D24*
X129331Y116732D02*
D03*
Y118701D02*
D03*
Y120669D02*
D03*
X129331Y122638D02*
D03*
Y124606D02*
D03*
Y126575D02*
D03*
Y128543D02*
D03*
Y130512D02*
D03*
Y132480D02*
D03*
Y134449D02*
D03*
Y136417D02*
D03*
Y138386D02*
D03*
X95866D02*
D03*
Y136417D02*
D03*
Y134449D02*
D03*
Y132480D02*
D03*
Y130512D02*
D03*
Y128543D02*
D03*
Y126575D02*
D03*
Y124606D02*
D03*
Y122638D02*
D03*
X95866Y120669D02*
D03*
Y118701D02*
D03*
Y116732D02*
D03*
D25*
X34442Y5022D02*
D03*
Y18014D02*
D03*
X15151D02*
D03*
Y5022D02*
D03*
X219567Y5079D02*
D03*
Y18071D02*
D03*
X200275D02*
D03*
Y5079D02*
D03*
D26*
X2655Y18014D02*
D03*
Y11006D02*
D03*
X-12402Y91260D02*
D03*
Y84252D02*
D03*
X-2756Y84252D02*
D03*
Y91260D02*
D03*
X25787Y87992D02*
D03*
Y80984D02*
D03*
X55905Y75236D02*
D03*
Y82244D02*
D03*
X65748Y75236D02*
D03*
Y82244D02*
D03*
X90699Y81942D02*
D03*
Y88950D02*
D03*
X81929Y52834D02*
D03*
Y59842D02*
D03*
X91575Y52886D02*
D03*
Y59893D02*
D03*
X131250Y81942D02*
D03*
Y88950D02*
D03*
X33838Y34350D02*
D03*
Y27342D02*
D03*
X35394Y80984D02*
D03*
Y87992D02*
D03*
X101230Y52894D02*
D03*
Y59902D02*
D03*
X119556D02*
D03*
Y52894D02*
D03*
X225079Y53543D02*
D03*
Y46535D02*
D03*
X169291Y127756D02*
D03*
Y120748D02*
D03*
X169291Y143268D02*
D03*
Y136260D02*
D03*
X189842Y18071D02*
D03*
Y11063D02*
D03*
X205260Y46662D02*
D03*
Y53670D02*
D03*
X215102Y46662D02*
D03*
Y53670D02*
D03*
X205197Y38189D02*
D03*
Y31181D02*
D03*
X215039Y38189D02*
D03*
Y31181D02*
D03*
X225079Y38189D02*
D03*
Y31181D02*
D03*
D27*
X68484Y37893D02*
D03*
X58484D02*
D03*
X63484D02*
D03*
X73484Y37893D02*
D03*
X58484Y59893D02*
D03*
X63484D02*
D03*
X68484D02*
D03*
X73484D02*
D03*
D28*
X2630Y31042D02*
D03*
X110256Y59645D02*
D03*
Y51145D02*
D03*
X128583Y59645D02*
D03*
Y51145D02*
D03*
X234331Y46535D02*
D03*
Y55035D02*
D03*
Y38189D02*
D03*
Y29689D02*
D03*
D29*
X10630Y27342D02*
D03*
Y34842D02*
D03*
D30*
X16929Y67126D02*
D03*
X1969Y67126D02*
D03*
D31*
X17114Y80511D02*
D03*
Y84252D02*
D03*
X17114Y87992D02*
D03*
X6114Y87992D02*
D03*
X6114Y84252D02*
D03*
X6114Y80511D02*
D03*
D32*
X21850Y45472D02*
D03*
Y27362D02*
D03*
D33*
X45276Y67126D02*
D03*
X27165D02*
D03*
D34*
X73523Y25984D02*
D03*
X70374D02*
D03*
X51476D02*
D03*
X48327D02*
D03*
D35*
X67815D02*
D03*
X65846D02*
D03*
X63878D02*
D03*
X61909D02*
D03*
X59941D02*
D03*
X57972D02*
D03*
X56004D02*
D03*
X54035D02*
D03*
D36*
X-12976Y123347D02*
D03*
X18256Y123425D02*
D03*
X-12976Y171575D02*
D03*
X18256Y171653D02*
D03*
X-12795Y154724D02*
D03*
X18436Y154803D02*
D03*
D37*
X58017Y120177D02*
D03*
Y122736D02*
D03*
X29277Y120177D02*
D03*
Y122736D02*
D03*
Y145767D02*
D03*
Y143208D02*
D03*
Y140649D02*
D03*
Y138090D02*
D03*
Y135531D02*
D03*
Y132972D02*
D03*
Y130413D02*
D03*
Y127854D02*
D03*
Y125295D02*
D03*
X58017Y148327D02*
D03*
Y145767D02*
D03*
Y143208D02*
D03*
Y140649D02*
D03*
Y138090D02*
D03*
Y135531D02*
D03*
Y132972D02*
D03*
Y130413D02*
D03*
Y127854D02*
D03*
Y125295D02*
D03*
D38*
X29277Y148327D02*
D03*
D39*
X197843Y30649D02*
D03*
Y38149D02*
D03*
X162236Y36910D02*
D03*
Y29410D02*
D03*
X197843Y46042D02*
D03*
Y53541D02*
D03*
D40*
X189842Y34449D02*
D03*
X170236Y33110D02*
D03*
X189842Y49841D02*
D03*
D41*
X154259Y193604D02*
D03*
X156093Y200449D02*
D03*
X168797Y189708D02*
D03*
X170631Y196553D02*
D03*
X145198Y204034D02*
D03*
X143364Y197189D02*
D03*
X130660Y207929D02*
D03*
X128826Y201084D02*
D03*
D42*
X239725Y122165D02*
D03*
X239725Y127677D02*
D03*
X239725Y133582D02*
D03*
X239725Y139488D02*
D03*
X239725Y145393D02*
D03*
X239725Y151299D02*
D03*
Y157204D02*
D03*
X239725Y163110D02*
D03*
X180394Y122165D02*
D03*
X180394Y127677D02*
D03*
Y133582D02*
D03*
X180394Y139488D02*
D03*
X180394Y145394D02*
D03*
X180394Y151299D02*
D03*
X180394Y157205D02*
D03*
X180434Y163110D02*
D03*
D43*
X230828Y169252D02*
D03*
X224922Y169252D02*
D03*
X219017Y169252D02*
D03*
X201300Y169252D02*
D03*
X207206Y169252D02*
D03*
X213111Y169252D02*
D03*
X195395Y169252D02*
D03*
X189489Y169252D02*
D03*
D44*
X69151Y200449D02*
D03*
X70986Y193604D02*
D03*
X54613Y196553D02*
D03*
X56447Y189708D02*
D03*
X93954Y207929D02*
D03*
X95789Y201084D02*
D03*
X79416Y204034D02*
D03*
X81250Y197189D02*
D03*
D45*
X120089Y212008D02*
D03*
Y204921D02*
D03*
X105037Y212008D02*
D03*
Y204921D02*
D03*
M02*
