M48
;Layer_Color=9474304
;FILE_FORMAT=2:5
INCH,LZ
;TYPE=PLATED
T1F00S00C0.01181
T2F00S00C0.01968
T3F00S00C0.02362
T5F00S00C0.03000
T6F00S00C0.03150
T8F00S00C0.03543
T9F00S00C0.03937
T10F00S00C0.09843
;TYPE=NON_PLATED
T11F00S00C0.02756
%
T01
X0169685Y0009184
X0175591Y0009055
X0184843Y0008465
X0188071Y0005118
X019685Y0012205
X0201378Y0009252
X0208858Y0008858
X0210571Y0003543
X0208858Y0017717
X0210118Y003189
X0210157Y0034989
X0219199Y0026394
X0223228Y0023228
X0234449
X0232283Y0012992
X0229134Y0009252
X022559Y0005709
X0220079Y0043996
Y005
X0219488Y0070669
X021437Y0074803
X0208858Y0070669
X020315Y0074761
X0198228Y0070669
X0187795
X0184252Y0073032
X0191614Y0074803
X0187795Y0061024
Y005433
X0182084Y0051378
X0181679Y0045276
X0185768
X0182084Y0038386
X0172441Y0037598
X0172291Y0043701
Y0050787
X0173228Y005689
X0196457Y0061024
X0234252
X0236221Y0067716
X0226181Y0074803
X0197047Y0022835
X0169685Y0017323
X0161221Y0011811
X0163583Y0008464
X0152953Y0011811
Y0019488
X0144346Y0019473
X0144205Y0026969
X0146732Y0030315
X0152953Y0031057
X0158268Y0031102
X0161221Y0025
X016066Y0041929
X0160803Y0050042
X0160787Y005689
X0165003Y0064764
Y0071456
X0148622Y005689
X0142913
X0133858
Y0063779
X0128543Y006437
X0128583Y0074212
X0110256Y0071456
Y0064035
X0111811Y0044291
X0102953
X0103274Y0026909
X0096653Y0019488
X0087992Y0021457
Y0033298
X0094488Y0033268
X0112303Y003563
X0121235Y004428
X0136415Y004311
X0142886
X0148698Y0045472
Y0050042
X0131693Y0036417
X0136126Y0026909
X0135433Y0019473
X0136126Y0011811
X0144291
X0121247
X0124803Y0019504
X0121861Y0026909
X0103937Y0011811
X0090386Y0009843
X0096131Y0003347
X0072638
X0061221
X0050621
X0025787Y0004921
X0025Y0018014
X0028346Y0022835
X0038481Y0022835
X0039954Y0034627
X0033838Y0039094
X002874Y004487
X0028645Y0054724
X0042126Y006012
X0045866Y0058047
X0054331Y0057874
Y0053303
X0054477Y0063057
Y0040876
X0051968Y0034369
X005561Y0032578
X0068799Y0030709
X0065059Y0020374
X0046063Y0042026
X0048425Y0045669
X0045276Y0048425
X0082677Y0045669
X0086811Y004846
X0080666Y0072638
X0095079Y007344
X0015503Y0022638
X001437Y0011
X0008434Y000315
X0001299
X-0005118Y0009646
X-001063Y0015354
X-0016552Y0024718
X-0005118Y0032283
X0002557Y0024718
X0008268Y0022638
X0007874Y0060498
Y0073318
X-0004528Y0070472
Y0061453
X-0004367Y0051968
X-0016552Y0061787
Y0070639
Y0096653
X-0016383Y0103649
Y0110644
Y0117639
X-0009893Y0117717
Y0109449
X-0006075Y0102165
Y0096653
X0001661
X0004147Y0102165
X0007677Y0117717
Y0125984
X-0001378
Y0117639
X-0008327Y0129724
X-0016383
Y0148327
X-0011772Y0144134
X-0008268Y0147441
X-0002559
Y0154997
Y0162283
X-0008268
X-0008327Y0170052
X-0002559
X0001969Y0177165
X000374Y018248
X-0009646
X-0008268Y0177165
X-0016383Y0177074
Y0162283
X0009064Y0163386
X000904Y0158071
X0000035Y0136811
X-0004947Y0187205
X0006114Y0077559
X0018898Y0096456
X001437Y0102165
X0026378Y0109646
X0032084
Y0116732
X0026181
X0035335Y0122736
X0035433Y0132972
Y013809
X0035394Y0145767
X0034699Y0158268
Y0163386
Y0168237
X0034055Y0180954
X0041339
X0048287Y0182283
X0044882Y0188583
X0042323Y0200875
X0045945Y0204567
X0049242Y0200293
X0057224Y0200709
X0069134Y0204567
X0074016Y0204567
X0074488Y0188397
X007057Y018149
X0074002Y0177074
X0074016Y0168504
X0065354Y0164173
X0048228Y0167913
X004135Y0160827
X0041339Y015748
X0025083Y0158268
Y0163386
X0017368Y0163318
X0011259Y0154803
X001437Y014304
X0012205Y0177165
X0019331
X0018898Y018248
X0026181
X0025394Y0175394
X0014764Y0185827
X0009843Y0187205
X0063189Y0188919
X0065748Y0192126
X0086503Y0189408
X0093385
X0097047Y0184128
X0101969
X0101918Y0190945
X010061Y0200591
X0099606Y0206496
X0107677Y0199409
X0112598Y0195276
X011752Y0198819
X0124803Y0196653
X0127953Y0193701
Y0187205
X0123976Y0183898
X0123228Y0190157
X0138976Y0199746
X0149803Y0197638
X0150591Y0205118
X0155917Y020748
X0162236Y0194685
X0154724Y0187247
X0149427Y0187677
X0160039Y0160039
X0162795Y0157283
X0141339Y0150197
X0138976Y0140354
X014252Y0137402
X0144291Y0134252
X0138976Y0131496
X0129331Y0145197
X0129587Y0149409
Y0154997
Y0160585
X0122835Y016063
Y0155709
Y0149409
X0112205Y0162205
X0108071Y0162598
X0101378Y0153937
X0090354Y0150774
X0083661Y0148441
X008937Y0142323
X0096142Y0144291
X009311Y0161221
X0094882Y0180709
X0087008Y018248
X0087402Y0177953
X0082297Y0181352
X0081693Y0127362
X0075Y0121653
X0070931Y0121653
X0064173Y0121653
Y0133122
X0072835
X0052165Y0133661
X0052067Y013809
X0052165Y0126181
X0047244Y0107087
X0055709Y0087598
X0065661Y0087549
X0066535Y0093307
X0076772Y0096457
X0077953Y0113189
X0095866Y0111024
X0100591Y0116732
X0116732Y0096456
X0126181Y0097441
X0133189Y009752
X0141732Y009626
X0144488Y0099016
X0148866Y0099606
X0148819Y0110236
X0149213Y0116535
X0144685Y0113779
X014156Y0110433
X0131323
X0138976Y0090551
X0165003Y0079331
X0159323Y0110433
X009685Y0077953
X0176535Y008126
X0187205Y0088779
X0191614Y0084646
X0198209Y0088583
X020315Y0084646
X0208858Y0088779
X0214173Y0084646
X0211614Y0124409
Y0133857
X0211568Y0143305
X0211614Y0152753
X0195866Y0152559
X019589Y0143176
X0191732Y0145394
X0187402Y0151299
X0181496Y0167598
X0181693Y017874
X0187598Y0175787
X0198688
X019685Y0184252
X0196457Y0187402
X019311Y0183898
X0187205Y0187205
X0182874Y0190698
X0181679Y019687
X0181693Y0202165
X0186811Y0202359
X0177559Y0211614
X0174487Y0189764
X0198031Y0193701
X0208268
Y0187205
Y0184252
X0209777Y0175787
X0220866
X0229213Y017512
X0241413Y0175787
X0233268Y0184055
X0224606
X0226181Y0190827
X0227247Y0143305
Y0133857
Y0124409
X019589
Y0133793
X0177362Y0116732
X0180118Y0095866
T02
X0146732Y0067413
Y0075287
T03
X0229528Y0017086
X0229213Y0061811
X0222716Y0066535
X0213071
X0191614
X0232634Y0073185
X0131693Y0045276
X0126771
X0097835
X0092913
X0084095Y001378
X0140236Y0004724
X0073477Y0075236
X0058484Y0066732
X0005118Y0167323
X0030118Y0175787
X0030118Y0194488
X0045276Y0209646
X0022047Y0148031
X0017913Y0136811
X001811Y0130118
X0017913Y0115157
X002677Y0094882
X0041929Y0101969
X0045866Y0083465
X0101258Y008895
X0120156
X0119706Y0121063
Y0127565
X0119727Y0134094
X0112029
X0112008Y0127565
Y0121063
X0104331Y0121035
Y0127565
Y0134094
X0169291Y0148622
X0220669Y0150787
Y0161024
X0225197Y0156693
X0234252Y0087598
X0237598Y008189
T05
X0170236Y0022835
X0140236
X0120079Y0035433
X0104921
T06
X-0011024Y0028937
Y0036811
Y0044685
T08
X0010539Y0043311
Y0053311
X0003858Y019189
X0013858
X0023858
X0082205Y0172638
X0092205
X0102205
X0112205
X0122205
X0132205
X0142205
T09
X002185Y005433
T10
X0112598Y0019685
X0058071Y0101575
X0058071Y0174803
X0166811Y0174803
X0166811Y0101575
T11
X0049547Y0021771
X0072303
M30
