G04*
G04 #@! TF.GenerationSoftware,Altium Limited,Altium Designer,18.1.9 (240)*
G04*
G04 Layer_Physical_Order=2*
G04 Layer_Color=16711680*
%FSLAX25Y25*%
%MOIN*%
G70*
G01*
G75*
%ADD11C,0.02362*%
%ADD15C,0.01181*%
%ADD21R,0.04567X0.05787*%
%ADD26R,0.05787X0.04567*%
%ADD85C,0.03543*%
%ADD86C,0.05000*%
%ADD87R,0.03937X0.03937*%
%ADD88C,0.03937*%
%ADD89C,0.03937*%
%ADD90R,0.06693X0.06693*%
%ADD91C,0.06693*%
%ADD92C,0.05118*%
%ADD93O,0.08661X0.04724*%
%ADD94C,0.05512*%
%ADD95C,0.17717*%
%ADD96O,0.04724X0.05906*%
%ADD97O,0.04724X0.07874*%
%ADD98C,0.02756*%
%ADD99C,0.02362*%
%ADD100C,0.03543*%
%ADD101C,0.04724*%
G04:AMPARAMS|DCode=102|XSize=45.67mil|YSize=57.87mil|CornerRadius=0mil|HoleSize=0mil|Usage=FLASHONLY|Rotation=135.000|XOffset=0mil|YOffset=0mil|HoleType=Round|Shape=Rectangle|*
%AMROTATEDRECTD102*
4,1,4,0.03661,0.00432,-0.00432,-0.03661,-0.03661,-0.00432,0.00432,0.03661,0.03661,0.00432,0.0*
%
%ADD102ROTATEDRECTD102*%

%ADD103R,0.09843X0.09843*%
%ADD104R,0.01181X0.03937*%
%ADD105R,0.03937X0.01181*%
G36*
X141016Y209303D02*
X140992Y209510D01*
X140921Y209696D01*
X140803Y209859D01*
X140638Y210001D01*
X140425Y210121D01*
X140165Y210219D01*
X139858Y210296D01*
X139504Y210350D01*
X139102Y210383D01*
X139075Y210384D01*
X139047Y210383D01*
X138646Y210350D01*
X138291Y210296D01*
X137984Y210219D01*
X137724Y210121D01*
X137512Y210001D01*
X137346Y209859D01*
X137228Y209696D01*
X137157Y209510D01*
X137134Y209303D01*
Y213846D01*
X137157Y213639D01*
X137228Y213454D01*
X137346Y213290D01*
X137512Y213148D01*
X137724Y213029D01*
X137984Y212930D01*
X138291Y212854D01*
X138646Y212800D01*
X139047Y212767D01*
X139075Y212766D01*
X139102Y212767D01*
X139504Y212800D01*
X139858Y212854D01*
X140165Y212930D01*
X140425Y213029D01*
X140638Y213148D01*
X140803Y213290D01*
X140921Y213454D01*
X140992Y213639D01*
X141016Y213846D01*
Y209303D01*
D02*
G37*
G36*
X59520D02*
X59496Y209510D01*
X59425Y209696D01*
X59307Y209859D01*
X59142Y210001D01*
X58929Y210121D01*
X58670Y210219D01*
X58362Y210296D01*
X58008Y210350D01*
X57607Y210383D01*
X57579Y210384D01*
X57551Y210383D01*
X57149Y210350D01*
X56795Y210296D01*
X56488Y210219D01*
X56228Y210121D01*
X56016Y210001D01*
X55850Y209859D01*
X55732Y209696D01*
X55661Y209510D01*
X55638Y209303D01*
Y213846D01*
X55661Y213639D01*
X55732Y213454D01*
X55850Y213290D01*
X56016Y213148D01*
X56228Y213029D01*
X56488Y212930D01*
X56795Y212854D01*
X57149Y212800D01*
X57551Y212767D01*
X57579Y212766D01*
X57607Y212767D01*
X58008Y212800D01*
X58362Y212854D01*
X58670Y212930D01*
X58929Y213029D01*
X59142Y213148D01*
X59307Y213290D01*
X59425Y213454D01*
X59496Y213639D01*
X59520Y213846D01*
Y209303D01*
D02*
G37*
G36*
X89179Y209303D02*
X89155Y209510D01*
X89084Y209696D01*
X88966Y209859D01*
X88801Y210001D01*
X88588Y210121D01*
X88328Y210219D01*
X88021Y210296D01*
X87667Y210350D01*
X87265Y210383D01*
X87172Y210385D01*
X87078Y210383D01*
X86677Y210350D01*
X86323Y210296D01*
X86016Y210219D01*
X85756Y210121D01*
X85543Y210001D01*
X85378Y209859D01*
X85260Y209696D01*
X85189Y209510D01*
X85165Y209303D01*
Y213846D01*
X85189Y213639D01*
X85260Y213454D01*
X85378Y213290D01*
X85543Y213148D01*
X85756Y213029D01*
X86016Y212930D01*
X86323Y212854D01*
X86677Y212800D01*
X87078Y212767D01*
X87172Y212765D01*
X87265Y212767D01*
X87667Y212800D01*
X88021Y212854D01*
X88328Y212930D01*
X88588Y213029D01*
X88801Y213148D01*
X88966Y213290D01*
X89084Y213454D01*
X89155Y213639D01*
X89179Y213846D01*
Y209303D01*
D02*
G37*
G36*
X169166D02*
X169142Y209510D01*
X169071Y209696D01*
X168953Y209859D01*
X168788Y210001D01*
X168575Y210121D01*
X168315Y210219D01*
X168008Y210296D01*
X167654Y210350D01*
X167252Y210383D01*
X167126Y210386D01*
X167000Y210383D01*
X166598Y210350D01*
X166244Y210296D01*
X165937Y210219D01*
X165677Y210121D01*
X165464Y210001D01*
X165299Y209859D01*
X165181Y209696D01*
X165110Y209510D01*
X165086Y209303D01*
Y213846D01*
X165110Y213639D01*
X165181Y213454D01*
X165299Y213290D01*
X165464Y213148D01*
X165677Y213029D01*
X165937Y212930D01*
X166244Y212854D01*
X166598Y212800D01*
X167000Y212767D01*
X167126Y212764D01*
X167252Y212767D01*
X167654Y212800D01*
X168008Y212854D01*
X168315Y212930D01*
X168575Y213029D01*
X168788Y213148D01*
X168953Y213290D01*
X169071Y213454D01*
X169142Y213639D01*
X169166Y213846D01*
Y209303D01*
D02*
G37*
G36*
X114638Y209303D02*
X114614Y209510D01*
X114543Y209696D01*
X114425Y209859D01*
X114260Y210001D01*
X114047Y210121D01*
X113788Y210219D01*
X113480Y210296D01*
X113126Y210350D01*
X112725Y210383D01*
X112598Y210386D01*
X112472Y210383D01*
X112071Y210350D01*
X111716Y210296D01*
X111409Y210219D01*
X111149Y210121D01*
X110937Y210001D01*
X110772Y209859D01*
X110653Y209696D01*
X110582Y209510D01*
X110559Y209303D01*
Y213846D01*
X110582Y213639D01*
X110653Y213454D01*
X110772Y213290D01*
X110937Y213148D01*
X111149Y213029D01*
X111409Y212930D01*
X111716Y212854D01*
X112071Y212800D01*
X112472Y212767D01*
X112598Y212764D01*
X112725Y212767D01*
X113126Y212800D01*
X113480Y212854D01*
X113788Y212930D01*
X114047Y213029D01*
X114260Y213148D01*
X114425Y213290D01*
X114543Y213454D01*
X114614Y213639D01*
X114638Y213846D01*
Y209303D01*
D02*
G37*
G36*
X146803Y213639D02*
X146874Y213454D01*
X146992Y213290D01*
X147157Y213148D01*
X147370Y213029D01*
X147630Y212930D01*
X147937Y212854D01*
X148291Y212800D01*
X148693Y212767D01*
X149142Y212756D01*
Y210394D01*
X148693Y210383D01*
X148291Y210350D01*
X147937Y210296D01*
X147630Y210219D01*
X147370Y210121D01*
X147157Y210001D01*
X146992Y209859D01*
X146874Y209696D01*
X146803Y209510D01*
X146779Y209303D01*
Y213846D01*
X146803Y213639D01*
D02*
G37*
G36*
X131370Y209303D02*
X131347Y209510D01*
X131276Y209696D01*
X131158Y209859D01*
X130992Y210001D01*
X130780Y210121D01*
X130520Y210219D01*
X130213Y210296D01*
X129859Y210350D01*
X129457Y210383D01*
X129008Y210394D01*
Y212756D01*
X129457Y212767D01*
X129859Y212800D01*
X130213Y212854D01*
X130520Y212930D01*
X130780Y213029D01*
X130992Y213148D01*
X131158Y213290D01*
X131276Y213454D01*
X131347Y213639D01*
X131370Y213846D01*
Y209303D01*
D02*
G37*
G36*
X120425Y213639D02*
X120496Y213454D01*
X120614Y213290D01*
X120779Y213148D01*
X120992Y213029D01*
X121252Y212930D01*
X121559Y212854D01*
X121913Y212800D01*
X122315Y212767D01*
X122764Y212756D01*
Y210394D01*
X122315Y210383D01*
X121913Y210350D01*
X121559Y210296D01*
X121252Y210219D01*
X120992Y210121D01*
X120779Y210001D01*
X120614Y209859D01*
X120496Y209696D01*
X120425Y209510D01*
X120401Y209303D01*
Y213846D01*
X120425Y213639D01*
D02*
G37*
G36*
X65307D02*
X65378Y213454D01*
X65496Y213290D01*
X65661Y213148D01*
X65874Y213029D01*
X66134Y212930D01*
X66441Y212854D01*
X66795Y212800D01*
X67197Y212767D01*
X67646Y212756D01*
Y210394D01*
X67197Y210383D01*
X66795Y210350D01*
X66441Y210296D01*
X66134Y210219D01*
X65874Y210121D01*
X65661Y210001D01*
X65496Y209859D01*
X65378Y209696D01*
X65307Y209510D01*
X65283Y209303D01*
Y213846D01*
X65307Y213639D01*
D02*
G37*
G36*
X49874Y209303D02*
X49851Y209510D01*
X49780Y209696D01*
X49662Y209859D01*
X49496Y210001D01*
X49284Y210121D01*
X49024Y210219D01*
X48717Y210296D01*
X48362Y210350D01*
X47961Y210383D01*
X47512Y210394D01*
Y212756D01*
X47961Y212767D01*
X48362Y212800D01*
X48717Y212854D01*
X49024Y212930D01*
X49284Y213029D01*
X49496Y213148D01*
X49662Y213290D01*
X49780Y213454D01*
X49851Y213639D01*
X49874Y213846D01*
Y209303D01*
D02*
G37*
G36*
X159323Y209303D02*
X159299Y209510D01*
X159229Y209696D01*
X159110Y209859D01*
X158945Y210001D01*
X158732Y210121D01*
X158473Y210219D01*
X158166Y210296D01*
X157811Y210350D01*
X157410Y210383D01*
X156961Y210394D01*
Y212756D01*
X157410Y212767D01*
X157811Y212800D01*
X158166Y212854D01*
X158473Y212930D01*
X158732Y213029D01*
X158945Y213148D01*
X159110Y213290D01*
X159229Y213454D01*
X159299Y213639D01*
X159323Y213846D01*
Y209303D01*
D02*
G37*
G36*
X104796D02*
X104772Y209510D01*
X104701Y209696D01*
X104583Y209859D01*
X104418Y210001D01*
X104205Y210121D01*
X103945Y210219D01*
X103638Y210296D01*
X103284Y210350D01*
X102882Y210383D01*
X102433Y210394D01*
Y212756D01*
X102882Y212767D01*
X103284Y212800D01*
X103638Y212854D01*
X103945Y212930D01*
X104205Y213029D01*
X104418Y213148D01*
X104583Y213290D01*
X104701Y213454D01*
X104772Y213639D01*
X104796Y213846D01*
Y209303D01*
D02*
G37*
G36*
X94966Y213639D02*
X95037Y213454D01*
X95155Y213290D01*
X95320Y213148D01*
X95533Y213029D01*
X95792Y212930D01*
X96100Y212854D01*
X96454Y212800D01*
X96855Y212767D01*
X97304Y212756D01*
Y210394D01*
X96855Y210383D01*
X96454Y210350D01*
X96100Y210296D01*
X95792Y210219D01*
X95533Y210121D01*
X95320Y210001D01*
X95155Y209859D01*
X95037Y209696D01*
X94966Y209510D01*
X94942Y209303D01*
Y213846D01*
X94966Y213639D01*
D02*
G37*
G36*
X79402Y209303D02*
X79378Y209510D01*
X79307Y209696D01*
X79189Y209859D01*
X79024Y210001D01*
X78811Y210121D01*
X78551Y210219D01*
X78244Y210296D01*
X77890Y210350D01*
X77488Y210383D01*
X77040Y210394D01*
Y212756D01*
X77488Y212767D01*
X77890Y212800D01*
X78244Y212854D01*
X78551Y212930D01*
X78811Y213029D01*
X79024Y213148D01*
X79189Y213290D01*
X79307Y213454D01*
X79378Y213639D01*
X79402Y213846D01*
Y209303D01*
D02*
G37*
G36*
X99594Y205315D02*
X99527Y205311D01*
X99457Y205298D01*
X99384Y205275D01*
X99309Y205243D01*
X99230Y205201D01*
X99150Y205151D01*
X99066Y205091D01*
X98980Y205021D01*
X98800Y204854D01*
X97964Y205689D01*
X98053Y205781D01*
X98201Y205956D01*
X98261Y206039D01*
X98312Y206120D01*
X98353Y206198D01*
X98385Y206274D01*
X98408Y206347D01*
X98421Y206417D01*
X98425Y206484D01*
X99594Y205315D01*
D02*
G37*
G36*
X150196Y204005D02*
X148837Y203976D01*
X148701Y205157D01*
X148829Y205160D01*
X148946Y205169D01*
X149050Y205184D01*
X149143Y205205D01*
X149225Y205232D01*
X149295Y205265D01*
X149353Y205304D01*
X149400Y205348D01*
X149435Y205399D01*
X149459Y205456D01*
X150196Y204005D01*
D02*
G37*
G36*
X68290Y203740D02*
X68240Y203785D01*
X68181Y203825D01*
X68113Y203861D01*
X68037Y203891D01*
X67953Y203917D01*
X67860Y203939D01*
X67758Y203955D01*
X67648Y203967D01*
X67402Y203976D01*
Y205157D01*
X67529Y205160D01*
X67758Y205179D01*
X67860Y205195D01*
X67953Y205217D01*
X68037Y205242D01*
X68113Y205273D01*
X68181Y205309D01*
X68240Y205349D01*
X68290Y205394D01*
Y203740D01*
D02*
G37*
G36*
X46839Y205349D02*
X46898Y205309D01*
X46966Y205273D01*
X47042Y205242D01*
X47126Y205217D01*
X47219Y205195D01*
X47321Y205179D01*
X47431Y205167D01*
X47676Y205157D01*
Y203976D01*
X47549Y203974D01*
X47321Y203955D01*
X47219Y203939D01*
X47126Y203917D01*
X47042Y203891D01*
X46966Y203861D01*
X46898Y203825D01*
X46839Y203785D01*
X46788Y203740D01*
Y205394D01*
X46839Y205349D01*
D02*
G37*
G36*
X74910Y205349D02*
X74969Y205309D01*
X75036Y205273D01*
X75112Y205242D01*
X75197Y205217D01*
X75290Y205195D01*
X75392Y205179D01*
X75502Y205167D01*
X75747Y205157D01*
Y203976D01*
X75620Y203974D01*
X75392Y203955D01*
X75290Y203939D01*
X75197Y203917D01*
X75112Y203891D01*
X75036Y203861D01*
X74969Y203825D01*
X74910Y203785D01*
X74859Y203740D01*
Y205394D01*
X74910Y205349D01*
D02*
G37*
G36*
X146779Y205636D02*
X146815Y205535D01*
X146875Y205447D01*
X146958Y205370D01*
X147066Y205305D01*
X147197Y205252D01*
X147352Y205211D01*
X147531Y205181D01*
X147734Y205163D01*
X147960Y205157D01*
Y203976D01*
X147734Y203971D01*
X147531Y203953D01*
X147352Y203923D01*
X147197Y203882D01*
X147066Y203829D01*
X146958Y203764D01*
X146875Y203687D01*
X146815Y203598D01*
X146779Y203498D01*
X146767Y203386D01*
Y205748D01*
X146779Y205636D01*
D02*
G37*
G36*
X131382Y203386D02*
X131370Y203498D01*
X131334Y203598D01*
X131275Y203687D01*
X131191Y203764D01*
X131084Y203829D01*
X130953Y203882D01*
X130798Y203923D01*
X130619Y203953D01*
X130416Y203971D01*
X130189Y203976D01*
Y205157D01*
X130416Y205163D01*
X130619Y205181D01*
X130798Y205211D01*
X130953Y205252D01*
X131084Y205305D01*
X131191Y205370D01*
X131275Y205447D01*
X131334Y205535D01*
X131370Y205636D01*
X131382Y205748D01*
Y203386D01*
D02*
G37*
G36*
X65283Y205636D02*
X65319Y205535D01*
X65379Y205447D01*
X65462Y205370D01*
X65570Y205305D01*
X65701Y205252D01*
X65856Y205211D01*
X66035Y205181D01*
X66238Y205163D01*
X66464Y205157D01*
Y203976D01*
X66238Y203971D01*
X66035Y203953D01*
X65856Y203923D01*
X65701Y203882D01*
X65570Y203829D01*
X65462Y203764D01*
X65379Y203687D01*
X65319Y203598D01*
X65283Y203498D01*
X65271Y203386D01*
Y205748D01*
X65283Y205636D01*
D02*
G37*
G36*
X49886Y203386D02*
X49874Y203498D01*
X49839Y203598D01*
X49779Y203687D01*
X49695Y203764D01*
X49588Y203829D01*
X49457Y203882D01*
X49302Y203923D01*
X49123Y203953D01*
X48920Y203971D01*
X48693Y203976D01*
Y205157D01*
X48920Y205163D01*
X49123Y205181D01*
X49302Y205211D01*
X49457Y205252D01*
X49588Y205305D01*
X49695Y205370D01*
X49779Y205447D01*
X49839Y205535D01*
X49874Y205636D01*
X49886Y205748D01*
Y203386D01*
D02*
G37*
G36*
X174929Y205636D02*
X174965Y205535D01*
X175024Y205447D01*
X175108Y205370D01*
X175215Y205305D01*
X175347Y205252D01*
X175502Y205211D01*
X175680Y205181D01*
X175883Y205163D01*
X176110Y205157D01*
Y203976D01*
X175883Y203971D01*
X175680Y203953D01*
X175502Y203923D01*
X175347Y203882D01*
X175215Y203829D01*
X175108Y203764D01*
X175024Y203687D01*
X174965Y203598D01*
X174929Y203498D01*
X174917Y203386D01*
Y205748D01*
X174929Y205636D01*
D02*
G37*
G36*
X94942D02*
X94978Y205535D01*
X95037Y205447D01*
X95121Y205370D01*
X95228Y205305D01*
X95360Y205252D01*
X95515Y205211D01*
X95694Y205181D01*
X95897Y205163D01*
X96123Y205157D01*
Y203976D01*
X95897Y203971D01*
X95694Y203953D01*
X95515Y203923D01*
X95360Y203882D01*
X95228Y203829D01*
X95121Y203764D01*
X95037Y203687D01*
X94978Y203598D01*
X94942Y203498D01*
X94930Y203386D01*
Y205748D01*
X94942Y205636D01*
D02*
G37*
G36*
X79414Y203386D02*
X79402Y203498D01*
X79366Y203598D01*
X79306Y203687D01*
X79223Y203764D01*
X79115Y203829D01*
X78984Y203882D01*
X78829Y203923D01*
X78650Y203953D01*
X78447Y203971D01*
X78221Y203976D01*
Y205157D01*
X78447Y205163D01*
X78650Y205181D01*
X78829Y205211D01*
X78984Y205252D01*
X79115Y205305D01*
X79223Y205370D01*
X79306Y205447D01*
X79366Y205535D01*
X79402Y205636D01*
X79414Y205748D01*
Y203386D01*
D02*
G37*
G36*
X156922Y208788D02*
X157325Y208779D01*
X157624Y208754D01*
X157736Y208737D01*
Y207716D01*
Y200709D01*
X159997D01*
Y196294D01*
X159829Y196075D01*
X159551Y195405D01*
X159457Y194685D01*
X159551Y193966D01*
X159829Y193295D01*
X160271Y192719D01*
X160846Y192278D01*
X161517Y192000D01*
X162236Y191905D01*
X162956Y192000D01*
X163626Y192278D01*
X164202Y192719D01*
X164644Y193295D01*
X164921Y193966D01*
X165016Y194685D01*
X164921Y195405D01*
X164644Y196075D01*
X164412Y196376D01*
Y200709D01*
X166673D01*
Y207716D01*
Y208670D01*
X167126Y208772D01*
X167579Y208670D01*
Y207716D01*
Y200709D01*
X176516D01*
Y202359D01*
X178377D01*
X178965Y201771D01*
X179008Y201446D01*
X179286Y200776D01*
X179727Y200200D01*
X180303Y199758D01*
X180973Y199480D01*
X181298Y199438D01*
X183866Y196870D01*
X182267Y195272D01*
X187222Y190316D01*
X190902Y186636D01*
Y185547D01*
X190703Y185287D01*
X190425Y184617D01*
X190331Y183898D01*
X190371Y183595D01*
X189940Y183095D01*
X187175D01*
X182477Y187792D01*
X181902Y188234D01*
X181231Y188512D01*
X180512Y188606D01*
X159252D01*
X158533Y188512D01*
X157862Y188234D01*
X157286Y187792D01*
X153376Y183882D01*
X148366D01*
Y184656D01*
X148866Y184971D01*
X149427Y184897D01*
X150147Y184992D01*
X150817Y185270D01*
X151393Y185712D01*
X151835Y186287D01*
X152112Y186958D01*
X152207Y187677D01*
X152112Y188397D01*
X151835Y189067D01*
X151393Y189643D01*
X150817Y190084D01*
X150147Y190362D01*
X149427Y190457D01*
X148866Y190383D01*
X148366Y190698D01*
Y198543D01*
X146105D01*
Y200709D01*
X148366D01*
Y202359D01*
X150039D01*
X150196Y202390D01*
X150591Y202338D01*
X151310Y202433D01*
X151980Y202711D01*
X152556Y203153D01*
X152998Y203728D01*
X153276Y204399D01*
X153370Y205118D01*
X153276Y205837D01*
X152998Y206508D01*
X152556Y207084D01*
X151980Y207525D01*
X151310Y207803D01*
X150591Y207898D01*
X149871Y207803D01*
X149201Y207525D01*
X148866Y207269D01*
X148366Y207515D01*
Y208737D01*
X148479Y208754D01*
X148777Y208779D01*
X149180Y208788D01*
X149210Y208795D01*
X156892D01*
X156922Y208788D01*
D02*
G37*
G36*
X144966Y202295D02*
X144866Y202260D01*
X144778Y202200D01*
X144701Y202117D01*
X144636Y202009D01*
X144583Y201878D01*
X144541Y201723D01*
X144512Y201544D01*
X144494Y201341D01*
X144488Y201114D01*
X143307D01*
X143301Y201341D01*
X143283Y201544D01*
X143254Y201723D01*
X143213Y201878D01*
X143159Y202009D01*
X143095Y202117D01*
X143018Y202200D01*
X142929Y202260D01*
X142829Y202295D01*
X142717Y202308D01*
X145079D01*
X144966Y202295D01*
D02*
G37*
G36*
X118589D02*
X118488Y202260D01*
X118400Y202200D01*
X118323Y202117D01*
X118258Y202009D01*
X118205Y201878D01*
X118163Y201723D01*
X118134Y201544D01*
X118116Y201341D01*
X118110Y201114D01*
X116929D01*
X116923Y201341D01*
X116905Y201544D01*
X116876Y201723D01*
X116835Y201878D01*
X116781Y202009D01*
X116717Y202117D01*
X116640Y202200D01*
X116551Y202260D01*
X116451Y202295D01*
X116339Y202308D01*
X118701D01*
X118589Y202295D01*
D02*
G37*
G36*
X63471D02*
X63370Y202260D01*
X63282Y202200D01*
X63205Y202117D01*
X63140Y202009D01*
X63087Y201878D01*
X63045Y201723D01*
X63016Y201544D01*
X62998Y201341D01*
X62992Y201114D01*
X61811D01*
X61805Y201341D01*
X61787Y201544D01*
X61758Y201723D01*
X61717Y201878D01*
X61663Y202009D01*
X61598Y202117D01*
X61522Y202200D01*
X61433Y202260D01*
X61333Y202295D01*
X61221Y202308D01*
X63583D01*
X63471Y202295D01*
D02*
G37*
G36*
X163274Y202295D02*
X163173Y202260D01*
X163085Y202200D01*
X163008Y202117D01*
X162943Y202009D01*
X162890Y201878D01*
X162848Y201723D01*
X162819Y201544D01*
X162801Y201341D01*
X162795Y201114D01*
X161614D01*
X161608Y201341D01*
X161591Y201544D01*
X161561Y201723D01*
X161520Y201878D01*
X161467Y202009D01*
X161402Y202117D01*
X161325Y202200D01*
X161236Y202260D01*
X161136Y202295D01*
X161024Y202308D01*
X163386D01*
X163274Y202295D01*
D02*
G37*
G36*
X57933Y208291D02*
Y200709D01*
X60194D01*
Y199930D01*
X59972Y199708D01*
X59800Y199547D01*
X59647D01*
X59612Y199553D01*
X59588Y199547D01*
X47598D01*
Y197286D01*
X47008D01*
Y199547D01*
X39291D01*
Y190610D01*
X42334D01*
X42580Y190110D01*
X42475Y189972D01*
X42197Y189302D01*
X42102Y188583D01*
X42197Y187863D01*
X42475Y187193D01*
X42674Y186933D01*
Y154134D01*
X42840Y153301D01*
X42799Y153245D01*
X42506Y152939D01*
X41790Y153418D01*
X40945Y153586D01*
X20079D01*
X19234Y153418D01*
X18518Y152939D01*
X16352Y150774D01*
X15874Y150057D01*
X15706Y149213D01*
Y139516D01*
X15703Y139446D01*
X15700Y139434D01*
X15691Y139411D01*
X15678Y139385D01*
X15659Y139355D01*
X15633Y139317D01*
X15597Y139273D01*
X15512Y139185D01*
X15488Y139147D01*
X14990Y138498D01*
X14653Y137684D01*
X14538Y136811D01*
X14653Y135937D01*
X14990Y135123D01*
X15095Y134987D01*
X15129Y134343D01*
X15134Y134324D01*
Y132324D01*
X15127Y132287D01*
X15130Y131667D01*
X14850Y130992D01*
X14735Y130118D01*
X14850Y129244D01*
X15130Y128569D01*
X15127Y127949D01*
X15134Y127913D01*
Y117581D01*
X15127Y117546D01*
X15126Y117360D01*
X15118Y117012D01*
X14990Y116845D01*
X14653Y116031D01*
X14538Y115157D01*
X14653Y114284D01*
X14990Y113470D01*
X15527Y112771D01*
X16226Y112234D01*
X17040Y111897D01*
X17913Y111782D01*
X18768Y111895D01*
X18871Y111897D01*
X19268Y111589D01*
Y99692D01*
X19088Y99405D01*
X19035Y99352D01*
X18813Y99225D01*
X18178Y99141D01*
X17508Y98864D01*
X16932Y98422D01*
X16490Y97846D01*
X16213Y97176D01*
X16118Y96456D01*
X16213Y95737D01*
X16490Y95067D01*
X16690Y94807D01*
Y80251D01*
X16206Y79767D01*
X7764D01*
X7504Y79966D01*
X6833Y80244D01*
X6114Y80339D01*
X5395Y80244D01*
X4724Y79966D01*
X4149Y79524D01*
X3707Y78949D01*
X3429Y78278D01*
X3334Y77559D01*
X3429Y76839D01*
X3707Y76169D01*
X4149Y75593D01*
X4724Y75151D01*
X5395Y74874D01*
X6114Y74779D01*
X6833Y74874D01*
X7504Y75151D01*
X7764Y75351D01*
X17120D01*
X17965Y75519D01*
X18681Y75998D01*
X20459Y77775D01*
X20937Y78491D01*
X21105Y79336D01*
Y94807D01*
X21305Y95067D01*
X21493Y95521D01*
X22044Y95677D01*
X23091Y94630D01*
X23111Y94600D01*
X23242Y94469D01*
X23483Y94216D01*
X23510Y94008D01*
X23847Y93194D01*
X24384Y92495D01*
X25083Y91959D01*
X25897Y91622D01*
X26770Y91507D01*
X27644Y91622D01*
X28458Y91959D01*
X29157Y92495D01*
X29693Y93194D01*
X30031Y94008D01*
X30146Y94882D01*
X30031Y95755D01*
X29693Y96570D01*
X29157Y97269D01*
X28458Y97805D01*
X27644Y98142D01*
X27474Y98165D01*
X26994Y98596D01*
X26977Y98606D01*
X24827Y100756D01*
Y145608D01*
X24834Y145643D01*
X24835Y145829D01*
X24843Y146177D01*
X24970Y146344D01*
X25308Y147158D01*
X25423Y148031D01*
X25339Y148670D01*
X25688Y149170D01*
X40030D01*
X42084Y147117D01*
Y142853D01*
X41622Y142662D01*
X38121Y146162D01*
X38079Y146487D01*
X37801Y147157D01*
X37359Y147733D01*
X36783Y148175D01*
X36113Y148452D01*
X35394Y148547D01*
X34674Y148452D01*
X34004Y148175D01*
X33428Y147733D01*
X32986Y147157D01*
X32709Y146487D01*
X32614Y145767D01*
X32709Y145048D01*
X32986Y144378D01*
X33428Y143802D01*
X34004Y143360D01*
X34674Y143082D01*
X34999Y143040D01*
X37201Y140837D01*
X36871Y140461D01*
X36823Y140498D01*
X36152Y140775D01*
X35433Y140870D01*
X34714Y140775D01*
X34043Y140498D01*
X33468Y140056D01*
X33026Y139480D01*
X32748Y138810D01*
X32653Y138090D01*
X32748Y137371D01*
X33026Y136700D01*
X33468Y136125D01*
X33845Y135835D01*
X33874Y135768D01*
Y135295D01*
X33845Y135228D01*
X33468Y134938D01*
X33026Y134362D01*
X32748Y133692D01*
X32653Y132972D01*
X32748Y132253D01*
X33026Y131582D01*
X33468Y131007D01*
X34043Y130565D01*
X34714Y130287D01*
X35039Y130244D01*
X35981Y129302D01*
Y125810D01*
X35605Y125480D01*
X35335Y125516D01*
X34615Y125421D01*
X33945Y125143D01*
X33369Y124701D01*
X32928Y124126D01*
X32650Y123455D01*
X32555Y122736D01*
X32650Y122017D01*
X32928Y121346D01*
X33127Y121086D01*
Y49114D01*
X33295Y48269D01*
X33774Y47553D01*
X37218Y44108D01*
X37935Y43630D01*
X38780Y43461D01*
X46775D01*
X47035Y43262D01*
X47706Y42984D01*
X48425Y42890D01*
X49145Y42984D01*
X49815Y43262D01*
X50391Y43704D01*
X50832Y44280D01*
X51110Y44950D01*
X51205Y45669D01*
X51110Y46389D01*
X50832Y47059D01*
X50391Y47635D01*
X49815Y48077D01*
X49145Y48354D01*
X48425Y48449D01*
X47993Y48896D01*
X47961Y49145D01*
X47683Y49815D01*
X47241Y50391D01*
X46665Y50832D01*
X45995Y51110D01*
X45276Y51205D01*
X44556Y51110D01*
X43886Y50832D01*
X43626Y50633D01*
X41072D01*
X40397Y51308D01*
Y65255D01*
X40859Y65447D01*
X41538Y64767D01*
X42114Y64325D01*
X42785Y64047D01*
X43504Y63953D01*
X56061D01*
X56096Y63946D01*
X56281Y63945D01*
X56630Y63937D01*
X56796Y63809D01*
X57610Y63472D01*
X58484Y63357D01*
X59358Y63472D01*
X60172Y63809D01*
X60871Y64346D01*
X61407Y65045D01*
X61744Y65859D01*
X61859Y66732D01*
X61744Y67606D01*
X61407Y68420D01*
X60871Y69119D01*
X60172Y69655D01*
X59358Y69993D01*
X58484Y70108D01*
X57610Y69993D01*
X56796Y69655D01*
X56660Y69551D01*
X56016Y69517D01*
X55997Y69512D01*
X44709D01*
Y79835D01*
X45209Y80176D01*
X45866Y80089D01*
X46740Y80204D01*
X47554Y80541D01*
X47690Y80646D01*
X48334Y80680D01*
X48353Y80685D01*
X69419D01*
X70567Y79537D01*
Y77534D01*
X70560Y77500D01*
X70556Y76927D01*
X70553Y76924D01*
X70216Y76110D01*
X70101Y75236D01*
X70216Y74362D01*
X70553Y73548D01*
X70556Y73545D01*
X70560Y72972D01*
X70567Y72938D01*
Y35512D01*
X70661Y34792D01*
X70939Y34122D01*
X71381Y33546D01*
X73428Y31499D01*
X74004Y31057D01*
X74674Y30780D01*
X75394Y30685D01*
X80935D01*
X81315Y30305D01*
Y16203D01*
X81308Y16168D01*
X81307Y15982D01*
X81299Y15634D01*
X81171Y15467D01*
X80834Y14653D01*
X80719Y13780D01*
X80834Y12906D01*
X81171Y12092D01*
X81708Y11393D01*
X82407Y10856D01*
X83221Y10519D01*
X84095Y10404D01*
X84968Y10519D01*
X85782Y10856D01*
X86481Y11393D01*
X87018Y12092D01*
X87355Y12906D01*
X87470Y13780D01*
X87355Y14653D01*
X87018Y15467D01*
X86913Y15604D01*
X86879Y16248D01*
X86874Y16267D01*
Y31457D01*
X86779Y32176D01*
X86502Y32847D01*
X86060Y33422D01*
X85341Y34141D01*
X85532Y34603D01*
X94952D01*
X100801Y28754D01*
X101517Y28275D01*
X102362Y28107D01*
X105673D01*
X105846Y27638D01*
X105198Y27085D01*
X104132Y25836D01*
X103274Y24436D01*
X102645Y22919D01*
X102262Y21322D01*
X102133Y19685D01*
X102262Y18048D01*
X102645Y16451D01*
X103274Y14934D01*
X104132Y13533D01*
X105198Y12285D01*
X106447Y11218D01*
X107847Y10360D01*
X109364Y9732D01*
X110961Y9348D01*
X112598Y9219D01*
X114236Y9348D01*
X115832Y9732D01*
X117350Y10360D01*
X118750Y11218D01*
X119999Y12285D01*
X121065Y13533D01*
X121923Y14934D01*
X122552Y16451D01*
X122935Y18048D01*
X123064Y19685D01*
X122935Y21322D01*
X122552Y22919D01*
X121923Y24436D01*
X121065Y25836D01*
X119999Y27085D01*
X119351Y27638D01*
X119524Y28107D01*
X145082D01*
X145342Y27908D01*
X146013Y27630D01*
X146732Y27535D01*
X147452Y27630D01*
X148122Y27908D01*
X148698Y28349D01*
X149140Y28925D01*
X149417Y29596D01*
X149512Y30315D01*
X149428Y30954D01*
X149490Y31127D01*
X149771Y31486D01*
X150451Y31622D01*
X151167Y32100D01*
X158845Y39777D01*
X159323Y40494D01*
X159491Y41339D01*
Y81299D01*
X159459Y81461D01*
X159776Y81847D01*
X172826D01*
X173808Y80865D01*
X173851Y80540D01*
X174128Y79870D01*
X174570Y79294D01*
X175146Y78853D01*
X175816Y78575D01*
X176535Y78480D01*
X177255Y78575D01*
X177607Y78721D01*
X178107Y78387D01*
Y60167D01*
X174226Y56286D01*
X173748Y55569D01*
X173580Y54724D01*
Y25907D01*
X173080Y25789D01*
X172291Y26394D01*
X171300Y26804D01*
X170236Y26944D01*
X169173Y26804D01*
X168181Y26394D01*
X167330Y25741D01*
X166677Y24889D01*
X166266Y23898D01*
X166126Y22835D01*
X166266Y21771D01*
X166677Y20779D01*
X167330Y19928D01*
X168181Y19275D01*
X169173Y18865D01*
X170236Y18724D01*
X171300Y18865D01*
X172291Y19275D01*
X173080Y19880D01*
X173580Y19762D01*
Y15354D01*
X173748Y14510D01*
X174226Y13793D01*
X177376Y10644D01*
X178092Y10165D01*
X178937Y9997D01*
X195201D01*
X195460Y9798D01*
X196131Y9520D01*
X196850Y9425D01*
X197570Y9520D01*
X198240Y9798D01*
X198816Y10239D01*
X199258Y10815D01*
X199535Y11485D01*
X199630Y12205D01*
X199556Y12767D01*
X199871Y13268D01*
X208287D01*
Y18472D01*
X208628Y18813D01*
X209246Y18723D01*
X209390Y18508D01*
Y13228D01*
X218327D01*
Y18882D01*
X218789Y19073D01*
X219268Y18594D01*
X219429Y18422D01*
Y18269D01*
X219424Y18233D01*
X219429Y18210D01*
Y13228D01*
X226571D01*
X226597Y13220D01*
X226689Y13227D01*
X226779Y13209D01*
X226874Y13228D01*
X228366D01*
Y13459D01*
X228866Y13798D01*
X229528Y13711D01*
X230401Y13826D01*
X231215Y14163D01*
X231914Y14700D01*
X232451Y15399D01*
X232788Y16213D01*
X232903Y17086D01*
X232788Y17960D01*
X232451Y18774D01*
X231914Y19473D01*
X231215Y20009D01*
X230401Y20347D01*
X229528Y20462D01*
X228866Y20375D01*
X228366Y20714D01*
Y20945D01*
X226874D01*
X226779Y20964D01*
X226689Y20946D01*
X226597Y20953D01*
X226571Y20945D01*
X223429D01*
X223423Y20947D01*
X223407Y20945D01*
X223267D01*
X223232Y20950D01*
X223209Y20945D01*
X223198D01*
X222976Y21130D01*
X219907Y24199D01*
X219191Y24678D01*
X218346Y24846D01*
X217205D01*
Y28543D01*
X222027D01*
Y29870D01*
X222528Y30021D01*
X222848Y29541D01*
X224226Y28163D01*
X224943Y27685D01*
X224961Y27681D01*
Y25256D01*
X232677D01*
Y25256D01*
X239685D01*
Y30193D01*
X239687Y30199D01*
X239685Y30215D01*
Y30354D01*
X239691Y30390D01*
X239685Y30413D01*
Y30424D01*
X239871Y30646D01*
X242299Y33074D01*
X242761Y32883D01*
Y20993D01*
X223775Y2007D01*
X189068D01*
X188969Y2507D01*
X189461Y2711D01*
X190036Y3153D01*
X190478Y3728D01*
X190756Y4399D01*
X190850Y5118D01*
X190756Y5838D01*
X190478Y6508D01*
X190036Y7084D01*
X189461Y7525D01*
X188790Y7803D01*
X188071Y7898D01*
X187351Y7803D01*
X186681Y7525D01*
X186421Y7326D01*
X167844D01*
X166310Y8859D01*
X166268Y9184D01*
X165990Y9854D01*
X165548Y10430D01*
X164972Y10872D01*
X164302Y11149D01*
X163583Y11244D01*
X162863Y11149D01*
X162193Y10872D01*
X161617Y10430D01*
X161175Y9854D01*
X160898Y9184D01*
X160803Y8464D01*
X160898Y7745D01*
X161175Y7074D01*
X161617Y6499D01*
X162193Y6057D01*
X162863Y5779D01*
X163188Y5737D01*
X165368Y3557D01*
X166084Y3078D01*
X166929Y2910D01*
X186421D01*
X186681Y2711D01*
X187173Y2507D01*
X187073Y2007D01*
X142974D01*
X142753Y2507D01*
X143159Y3037D01*
X143497Y3851D01*
X143612Y4724D01*
X143497Y5598D01*
X143159Y6412D01*
X143055Y6548D01*
X143021Y7192D01*
X143016Y7211D01*
Y19066D01*
X143023Y19096D01*
X143027Y19323D01*
X143039Y19490D01*
X143056Y19631D01*
X143077Y19746D01*
X143099Y19832D01*
X143120Y19891D01*
X143133Y19921D01*
X143142Y19928D01*
X143170Y19964D01*
X143177Y19972D01*
X143181Y19979D01*
X143796Y20779D01*
X144206Y21771D01*
X144346Y22835D01*
X144206Y23898D01*
X143796Y24889D01*
X143142Y25741D01*
X142291Y26394D01*
X141300Y26804D01*
X140236Y26944D01*
X139172Y26804D01*
X138181Y26394D01*
X137330Y25741D01*
X136677Y24889D01*
X136266Y23898D01*
X136126Y22835D01*
X136266Y21771D01*
X136677Y20779D01*
X137291Y19979D01*
X137295Y19972D01*
X137302Y19964D01*
X137330Y19928D01*
X137340Y19921D01*
X137353Y19891D01*
X137373Y19832D01*
X137395Y19746D01*
X137412Y19653D01*
X137445Y19302D01*
X137450Y19096D01*
X137457Y19066D01*
Y7147D01*
X137450Y7112D01*
X137449Y6927D01*
X137441Y6578D01*
X137313Y6412D01*
X136976Y5598D01*
X136861Y4724D01*
X136976Y3851D01*
X137313Y3037D01*
X137719Y2507D01*
X137498Y2007D01*
X831D01*
X-17678Y20516D01*
Y176334D01*
X831Y194843D01*
X9356D01*
X9577Y194395D01*
X9560Y194372D01*
X9064Y193175D01*
X8895Y191890D01*
X9064Y190605D01*
X9560Y189408D01*
X10348Y188380D01*
X11376Y187591D01*
X12574Y187095D01*
X13858Y186926D01*
X15143Y187095D01*
X16340Y187591D01*
X17368Y188380D01*
X18157Y189408D01*
X18602Y190481D01*
X18602Y190482D01*
X19114D01*
X19115Y190481D01*
X19560Y189408D01*
X20348Y188380D01*
X21376Y187591D01*
X22574Y187095D01*
X23858Y186926D01*
X25143Y187095D01*
X26340Y187591D01*
X26890Y188013D01*
X27338Y187792D01*
Y178210D01*
X27331Y178175D01*
X27331Y177990D01*
X27323Y177641D01*
X27195Y177475D01*
X26858Y176661D01*
X26743Y175787D01*
X26858Y174914D01*
X27195Y174100D01*
X27323Y173933D01*
X27331Y173585D01*
X27331Y173399D01*
X27338Y173364D01*
Y170836D01*
X26605Y170103D01*
X7541D01*
X7506Y170110D01*
X7321Y170110D01*
X6972Y170118D01*
X6806Y170246D01*
X5992Y170583D01*
X5118Y170698D01*
X4245Y170583D01*
X3430Y170246D01*
X2731Y169710D01*
X2195Y169010D01*
X1858Y168196D01*
X1743Y167323D01*
X1858Y166449D01*
X2195Y165635D01*
X2731Y164936D01*
X3430Y164400D01*
X4245Y164062D01*
X5118Y163947D01*
X5992Y164062D01*
X6806Y164400D01*
X6942Y164504D01*
X7586Y164538D01*
X7605Y164543D01*
X27756D01*
X28475Y164638D01*
X29146Y164916D01*
X29721Y165357D01*
X32084Y167719D01*
X32525Y168295D01*
X32803Y168966D01*
X32898Y169685D01*
Y173300D01*
X32903Y173319D01*
X32937Y173963D01*
X33041Y174100D01*
X33378Y174914D01*
X33493Y175787D01*
X33378Y176661D01*
X33041Y177475D01*
X32937Y177611D01*
X32903Y178256D01*
X32898Y178275D01*
Y192065D01*
X32905Y192100D01*
X32905Y192285D01*
X32914Y192634D01*
X33041Y192800D01*
X33378Y193614D01*
X33493Y194488D01*
X33378Y195361D01*
X33041Y196176D01*
X32505Y196874D01*
X31838Y197386D01*
X31747Y197503D01*
X31664Y197920D01*
X41844Y208100D01*
X42260Y208017D01*
X42377Y207926D01*
X42889Y207259D01*
X43529Y206768D01*
X43598Y206662D01*
X43681Y206143D01*
X43538Y205957D01*
X43260Y205286D01*
X43165Y204567D01*
X43260Y203848D01*
X43538Y203177D01*
X43979Y202601D01*
X44555Y202160D01*
X45226Y201882D01*
X45945Y201787D01*
X46664Y201882D01*
X47335Y202160D01*
X47595Y202359D01*
X48287D01*
Y200709D01*
X57224D01*
Y208291D01*
X57579Y208499D01*
X57933Y208291D01*
D02*
G37*
G36*
X181067Y203640D02*
X181153Y203571D01*
X181236Y203511D01*
X181317Y203460D01*
X181395Y203419D01*
X181471Y203386D01*
X181544Y203364D01*
X181614Y203350D01*
X181681Y203346D01*
X181693Y202165D01*
X182874Y202153D01*
X182878Y202086D01*
X182891Y202016D01*
X182914Y201943D01*
X182946Y201868D01*
X182987Y201789D01*
X183038Y201709D01*
X183098Y201625D01*
X183168Y201539D01*
X183335Y201359D01*
X182500Y200523D01*
X182408Y200612D01*
X182233Y200760D01*
X182150Y200820D01*
X182069Y200871D01*
X181991Y200912D01*
X181915Y200944D01*
X181842Y200967D01*
X181772Y200980D01*
X181705Y200984D01*
X181693Y202165D01*
X180512Y202177D01*
X180508Y202245D01*
X180494Y202315D01*
X180472Y202388D01*
X180440Y202463D01*
X180398Y202541D01*
X180348Y202622D01*
X180287Y202706D01*
X180139Y202881D01*
X180051Y202972D01*
X180886Y203807D01*
X181067Y203640D01*
D02*
G37*
G36*
X108746Y202295D02*
X108646Y202260D01*
X108557Y202200D01*
X108480Y202117D01*
X108415Y202009D01*
X108362Y201878D01*
X108321Y201723D01*
X108291Y201544D01*
X108274Y201341D01*
X108268Y201125D01*
X108270Y201014D01*
X108289Y200785D01*
X108306Y200684D01*
X108327Y200591D01*
X108353Y200506D01*
X108383Y200430D01*
X108419Y200363D01*
X108459Y200304D01*
X108504Y200253D01*
X106850Y200253D01*
X106895Y200304D01*
X106935Y200362D01*
X106971Y200430D01*
X107002Y200506D01*
X107027Y200591D01*
X107049Y200684D01*
X107065Y200785D01*
X107077Y200895D01*
X107086Y201130D01*
X107081Y201341D01*
X107063Y201544D01*
X107033Y201723D01*
X106992Y201878D01*
X106939Y202009D01*
X106874Y202117D01*
X106797Y202200D01*
X106709Y202260D01*
X106608Y202295D01*
X106496Y202308D01*
X108858D01*
X108746Y202295D01*
D02*
G37*
G36*
X118113Y200423D02*
X118131Y200195D01*
X118148Y200093D01*
X118169Y200000D01*
X118195Y199916D01*
X118226Y199840D01*
X118261Y199772D01*
X118302Y199713D01*
X118347Y199662D01*
X116693D01*
X116738Y199713D01*
X116778Y199772D01*
X116813Y199840D01*
X116844Y199916D01*
X116870Y200000D01*
X116891Y200093D01*
X116908Y200195D01*
X116920Y200305D01*
X116929Y200550D01*
X118110D01*
X118113Y200423D01*
D02*
G37*
G36*
X97604Y198915D02*
X97622Y198712D01*
X97652Y198533D01*
X97693Y198378D01*
X97746Y198247D01*
X97811Y198139D01*
X97888Y198056D01*
X97976Y197996D01*
X98077Y197960D01*
X98189Y197948D01*
X95827D01*
X95939Y197960D01*
X96039Y197996D01*
X96128Y198056D01*
X96205Y198139D01*
X96270Y198247D01*
X96323Y198378D01*
X96364Y198533D01*
X96394Y198712D01*
X96411Y198915D01*
X96417Y199142D01*
X97598D01*
X97604Y198915D01*
D02*
G37*
G36*
X61571Y197350D02*
X61363Y197134D01*
X61030Y196735D01*
X60904Y196552D01*
X60806Y196379D01*
X60735Y196217D01*
X60691Y196067D01*
X60675Y195927D01*
X60686Y195798D01*
X60724Y195680D01*
X59676Y197949D01*
X59740Y197856D01*
X59826Y197802D01*
X59935Y197788D01*
X60068Y197814D01*
X60224Y197879D01*
X60402Y197983D01*
X60604Y198127D01*
X60828Y198310D01*
X61346Y198796D01*
X61571Y197350D01*
D02*
G37*
G36*
X125396Y198258D02*
X125415Y198029D01*
X125432Y197928D01*
X125453Y197835D01*
X125479Y197750D01*
X125509Y197674D01*
X125545Y197607D01*
X125585Y197548D01*
X125630Y197497D01*
X123976D01*
X124021Y197548D01*
X124061Y197607D01*
X124097Y197674D01*
X124128Y197750D01*
X124153Y197835D01*
X124175Y197928D01*
X124191Y198029D01*
X124203Y198140D01*
X124213Y198385D01*
X125394D01*
X125396Y198258D01*
D02*
G37*
G36*
X118302Y197925D02*
X118261Y197866D01*
X118226Y197798D01*
X118195Y197722D01*
X118169Y197638D01*
X118148Y197545D01*
X118131Y197443D01*
X118120Y197333D01*
X118110Y197087D01*
X116929D01*
X116927Y197214D01*
X116908Y197443D01*
X116891Y197545D01*
X116870Y197638D01*
X116844Y197722D01*
X116813Y197798D01*
X116778Y197866D01*
X116738Y197925D01*
X116693Y197975D01*
X118347D01*
X118302Y197925D01*
D02*
G37*
G36*
X144494Y197911D02*
X144512Y197708D01*
X144541Y197529D01*
X144583Y197374D01*
X144636Y197243D01*
X144701Y197135D01*
X144778Y197052D01*
X144866Y196992D01*
X144966Y196956D01*
X145079Y196944D01*
X142717D01*
X142829Y196956D01*
X142929Y196992D01*
X143018Y197052D01*
X143095Y197135D01*
X143159Y197243D01*
X143213Y197374D01*
X143254Y197529D01*
X143283Y197708D01*
X143301Y197911D01*
X143307Y198138D01*
X144488D01*
X144494Y197911D01*
D02*
G37*
G36*
X186296Y198406D02*
X186452Y198275D01*
X186599Y198170D01*
X186738Y198089D01*
X186868Y198034D01*
X186990Y198004D01*
X187103Y197999D01*
X187208Y198020D01*
X187305Y198065D01*
X187392Y198136D01*
X185722Y196466D01*
X185793Y196554D01*
X185839Y196650D01*
X185859Y196755D01*
X185854Y196868D01*
X185824Y196990D01*
X185769Y197120D01*
X185689Y197259D01*
X185583Y197407D01*
X185452Y197563D01*
X185296Y197727D01*
X186131Y198562D01*
X186296Y198406D01*
D02*
G37*
G36*
X162798Y196307D02*
X162817Y196079D01*
X162834Y195978D01*
X162856Y195885D01*
X162883Y195801D01*
X162915Y195725D01*
X162952Y195658D01*
X162994Y195600D01*
X163040Y195550D01*
X161387Y195506D01*
X161430Y195557D01*
X161469Y195617D01*
X161503Y195685D01*
X161532Y195761D01*
X161557Y195846D01*
X161578Y195940D01*
X161594Y196042D01*
X161612Y196271D01*
X161614Y196398D01*
X162795Y196434D01*
X162798Y196307D01*
D02*
G37*
G36*
X87740Y193898D02*
X87729Y194010D01*
X87693Y194110D01*
X87633Y194199D01*
X87550Y194276D01*
X87442Y194341D01*
X87311Y194394D01*
X87156Y194435D01*
X86977Y194465D01*
X86774Y194482D01*
X86547Y194488D01*
Y195669D01*
X86774Y195675D01*
X86977Y195693D01*
X87156Y195722D01*
X87311Y195764D01*
X87442Y195817D01*
X87550Y195882D01*
X87633Y195959D01*
X87693Y196047D01*
X87729Y196148D01*
X87740Y196260D01*
Y193898D01*
D02*
G37*
G36*
X83767Y196148D02*
X83803Y196047D01*
X83863Y195959D01*
X83946Y195882D01*
X84054Y195817D01*
X84185Y195764D01*
X84340Y195722D01*
X84519Y195693D01*
X84722Y195675D01*
X84949Y195669D01*
Y194488D01*
X84722Y194482D01*
X84519Y194465D01*
X84340Y194435D01*
X84185Y194394D01*
X84054Y194341D01*
X83946Y194276D01*
X83863Y194199D01*
X83803Y194110D01*
X83767Y194010D01*
X83755Y193898D01*
Y196260D01*
X83767Y196148D01*
D02*
G37*
G36*
X49197Y193898D02*
X49185Y194010D01*
X49150Y194110D01*
X49090Y194199D01*
X49006Y194276D01*
X48899Y194341D01*
X48768Y194394D01*
X48613Y194435D01*
X48434Y194465D01*
X48231Y194482D01*
X48004Y194488D01*
Y195669D01*
X48231Y195675D01*
X48434Y195693D01*
X48613Y195722D01*
X48768Y195764D01*
X48899Y195817D01*
X49006Y195882D01*
X49090Y195959D01*
X49150Y196047D01*
X49185Y196148D01*
X49197Y196260D01*
Y193898D01*
D02*
G37*
G36*
X45421Y196148D02*
X45457Y196047D01*
X45516Y195959D01*
X45600Y195882D01*
X45707Y195817D01*
X45839Y195764D01*
X45994Y195722D01*
X46173Y195693D01*
X46376Y195675D01*
X46602Y195669D01*
Y194488D01*
X46376Y194482D01*
X46173Y194465D01*
X45994Y194435D01*
X45839Y194394D01*
X45707Y194341D01*
X45600Y194276D01*
X45516Y194199D01*
X45457Y194110D01*
X45421Y194010D01*
X45409Y193898D01*
Y196260D01*
X45421Y196148D01*
D02*
G37*
G36*
X118116Y194131D02*
X118134Y193929D01*
X118163Y193750D01*
X118205Y193595D01*
X118258Y193463D01*
X118323Y193356D01*
X118400Y193272D01*
X118488Y193213D01*
X118589Y193177D01*
X118701Y193165D01*
X116339D01*
X116451Y193177D01*
X116551Y193213D01*
X116640Y193272D01*
X116717Y193356D01*
X116781Y193463D01*
X116835Y193595D01*
X116876Y193750D01*
X116905Y193929D01*
X116923Y194131D01*
X116929Y194358D01*
X118110D01*
X118116Y194131D01*
D02*
G37*
G36*
X195711Y195431D02*
X196362Y194996D01*
X197130Y194843D01*
X209567D01*
Y192956D01*
X197222D01*
X193542Y196636D01*
X188586Y201591D01*
X186988Y199993D01*
X184421Y202560D01*
X184378Y202885D01*
X184100Y203555D01*
X183658Y204131D01*
X183083Y204573D01*
X182412Y204850D01*
X182087Y204893D01*
X180852Y206128D01*
X180136Y206607D01*
X179291Y206775D01*
X176516D01*
Y213919D01*
X177016Y214126D01*
X195711Y195431D01*
D02*
G37*
G36*
X31347Y193201D02*
X31337Y193159D01*
X31328Y193098D01*
X31314Y192914D01*
X31300Y192306D01*
X31299Y192104D01*
X28937D01*
X28878Y193223D01*
X31358D01*
X31347Y193201D01*
D02*
G37*
G36*
X52526Y192185D02*
X52425Y192150D01*
X52337Y192091D01*
X52260Y192008D01*
X52195Y191902D01*
X52142Y191772D01*
X52100Y191618D01*
X52071Y191441D01*
X52053Y191240D01*
X52047Y191016D01*
X50866D01*
X50860Y191240D01*
X50842Y191441D01*
X50813Y191618D01*
X50772Y191772D01*
X50718Y191902D01*
X50653Y192008D01*
X50577Y192091D01*
X50488Y192150D01*
X50388Y192185D01*
X50276Y192197D01*
X52638D01*
X52526Y192185D01*
D02*
G37*
G36*
X91069Y192185D02*
X90969Y192150D01*
X90880Y192091D01*
X90803Y192008D01*
X90738Y191902D01*
X90685Y191772D01*
X90644Y191618D01*
X90614Y191441D01*
X90596Y191240D01*
X90591Y191016D01*
X89410D01*
X89403Y191240D01*
X89386Y191441D01*
X89356Y191618D01*
X89315Y191772D01*
X89262Y191902D01*
X89197Y192008D01*
X89120Y192091D01*
X89031Y192150D01*
X88931Y192185D01*
X88819Y192197D01*
X91181D01*
X91069Y192185D01*
D02*
G37*
G36*
X211166Y189567D02*
X211154Y189679D01*
X211118Y189779D01*
X211058Y189868D01*
X210975Y189945D01*
X210868Y190010D01*
X210736Y190063D01*
X210581Y190104D01*
X210402Y190134D01*
X210199Y190152D01*
X209973Y190157D01*
Y191339D01*
X210199Y191344D01*
X210402Y191362D01*
X210581Y191392D01*
X210736Y191433D01*
X210868Y191486D01*
X210975Y191551D01*
X211058Y191628D01*
X211118Y191717D01*
X211154Y191817D01*
X211166Y191929D01*
Y189567D01*
D02*
G37*
G36*
X45664Y187689D02*
X45624Y187630D01*
X45588Y187562D01*
X45557Y187486D01*
X45531Y187401D01*
X45510Y187308D01*
X45494Y187207D01*
X45482Y187097D01*
X45472Y186851D01*
X44291D01*
X44289Y186978D01*
X44270Y187207D01*
X44254Y187308D01*
X44232Y187401D01*
X44206Y187486D01*
X44176Y187562D01*
X44140Y187630D01*
X44100Y187689D01*
X44055Y187739D01*
X45709D01*
X45664Y187689D01*
D02*
G37*
G36*
X146791Y188746D02*
X146827Y188646D01*
X146886Y188557D01*
X146968Y188480D01*
X147075Y188415D01*
X147204Y188362D01*
X147358Y188321D01*
X147535Y188291D01*
X147736Y188274D01*
X147835Y188271D01*
X148052Y188289D01*
X148153Y188305D01*
X148246Y188327D01*
X148331Y188353D01*
X148407Y188383D01*
X148474Y188419D01*
X148533Y188459D01*
X148584Y188504D01*
Y186850D01*
X148533Y186895D01*
X148474Y186935D01*
X148407Y186971D01*
X148331Y187002D01*
X148246Y187028D01*
X148153Y187049D01*
X148052Y187065D01*
X147942Y187077D01*
X147803Y187083D01*
X147736Y187081D01*
X147535Y187063D01*
X147358Y187033D01*
X147204Y186992D01*
X147075Y186939D01*
X146968Y186874D01*
X146886Y186797D01*
X146827Y186709D01*
X146791Y186608D01*
X146779Y186496D01*
Y188858D01*
X146791Y188746D01*
D02*
G37*
G36*
X141028Y186496D02*
X141016Y186608D01*
X140980Y186709D01*
X140921Y186797D01*
X140837Y186874D01*
X140730Y186939D01*
X140598Y186992D01*
X140443Y187033D01*
X140264Y187063D01*
X140061Y187081D01*
X139835Y187087D01*
Y188268D01*
X140061Y188274D01*
X140264Y188291D01*
X140443Y188321D01*
X140598Y188362D01*
X140730Y188415D01*
X140837Y188480D01*
X140921Y188557D01*
X140980Y188646D01*
X141016Y188746D01*
X141028Y188858D01*
Y186496D01*
D02*
G37*
G36*
X136949Y188746D02*
X136984Y188646D01*
X137043Y188557D01*
X137126Y188480D01*
X137232Y188415D01*
X137362Y188362D01*
X137516Y188321D01*
X137693Y188291D01*
X137893Y188274D01*
X138118Y188268D01*
Y187087D01*
X137893Y187081D01*
X137693Y187063D01*
X137516Y187033D01*
X137362Y186992D01*
X137232Y186939D01*
X137126Y186874D01*
X137043Y186797D01*
X136984Y186709D01*
X136949Y186608D01*
X136937Y186496D01*
Y188858D01*
X136949Y188746D01*
D02*
G37*
G36*
X242761Y176334D02*
Y152769D01*
X242299Y152577D01*
X242123Y152753D01*
X241547Y153195D01*
X240877Y153472D01*
X240158Y153567D01*
X227442D01*
X227272Y154067D01*
X227584Y154306D01*
X228120Y155005D01*
X228457Y155819D01*
X228572Y156693D01*
X228457Y157566D01*
X228120Y158381D01*
X228015Y158517D01*
X227981Y159161D01*
X227976Y159180D01*
Y177953D01*
X227882Y178672D01*
X227604Y179343D01*
X227162Y179918D01*
X224800Y182281D01*
X224224Y182722D01*
X223554Y183000D01*
X222835Y183095D01*
X196280D01*
X195850Y183595D01*
X195890Y183898D01*
X195795Y184617D01*
X195518Y185287D01*
X195318Y185547D01*
Y187499D01*
X196359Y188540D01*
X209567D01*
Y186279D01*
X217283D01*
Y194843D01*
X224251D01*
X242761Y176334D01*
D02*
G37*
G36*
X128969Y208788D02*
X129372Y208779D01*
X129671Y208754D01*
X129783Y208737D01*
Y206775D01*
X127795D01*
X126950Y206607D01*
X126234Y206128D01*
X123242Y203136D01*
X122763Y202420D01*
X122595Y201575D01*
Y198303D01*
X122396Y198043D01*
X122118Y197373D01*
X122023Y196653D01*
X122118Y195934D01*
X122396Y195264D01*
X122838Y194688D01*
X123413Y194246D01*
X124084Y193969D01*
X124803Y193874D01*
X125523Y193969D01*
X126193Y194246D01*
X126769Y194688D01*
X127210Y195264D01*
X127488Y195934D01*
X127583Y196653D01*
X127488Y197373D01*
X127210Y198043D01*
X127011Y198303D01*
Y200660D01*
X128710Y202359D01*
X129783D01*
Y200709D01*
X138721D01*
Y208291D01*
X139075Y208499D01*
X139429Y208291D01*
Y200709D01*
X141690D01*
Y198543D01*
X139429D01*
Y190827D01*
Y189885D01*
X138524D01*
Y191535D01*
X129587D01*
Y183819D01*
X133428D01*
X133598Y183319D01*
X133271Y183068D01*
X130239Y180036D01*
X129797Y179461D01*
X129520Y178790D01*
X129425Y178071D01*
Y177861D01*
X129419Y177836D01*
X129410Y177579D01*
X129389Y177395D01*
X129356Y177224D01*
X129310Y177063D01*
X129253Y176909D01*
X129183Y176761D01*
X129098Y176614D01*
X128997Y176469D01*
X128877Y176322D01*
X128756Y176195D01*
X128695Y176148D01*
X127906Y175120D01*
X127461Y174046D01*
X127461Y174046D01*
X126949D01*
X126948Y174046D01*
X126503Y175120D01*
X125715Y176148D01*
X124687Y176936D01*
X123489Y177432D01*
X122205Y177602D01*
X120920Y177432D01*
X119723Y176936D01*
X118695Y176148D01*
X117906Y175120D01*
X117461Y174046D01*
X117461Y174046D01*
X116949D01*
X116948Y174046D01*
X116503Y175120D01*
X115715Y176148D01*
X114687Y176936D01*
X113489Y177432D01*
X112205Y177602D01*
X110920Y177432D01*
X109723Y176936D01*
X108695Y176148D01*
X107906Y175120D01*
X107461Y174046D01*
X107460Y174046D01*
X106949D01*
X106948Y174046D01*
X106503Y175120D01*
X105715Y176148D01*
X104687Y176936D01*
X103489Y177432D01*
X102205Y177602D01*
X100920Y177432D01*
X99723Y176936D01*
X98695Y176148D01*
X97906Y175120D01*
X97461Y174046D01*
X97460Y174046D01*
X96949D01*
X96948Y174046D01*
X96503Y175120D01*
X95715Y176148D01*
X94687Y176936D01*
X93489Y177432D01*
X92205Y177602D01*
X90920Y177432D01*
X90600Y177300D01*
X90141Y177651D01*
X90181Y177953D01*
X90087Y178672D01*
X89809Y179343D01*
X89367Y179918D01*
X88791Y180360D01*
X88121Y180638D01*
X87402Y180732D01*
X86682Y180638D01*
X86012Y180360D01*
X85752Y180160D01*
X81820D01*
X75577Y186404D01*
X74861Y186882D01*
X74016Y187050D01*
X63198D01*
X63156Y187079D01*
X62311Y187247D01*
X55049D01*
X53664Y188631D01*
Y190610D01*
X62323D01*
Y195547D01*
X62325Y195554D01*
X62323Y195570D01*
Y195709D01*
X62328Y195744D01*
X62323Y195767D01*
Y195778D01*
X62508Y196000D01*
X63963Y197455D01*
X64441Y198171D01*
X64609Y199016D01*
Y200709D01*
X66870D01*
Y202359D01*
X67484D01*
X67744Y202160D01*
X68414Y201882D01*
X69134Y201787D01*
X69853Y201882D01*
X70524Y202160D01*
X71099Y202601D01*
X71260Y202810D01*
X71890D01*
X72050Y202601D01*
X72626Y202160D01*
X73296Y201882D01*
X74016Y201787D01*
X74735Y201882D01*
X75406Y202160D01*
X75666Y202359D01*
X77815D01*
Y200709D01*
X86752D01*
Y208508D01*
X87172Y208740D01*
X87592Y208508D01*
Y200709D01*
X94800D01*
Y199547D01*
X86142D01*
Y197286D01*
X85354D01*
Y199547D01*
X77638D01*
Y190610D01*
X85354D01*
Y192871D01*
X86142D01*
Y190610D01*
X87792D01*
Y185591D01*
X87960Y184746D01*
X88439Y184029D01*
X92154Y180314D01*
X92197Y179989D01*
X92475Y179319D01*
X92916Y178743D01*
X93492Y178301D01*
X94162Y178024D01*
X94882Y177929D01*
X95601Y178024D01*
X96272Y178301D01*
X96847Y178743D01*
X97289Y179319D01*
X97567Y179989D01*
X97662Y180709D01*
X97567Y181428D01*
X97289Y182098D01*
X96847Y182674D01*
X96272Y183116D01*
X95601Y183394D01*
X95276Y183436D01*
X92208Y186505D01*
Y190610D01*
X100866D01*
Y199547D01*
X99216D01*
Y202991D01*
X99238Y203006D01*
X100001Y203768D01*
X100326Y203811D01*
X100996Y204089D01*
X101572Y204531D01*
X102014Y205106D01*
X102291Y205777D01*
X102386Y206496D01*
X102291Y207215D01*
X102014Y207886D01*
X101700Y208295D01*
X101918Y208795D01*
X102365D01*
X102394Y208788D01*
X102797Y208779D01*
X103096Y208754D01*
X103209Y208737D01*
Y207716D01*
Y200709D01*
X104782D01*
X105060Y200293D01*
X104992Y200129D01*
X104897Y199409D01*
X104992Y198690D01*
X105270Y198020D01*
X105712Y197444D01*
X106287Y197002D01*
X106958Y196724D01*
X107677Y196630D01*
X108397Y196724D01*
X109067Y197002D01*
X109643Y197444D01*
X110084Y198020D01*
X110362Y198690D01*
X110457Y199409D01*
X110362Y200129D01*
X110294Y200293D01*
X110572Y200709D01*
X112146D01*
Y207716D01*
Y208670D01*
X112598Y208772D01*
X113051Y208670D01*
Y207717D01*
Y200709D01*
X114866D01*
X115112Y200209D01*
X114835Y199538D01*
X114740Y198819D01*
X114835Y198100D01*
X115112Y197429D01*
X115312Y197169D01*
Y194764D01*
X113051D01*
Y187047D01*
Y186105D01*
X112343D01*
Y187756D01*
X103405D01*
Y180039D01*
X112343D01*
Y181690D01*
X113051D01*
Y180039D01*
X121988D01*
Y181352D01*
X122488Y181566D01*
X122587Y181490D01*
X123257Y181213D01*
X123976Y181118D01*
X124696Y181213D01*
X125366Y181490D01*
X125942Y181932D01*
X126384Y182508D01*
X126661Y183178D01*
X126756Y183898D01*
X126661Y184617D01*
X126384Y185287D01*
X125942Y185863D01*
X125366Y186305D01*
X124696Y186583D01*
X123976Y186677D01*
X123257Y186583D01*
X122587Y186305D01*
X122488Y186229D01*
X121988Y186443D01*
Y194764D01*
X119728D01*
Y197169D01*
X119927Y197429D01*
X120205Y198100D01*
X120299Y198819D01*
X120205Y199538D01*
X119927Y200209D01*
X120174Y200709D01*
X121988D01*
Y207717D01*
Y208737D01*
X122101Y208754D01*
X122399Y208779D01*
X122803Y208788D01*
X122832Y208795D01*
X128940D01*
X128969Y208788D01*
D02*
G37*
G36*
X193703Y185502D02*
X193722Y185274D01*
X193739Y185172D01*
X193760Y185079D01*
X193786Y184994D01*
X193816Y184918D01*
X193852Y184851D01*
X193892Y184792D01*
X193937Y184741D01*
X192283D01*
X192328Y184792D01*
X192368Y184851D01*
X192404Y184918D01*
X192435Y184994D01*
X192461Y185079D01*
X192482Y185172D01*
X192498Y185274D01*
X192510Y185383D01*
X192520Y185629D01*
X193701D01*
X193703Y185502D01*
D02*
G37*
G36*
X123133Y183071D02*
X123082Y183116D01*
X123023Y183156D01*
X122956Y183191D01*
X122880Y183222D01*
X122795Y183248D01*
X122702Y183269D01*
X122600Y183286D01*
X122491Y183298D01*
X122245Y183307D01*
Y184488D01*
X122372Y184491D01*
X122600Y184509D01*
X122702Y184526D01*
X122795Y184547D01*
X122880Y184573D01*
X122956Y184604D01*
X123023Y184639D01*
X123082Y184679D01*
X123133Y184724D01*
Y183071D01*
D02*
G37*
G36*
X120413Y184967D02*
X120449Y184866D01*
X120508Y184777D01*
X120590Y184701D01*
X120697Y184636D01*
X120827Y184583D01*
X120980Y184541D01*
X121157Y184512D01*
X121358Y184494D01*
X121582Y184488D01*
Y183307D01*
X121358Y183301D01*
X121157Y183283D01*
X120980Y183254D01*
X120827Y183213D01*
X120697Y183159D01*
X120590Y183095D01*
X120508Y183018D01*
X120449Y182929D01*
X120413Y182829D01*
X120401Y182717D01*
Y185079D01*
X120413Y184967D01*
D02*
G37*
G36*
X114650Y182717D02*
X114638Y182829D01*
X114602Y182929D01*
X114543Y183018D01*
X114459Y183095D01*
X114352Y183159D01*
X114220Y183213D01*
X114065Y183254D01*
X113886Y183283D01*
X113684Y183301D01*
X113457Y183307D01*
Y184488D01*
X113684Y184494D01*
X113886Y184512D01*
X114065Y184541D01*
X114220Y184583D01*
X114352Y184636D01*
X114459Y184701D01*
X114543Y184777D01*
X114602Y184866D01*
X114638Y184967D01*
X114650Y185079D01*
Y182717D01*
D02*
G37*
G36*
X110767Y184967D02*
X110803Y184866D01*
X110862Y184777D01*
X110945Y184701D01*
X111051Y184636D01*
X111181Y184583D01*
X111335Y184541D01*
X111512Y184512D01*
X111712Y184494D01*
X111937Y184488D01*
Y183307D01*
X111712Y183301D01*
X111512Y183283D01*
X111335Y183254D01*
X111181Y183213D01*
X111051Y183159D01*
X110945Y183095D01*
X110862Y183018D01*
X110803Y182929D01*
X110767Y182829D01*
X110756Y182717D01*
Y185079D01*
X110767Y184967D01*
D02*
G37*
G36*
X94167Y182262D02*
X94342Y182114D01*
X94425Y182054D01*
X94506Y182003D01*
X94584Y181962D01*
X94660Y181930D01*
X94732Y181907D01*
X94803Y181894D01*
X94870Y181890D01*
X93701Y180720D01*
X93697Y180788D01*
X93683Y180858D01*
X93661Y180931D01*
X93629Y181006D01*
X93587Y181085D01*
X93537Y181165D01*
X93476Y181249D01*
X93407Y181335D01*
X93240Y181516D01*
X94075Y182351D01*
X94167Y182262D01*
D02*
G37*
G36*
X86558Y177126D02*
X86507Y177171D01*
X86449Y177211D01*
X86381Y177246D01*
X86305Y177277D01*
X86220Y177303D01*
X86127Y177324D01*
X86026Y177341D01*
X85916Y177353D01*
X85670Y177362D01*
Y178543D01*
X85797Y178546D01*
X86026Y178565D01*
X86127Y178581D01*
X86220Y178602D01*
X86305Y178628D01*
X86381Y178659D01*
X86449Y178694D01*
X86507Y178735D01*
X86558Y178779D01*
Y177126D01*
D02*
G37*
G36*
X31358Y177053D02*
X30118Y175787D01*
X28878Y177053D01*
X28889Y177074D01*
X28899Y177116D01*
X28908Y177178D01*
X28922Y177361D01*
X28936Y177969D01*
X28937Y178171D01*
X31299Y178171D01*
X31358Y177053D01*
D02*
G37*
G36*
X133397Y177459D02*
X133432Y177151D01*
X133490Y176853D01*
X133572Y176564D01*
X133676Y176284D01*
X133804Y176014D01*
X133955Y175753D01*
X134129Y175502D01*
X134327Y175260D01*
X134547Y175028D01*
X129862D01*
X130083Y175260D01*
X130280Y175502D01*
X130455Y175753D01*
X130605Y176014D01*
X130733Y176284D01*
X130838Y176564D01*
X130919Y176853D01*
X130977Y177151D01*
X131012Y177459D01*
X131024Y177777D01*
X133386D01*
X133397Y177459D01*
D02*
G37*
G36*
X31358Y174522D02*
X31299Y173404D01*
X28937Y173404D01*
X28936Y173606D01*
X28922Y174214D01*
X28908Y174397D01*
X28899Y174459D01*
X28889Y174501D01*
X28878Y174522D01*
X30118Y175787D01*
X31358Y174522D01*
D02*
G37*
G36*
X157394Y179330D02*
X156858Y178037D01*
X156474Y176440D01*
X156346Y174803D01*
X156474Y173166D01*
X156858Y171569D01*
X157486Y170052D01*
X157982Y169243D01*
X157702Y168743D01*
X135972D01*
X135803Y169243D01*
X136503Y170156D01*
X136999Y171353D01*
X137169Y172638D01*
X136999Y173923D01*
X136503Y175120D01*
X135715Y176148D01*
X135653Y176195D01*
X135532Y176322D01*
X135413Y176469D01*
X135312Y176614D01*
X135227Y176761D01*
X135157Y176909D01*
X135107Y177042D01*
X136388Y178323D01*
X154528D01*
X155247Y178417D01*
X155917Y178695D01*
X156493Y179137D01*
X156970Y179613D01*
X157394Y179330D01*
D02*
G37*
G36*
X6405Y168552D02*
X6447Y168542D01*
X6508Y168533D01*
X6692Y168519D01*
X7300Y168505D01*
X7502Y168504D01*
Y166142D01*
X6383Y166083D01*
Y168563D01*
X6405Y168552D01*
D02*
G37*
G36*
X184058Y178349D02*
X184634Y177908D01*
X185304Y177630D01*
X186024Y177535D01*
X221683D01*
X222417Y176801D01*
Y164463D01*
X221917Y164129D01*
X221543Y164284D01*
X220669Y164399D01*
X219796Y164284D01*
X218982Y163947D01*
X218845Y163842D01*
X218201Y163808D01*
X218182Y163803D01*
X172441D01*
X171721Y163709D01*
X171051Y163431D01*
X170475Y162989D01*
X165866Y158379D01*
X165276Y158497D01*
X165202Y158673D01*
X165003Y158933D01*
Y162008D01*
X164835Y162853D01*
X164356Y163569D01*
X163594Y164332D01*
X163848Y164785D01*
X165174Y164467D01*
X166811Y164338D01*
X168448Y164467D01*
X170045Y164850D01*
X171562Y165478D01*
X172962Y166336D01*
X174211Y167403D01*
X175278Y168652D01*
X176136Y170052D01*
X176764Y171569D01*
X177147Y173166D01*
X177276Y174803D01*
X177147Y176440D01*
X176764Y178037D01*
X176136Y179554D01*
X175278Y180954D01*
X174211Y182203D01*
X173772Y182578D01*
X173945Y183047D01*
X179360D01*
X184058Y178349D01*
D02*
G37*
G36*
X113847Y163012D02*
X113759Y162920D01*
X113610Y162745D01*
X113550Y162662D01*
X113499Y162581D01*
X113458Y162503D01*
X113426Y162427D01*
X113403Y162354D01*
X113390Y162284D01*
X113386Y162216D01*
X112216Y163386D01*
X112284Y163390D01*
X112354Y163403D01*
X112427Y163426D01*
X112503Y163458D01*
X112581Y163499D01*
X112662Y163550D01*
X112745Y163610D01*
X112831Y163680D01*
X113012Y163847D01*
X113847Y163012D01*
D02*
G37*
G36*
X159324Y161593D02*
X159499Y161445D01*
X159583Y161385D01*
X159663Y161334D01*
X159742Y161293D01*
X159817Y161260D01*
X159890Y161238D01*
X159960Y161224D01*
X160028Y161220D01*
X158858Y160051D01*
X158854Y160119D01*
X158841Y160189D01*
X158818Y160262D01*
X158786Y160337D01*
X158745Y160415D01*
X158694Y160496D01*
X158634Y160580D01*
X158564Y160666D01*
X158397Y160846D01*
X159233Y161681D01*
X159324Y161593D01*
D02*
G37*
G36*
X219404Y159783D02*
X219383Y159795D01*
X219341Y159805D01*
X219279Y159814D01*
X219096Y159828D01*
X218488Y159842D01*
X218286Y159843D01*
Y162205D01*
X219404Y162264D01*
Y159783D01*
D02*
G37*
G36*
X226437Y157958D02*
X223957D01*
X223968Y157980D01*
X223978Y158021D01*
X223987Y158083D01*
X224001Y158267D01*
X224015Y158874D01*
X224016Y159076D01*
X226378D01*
X226437Y157958D01*
D02*
G37*
G36*
X135438Y159134D02*
X135475Y158603D01*
X135507Y158388D01*
X135549Y158205D01*
X135600Y158056D01*
X135661Y157940D01*
X135731Y157857D01*
X135810Y157808D01*
X135898Y157791D01*
X132606D01*
X132694Y157808D01*
X132773Y157857D01*
X132843Y157940D01*
X132904Y158056D01*
X132955Y158205D01*
X132996Y158388D01*
X133029Y158603D01*
X133052Y158852D01*
X133071Y159449D01*
X135433D01*
X135438Y159134D01*
D02*
G37*
G36*
X223932Y155453D02*
X223910Y155464D01*
X223868Y155474D01*
X223807Y155483D01*
X223623Y155497D01*
X223015Y155511D01*
X222813Y155512D01*
Y157874D01*
X223932Y157933D01*
Y155453D01*
D02*
G37*
G36*
X135041Y154017D02*
X134999Y153906D01*
X134963Y153754D01*
X134931Y153561D01*
X134882Y153051D01*
X134847Y152040D01*
X135433D01*
X135321Y152028D01*
X135221Y151992D01*
X135132Y151933D01*
X135055Y151851D01*
X134990Y151744D01*
X134937Y151614D01*
X134896Y151461D01*
X134866Y151284D01*
X134848Y151083D01*
X134843Y150858D01*
X133661D01*
X133656Y151083D01*
X133638Y151284D01*
X133608Y151461D01*
X133567Y151614D01*
X133514Y151744D01*
X133449Y151851D01*
X133372Y151933D01*
X133283Y151992D01*
X133183Y152028D01*
X133071Y152040D01*
X133655D01*
X133541Y153754D01*
X133504Y153906D01*
X133463Y154017D01*
X133416Y154087D01*
X135088D01*
X135041Y154017D01*
D02*
G37*
G36*
X170531Y149887D02*
X168051D01*
X168062Y149909D01*
X168072Y149951D01*
X168081Y150012D01*
X168096Y150196D01*
X168110Y150803D01*
X168110Y151006D01*
X170472D01*
X170531Y149887D01*
D02*
G37*
G36*
X188183Y150405D02*
X188143Y150346D01*
X188108Y150278D01*
X188077Y150202D01*
X188051Y150118D01*
X188030Y150025D01*
X188013Y149923D01*
X188002Y149813D01*
X187992Y149567D01*
X186811D01*
X186809Y149695D01*
X186790Y149923D01*
X186773Y150025D01*
X186752Y150118D01*
X186726Y150202D01*
X186695Y150278D01*
X186660Y150346D01*
X186620Y150405D01*
X186575Y150455D01*
X188228D01*
X188183Y150405D01*
D02*
G37*
G36*
X221956Y152016D02*
X221998Y152006D01*
X222059Y151997D01*
X222243Y151983D01*
X222851Y151969D01*
X223053Y151969D01*
Y149606D01*
X221935Y149547D01*
Y152028D01*
X221956Y152016D01*
D02*
G37*
G36*
X134848Y149033D02*
X134866Y148830D01*
X134896Y148651D01*
X134937Y148496D01*
X134990Y148365D01*
X135055Y148257D01*
X135132Y148174D01*
X135221Y148114D01*
X135321Y148079D01*
X135433Y148067D01*
X133071D01*
X133183Y148079D01*
X133283Y148114D01*
X133372Y148174D01*
X133449Y148257D01*
X133514Y148365D01*
X133567Y148496D01*
X133608Y148651D01*
X133638Y148830D01*
X133656Y149033D01*
X133661Y149260D01*
X134843D01*
X134848Y149033D01*
D02*
G37*
G36*
X84443Y147547D02*
X84403Y147488D01*
X84368Y147420D01*
X84337Y147344D01*
X84311Y147260D01*
X84290Y147167D01*
X84273Y147065D01*
X84261Y146955D01*
X84252Y146710D01*
X83071D01*
X83069Y146837D01*
X83050Y147065D01*
X83033Y147167D01*
X83012Y147260D01*
X82986Y147344D01*
X82955Y147420D01*
X82920Y147488D01*
X82880Y147547D01*
X82835Y147598D01*
X84488D01*
X84443Y147547D01*
D02*
G37*
G36*
X131992Y144016D02*
X131981Y144128D01*
X131945Y144228D01*
X131885Y144317D01*
X131802Y144394D01*
X131694Y144459D01*
X131563Y144512D01*
X131408Y144553D01*
X131229Y144583D01*
X131026Y144600D01*
X130924Y144603D01*
X130707Y144585D01*
X130605Y144569D01*
X130512Y144547D01*
X130427Y144521D01*
X130351Y144491D01*
X130284Y144455D01*
X130225Y144415D01*
X130174Y144370D01*
Y146024D01*
X130225Y145979D01*
X130284Y145939D01*
X130351Y145903D01*
X130427Y145872D01*
X130512Y145846D01*
X130605Y145825D01*
X130707Y145809D01*
X130817Y145797D01*
X130956Y145791D01*
X131026Y145793D01*
X131229Y145811D01*
X131408Y145841D01*
X131563Y145882D01*
X131694Y145935D01*
X131802Y146000D01*
X131885Y146077D01*
X131945Y146165D01*
X131981Y146266D01*
X131992Y146378D01*
Y144016D01*
D02*
G37*
G36*
X23276Y146745D02*
X23266Y146703D01*
X23257Y146641D01*
X23243Y146458D01*
X23229Y145850D01*
X23228Y145648D01*
X20866D01*
X20807Y146766D01*
X23287D01*
X23276Y146745D01*
D02*
G37*
G36*
X36579Y145688D02*
X36592Y145618D01*
X36615Y145545D01*
X36647Y145470D01*
X36688Y145392D01*
X36739Y145311D01*
X36799Y145227D01*
X36869Y145141D01*
X37036Y144961D01*
X36200Y144125D01*
X36109Y144214D01*
X35934Y144362D01*
X35850Y144422D01*
X35770Y144473D01*
X35691Y144514D01*
X35616Y144546D01*
X35543Y144569D01*
X35473Y144582D01*
X35405Y144586D01*
X36575Y145756D01*
X36579Y145688D01*
D02*
G37*
G36*
X192514Y144500D02*
X192474Y144440D01*
X192438Y144373D01*
X192408Y144297D01*
X192382Y144212D01*
X192361Y144119D01*
X192344Y144018D01*
X192332Y143908D01*
X192323Y143662D01*
X191142D01*
X191139Y143789D01*
X191120Y144018D01*
X191104Y144119D01*
X191083Y144212D01*
X191057Y144297D01*
X191026Y144373D01*
X190990Y144440D01*
X190950Y144500D01*
X190905Y144550D01*
X192559D01*
X192514Y144500D01*
D02*
G37*
G36*
X88655Y143877D02*
X88830Y143728D01*
X88913Y143668D01*
X88994Y143617D01*
X89072Y143576D01*
X89148Y143544D01*
X89221Y143521D01*
X89291Y143508D01*
X89358Y143504D01*
X88189Y142335D01*
X88185Y142402D01*
X88172Y142472D01*
X88149Y142545D01*
X88117Y142621D01*
X88076Y142699D01*
X88025Y142780D01*
X87965Y142863D01*
X87895Y142949D01*
X87728Y143130D01*
X88563Y143965D01*
X88655Y143877D01*
D02*
G37*
G36*
X47598Y190610D02*
X49249D01*
Y187716D01*
X49417Y186872D01*
X49896Y186155D01*
X52168Y183883D01*
X52110Y183386D01*
X51919Y183270D01*
X50671Y182203D01*
X49604Y180954D01*
X48746Y179554D01*
X48118Y178037D01*
X47734Y176440D01*
X47605Y174803D01*
X47734Y173166D01*
X48118Y171569D01*
X48746Y170052D01*
X49604Y168651D01*
X50671Y167403D01*
X51919Y166336D01*
X53320Y165478D01*
X54837Y164850D01*
X56434Y164466D01*
X58071Y164338D01*
X59708Y164466D01*
X61305Y164850D01*
X62822Y165478D01*
X64222Y166336D01*
X65471Y167403D01*
X66537Y168651D01*
X67395Y170052D01*
X68024Y171569D01*
X68407Y173166D01*
X68536Y174803D01*
X68407Y176440D01*
X68024Y178037D01*
X67395Y179554D01*
X66537Y180954D01*
X65529Y182135D01*
X65641Y182635D01*
X73101D01*
X78932Y176804D01*
X78900Y176305D01*
X78695Y176148D01*
X77906Y175120D01*
X77410Y173923D01*
X77241Y172638D01*
X77410Y171353D01*
X77906Y170156D01*
X78695Y169128D01*
X79723Y168339D01*
X80920Y167843D01*
X82205Y167674D01*
X83489Y167843D01*
X84687Y168339D01*
X85715Y169128D01*
X86503Y170156D01*
X86948Y171229D01*
X86949Y171230D01*
X87461D01*
X87461Y171229D01*
X87906Y170156D01*
X88695Y169128D01*
X89723Y168339D01*
X90920Y167843D01*
X92205Y167674D01*
X93489Y167843D01*
X94687Y168339D01*
X95715Y169128D01*
X96503Y170156D01*
X96948Y171230D01*
X96949Y171230D01*
X97460D01*
X97461Y171230D01*
X97906Y170156D01*
X98695Y169128D01*
X99723Y168339D01*
X100920Y167843D01*
X102205Y167674D01*
X103489Y167843D01*
X104687Y168339D01*
X105715Y169128D01*
X106503Y170156D01*
X106948Y171230D01*
X106949Y171230D01*
X107460D01*
X107461Y171230D01*
X107906Y170156D01*
X108695Y169128D01*
X109155Y168775D01*
X109139Y168275D01*
X108872Y168097D01*
X106510Y165734D01*
X106031Y165018D01*
X105883Y164275D01*
X105664Y163988D01*
X105386Y163318D01*
X105291Y162598D01*
X105386Y161879D01*
X105664Y161209D01*
X106105Y160633D01*
X106681Y160191D01*
X107351Y159914D01*
X108071Y159819D01*
X108790Y159914D01*
X109461Y160191D01*
X109974Y160585D01*
X110239Y160239D01*
X110815Y159798D01*
X111485Y159520D01*
X112205Y159425D01*
X112924Y159520D01*
X113595Y159798D01*
X114170Y160239D01*
X114612Y160815D01*
X114890Y161485D01*
X114927Y161769D01*
X131976D01*
X132175Y161269D01*
X131845Y160839D01*
X131567Y160168D01*
X131496Y159628D01*
X131466Y159499D01*
X131463Y159390D01*
X130394D01*
Y150453D01*
X132044D01*
Y149665D01*
X130394D01*
Y148217D01*
X129894Y147902D01*
X129331Y147977D01*
X128611Y147882D01*
X127941Y147604D01*
X127365Y147162D01*
X126923Y146587D01*
X126646Y145916D01*
X126551Y145197D01*
X126646Y144477D01*
X126923Y143807D01*
X127365Y143231D01*
X127941Y142790D01*
X128611Y142512D01*
X129331Y142417D01*
X129894Y142491D01*
X130394Y142177D01*
Y140728D01*
X138110D01*
Y149665D01*
X136460D01*
Y150453D01*
X138110D01*
Y158047D01*
X151998D01*
X158271Y151775D01*
X158846Y151333D01*
X159517Y151055D01*
X160236Y150961D01*
X165157D01*
X165877Y151055D01*
X165910Y151069D01*
X166374Y150818D01*
X166452Y150419D01*
X166368Y150310D01*
X166031Y149496D01*
X165916Y148622D01*
X166031Y147748D01*
X166368Y146934D01*
X166905Y146235D01*
X167604Y145699D01*
X168418Y145362D01*
X169291Y145247D01*
X170165Y145362D01*
X170979Y145699D01*
X171678Y146235D01*
X172214Y146934D01*
X172552Y147748D01*
X172667Y148622D01*
X172552Y149496D01*
X172214Y150310D01*
X172110Y150446D01*
X172076Y151090D01*
X172071Y151109D01*
Y151211D01*
X174773Y153913D01*
X185460D01*
X185630Y153413D01*
X185436Y153264D01*
X184994Y152689D01*
X184717Y152018D01*
X184622Y151299D01*
X184717Y150580D01*
X184994Y149909D01*
X185194Y149649D01*
Y140088D01*
X184715Y139609D01*
X144169D01*
X143910Y139809D01*
X143239Y140086D01*
X142520Y140181D01*
X141800Y140086D01*
X141130Y139809D01*
X140554Y139367D01*
X140112Y138791D01*
X139835Y138121D01*
X139740Y137402D01*
X139835Y136682D01*
X140112Y136012D01*
X140554Y135436D01*
X141130Y134994D01*
X141585Y134806D01*
X141512Y134252D01*
X141534Y134080D01*
X141205Y133704D01*
X140626D01*
X140366Y133903D01*
X139696Y134181D01*
X138976Y134276D01*
X138257Y134181D01*
X137586Y133903D01*
X137011Y133462D01*
X136569Y132886D01*
X136291Y132215D01*
X136197Y131496D01*
X136291Y130777D01*
X136569Y130106D01*
X137011Y129531D01*
X137586Y129089D01*
X138257Y128811D01*
X138976Y128716D01*
X139696Y128811D01*
X140366Y129089D01*
X140626Y129288D01*
X174676D01*
X175154Y128810D01*
Y118513D01*
X174754Y118198D01*
X174487Y118299D01*
X174073Y118575D01*
X173228Y118743D01*
X150862D01*
X150602Y118943D01*
X149932Y119220D01*
X149213Y119315D01*
X148493Y119220D01*
X147823Y118943D01*
X147247Y118501D01*
X146805Y117925D01*
X146528Y117255D01*
X146433Y116535D01*
X146290Y116396D01*
X145969Y116231D01*
X145405Y116464D01*
X144685Y116559D01*
X143966Y116464D01*
X143295Y116187D01*
X142719Y115745D01*
X142278Y115169D01*
X142000Y114499D01*
X141905Y113779D01*
X142000Y113060D01*
X142278Y112390D01*
X142719Y111814D01*
X143295Y111372D01*
X143966Y111095D01*
X144685Y111000D01*
X145405Y111095D01*
X146075Y111372D01*
X146335Y111572D01*
X162377D01*
X162476Y111072D01*
X162060Y110899D01*
X160660Y110041D01*
X159411Y108975D01*
X158344Y107726D01*
X157486Y106326D01*
X156858Y104809D01*
X156474Y103212D01*
X156346Y101575D01*
X156474Y99937D01*
X156858Y98341D01*
X157486Y96824D01*
X157690Y96492D01*
X157404Y96082D01*
X157283Y96105D01*
X150521D01*
X147216Y99410D01*
X147173Y99735D01*
X146896Y100406D01*
X146454Y100981D01*
X145878Y101423D01*
X145208Y101701D01*
X144488Y101795D01*
X143769Y101701D01*
X143098Y101423D01*
X142523Y100981D01*
X142081Y100406D01*
X141803Y99735D01*
X141711Y99037D01*
X141013Y98945D01*
X140342Y98667D01*
X139767Y98225D01*
X139325Y97650D01*
X139047Y96979D01*
X138895Y96870D01*
X138779Y96893D01*
X129268D01*
X128938Y97269D01*
X128961Y97441D01*
X128866Y98160D01*
X128711Y98535D01*
X129037Y99035D01*
X130039D01*
Y107972D01*
X122323D01*
Y99760D01*
X121861Y99568D01*
X120656Y100774D01*
X119939Y101252D01*
X119095Y101420D01*
X78080D01*
X77208Y102292D01*
Y120004D01*
X77407Y120264D01*
X77685Y120934D01*
X77780Y121653D01*
X77685Y122373D01*
X77407Y123043D01*
X76965Y123619D01*
X76390Y124061D01*
X75719Y124338D01*
X75000Y124433D01*
X74281Y124338D01*
X73610Y124061D01*
X73035Y123619D01*
X72593Y123043D01*
X72315Y122373D01*
X72220Y121653D01*
X72315Y120934D01*
X72593Y120264D01*
X72792Y120004D01*
Y113857D01*
X72330Y113666D01*
X69081Y116916D01*
X68365Y117394D01*
X67520Y117562D01*
X47371D01*
X46499Y118434D01*
Y136106D01*
X46999Y136373D01*
X47482Y136051D01*
X48327Y135882D01*
X50417D01*
X50677Y135683D01*
X51348Y135405D01*
X52067Y135311D01*
X52787Y135405D01*
X53457Y135683D01*
X54033Y136125D01*
X54475Y136700D01*
X54752Y137371D01*
X54847Y138090D01*
X54752Y138810D01*
X54475Y139480D01*
X54033Y140056D01*
X53457Y140498D01*
X52787Y140775D01*
X52067Y140870D01*
X51348Y140775D01*
X50677Y140498D01*
X50417Y140298D01*
X49242D01*
X46499Y143041D01*
Y148031D01*
X46331Y148876D01*
X46206Y149064D01*
X46566Y149424D01*
X46990Y149141D01*
X47835Y148973D01*
X80573D01*
X80902Y148597D01*
X80882Y148441D01*
X80976Y147722D01*
X81254Y147051D01*
X81454Y146791D01*
Y133395D01*
X80132Y132073D01*
X79653Y131357D01*
X79485Y130512D01*
Y129012D01*
X79286Y128752D01*
X79008Y128082D01*
X78913Y127362D01*
X79008Y126643D01*
X79286Y125972D01*
X79727Y125397D01*
X80303Y124955D01*
X80974Y124677D01*
X81693Y124583D01*
X82412Y124677D01*
X83083Y124955D01*
X83658Y125397D01*
X84100Y125972D01*
X84378Y126643D01*
X84473Y127362D01*
X84378Y128082D01*
X84100Y128752D01*
X83901Y129012D01*
Y129597D01*
X85223Y130919D01*
X85701Y131635D01*
X85869Y132480D01*
Y141916D01*
X86336Y142128D01*
X86646Y141901D01*
X86685Y141603D01*
X86963Y140933D01*
X87405Y140357D01*
X87980Y139916D01*
X88651Y139638D01*
X89370Y139543D01*
X90089Y139638D01*
X90760Y139916D01*
X91336Y140357D01*
X91777Y140933D01*
X92055Y141603D01*
X92150Y142323D01*
X92055Y143042D01*
X91777Y143713D01*
X91336Y144288D01*
X90760Y144730D01*
X90089Y145008D01*
X89765Y145051D01*
X89412Y145403D01*
Y149409D01*
X89244Y150254D01*
X88766Y150971D01*
X86994Y152742D01*
X86278Y153221D01*
X85433Y153389D01*
X48749D01*
X47090Y155048D01*
Y186933D01*
X47289Y187193D01*
X47567Y187863D01*
X47662Y188583D01*
X47567Y189302D01*
X47289Y189972D01*
X47141Y190165D01*
X47008Y190610D01*
X47008Y190610D01*
X47008D01*
X47008Y190610D01*
Y192871D01*
X47598D01*
Y190610D01*
D02*
G37*
G36*
X18506Y139755D02*
X18548Y139135D01*
X18562Y139063D01*
X18608Y138910D01*
X18666Y138761D01*
X18738Y138617D01*
X18822Y138476D01*
X18920Y138338D01*
X19030Y138205D01*
X19154Y138076D01*
X18618D01*
X18624Y137978D01*
X18661Y137826D01*
X18702Y137715D01*
X18749Y137645D01*
X17078D01*
X17124Y137715D01*
X17166Y137826D01*
X17203Y137978D01*
X17219Y138076D01*
X16673D01*
X16797Y138205D01*
X16907Y138338D01*
X17005Y138476D01*
X17089Y138617D01*
X17160Y138761D01*
X17219Y138910D01*
X17264Y139063D01*
X17297Y139219D01*
X17304Y139279D01*
X17320Y139755D01*
X17323Y140196D01*
X18504D01*
X18506Y139755D01*
D02*
G37*
G36*
X51224Y137264D02*
X51173Y137308D01*
X51114Y137349D01*
X51047Y137384D01*
X50971Y137415D01*
X50886Y137441D01*
X50793Y137462D01*
X50691Y137478D01*
X50581Y137490D01*
X50336Y137500D01*
Y138681D01*
X50463Y138683D01*
X50691Y138702D01*
X50793Y138719D01*
X50886Y138740D01*
X50971Y138766D01*
X51047Y138797D01*
X51114Y138832D01*
X51173Y138872D01*
X51224Y138917D01*
Y137264D01*
D02*
G37*
G36*
X36618Y138011D02*
X36632Y137941D01*
X36654Y137868D01*
X36686Y137793D01*
X36728Y137714D01*
X36778Y137634D01*
X36839Y137550D01*
X36908Y137464D01*
X37075Y137284D01*
X36240Y136448D01*
X36148Y136537D01*
X35973Y136685D01*
X35890Y136745D01*
X35809Y136796D01*
X35731Y136837D01*
X35655Y136869D01*
X35583Y136892D01*
X35512Y136905D01*
X35445Y136909D01*
X36614Y138078D01*
X36618Y138011D01*
D02*
G37*
G36*
X19142Y135524D02*
X19132Y135482D01*
X19123Y135421D01*
X19109Y135237D01*
X19095Y134629D01*
X19094Y134427D01*
X16732D01*
X16673Y135546D01*
X19154D01*
X19142Y135524D01*
D02*
G37*
G36*
X36618Y132893D02*
X36632Y132823D01*
X36654Y132750D01*
X36686Y132674D01*
X36728Y132596D01*
X36778Y132515D01*
X36839Y132432D01*
X36908Y132346D01*
X37075Y132165D01*
X36240Y131330D01*
X36148Y131418D01*
X35973Y131567D01*
X35890Y131627D01*
X35809Y131678D01*
X35731Y131719D01*
X35655Y131751D01*
X35583Y131774D01*
X35512Y131787D01*
X35445Y131791D01*
X36614Y132960D01*
X36618Y132893D01*
D02*
G37*
G36*
X139870Y132278D02*
X139929Y132238D01*
X139997Y132202D01*
X140073Y132172D01*
X140158Y132146D01*
X140251Y132124D01*
X140352Y132108D01*
X140462Y132096D01*
X140708Y132087D01*
Y130905D01*
X140581Y130903D01*
X140352Y130884D01*
X140251Y130868D01*
X140158Y130847D01*
X140073Y130821D01*
X139997Y130790D01*
X139929Y130754D01*
X139870Y130714D01*
X139820Y130669D01*
Y132323D01*
X139870Y132278D01*
D02*
G37*
G36*
X82286Y128967D02*
X82305Y128738D01*
X82321Y128637D01*
X82342Y128543D01*
X82368Y128459D01*
X82399Y128383D01*
X82435Y128315D01*
X82475Y128256D01*
X82520Y128206D01*
X80866D01*
X80911Y128256D01*
X80951Y128315D01*
X80987Y128383D01*
X81017Y128459D01*
X81043Y128543D01*
X81065Y128637D01*
X81081Y128738D01*
X81093Y128848D01*
X81102Y129094D01*
X82284D01*
X82286Y128967D01*
D02*
G37*
G36*
X19096Y132453D02*
X19147Y131651D01*
X19163Y131586D01*
X19182Y131540D01*
X19202Y131513D01*
X17835Y130118D01*
X19202Y128723D01*
X19182Y128696D01*
X19163Y128650D01*
X19147Y128585D01*
X19096Y127784D01*
X19094Y127582D01*
X16732Y127942D01*
X16737Y128998D01*
X17835Y130118D01*
X16737Y131238D01*
X16732Y132295D01*
X19094Y132654D01*
X19096Y132453D01*
D02*
G37*
G36*
X75782Y120759D02*
X75742Y120701D01*
X75706Y120633D01*
X75676Y120557D01*
X75650Y120472D01*
X75628Y120379D01*
X75612Y120278D01*
X75600Y120168D01*
X75590Y119922D01*
X74410D01*
X74407Y120049D01*
X74388Y120278D01*
X74372Y120379D01*
X74350Y120472D01*
X74324Y120557D01*
X74294Y120633D01*
X74258Y120701D01*
X74218Y120759D01*
X74173Y120810D01*
X75827D01*
X75782Y120759D01*
D02*
G37*
G36*
X177955Y118337D02*
X177974Y118108D01*
X177991Y118007D01*
X178012Y117913D01*
X178038Y117829D01*
X178068Y117753D01*
X178104Y117685D01*
X178144Y117626D01*
X178189Y117576D01*
X176535D01*
X176580Y117626D01*
X176620Y117685D01*
X176656Y117753D01*
X176687Y117829D01*
X176713Y117913D01*
X176734Y118007D01*
X176750Y118108D01*
X176762Y118218D01*
X176772Y118464D01*
X177953D01*
X177955Y118337D01*
D02*
G37*
G36*
X19154Y116423D02*
X16673D01*
X16684Y116444D01*
X16694Y116486D01*
X16703Y116548D01*
X16717Y116731D01*
X16732Y117339D01*
X16732Y117541D01*
X19094D01*
X19154Y116423D01*
D02*
G37*
G36*
X145579Y114561D02*
X145638Y114521D01*
X145706Y114486D01*
X145782Y114455D01*
X145866Y114429D01*
X145959Y114408D01*
X146061Y114391D01*
X146171Y114380D01*
X146417Y114370D01*
Y113189D01*
X146290Y113187D01*
X146061Y113168D01*
X145959Y113151D01*
X145866Y113130D01*
X145782Y113104D01*
X145706Y113073D01*
X145638Y113038D01*
X145579Y112998D01*
X145528Y112953D01*
Y114606D01*
X145579Y114561D01*
D02*
G37*
G36*
X218594Y153413D02*
X218283Y153174D01*
X217746Y152475D01*
X217409Y151661D01*
X217294Y150787D01*
X217409Y149914D01*
X217746Y149100D01*
X218283Y148401D01*
X218982Y147864D01*
X219796Y147527D01*
X220669Y147412D01*
X221543Y147527D01*
X222357Y147864D01*
X222493Y147969D01*
X223137Y148003D01*
X223156Y148008D01*
X239006D01*
X239346Y147668D01*
Y117964D01*
X182283D01*
X181661Y117841D01*
X181134Y117488D01*
X180781Y116961D01*
X180658Y116339D01*
Y112882D01*
X180196Y112690D01*
X178979Y113908D01*
X179044Y114549D01*
X179328Y114767D01*
X179770Y115342D01*
X180047Y116013D01*
X180142Y116732D01*
X180047Y117452D01*
X179770Y118122D01*
X179570Y118382D01*
Y129724D01*
X179402Y130569D01*
X178923Y131286D01*
X178627Y131582D01*
X178818Y132044D01*
X189173D01*
X190018Y132212D01*
X190734Y132691D01*
X193293Y135250D01*
X193772Y135966D01*
X193940Y136811D01*
Y141929D01*
X193940Y141929D01*
Y143744D01*
X194140Y144004D01*
X194417Y144674D01*
X194512Y145394D01*
X194417Y146113D01*
X194140Y146783D01*
X193698Y147359D01*
X193122Y147801D01*
X192452Y148079D01*
X191732Y148173D01*
X191013Y148079D01*
X190342Y147801D01*
X190109Y147622D01*
X189609Y147869D01*
Y149649D01*
X189809Y149909D01*
X190086Y150580D01*
X190181Y151299D01*
X190086Y152018D01*
X189809Y152689D01*
X189367Y153264D01*
X189173Y153413D01*
X189343Y153913D01*
X218425D01*
X218594Y153413D01*
D02*
G37*
G36*
X43158Y100682D02*
X43148Y100640D01*
X43139Y100578D01*
X43125Y100395D01*
X43111Y99787D01*
X43110Y99585D01*
X40748D01*
X40689Y100703D01*
X43169D01*
X43158Y100682D01*
D02*
G37*
G36*
X127250Y100610D02*
X127150Y100575D01*
X127061Y100516D01*
X126984Y100433D01*
X126919Y100327D01*
X126866Y100197D01*
X126825Y100043D01*
X126795Y99866D01*
X126778Y99665D01*
X126772Y99441D01*
X125591D01*
X125585Y99665D01*
X125567Y99866D01*
X125537Y100043D01*
X125496Y100197D01*
X125443Y100327D01*
X125378Y100433D01*
X125301Y100516D01*
X125213Y100575D01*
X125112Y100610D01*
X125000Y100622D01*
X127362D01*
X127250Y100610D01*
D02*
G37*
G36*
X126774Y99045D02*
X126793Y98817D01*
X126809Y98715D01*
X126831Y98622D01*
X126857Y98538D01*
X126887Y98462D01*
X126923Y98394D01*
X126963Y98335D01*
X127008Y98284D01*
X125354D01*
X125399Y98335D01*
X125439Y98394D01*
X125475Y98462D01*
X125505Y98538D01*
X125531Y98622D01*
X125553Y98715D01*
X125569Y98817D01*
X125581Y98927D01*
X125591Y99173D01*
X126772D01*
X126774Y99045D01*
D02*
G37*
G36*
X145673Y98936D02*
X145687Y98866D01*
X145709Y98794D01*
X145741Y98718D01*
X145783Y98640D01*
X145834Y98559D01*
X145894Y98475D01*
X145963Y98389D01*
X146130Y98209D01*
X145295Y97374D01*
X145203Y97462D01*
X145028Y97610D01*
X144945Y97670D01*
X144864Y97721D01*
X144786Y97763D01*
X144711Y97795D01*
X144638Y97817D01*
X144568Y97831D01*
X144500Y97835D01*
X145669Y99004D01*
X145673Y98936D01*
D02*
G37*
G36*
X26752Y96653D02*
X24999Y94900D01*
X24991Y94923D01*
X24969Y94959D01*
X24932Y95009D01*
X24812Y95149D01*
X24392Y95589D01*
X24250Y95732D01*
X25920Y97402D01*
X26752Y96653D01*
D02*
G37*
G36*
X116720Y95275D02*
X116653Y95271D01*
X116583Y95258D01*
X116510Y95235D01*
X116435Y95203D01*
X116356Y95162D01*
X116276Y95111D01*
X116192Y95051D01*
X116106Y94981D01*
X115926Y94814D01*
X115090Y95650D01*
X115179Y95741D01*
X115327Y95916D01*
X115387Y96000D01*
X115438Y96081D01*
X115479Y96159D01*
X115511Y96234D01*
X115534Y96307D01*
X115547Y96377D01*
X115551Y96445D01*
X116720Y95275D01*
D02*
G37*
G36*
X19679Y95562D02*
X19639Y95503D01*
X19604Y95436D01*
X19573Y95360D01*
X19547Y95275D01*
X19526Y95182D01*
X19509Y95081D01*
X19498Y94971D01*
X19488Y94725D01*
X18307D01*
X18305Y94852D01*
X18286Y95081D01*
X18269Y95182D01*
X18248Y95275D01*
X18222Y95360D01*
X18191Y95436D01*
X18156Y95503D01*
X18116Y95562D01*
X18071Y95613D01*
X19724D01*
X19679Y95562D01*
D02*
G37*
G36*
X142917Y96180D02*
X142931Y96110D01*
X142953Y96038D01*
X142985Y95962D01*
X143027Y95884D01*
X143078Y95803D01*
X143138Y95720D01*
X143207Y95633D01*
X143374Y95453D01*
X142539Y94618D01*
X142448Y94706D01*
X142273Y94854D01*
X142189Y94915D01*
X142108Y94965D01*
X142030Y95007D01*
X141955Y95039D01*
X141882Y95061D01*
X141812Y95075D01*
X141744Y95079D01*
X142913Y96248D01*
X142917Y96180D01*
D02*
G37*
G36*
X67721Y93228D02*
X67734Y93158D01*
X67757Y93085D01*
X67789Y93009D01*
X67830Y92931D01*
X67881Y92850D01*
X67941Y92767D01*
X68010Y92681D01*
X68177Y92500D01*
X67342Y91665D01*
X67251Y91753D01*
X67076Y91902D01*
X66992Y91962D01*
X66911Y92013D01*
X66833Y92054D01*
X66758Y92086D01*
X66685Y92109D01*
X66615Y92122D01*
X66547Y92126D01*
X67716Y93295D01*
X67721Y93228D01*
D02*
G37*
G36*
X139758Y89657D02*
X139718Y89598D01*
X139683Y89530D01*
X139652Y89455D01*
X139626Y89370D01*
X139605Y89277D01*
X139588Y89175D01*
X139576Y89065D01*
X139567Y88820D01*
X138386D01*
X138383Y88947D01*
X138365Y89175D01*
X138348Y89277D01*
X138327Y89370D01*
X138301Y89455D01*
X138270Y89530D01*
X138235Y89598D01*
X138195Y89657D01*
X138150Y89708D01*
X139803D01*
X139758Y89657D01*
D02*
G37*
G36*
X41943Y110644D02*
X42659Y110165D01*
X43504Y109997D01*
X51145D01*
X51318Y109528D01*
X50671Y108975D01*
X49604Y107726D01*
X48746Y106326D01*
X48118Y104808D01*
X47734Y103212D01*
X47605Y101575D01*
X47734Y99937D01*
X48118Y98341D01*
X48746Y96823D01*
X49604Y95423D01*
X50671Y94174D01*
X51919Y93108D01*
X53320Y92250D01*
X54837Y91621D01*
X56434Y91238D01*
X58071Y91109D01*
X59708Y91238D01*
X61305Y91621D01*
X62822Y92250D01*
X63389Y92597D01*
X63948Y92353D01*
X64128Y91917D01*
X64570Y91342D01*
X65146Y90900D01*
X65816Y90622D01*
X66141Y90579D01*
X70014Y86706D01*
X69823Y86244D01*
X48289D01*
X48254Y86251D01*
X48069Y86252D01*
X47720Y86260D01*
X47554Y86388D01*
X46740Y86725D01*
X45866Y86840D01*
X45209Y86753D01*
X44709Y87094D01*
Y99545D01*
X44716Y99580D01*
X44716Y99766D01*
X44725Y100114D01*
X44852Y100281D01*
X45189Y101095D01*
X45305Y101969D01*
X45189Y102842D01*
X44852Y103656D01*
X44316Y104355D01*
X43617Y104892D01*
X42803Y105229D01*
X41929Y105344D01*
X41056Y105229D01*
X40813Y105128D01*
X40397Y105406D01*
Y111536D01*
X40859Y111728D01*
X41943Y110644D01*
D02*
G37*
G36*
X230236Y88752D02*
X230307Y88551D01*
X230426Y88374D01*
X230592Y88221D01*
X230806Y88090D01*
X231067Y87984D01*
X231376Y87902D01*
X231732Y87843D01*
X231986Y87820D01*
X232326Y87843D01*
X232403Y87860D01*
X232460Y87879D01*
X232496Y87902D01*
X232511Y87927D01*
X233769Y85894D01*
X232586Y85628D01*
Y85433D01*
X232135Y85421D01*
X231732Y85386D01*
X231376Y85327D01*
X231067Y85244D01*
X230806Y85138D01*
X230592Y85008D01*
X230426Y84854D01*
X230307Y84677D01*
X230236Y84476D01*
X230212Y84252D01*
Y88976D01*
X230236Y88752D01*
D02*
G37*
G36*
X224095Y83113D02*
X191269D01*
X184885Y89497D01*
X185076Y89959D01*
X224095D01*
Y83113D01*
D02*
G37*
G36*
X47153Y84693D02*
X47195Y84684D01*
X47256Y84675D01*
X47440Y84660D01*
X48048Y84646D01*
X48250Y84646D01*
Y82284D01*
X47131Y82224D01*
Y84705D01*
X47153Y84693D01*
D02*
G37*
G36*
X240119Y82740D02*
X239370Y81907D01*
X237616Y83661D01*
X237639Y83669D01*
X237676Y83691D01*
X237726Y83728D01*
X237866Y83848D01*
X238305Y84268D01*
X238449Y84410D01*
X240119Y82740D01*
D02*
G37*
G36*
X175820Y82814D02*
X175995Y82665D01*
X176079Y82605D01*
X176160Y82555D01*
X176238Y82513D01*
X176313Y82481D01*
X176386Y82458D01*
X176456Y82445D01*
X176524Y82441D01*
X175354Y81272D01*
X175350Y81339D01*
X175337Y81409D01*
X175314Y81482D01*
X175282Y81558D01*
X175241Y81636D01*
X175190Y81717D01*
X175130Y81800D01*
X175060Y81886D01*
X174893Y82067D01*
X175729Y82902D01*
X175820Y82814D01*
D02*
G37*
G36*
X7008Y78341D02*
X7067Y78300D01*
X7135Y78265D01*
X7211Y78234D01*
X7295Y78208D01*
X7388Y78187D01*
X7490Y78171D01*
X7600Y78159D01*
X7846Y78149D01*
Y76968D01*
X7718Y76966D01*
X7490Y76947D01*
X7388Y76930D01*
X7295Y76909D01*
X7211Y76883D01*
X7135Y76853D01*
X7067Y76817D01*
X7008Y76777D01*
X6957Y76732D01*
Y78386D01*
X7008Y78341D01*
D02*
G37*
G36*
X145116Y77750D02*
X145255Y77644D01*
X145404Y77551D01*
X145562Y77471D01*
X145730Y77403D01*
X145907Y77348D01*
X146094Y77306D01*
X146291Y77277D01*
X146497Y77260D01*
X146713Y77256D01*
X144764Y75307D01*
X144760Y75523D01*
X144743Y75729D01*
X144713Y75925D01*
X144671Y76112D01*
X144616Y76290D01*
X144549Y76457D01*
X144468Y76616D01*
X144376Y76764D01*
X144270Y76903D01*
X144152Y77033D01*
X144987Y77868D01*
X145116Y77750D01*
D02*
G37*
G36*
X74528Y77523D02*
X74587Y76660D01*
X74603Y76614D01*
X74620Y76589D01*
X73294Y75236D01*
X72147Y76407D01*
X72150Y76421D01*
X72154Y76457D01*
X72161Y76688D01*
X72165Y77490D01*
X74528Y77725D01*
X74528Y77523D01*
D02*
G37*
G36*
X74620Y73883D02*
X74603Y73857D01*
X74587Y73812D01*
X74528Y72948D01*
X74528Y72747D01*
X72165Y72982D01*
X72161Y73784D01*
X72154Y74015D01*
X72150Y74051D01*
X72147Y74065D01*
X73294Y75236D01*
X74620Y73883D01*
D02*
G37*
G36*
X95973Y74222D02*
X96032Y74181D01*
X96099Y74146D01*
X96175Y74115D01*
X96260Y74089D01*
X96353Y74068D01*
X96455Y74052D01*
X96565Y74040D01*
X96810Y74030D01*
Y72849D01*
X96683Y72847D01*
X96455Y72828D01*
X96353Y72811D01*
X96260Y72790D01*
X96175Y72764D01*
X96099Y72733D01*
X96032Y72698D01*
X95973Y72658D01*
X95922Y72613D01*
Y74266D01*
X95973Y74222D01*
D02*
G37*
G36*
X129365Y73318D02*
X129324Y73259D01*
X129289Y73192D01*
X129258Y73116D01*
X129232Y73031D01*
X129211Y72938D01*
X129194Y72837D01*
X129183Y72727D01*
X129173Y72481D01*
X127992D01*
X127990Y72608D01*
X127971Y72837D01*
X127954Y72938D01*
X127933Y73031D01*
X127907Y73116D01*
X127876Y73192D01*
X127841Y73259D01*
X127801Y73318D01*
X127756Y73369D01*
X129409D01*
X129365Y73318D01*
D02*
G37*
G36*
X185034Y72137D02*
X184994Y72078D01*
X184958Y72011D01*
X184928Y71935D01*
X184902Y71850D01*
X184880Y71757D01*
X184864Y71656D01*
X184852Y71546D01*
X184843Y71300D01*
X183661D01*
X183659Y71427D01*
X183640Y71656D01*
X183624Y71757D01*
X183602Y71850D01*
X183576Y71935D01*
X183546Y72011D01*
X183510Y72078D01*
X183470Y72137D01*
X183425Y72188D01*
X185079D01*
X185034Y72137D01*
D02*
G37*
G36*
X232616Y71413D02*
X232593Y71406D01*
X232556Y71384D01*
X232506Y71346D01*
X232366Y71226D01*
X231927Y70807D01*
X231783Y70664D01*
X230113Y72335D01*
X230862Y73167D01*
X232616Y71413D01*
D02*
G37*
G36*
X186825Y76588D02*
X187541Y76110D01*
X188386Y75942D01*
X229964D01*
X230147Y75442D01*
X229711Y74872D01*
X229373Y74058D01*
X229351Y73888D01*
X228919Y73409D01*
X228909Y73392D01*
X227247Y71729D01*
X226805Y71154D01*
X226528Y70483D01*
X226433Y69764D01*
Y67615D01*
X225933Y67515D01*
X225640Y68223D01*
X225103Y68922D01*
X224404Y69459D01*
X223590Y69796D01*
X222716Y69911D01*
X221843Y69796D01*
X221029Y69459D01*
X220330Y68922D01*
X219793Y68223D01*
X219456Y67409D01*
X219341Y66535D01*
X219452Y65697D01*
X219439Y65556D01*
X219199Y65197D01*
X218248D01*
Y57480D01*
Y52950D01*
X218039Y52732D01*
X217539Y52932D01*
Y57480D01*
Y65197D01*
X216588D01*
X216348Y65556D01*
X216336Y65697D01*
X216446Y66535D01*
X216331Y67409D01*
X215994Y68223D01*
X215458Y68922D01*
X214758Y69459D01*
X213945Y69796D01*
X213071Y69911D01*
X212197Y69796D01*
X211383Y69459D01*
X210684Y68922D01*
X210148Y68223D01*
X209811Y67409D01*
X209696Y66535D01*
X209806Y65697D01*
X209794Y65556D01*
X209553Y65197D01*
X208602D01*
Y57480D01*
Y53223D01*
X208102Y52980D01*
X207894Y53144D01*
Y53148D01*
X207899Y53184D01*
X207894Y53207D01*
Y58189D01*
X198957D01*
Y50472D01*
X203893D01*
X203900Y50470D01*
X203916Y50472D01*
X204055D01*
X204091Y50467D01*
X204114Y50472D01*
X204124D01*
X204347Y50287D01*
X204958Y49676D01*
Y47539D01*
X203031D01*
Y40748D01*
X198209D01*
Y36417D01*
Y33716D01*
X197747Y33525D01*
X197427Y33844D01*
X196711Y34323D01*
X195866Y34491D01*
X195473D01*
Y34956D01*
X195481Y34983D01*
X195473Y35075D01*
X195491Y35165D01*
X195473Y35260D01*
Y36752D01*
X194452D01*
X194435Y36864D01*
X194410Y37163D01*
X194401Y37566D01*
X194394Y37596D01*
Y64112D01*
X194401Y64147D01*
X194402Y64333D01*
X194410Y64681D01*
X194537Y64848D01*
X194875Y65662D01*
X194990Y66535D01*
X194875Y67409D01*
X194537Y68223D01*
X194001Y68922D01*
X193302Y69459D01*
X192488Y69796D01*
X191614Y69911D01*
X190741Y69796D01*
X189927Y69459D01*
X189227Y68922D01*
X188691Y68223D01*
X188354Y67409D01*
X188239Y66535D01*
X188354Y65662D01*
X188691Y64848D01*
X188796Y64711D01*
X188830Y64067D01*
X188835Y64048D01*
Y37596D01*
X188828Y37566D01*
X188818Y37163D01*
X188794Y36864D01*
X188777Y36752D01*
X187756D01*
Y35260D01*
X187737Y35165D01*
X187755Y35075D01*
X187747Y34983D01*
X187756Y34956D01*
Y27815D01*
X193213D01*
X193404Y27353D01*
X193122Y27071D01*
X192949Y26909D01*
X192797D01*
X192761Y26915D01*
X192738Y26909D01*
X180748D01*
X180554Y27329D01*
Y51841D01*
X185813Y57100D01*
X186292Y57816D01*
X186460Y58661D01*
Y71382D01*
X186659Y71642D01*
X186937Y72312D01*
X187032Y73032D01*
X186937Y73751D01*
X186659Y74421D01*
X186217Y74997D01*
X185642Y75439D01*
X184971Y75717D01*
X184252Y75811D01*
X183533Y75717D01*
X183023Y75505D01*
X182523Y75753D01*
Y80237D01*
X182985Y80428D01*
X186825Y76588D01*
D02*
G37*
G36*
X145116Y69876D02*
X145255Y69770D01*
X145404Y69677D01*
X145562Y69597D01*
X145730Y69529D01*
X145907Y69474D01*
X146094Y69432D01*
X146291Y69403D01*
X146497Y69386D01*
X146713Y69382D01*
X144764Y67433D01*
X144760Y67649D01*
X144743Y67855D01*
X144713Y68051D01*
X144671Y68238D01*
X144616Y68416D01*
X144549Y68583D01*
X144468Y68742D01*
X144376Y68890D01*
X144270Y69029D01*
X144152Y69159D01*
X144987Y69994D01*
X145116Y69876D01*
D02*
G37*
G36*
X57219Y65492D02*
X57197Y65503D01*
X57155Y65513D01*
X57094Y65522D01*
X56910Y65536D01*
X56302Y65551D01*
X56100Y65551D01*
Y67913D01*
X57219Y67972D01*
Y65492D01*
D02*
G37*
G36*
X129173Y66078D02*
X129175Y65951D01*
X129193Y65722D01*
X129209Y65620D01*
X129229Y65526D01*
X129254Y65441D01*
X129283Y65365D01*
X129317Y65297D01*
X129355Y65237D01*
X129398Y65185D01*
X127745Y65241D01*
X127792Y65290D01*
X127834Y65348D01*
X127871Y65415D01*
X127903Y65491D01*
X127930Y65575D01*
X127953Y65667D01*
X127970Y65768D01*
X127982Y65878D01*
X127992Y66123D01*
X129173Y66078D01*
D02*
G37*
G36*
X192843Y65249D02*
X192833Y65207D01*
X192824Y65145D01*
X192810Y64962D01*
X192796Y64354D01*
X192795Y64152D01*
X190433D01*
X190374Y65270D01*
X192854D01*
X192843Y65249D01*
D02*
G37*
G36*
X223909Y65521D02*
X223931Y65270D01*
X223957D01*
X223945Y65249D01*
X223937Y65212D01*
X223945Y65117D01*
X224004Y64761D01*
X224087Y64453D01*
X224193Y64191D01*
X224323Y63978D01*
X224476Y63811D01*
X224654Y63693D01*
X224854Y63622D01*
X225079Y63598D01*
X220354D01*
X220579Y63622D01*
X220779Y63693D01*
X220957Y63811D01*
X221110Y63978D01*
X221240Y64191D01*
X221346Y64453D01*
X221429Y64761D01*
X221485Y65100D01*
X221476Y65270D01*
X221502D01*
X221524Y65521D01*
X221535Y65972D01*
X223898D01*
X223909Y65521D01*
D02*
G37*
G36*
X214264D02*
X214286Y65270D01*
X214311D01*
X214300Y65249D01*
X214291Y65212D01*
X214299Y65117D01*
X214358Y64761D01*
X214441Y64453D01*
X214547Y64191D01*
X214677Y63978D01*
X214831Y63811D01*
X215008Y63693D01*
X215209Y63622D01*
X215433Y63598D01*
X210709D01*
X210933Y63622D01*
X211134Y63693D01*
X211311Y63811D01*
X211465Y63978D01*
X211595Y64191D01*
X211701Y64453D01*
X211784Y64761D01*
X211840Y65100D01*
X211831Y65270D01*
X211856D01*
X211878Y65521D01*
X211890Y65972D01*
X214252D01*
X214264Y65521D01*
D02*
G37*
G36*
X230453Y63076D02*
X227972D01*
X227984Y63098D01*
X227994Y63139D01*
X228003Y63201D01*
X228017Y63385D01*
X228031Y63993D01*
X228031Y64195D01*
X230394D01*
X230453Y63076D01*
D02*
G37*
G36*
X237162Y70739D02*
Y44483D01*
X236974Y44041D01*
X236951Y44035D01*
X231027D01*
Y51890D01*
X230859Y52735D01*
X230380Y53451D01*
X227939Y55892D01*
X227223Y56370D01*
X227185Y56378D01*
Y58574D01*
X227685Y58822D01*
X228339Y58551D01*
X229213Y58436D01*
X230086Y58551D01*
X230900Y58888D01*
X231599Y59424D01*
X232136Y60123D01*
X232473Y60937D01*
X232588Y61811D01*
X232473Y62685D01*
X232136Y63499D01*
X232031Y63635D01*
X231997Y64279D01*
X231992Y64298D01*
Y68612D01*
X232886Y69506D01*
X232915Y69526D01*
X233047Y69656D01*
X233299Y69897D01*
X233507Y69924D01*
X234321Y70262D01*
X235020Y70798D01*
X235557Y71497D01*
X235633Y71681D01*
X236123Y71778D01*
X237162Y70739D01*
D02*
G37*
G36*
X225594Y55075D02*
X225618Y55042D01*
X225658Y55014D01*
X225713Y54989D01*
X225784Y54968D01*
X225871Y54951D01*
X225974Y54938D01*
X226228Y54923D01*
X226378Y54921D01*
Y53740D01*
X226228Y53738D01*
X225871Y53710D01*
X225784Y53693D01*
X225713Y53672D01*
X225658Y53647D01*
X225618Y53619D01*
X225594Y53587D01*
X225586Y53551D01*
Y55110D01*
X225594Y55075D01*
D02*
G37*
G36*
X206202Y53056D02*
X206149Y52969D01*
X206135Y52860D01*
X206160Y52727D01*
X206225Y52571D01*
X206330Y52393D01*
X206473Y52191D01*
X206657Y51967D01*
X207142Y51449D01*
X205697Y51224D01*
X205481Y51432D01*
X205081Y51765D01*
X204898Y51891D01*
X204725Y51989D01*
X204564Y52060D01*
X204413Y52104D01*
X204273Y52120D01*
X204144Y52109D01*
X204026Y52071D01*
X206295Y53119D01*
X206202Y53056D01*
D02*
G37*
G36*
X219791Y52184D02*
X219807Y52175D01*
X219819Y52158D01*
X219828Y52133D01*
X219833Y52100D01*
X219835Y52059D01*
X221178Y52071D01*
X221192Y52063D01*
X221187Y52039D01*
X221165Y52000D01*
X221124Y51944D01*
X221065Y51873D01*
X220779Y51562D01*
X220672Y51453D01*
X220676Y51019D01*
X219482D01*
X219483Y51027D01*
X219484Y51047D01*
X219488Y51693D01*
X220079D01*
X219661Y52110D01*
X219694Y52141D01*
X219724Y52164D01*
X219750Y52179D01*
X219772Y52185D01*
X219791Y52184D01*
D02*
G37*
G36*
X214140Y52059D02*
X214039Y52023D01*
X213951Y51964D01*
X213874Y51880D01*
X213809Y51773D01*
X213756Y51641D01*
X213715Y51486D01*
X213685Y51307D01*
X213667Y51105D01*
X213661Y50878D01*
X212480D01*
X212474Y51105D01*
X212457Y51307D01*
X212427Y51486D01*
X212386Y51641D01*
X212333Y51773D01*
X212268Y51880D01*
X212191Y51964D01*
X212102Y52023D01*
X212002Y52059D01*
X211890Y52071D01*
X214252D01*
X214140Y52059D01*
D02*
G37*
G36*
X83862Y45590D02*
X83876Y45520D01*
X83898Y45447D01*
X83930Y45371D01*
X83972Y45293D01*
X84023Y45213D01*
X84083Y45129D01*
X84152Y45043D01*
X84319Y44862D01*
X83484Y44027D01*
X83392Y44115D01*
X83217Y44264D01*
X83134Y44324D01*
X83053Y44375D01*
X82975Y44416D01*
X82899Y44448D01*
X82827Y44471D01*
X82757Y44484D01*
X82689Y44488D01*
X83858Y45658D01*
X83862Y45590D01*
D02*
G37*
G36*
X219235Y43169D02*
X219185Y43214D01*
X219126Y43254D01*
X219058Y43290D01*
X218982Y43320D01*
X218898Y43346D01*
X218804Y43367D01*
X218703Y43384D01*
X218593Y43396D01*
X218347Y43405D01*
Y44586D01*
X218474Y44589D01*
X218703Y44608D01*
X218804Y44624D01*
X218898Y44646D01*
X218982Y44671D01*
X219058Y44702D01*
X219126Y44738D01*
X219185Y44778D01*
X219235Y44823D01*
Y43169D01*
D02*
G37*
G36*
X215618Y45065D02*
X215654Y44964D01*
X215713Y44876D01*
X215797Y44799D01*
X215904Y44734D01*
X216035Y44681D01*
X216191Y44640D01*
X216370Y44610D01*
X216572Y44592D01*
X216799Y44586D01*
Y43405D01*
X216572Y43399D01*
X216370Y43382D01*
X216191Y43352D01*
X216035Y43311D01*
X215904Y43258D01*
X215797Y43193D01*
X215713Y43116D01*
X215654Y43027D01*
X215618Y42927D01*
X215606Y42815D01*
Y45177D01*
X215618Y45065D01*
D02*
G37*
G36*
X229415Y43403D02*
X229433Y43200D01*
X229463Y43021D01*
X229504Y42866D01*
X229557Y42735D01*
X229622Y42627D01*
X229699Y42544D01*
X229787Y42484D01*
X229888Y42448D01*
X230000Y42436D01*
X227638D01*
X227750Y42448D01*
X227850Y42484D01*
X227939Y42544D01*
X228016Y42627D01*
X228081Y42735D01*
X228134Y42866D01*
X228175Y43021D01*
X228205Y43200D01*
X228222Y43403D01*
X228228Y43630D01*
X229409D01*
X229415Y43403D01*
D02*
G37*
G36*
X238933Y41838D02*
X238726Y41622D01*
X238392Y41223D01*
X238266Y41039D01*
X238168Y40867D01*
X238097Y40705D01*
X238053Y40555D01*
X238037Y40415D01*
X238048Y40286D01*
X238086Y40168D01*
X237038Y42436D01*
X237102Y42344D01*
X237188Y42290D01*
X237298Y42276D01*
X237430Y42302D01*
X237586Y42367D01*
X237764Y42471D01*
X237966Y42615D01*
X238190Y42799D01*
X238708Y43284D01*
X238933Y41838D01*
D02*
G37*
G36*
X127999Y43714D02*
X127865Y43557D01*
X127747Y43397D01*
X127645Y43235D01*
X127558Y43071D01*
X127487Y42904D01*
X127432Y42736D01*
X127393Y42565D01*
X127369Y42392D01*
X127362Y42217D01*
X126180D01*
X126172Y42392D01*
X126149Y42565D01*
X126110Y42736D01*
X126054Y42904D01*
X125984Y43071D01*
X125897Y43235D01*
X125794Y43397D01*
X125676Y43557D01*
X125543Y43714D01*
X125393Y43870D01*
X128149D01*
X127999Y43714D01*
D02*
G37*
G36*
X80525Y79935D02*
X81242Y79456D01*
X82087Y79288D01*
X93971D01*
X94248Y78873D01*
X94165Y78672D01*
X94071Y77953D01*
X94165Y77233D01*
X94413Y76636D01*
X94395Y76463D01*
X94200Y76059D01*
X93689Y75847D01*
X93113Y75405D01*
X92672Y74830D01*
X92394Y74159D01*
X92299Y73440D01*
X92394Y72720D01*
X92672Y72050D01*
X93113Y71474D01*
X93689Y71033D01*
X94359Y70755D01*
X95079Y70660D01*
X95798Y70755D01*
X96469Y71033D01*
X96729Y71232D01*
X98046D01*
X98891Y71400D01*
X99607Y71879D01*
X102489Y74761D01*
X125496D01*
X125826Y74385D01*
X125803Y74212D01*
X125898Y73493D01*
X126175Y72823D01*
X126375Y72563D01*
Y66071D01*
X126136Y65760D01*
X125858Y65089D01*
X125764Y64370D01*
X125858Y63651D01*
X126136Y62980D01*
X126578Y62405D01*
X127154Y61963D01*
X127824Y61685D01*
X128543Y61590D01*
X129263Y61685D01*
X129933Y61963D01*
X130509Y62405D01*
X130951Y62980D01*
X131228Y63651D01*
X131323Y64370D01*
X131228Y65089D01*
X130951Y65760D01*
X130790Y65969D01*
Y72563D01*
X130990Y72823D01*
X131268Y73493D01*
X131362Y74212D01*
X131340Y74385D01*
X131669Y74761D01*
X136263D01*
X143064Y67959D01*
X143069Y67951D01*
X143085Y67919D01*
X143102Y67878D01*
X143119Y67824D01*
X143134Y67755D01*
X143147Y67670D01*
X143155Y67568D01*
X143158Y67402D01*
X143162Y67387D01*
X143280Y66488D01*
X143637Y65626D01*
X144205Y64886D01*
X144945Y64318D01*
X145807Y63961D01*
X146732Y63839D01*
X147657Y63961D01*
X148519Y64318D01*
X149259Y64886D01*
X149287Y64922D01*
X149761Y64762D01*
Y45009D01*
X146330Y41578D01*
X135672D01*
X135236Y41732D01*
Y48819D01*
X128150D01*
X128150Y48819D01*
X127650Y48734D01*
X126771Y48849D01*
X125846Y48728D01*
X124984Y48371D01*
X124244Y47803D01*
X123676Y47063D01*
X123319Y46201D01*
X123197Y45276D01*
X123319Y44351D01*
X123676Y43489D01*
X124227Y42770D01*
X124236Y42756D01*
X124242Y42750D01*
X123919Y42364D01*
X123286Y42788D01*
X122441Y42956D01*
X101378D01*
Y48819D01*
X94291D01*
X94291Y48819D01*
X93791Y48734D01*
X92913Y48849D01*
X91988Y48728D01*
X91126Y48371D01*
X90386Y47803D01*
X89818Y47063D01*
X89461Y46201D01*
X89339Y45276D01*
X89461Y44351D01*
X89818Y43489D01*
X89882Y43404D01*
X89661Y42956D01*
X88513D01*
X85405Y46064D01*
X85362Y46389D01*
X85084Y47059D01*
X84643Y47635D01*
X84067Y48077D01*
X83397Y48354D01*
X82677Y48449D01*
X81958Y48354D01*
X81287Y48077D01*
X80712Y47635D01*
X80270Y47059D01*
X79992Y46389D01*
X79897Y45669D01*
X79992Y44950D01*
X80270Y44280D01*
X80712Y43704D01*
X81287Y43262D01*
X81958Y42984D01*
X82283Y42942D01*
X85706Y39519D01*
X85498Y39019D01*
X80442D01*
X79176Y40285D01*
Y80631D01*
X79638Y80822D01*
X80525Y79935D01*
D02*
G37*
G36*
X192806Y37078D02*
X192839Y36677D01*
X192893Y36322D01*
X192970Y36015D01*
X193068Y35756D01*
X193188Y35543D01*
X193330Y35378D01*
X193493Y35260D01*
X193678Y35189D01*
X193886Y35165D01*
X189343D01*
X189550Y35189D01*
X189735Y35260D01*
X189899Y35378D01*
X190041Y35543D01*
X190161Y35756D01*
X190259Y36015D01*
X190335Y36322D01*
X190390Y36677D01*
X190422Y37078D01*
X190433Y37527D01*
X192795D01*
X192806Y37078D01*
D02*
G37*
G36*
X193886Y33352D02*
X193921Y33252D01*
X193981Y33163D01*
X194065Y33086D01*
X194172Y33022D01*
X194303Y32968D01*
X194458Y32927D01*
X194637Y32897D01*
X194840Y32880D01*
X195067Y32874D01*
Y31693D01*
X194840Y31687D01*
X194637Y31669D01*
X194458Y31640D01*
X194303Y31598D01*
X194172Y31545D01*
X194065Y31480D01*
X193981Y31403D01*
X193921Y31315D01*
X193886Y31214D01*
X193874Y31102D01*
Y31645D01*
X192781Y31573D01*
X192629Y31536D01*
X192518Y31494D01*
X192449Y31448D01*
Y33119D01*
X192518Y33072D01*
X192629Y33031D01*
X192781Y32994D01*
X192975Y32962D01*
X193485Y32913D01*
X193874Y32900D01*
Y33464D01*
X193886Y33352D01*
D02*
G37*
G36*
X116943Y38040D02*
X116519Y37488D01*
X116109Y36497D01*
X115969Y35433D01*
X116109Y34369D01*
X116519Y33378D01*
X116792Y33023D01*
X116545Y32523D01*
X108455D01*
X108208Y33023D01*
X108481Y33378D01*
X108891Y34369D01*
X109031Y35433D01*
X108891Y36497D01*
X108481Y37488D01*
X108057Y38040D01*
X108303Y38540D01*
X116697D01*
X116943Y38040D01*
D02*
G37*
G36*
X238933Y31996D02*
X238726Y31780D01*
X238392Y31380D01*
X238266Y31197D01*
X238168Y31025D01*
X238097Y30863D01*
X238053Y30712D01*
X238037Y30572D01*
X238048Y30443D01*
X238086Y30325D01*
X237038Y32594D01*
X237102Y32501D01*
X237188Y32448D01*
X237298Y32434D01*
X237430Y32459D01*
X237586Y32524D01*
X237764Y32629D01*
X237966Y32773D01*
X238190Y32956D01*
X238708Y33441D01*
X238933Y31996D01*
D02*
G37*
G36*
X214941Y36417D02*
Y34449D01*
Y32480D01*
Y30807D01*
X205295D01*
Y34449D01*
Y36417D01*
Y40453D01*
X214941D01*
Y36417D01*
D02*
G37*
G36*
X145889Y29488D02*
X145838Y29533D01*
X145779Y29573D01*
X145712Y29609D01*
X145636Y29639D01*
X145551Y29665D01*
X145458Y29687D01*
X145356Y29703D01*
X145246Y29715D01*
X145001Y29724D01*
Y30906D01*
X145128Y30908D01*
X145356Y30927D01*
X145458Y30943D01*
X145551Y30965D01*
X145636Y30991D01*
X145712Y31021D01*
X145779Y31057D01*
X145838Y31097D01*
X145889Y31142D01*
Y29488D01*
D02*
G37*
G36*
X226559Y28964D02*
X226552Y28997D01*
X226529Y29025D01*
X226490Y29051D01*
X226436Y29073D01*
X226366Y29091D01*
X226282Y29107D01*
X226181Y29118D01*
X225934Y29132D01*
X225788Y29134D01*
Y30315D01*
X225934Y30316D01*
X226282Y30342D01*
X226366Y30357D01*
X226436Y30376D01*
X226490Y30398D01*
X226529Y30423D01*
X226552Y30452D01*
X226559Y30484D01*
Y28964D01*
D02*
G37*
G36*
X204630Y26083D02*
X204618Y26195D01*
X204583Y26295D01*
X204523Y26384D01*
X204439Y26460D01*
X204332Y26525D01*
X204201Y26579D01*
X204046Y26620D01*
X203867Y26649D01*
X203664Y26667D01*
X203437Y26673D01*
Y27854D01*
X203664Y27860D01*
X203867Y27878D01*
X204046Y27907D01*
X204201Y27949D01*
X204332Y28002D01*
X204439Y28067D01*
X204523Y28144D01*
X204583Y28232D01*
X204618Y28332D01*
X204630Y28445D01*
Y26083D01*
D02*
G37*
G36*
X194721Y24712D02*
X194513Y24496D01*
X194179Y24097D01*
X194054Y23913D01*
X193955Y23741D01*
X193884Y23579D01*
X193841Y23429D01*
X193824Y23289D01*
X193835Y23160D01*
X193874Y23042D01*
X192825Y25311D01*
X192889Y25218D01*
X192976Y25164D01*
X193085Y25150D01*
X193218Y25176D01*
X193373Y25241D01*
X193552Y25345D01*
X193753Y25489D01*
X193978Y25673D01*
X194496Y26158D01*
X194721Y24712D01*
D02*
G37*
G36*
X182347Y21260D02*
X182335Y21372D01*
X182299Y21472D01*
X182239Y21561D01*
X182156Y21638D01*
X182049Y21703D01*
X181917Y21756D01*
X181762Y21797D01*
X181583Y21827D01*
X181380Y21844D01*
X181154Y21850D01*
Y23031D01*
X181380Y23037D01*
X181583Y23055D01*
X181762Y23085D01*
X181917Y23126D01*
X182049Y23179D01*
X182156Y23244D01*
X182239Y23321D01*
X182299Y23409D01*
X182335Y23510D01*
X182347Y23622D01*
Y21260D01*
D02*
G37*
G36*
X141878Y20930D02*
X141781Y20794D01*
X141696Y20642D01*
X141622Y20474D01*
X141560Y20291D01*
X141508Y20091D01*
X141469Y19875D01*
X141440Y19643D01*
X141423Y19395D01*
X141417Y19131D01*
X139055D01*
X139049Y19395D01*
X139004Y19875D01*
X138964Y20091D01*
X138913Y20291D01*
X138850Y20474D01*
X138776Y20642D01*
X138691Y20794D01*
X138594Y20930D01*
X138486Y21049D01*
X141986D01*
X141878Y20930D01*
D02*
G37*
G36*
X203031Y23720D02*
X206600D01*
X206791Y23220D01*
X204555Y20984D01*
X199350D01*
Y14295D01*
X198850Y14125D01*
X198816Y14170D01*
X198240Y14612D01*
X197570Y14890D01*
X196850Y14984D01*
X196131Y14890D01*
X195460Y14612D01*
X195201Y14412D01*
X179851D01*
X177995Y16269D01*
Y20391D01*
X178495Y20658D01*
X178880Y20401D01*
X179725Y20233D01*
X180748D01*
Y17972D01*
X195472D01*
Y22909D01*
X195474Y22916D01*
X195472Y22932D01*
Y23071D01*
X195478Y23106D01*
X195472Y23129D01*
Y23140D01*
X195658Y23362D01*
X197352Y25056D01*
X203031D01*
Y23720D01*
D02*
G37*
G36*
X221842Y19985D02*
X222242Y19652D01*
X222425Y19526D01*
X222597Y19428D01*
X222759Y19357D01*
X222910Y19313D01*
X223049Y19297D01*
X223179Y19308D01*
X223296Y19346D01*
X222782Y19108D01*
X223575Y18414D01*
X223708Y18333D01*
X223816Y18284D01*
X223898Y18268D01*
X222716Y17086D01*
X222700Y17168D01*
X222651Y17276D01*
X222570Y17409D01*
X222456Y17569D01*
X222130Y17964D01*
X221580Y18553D01*
X221028Y18298D01*
X221121Y18361D01*
X221174Y18448D01*
X221188Y18557D01*
X221163Y18690D01*
X221098Y18845D01*
X220993Y19024D01*
X220849Y19226D01*
X220666Y19450D01*
X220181Y19968D01*
X221626Y20193D01*
X221842Y19985D01*
D02*
G37*
G36*
X226803Y19151D02*
X226874Y18965D01*
X226992Y18802D01*
X227157Y18660D01*
X227370Y18540D01*
X227630Y18442D01*
X227937Y18366D01*
X228209Y18324D01*
X228262Y18327D01*
Y18316D01*
X228291Y18311D01*
X228693Y18278D01*
X229141Y18268D01*
Y15905D01*
X228693Y15894D01*
X228291Y15862D01*
X228262Y15857D01*
Y15846D01*
X228246Y15855D01*
X227937Y15807D01*
X227630Y15731D01*
X227370Y15633D01*
X227157Y15513D01*
X226992Y15371D01*
X226874Y15207D01*
X226803Y15022D01*
X226779Y14815D01*
Y19358D01*
X226803Y19151D01*
D02*
G37*
G36*
X85335Y15045D02*
X82854D01*
X82866Y15066D01*
X82876Y15108D01*
X82885Y15170D01*
X82899Y15353D01*
X82913Y15961D01*
X82913Y16163D01*
X85276D01*
X85335Y15045D01*
D02*
G37*
G36*
X196007Y11378D02*
X195956Y11423D01*
X195897Y11463D01*
X195830Y11498D01*
X195754Y11529D01*
X195669Y11555D01*
X195576Y11576D01*
X195475Y11593D01*
X195364Y11605D01*
X195119Y11614D01*
Y12795D01*
X195246Y12798D01*
X195475Y12817D01*
X195576Y12833D01*
X195669Y12854D01*
X195754Y12880D01*
X195830Y12911D01*
X195897Y12946D01*
X195956Y12987D01*
X196007Y13032D01*
Y11378D01*
D02*
G37*
G36*
X164768Y8385D02*
X164781Y8315D01*
X164804Y8242D01*
X164836Y8167D01*
X164877Y8089D01*
X164928Y8008D01*
X164988Y7924D01*
X165058Y7838D01*
X165225Y7658D01*
X164390Y6822D01*
X164298Y6911D01*
X164123Y7059D01*
X164040Y7119D01*
X163959Y7170D01*
X163880Y7211D01*
X163805Y7243D01*
X163732Y7266D01*
X163662Y7279D01*
X163594Y7283D01*
X164764Y8453D01*
X164768Y8385D01*
D02*
G37*
G36*
X141476Y5989D02*
X138996D01*
X139007Y6011D01*
X139017Y6053D01*
X139026Y6114D01*
X139040Y6298D01*
X139055Y6906D01*
X139055Y7108D01*
X141417D01*
X141476Y5989D01*
D02*
G37*
G36*
X187227Y4291D02*
X187177Y4336D01*
X187118Y4376D01*
X187050Y4412D01*
X186974Y4442D01*
X186890Y4468D01*
X186796Y4490D01*
X186695Y4506D01*
X186585Y4518D01*
X186339Y4527D01*
X186339Y5708D01*
X186466Y5711D01*
X186695Y5730D01*
X186796Y5746D01*
X186889Y5768D01*
X186974Y5793D01*
X187050Y5824D01*
X187118Y5860D01*
X187177Y5900D01*
X187227Y5945D01*
X187227Y4291D01*
D02*
G37*
%LPC*%
G36*
X11259Y157582D02*
X10540Y157488D01*
X9870Y157210D01*
X9294Y156768D01*
X8852Y156193D01*
X8574Y155522D01*
X8480Y154803D01*
X8574Y154083D01*
X8852Y153413D01*
X9052Y153153D01*
Y146544D01*
X8849Y146342D01*
X-10122D01*
X-10382Y146541D01*
X-11052Y146819D01*
X-11772Y146914D01*
X-12491Y146819D01*
X-13161Y146541D01*
X-13737Y146099D01*
X-14179Y145524D01*
X-14457Y144853D01*
X-14551Y144134D01*
X-14457Y143414D01*
X-14179Y142744D01*
X-13737Y142168D01*
X-13161Y141727D01*
X-12491Y141449D01*
X-11772Y141354D01*
X-11052Y141449D01*
X-10382Y141727D01*
X-10122Y141926D01*
X9764D01*
X10609Y142094D01*
X11325Y142573D01*
X12821Y144068D01*
X13299Y144785D01*
X13467Y145630D01*
Y153153D01*
X13667Y153413D01*
X13944Y154083D01*
X14039Y154803D01*
X13944Y155522D01*
X13667Y156193D01*
X13225Y156768D01*
X12649Y157210D01*
X11979Y157488D01*
X11259Y157582D01*
D02*
G37*
G36*
X10539Y48274D02*
X9255Y48105D01*
X8057Y47609D01*
X7029Y46821D01*
X6241Y45793D01*
X5745Y44595D01*
X5576Y43311D01*
X5745Y42026D01*
X6241Y40829D01*
X7029Y39801D01*
X8057Y39012D01*
X9255Y38516D01*
X10539Y38347D01*
X11824Y38516D01*
X13021Y39012D01*
X14049Y39801D01*
X14838Y40829D01*
X15334Y42026D01*
X15503Y43311D01*
X15334Y44595D01*
X14838Y45793D01*
X14049Y46821D01*
X13021Y47609D01*
X11824Y48105D01*
X10539Y48274D01*
D02*
G37*
G36*
X21850Y58301D02*
X20822Y58166D01*
X19865Y57769D01*
X19042Y57138D01*
X18411Y56316D01*
X18015Y55358D01*
X17879Y54330D01*
X18015Y53303D01*
X18411Y52345D01*
X18475Y52262D01*
Y35003D01*
X18146Y34674D01*
X3760D01*
X-763Y39197D01*
X-1462Y39734D01*
X-2276Y40071D01*
X-3150Y40186D01*
X-7242D01*
X-7251Y40188D01*
X-7544Y40190D01*
X-8240Y40211D01*
X-8354Y40221D01*
X-8644Y40444D01*
X-8676Y40517D01*
Y40979D01*
X-8644Y41052D01*
X-7935Y41596D01*
X-7241Y42501D01*
X-6804Y43554D01*
X-6656Y44685D01*
X-6804Y45815D01*
X-7241Y46869D01*
X-7935Y47774D01*
X-8840Y48468D01*
X-9893Y48904D01*
X-11024Y49053D01*
X-12154Y48904D01*
X-13208Y48468D01*
X-14112Y47774D01*
X-14807Y46869D01*
X-15243Y45815D01*
X-15392Y44685D01*
X-15243Y43554D01*
X-14807Y42501D01*
X-14112Y41596D01*
X-13403Y41052D01*
X-13372Y40979D01*
Y40517D01*
X-13403Y40444D01*
X-14112Y39900D01*
X-14807Y38995D01*
X-15243Y37941D01*
X-15392Y36811D01*
X-15243Y35680D01*
X-14807Y34627D01*
X-14112Y33722D01*
X-13403Y33178D01*
X-13372Y33105D01*
Y32643D01*
X-13403Y32570D01*
X-14112Y32026D01*
X-14807Y31121D01*
X-15243Y30067D01*
X-15392Y28937D01*
X-15243Y27806D01*
X-14807Y26753D01*
X-14112Y25848D01*
X-13208Y25154D01*
X-12154Y24718D01*
X-11024Y24569D01*
X-9893Y24718D01*
X-8840Y25154D01*
X-7935Y25848D01*
X-7241Y26753D01*
X-6804Y27806D01*
X-6656Y28937D01*
X-6804Y30067D01*
X-7241Y31121D01*
X-7935Y32026D01*
X-8644Y32570D01*
X-8676Y32643D01*
Y33105D01*
X-8644Y33178D01*
X-8380Y33380D01*
X-7520Y33432D01*
X-7251Y33433D01*
X-7242Y33435D01*
X-4548D01*
X-25Y28912D01*
X674Y28376D01*
X1488Y28039D01*
X2362Y27924D01*
X19544D01*
X20418Y28039D01*
X21232Y28376D01*
X21931Y28912D01*
X24237Y31218D01*
X24773Y31918D01*
X25111Y32732D01*
X25226Y33605D01*
Y52262D01*
X25289Y52345D01*
X25686Y53303D01*
X25821Y54330D01*
X25686Y55358D01*
X25289Y56316D01*
X24658Y57138D01*
X23836Y57769D01*
X22878Y58166D01*
X21850Y58301D01*
D02*
G37*
G36*
X72303Y24749D02*
X71532Y24648D01*
X70814Y24350D01*
X70197Y23877D01*
X69724Y23260D01*
X69427Y22542D01*
X69325Y21771D01*
X69427Y21000D01*
X69724Y20282D01*
X70197Y19665D01*
X70814Y19192D01*
X71532Y18894D01*
X72303Y18793D01*
X73074Y18894D01*
X73792Y19192D01*
X74409Y19665D01*
X74883Y20282D01*
X75180Y21000D01*
X75282Y21771D01*
X75180Y22542D01*
X74883Y23260D01*
X74409Y23877D01*
X73792Y24350D01*
X73074Y24648D01*
X72303Y24749D01*
D02*
G37*
G36*
X49547D02*
X48777Y24648D01*
X48058Y24350D01*
X47441Y23877D01*
X46968Y23260D01*
X46670Y22542D01*
X46569Y21771D01*
X46670Y21000D01*
X46968Y20282D01*
X47441Y19665D01*
X48058Y19192D01*
X48777Y18894D01*
X49547Y18793D01*
X50318Y18894D01*
X51037Y19192D01*
X51653Y19665D01*
X52127Y20282D01*
X52424Y21000D01*
X52526Y21771D01*
X52424Y22542D01*
X52127Y23260D01*
X51653Y23877D01*
X51037Y24350D01*
X50318Y24648D01*
X49547Y24749D01*
D02*
G37*
G36*
X55610Y35358D02*
X54891Y35263D01*
X54220Y34986D01*
X53644Y34544D01*
X53203Y33968D01*
X52925Y33298D01*
X52830Y32578D01*
X52925Y31859D01*
X53203Y31188D01*
X53402Y30929D01*
Y21066D01*
X53570Y20221D01*
X54049Y19504D01*
X54741Y18812D01*
X55457Y18334D01*
X56302Y18166D01*
X63409D01*
X63669Y17966D01*
X64339Y17689D01*
X65059Y17594D01*
X65778Y17689D01*
X66448Y17966D01*
X67024Y18408D01*
X67466Y18984D01*
X67744Y19654D01*
X67838Y20374D01*
X67744Y21093D01*
X67466Y21763D01*
X67024Y22339D01*
X66448Y22781D01*
X65778Y23058D01*
X65059Y23153D01*
X64339Y23058D01*
X63669Y22781D01*
X63409Y22581D01*
X57818D01*
Y30929D01*
X58017Y31188D01*
X58295Y31859D01*
X58390Y32578D01*
X58295Y33298D01*
X58017Y33968D01*
X57576Y34544D01*
X57000Y34986D01*
X56329Y35263D01*
X55610Y35358D01*
D02*
G37*
%LPD*%
G36*
X12041Y153909D02*
X12001Y153850D01*
X11966Y153782D01*
X11935Y153706D01*
X11909Y153621D01*
X11888Y153528D01*
X11871Y153427D01*
X11859Y153317D01*
X11850Y153071D01*
X10669D01*
X10667Y153198D01*
X10648Y153427D01*
X10631Y153528D01*
X10610Y153621D01*
X10584Y153706D01*
X10553Y153782D01*
X10518Y153850D01*
X10477Y153909D01*
X10433Y153959D01*
X12086D01*
X12041Y153909D01*
D02*
G37*
G36*
X-10878Y144916D02*
X-10819Y144876D01*
X-10751Y144840D01*
X-10675Y144809D01*
X-10590Y144783D01*
X-10497Y144762D01*
X-10396Y144746D01*
X-10286Y144734D01*
X-10040Y144724D01*
Y143543D01*
X-10167Y143541D01*
X-10396Y143522D01*
X-10497Y143506D01*
X-10590Y143484D01*
X-10675Y143458D01*
X-10751Y143428D01*
X-10819Y143392D01*
X-10878Y143352D01*
X-10928Y143307D01*
Y144961D01*
X-10878Y144916D01*
D02*
G37*
G36*
X-9010Y38710D02*
X-8934Y38683D01*
X-8829Y38660D01*
X-8694Y38639D01*
X-8335Y38608D01*
X-7573Y38584D01*
X-7259Y38583D01*
Y35039D01*
X-7573Y35038D01*
X-8829Y34962D01*
X-8934Y34938D01*
X-9010Y34912D01*
X-9056Y34882D01*
Y38740D01*
X-9010Y38710D01*
D02*
G37*
G36*
X56392Y31684D02*
X56352Y31625D01*
X56316Y31558D01*
X56286Y31482D01*
X56260Y31397D01*
X56238Y31304D01*
X56222Y31202D01*
X56210Y31092D01*
X56200Y30847D01*
X55019D01*
X55017Y30974D01*
X54998Y31202D01*
X54982Y31304D01*
X54960Y31397D01*
X54934Y31482D01*
X54904Y31558D01*
X54868Y31625D01*
X54828Y31684D01*
X54783Y31735D01*
X56437D01*
X56392Y31684D01*
D02*
G37*
G36*
X64215Y19547D02*
X64165Y19592D01*
X64106Y19632D01*
X64038Y19667D01*
X63962Y19698D01*
X63877Y19724D01*
X63784Y19745D01*
X63683Y19762D01*
X63573Y19774D01*
X63327Y19783D01*
Y20964D01*
X63454Y20967D01*
X63683Y20985D01*
X63784Y21002D01*
X63877Y21023D01*
X63962Y21049D01*
X64038Y21080D01*
X64106Y21115D01*
X64165Y21156D01*
X64215Y21200D01*
Y19547D01*
D02*
G37*
%LPC*%
G36*
X100610Y152559D02*
X91673D01*
Y144843D01*
X93055D01*
X93385Y144467D01*
X93362Y144291D01*
X93457Y143572D01*
X93735Y142902D01*
X93934Y142641D01*
Y139094D01*
X94102Y138250D01*
X94581Y137533D01*
X98383Y133731D01*
Y118382D01*
X98183Y118122D01*
X97906Y117452D01*
X97811Y116732D01*
X97906Y116013D01*
X98183Y115342D01*
X98625Y114767D01*
X99201Y114325D01*
X99871Y114047D01*
X100591Y113953D01*
X101310Y114047D01*
X101980Y114325D01*
X102556Y114767D01*
X102998Y115342D01*
X103276Y116013D01*
X103370Y116732D01*
X103276Y117452D01*
X102998Y118122D01*
X102798Y118382D01*
Y134646D01*
X102630Y135491D01*
X102152Y136207D01*
X98349Y140009D01*
Y142641D01*
X98549Y142902D01*
X98827Y143572D01*
X98921Y144291D01*
X98898Y144467D01*
X99228Y144843D01*
X100610D01*
Y152559D01*
D02*
G37*
G36*
X93150Y115492D02*
X85433D01*
Y106555D01*
X93150D01*
Y108816D01*
X94216D01*
X94476Y108616D01*
X95147Y108339D01*
X95866Y108244D01*
X96586Y108339D01*
X97256Y108616D01*
X97832Y109058D01*
X98273Y109634D01*
X98551Y110304D01*
X98646Y111024D01*
X98551Y111743D01*
X98273Y112414D01*
X97832Y112989D01*
X97256Y113431D01*
X96586Y113709D01*
X95866Y113803D01*
X95147Y113709D01*
X94476Y113431D01*
X94216Y113231D01*
X93150D01*
Y115492D01*
D02*
G37*
%LPD*%
G36*
X97211Y146429D02*
X97110Y146394D01*
X97022Y146334D01*
X96945Y146250D01*
X96880Y146143D01*
X96827Y146012D01*
X96785Y145857D01*
X96756Y145678D01*
X96754Y145661D01*
X96770Y145566D01*
X96791Y145473D01*
X96817Y145388D01*
X96848Y145312D01*
X96883Y145244D01*
X96924Y145185D01*
X96969Y145135D01*
X95315D01*
X95360Y145185D01*
X95400Y145244D01*
X95435Y145312D01*
X95466Y145388D01*
X95492Y145473D01*
X95513Y145566D01*
X95529Y145661D01*
X95528Y145678D01*
X95498Y145857D01*
X95457Y146012D01*
X95403Y146143D01*
X95339Y146250D01*
X95262Y146334D01*
X95173Y146394D01*
X95073Y146429D01*
X94961Y146441D01*
X97323D01*
X97211Y146429D01*
D02*
G37*
G36*
X96924Y143397D02*
X96883Y143338D01*
X96848Y143271D01*
X96817Y143195D01*
X96791Y143110D01*
X96770Y143017D01*
X96754Y142915D01*
X96742Y142805D01*
X96732Y142560D01*
X95551D01*
X95549Y142687D01*
X95530Y142915D01*
X95513Y143017D01*
X95492Y143110D01*
X95466Y143195D01*
X95435Y143271D01*
X95400Y143338D01*
X95360Y143397D01*
X95315Y143448D01*
X96969D01*
X96924Y143397D01*
D02*
G37*
G36*
X101183Y118337D02*
X101202Y118108D01*
X101219Y118007D01*
X101240Y117913D01*
X101266Y117829D01*
X101297Y117753D01*
X101332Y117685D01*
X101372Y117626D01*
X101417Y117576D01*
X99764D01*
X99809Y117626D01*
X99849Y117685D01*
X99884Y117753D01*
X99915Y117829D01*
X99941Y117913D01*
X99962Y118007D01*
X99979Y118108D01*
X99990Y118218D01*
X100000Y118464D01*
X101181D01*
X101183Y118337D01*
D02*
G37*
G36*
X95023Y110197D02*
X94972Y110242D01*
X94913Y110282D01*
X94845Y110317D01*
X94769Y110348D01*
X94685Y110374D01*
X94592Y110395D01*
X94490Y110412D01*
X94380Y110424D01*
X94135Y110433D01*
Y111614D01*
X94262Y111617D01*
X94490Y111635D01*
X94592Y111652D01*
X94685Y111673D01*
X94769Y111699D01*
X94845Y111730D01*
X94913Y111765D01*
X94972Y111805D01*
X95023Y111850D01*
Y110197D01*
D02*
G37*
G36*
X91563Y112092D02*
X91598Y111992D01*
X91658Y111904D01*
X91742Y111827D01*
X91849Y111762D01*
X91980Y111709D01*
X92135Y111667D01*
X92314Y111638D01*
X92517Y111620D01*
X92744Y111614D01*
Y110433D01*
X92517Y110427D01*
X92314Y110409D01*
X92135Y110380D01*
X91980Y110339D01*
X91849Y110285D01*
X91742Y110221D01*
X91658Y110144D01*
X91598Y110055D01*
X91563Y109955D01*
X91551Y109843D01*
Y112205D01*
X91563Y112092D01*
D02*
G37*
%LPC*%
G36*
X110256Y74236D02*
X109537Y74142D01*
X108866Y73864D01*
X108291Y73422D01*
X107849Y72846D01*
X107571Y72176D01*
X107477Y71456D01*
X107571Y70737D01*
X107849Y70067D01*
X108048Y69807D01*
Y65685D01*
X107849Y65425D01*
X107571Y64755D01*
X107477Y64035D01*
X107571Y63316D01*
X107849Y62646D01*
X108291Y62070D01*
X108866Y61628D01*
X109537Y61350D01*
X110256Y61256D01*
X110976Y61350D01*
X111646Y61628D01*
X112222Y62070D01*
X112664Y62646D01*
X112941Y63316D01*
X113036Y64035D01*
X112941Y64755D01*
X112664Y65425D01*
X112464Y65685D01*
Y69807D01*
X112664Y70067D01*
X112941Y70737D01*
X113036Y71456D01*
X112941Y72176D01*
X112664Y72846D01*
X112222Y73422D01*
X111646Y73864D01*
X110976Y74142D01*
X110256Y74236D01*
D02*
G37*
%LPD*%
G36*
X111038Y70562D02*
X110998Y70503D01*
X110963Y70436D01*
X110932Y70360D01*
X110906Y70275D01*
X110885Y70182D01*
X110868Y70081D01*
X110856Y69971D01*
X110847Y69725D01*
X109666D01*
X109663Y69852D01*
X109644Y70081D01*
X109628Y70182D01*
X109607Y70275D01*
X109581Y70360D01*
X109550Y70436D01*
X109515Y70503D01*
X109474Y70562D01*
X109430Y70613D01*
X111083D01*
X111038Y70562D01*
D02*
G37*
G36*
X110849Y65640D02*
X110868Y65411D01*
X110885Y65310D01*
X110906Y65217D01*
X110932Y65132D01*
X110963Y65056D01*
X110998Y64988D01*
X111038Y64929D01*
X111083Y64879D01*
X109430D01*
X109474Y64929D01*
X109515Y64988D01*
X109550Y65056D01*
X109581Y65132D01*
X109607Y65217D01*
X109628Y65310D01*
X109644Y65411D01*
X109656Y65521D01*
X109666Y65767D01*
X110847D01*
X110849Y65640D01*
D02*
G37*
D11*
X229213Y69764D02*
X232677Y73228D01*
X229213Y61811D02*
Y69764D01*
X17913Y115157D02*
Y136811D01*
X233268Y86614D02*
X234252Y87598D01*
X227953Y86614D02*
X233268D01*
X220669Y150787D02*
X240158D01*
X242126Y148819D01*
Y86417D02*
Y148819D01*
X237598Y81890D02*
X242126Y86417D01*
X73347Y35512D02*
Y80688D01*
X30118Y169685D02*
Y194488D01*
X135630Y160827D02*
X153150D01*
X134252Y159449D02*
X135630Y160827D01*
X134252Y154921D02*
Y159449D01*
X160236Y153740D02*
X165157D01*
X153150Y160827D02*
X160236Y153740D01*
X173622Y156693D02*
X225197D01*
X169291Y152362D02*
X173622Y156693D01*
X169291Y148622D02*
Y152362D01*
X172441Y161024D02*
X220669D01*
X165157Y153740D02*
X172441Y161024D01*
X45276Y209646D02*
X47205Y211575D01*
X52756D01*
X27756Y167323D02*
X30118Y169685D01*
X5118Y167323D02*
X27756D01*
X22047Y99605D02*
Y148031D01*
Y99605D02*
X26770Y94882D01*
X70570Y83465D02*
X73347Y80688D01*
X45866Y83465D02*
X70570D01*
X41929Y68307D02*
Y101969D01*
Y68307D02*
X43504Y66732D01*
X58484D01*
X225197Y156693D02*
Y177953D01*
X222835Y180315D02*
X225197Y177953D01*
X186024Y180315D02*
X222835D01*
X180512Y185827D02*
X186024Y180315D01*
X159252Y185827D02*
X180512D01*
X154528Y181102D02*
X159252Y185827D01*
X135236Y181102D02*
X154528D01*
X132205Y178071D02*
X135236Y181102D01*
X132205Y172638D02*
Y178071D01*
X75394Y33465D02*
X82087D01*
X73347Y35512D02*
X75394Y33465D01*
X82087D02*
X84095Y31457D01*
Y13780D02*
Y31457D01*
X223898Y17086D02*
X229528D01*
X191614Y32283D02*
Y66535D01*
X222716Y61338D02*
Y66535D01*
X213071Y61338D02*
Y66535D01*
X162205Y211575D02*
X172047D01*
X143898Y211575D02*
X162205D01*
X134252D02*
X143898D01*
X117520D02*
X134252D01*
X107677Y211575D02*
X117520D01*
X92060D02*
X107677D01*
X82284D02*
X92060D01*
X62402Y211575D02*
X82284D01*
X52756D02*
X62402D01*
X140236Y4724D02*
Y22835D01*
D15*
X233268Y80905D02*
X242126Y72047D01*
X190354Y80905D02*
X233268D01*
X177362Y93898D02*
X190354Y80905D01*
X242126Y36024D02*
Y72047D01*
X239370Y43110D02*
Y71653D01*
X232874Y78150D02*
X239370Y71653D01*
X188386Y78150D02*
X232874D01*
X207165Y32677D02*
X210118Y35630D01*
X236221Y62992D02*
Y67716D01*
X234252Y61024D02*
X236221Y62992D01*
X176378Y90158D02*
X188386Y78150D01*
X177362Y93898D02*
Y108071D01*
X222736Y47342D02*
X224410Y45669D01*
Y31102D02*
Y45669D01*
Y31102D02*
X225788Y29724D01*
X220079Y51693D02*
X222716Y54330D01*
X220079Y50000D02*
Y51693D01*
X213878Y47342D02*
X222736D01*
X213071Y47244D02*
Y49016D01*
Y43996D02*
Y47244D01*
X213780D01*
X213878Y47342D01*
X50197Y87598D02*
X55709D01*
X47244Y90551D02*
X50197Y87598D01*
X47244Y90551D02*
Y107087D01*
X228819Y39567D02*
Y51890D01*
X226378Y54330D02*
X228819Y51890D01*
X222716Y54330D02*
X226378D01*
X225788Y29724D02*
X228819D01*
X213071Y49163D02*
Y54330D01*
X100591Y116732D02*
Y134646D01*
X96142Y139094D02*
X100591Y134646D01*
X96142Y139094D02*
Y144291D01*
X156102Y163976D02*
X160039Y160039D01*
X113976Y163976D02*
X156102D01*
X112205Y162205D02*
X113976Y163976D01*
X158268Y166535D02*
X162795Y162008D01*
X110433Y166535D02*
X158268D01*
X108071Y164173D02*
X110433Y166535D01*
X44882Y154134D02*
Y188583D01*
X17913Y136811D02*
Y149213D01*
X20079Y151378D01*
X40945D01*
X44291Y148031D01*
Y142126D02*
Y148031D01*
Y142126D02*
X48327Y138090D01*
X52067D01*
X162795Y157283D02*
Y162008D01*
X79528Y36811D02*
X95866D01*
X76968Y39370D02*
X79528Y36811D01*
X76968Y39370D02*
Y82874D01*
X102362Y30315D02*
X146732D01*
X95866Y36811D02*
X102362Y30315D01*
X177362Y116732D02*
Y129724D01*
X175591Y131496D02*
X177362Y129724D01*
X138976Y131496D02*
X175591D01*
X173228Y116535D02*
X180118Y109646D01*
Y95866D02*
Y109646D01*
X171654Y113779D02*
X177362Y108071D01*
X149213Y116535D02*
X173228D01*
X144685Y113779D02*
X171654D01*
X161024Y90158D02*
X176378D01*
X180315Y59252D02*
Y82284D01*
X175394Y87205D02*
X180315Y82284D01*
X160236Y87205D02*
X175394D01*
X184252Y58661D02*
Y73032D01*
X178347Y52756D02*
X184252Y58661D01*
X178347Y23819D02*
Y52756D01*
X175787Y54724D02*
X180315Y59252D01*
X157283Y93898D02*
X161024Y90158D01*
X149606Y93898D02*
X157283D01*
X144488Y99016D02*
X149606Y93898D01*
X156299Y91142D02*
X160236Y87205D01*
X173740Y84055D02*
X176535Y81260D01*
X159055Y84055D02*
X173740D01*
X154331Y88779D02*
X159055Y84055D01*
X129331Y145197D02*
X134252D01*
X191732Y136811D02*
Y141929D01*
X191732Y141929D02*
X191732Y141929D01*
X191732Y141929D02*
Y145394D01*
X185630Y137402D02*
X187402Y139173D01*
Y151299D01*
X142520Y137402D02*
X185630D01*
X189173Y134252D02*
X191732Y136811D01*
X144291Y134252D02*
X189173D01*
X193110Y183898D02*
Y190748D01*
X143898Y187677D02*
X149427D01*
X117520Y183898D02*
X123976D01*
X74016Y184843D02*
X80905Y177953D01*
X87402D01*
X146850Y91142D02*
X156299D01*
X141732Y96260D02*
X146850Y91142D01*
X133189Y97520D02*
Y103504D01*
X144685Y88779D02*
X154331D01*
X138779Y94685D02*
X144685Y88779D01*
X123622Y94685D02*
X138779D01*
X138976Y88583D02*
Y90551D01*
Y88583D02*
X140945Y86614D01*
X151969D01*
X157283Y81299D01*
Y41339D02*
Y81299D01*
X149606Y33661D02*
X157283Y41339D01*
X129527Y33661D02*
X149606D01*
X122441Y40748D02*
X129527Y33661D01*
X87598Y40748D02*
X122441D01*
X66535Y93307D02*
X76968Y82874D01*
X82087Y81496D02*
X148819D01*
X70276Y93307D02*
X82087Y81496D01*
X70276Y93307D02*
Y108071D01*
X83268Y83858D02*
X150591D01*
X72638Y94488D02*
X83268Y83858D01*
X72638Y94488D02*
Y110236D01*
X66142Y112205D02*
X70276Y108071D01*
X67520Y115354D02*
X72638Y110236D01*
X90000Y185591D02*
X94882Y180709D01*
X90000Y185591D02*
Y195079D01*
X62507Y184843D02*
X74016D01*
X62311Y185039D02*
X62507Y184843D01*
X54134Y185039D02*
X62311D01*
X51457Y187716D02*
X54134Y185039D01*
X51457Y187716D02*
Y195079D01*
X83858Y93898D02*
X114173D01*
X81299Y96457D02*
X83858Y93898D01*
X76772Y96457D02*
X81299D01*
X114173Y93898D02*
X116732Y96456D01*
X119095Y99213D02*
X123622Y94685D01*
X77165Y99213D02*
X119095D01*
X75000Y101378D02*
X77165Y99213D01*
X75000Y101378D02*
Y121653D01*
X154724Y43110D02*
Y79724D01*
X148031Y36417D02*
X154724Y43110D01*
X131693Y36417D02*
X148031D01*
X147244Y39370D02*
X151969Y44094D01*
X127953Y39370D02*
X147244D01*
X126771Y40552D02*
X127953Y39370D01*
X150591Y83858D02*
X154724Y79724D01*
X46457Y115354D02*
X67520D01*
X44291Y117520D02*
X46457Y115354D01*
X44291Y117520D02*
Y136870D01*
X35394Y145767D02*
X44291Y136870D01*
X126771Y40552D02*
Y45276D01*
X151969Y44094D02*
Y78347D01*
X148819Y81496D02*
X151969Y78347D01*
X43504Y112205D02*
X66142D01*
X41142Y114567D02*
X43504Y112205D01*
X41142Y114567D02*
Y132382D01*
X35433Y138090D02*
X41142Y132382D01*
X82677Y45669D02*
X87598Y40748D01*
X40157Y48425D02*
X45276D01*
X38189Y50394D02*
X40157Y48425D01*
X38189Y50394D02*
Y130216D01*
X35433Y132972D02*
X38189Y130216D01*
X38780Y45669D02*
X48425D01*
X35335Y49114D02*
X38780Y45669D01*
X35335Y49114D02*
Y122736D01*
X108071Y162598D02*
Y164173D01*
X207165Y27264D02*
Y32677D01*
X210118Y35630D02*
X215039Y40551D01*
X218484D01*
X205197D02*
X210118Y35630D01*
X201752Y40551D02*
X205197D01*
X235827Y39567D02*
X239370Y43110D01*
X235827Y29724D02*
X242126Y36024D01*
X178347Y23819D02*
X179725Y22441D01*
X184606D01*
X175787Y15354D02*
Y54724D01*
Y15354D02*
X178937Y12205D01*
X196850D01*
X191614Y32283D02*
X195866D01*
X197441Y30709D01*
X201752D01*
X191614Y22441D02*
X196437Y27264D01*
X205197D01*
X203819Y17126D02*
X209134Y22441D01*
Y27264D01*
X211102Y19842D02*
X213858Y17086D01*
X211102Y19842D02*
Y27264D01*
X214173Y22638D02*
X218346D01*
X223898Y17086D01*
X213071Y23740D02*
X214173Y22638D01*
X213071Y23740D02*
Y27264D01*
X215039Y43996D02*
X220079D01*
X213071Y54330D02*
X213071Y54330D01*
X207165Y43996D02*
Y50590D01*
X203425Y54330D02*
X207165Y50590D01*
X83661Y132480D02*
Y148441D01*
X81693Y130512D02*
X83661Y132480D01*
X81693Y127362D02*
Y130512D01*
X85433Y151181D02*
X87205Y149409D01*
X47835Y151181D02*
X85433D01*
X44882Y154134D02*
X47835Y151181D01*
X87205Y144488D02*
Y149409D01*
Y144488D02*
X89370Y142323D01*
X162205Y194685D02*
Y204567D01*
X179291D02*
X188155Y195703D01*
X172047Y204567D02*
X179291D01*
X193110Y190748D02*
X213425D01*
X150039Y204567D02*
X150591Y205118D01*
X143898Y204567D02*
X150039D01*
X143898Y194685D02*
Y204567D01*
X143898Y204567D02*
X143898Y204567D01*
X143898Y187677D02*
X143898Y187677D01*
X134055Y187677D02*
X143898D01*
X124803Y196653D02*
Y201575D01*
X127795Y204567D01*
X134252D01*
X107874Y183898D02*
X117520D01*
Y190905D02*
Y198819D01*
X96614Y204567D02*
X97677D01*
X92060D02*
X96614D01*
X97677D02*
X99606Y206496D01*
X96614Y204567D02*
X97008Y204173D01*
Y195079D02*
Y204173D01*
X90000Y195079D02*
X90000Y195079D01*
X81496Y195079D02*
X90000D01*
X117520Y198819D02*
Y204567D01*
X107677Y199409D02*
Y204567D01*
X74016D02*
X82284D01*
X45945Y204567D02*
X52756D01*
X51457Y195079D02*
X51457Y195079D01*
X43150Y195079D02*
X51457D01*
X58465Y195079D02*
X62402Y199016D01*
Y204567D01*
X69134D01*
X-11772Y144134D02*
X9764D01*
X11259Y145630D01*
Y154803D01*
X134252Y145197D02*
Y154921D01*
X96142Y144291D02*
Y148701D01*
X128583Y64410D02*
Y74212D01*
X128543Y64370D02*
X128583Y64410D01*
X95079Y73440D02*
X98046D01*
X137177Y76968D02*
X146732Y67413D01*
X101575Y76968D02*
X137177D01*
X98046Y73440D02*
X101575Y76968D01*
X142886Y79134D02*
X146732Y75287D01*
X98032Y79134D02*
X142886D01*
X96850Y77953D02*
X98032Y79134D01*
X89291Y111024D02*
X95866D01*
X126181Y97441D02*
Y103504D01*
X110256Y64035D02*
Y71456D01*
X17120Y77559D02*
X18898Y79336D01*
Y96456D01*
X55610Y21066D02*
X56302Y20374D01*
X65059D01*
X55610Y21066D02*
Y32578D01*
X6114Y77559D02*
X17120D01*
X166929Y5118D02*
X188070D01*
X163583Y8464D02*
X166929Y5118D01*
X188070D02*
X188071Y5118D01*
D21*
X213425Y190748D02*
D03*
X220433D02*
D03*
X89291Y111024D02*
D03*
X82284D02*
D03*
X134252Y154921D02*
D03*
X141260D02*
D03*
X134252Y145197D02*
D03*
X141260D02*
D03*
X133189Y103504D02*
D03*
X126181D02*
D03*
X97008Y195079D02*
D03*
X90000D02*
D03*
X74488Y195079D02*
D03*
X81496D02*
D03*
X36142Y195079D02*
D03*
X43150D02*
D03*
X58465Y195079D02*
D03*
X51457D02*
D03*
X220945Y86614D02*
D03*
X227953D02*
D03*
X191614Y22441D02*
D03*
X184606D02*
D03*
X228819Y29724D02*
D03*
X235827Y29724D02*
D03*
X184606Y32283D02*
D03*
X191614D02*
D03*
X228819Y39567D02*
D03*
X235827D02*
D03*
D26*
X143898Y194685D02*
D03*
Y187677D02*
D03*
X143898Y204567D02*
D03*
Y211575D02*
D03*
X134252D02*
D03*
Y204567D02*
D03*
X172047Y204567D02*
D03*
Y211575D02*
D03*
X162205D02*
D03*
Y204567D02*
D03*
X96142Y148701D02*
D03*
Y155709D02*
D03*
X107874Y190905D02*
D03*
Y183898D02*
D03*
X117520Y204567D02*
D03*
Y211575D02*
D03*
X107677Y211575D02*
D03*
Y204567D02*
D03*
X117520Y190905D02*
D03*
Y183898D02*
D03*
X92060Y204567D02*
D03*
Y211575D02*
D03*
X82284D02*
D03*
Y204567D02*
D03*
X62402Y204567D02*
D03*
Y211575D02*
D03*
X52756D02*
D03*
Y204567D02*
D03*
X203819Y10118D02*
D03*
Y17126D02*
D03*
X213858Y10079D02*
D03*
Y17086D02*
D03*
X134055Y187677D02*
D03*
Y194685D02*
D03*
X203425Y54330D02*
D03*
Y61338D02*
D03*
X213071D02*
D03*
Y54330D02*
D03*
X222716Y61338D02*
D03*
Y54330D02*
D03*
X223898Y17086D02*
D03*
Y10079D02*
D03*
D85*
X19544Y31299D02*
X21850Y33605D01*
X-3150Y36811D02*
X2362Y31299D01*
X-11024Y36811D02*
X-3150D01*
X21850Y33605D02*
Y54330D01*
X2362Y31299D02*
X19544D01*
D86*
X170236Y22835D02*
D03*
X140236D02*
D03*
X120079Y35433D02*
D03*
X104921D02*
D03*
D87*
X97835Y45276D02*
D03*
X131693D02*
D03*
D88*
X92913D02*
D03*
X126771D02*
D03*
D89*
X146732Y67413D02*
D03*
Y75287D02*
D03*
D90*
X3858Y191890D02*
D03*
X142205Y172638D02*
D03*
X10539Y53311D02*
D03*
D91*
X13858Y191890D02*
D03*
X23858D02*
D03*
X132205Y172638D02*
D03*
X122205D02*
D03*
X112205D02*
D03*
X102205D02*
D03*
X92205D02*
D03*
X82205D02*
D03*
X10539Y43311D02*
D03*
D92*
X101258Y88950D02*
D03*
X120156D02*
D03*
D93*
X-11024Y20669D02*
D03*
X-11024Y52952D02*
D03*
D94*
X-11024Y44685D02*
D03*
Y36811D02*
D03*
Y28937D02*
D03*
D95*
X58071Y101575D02*
D03*
X58071Y174803D02*
D03*
X166811Y101575D02*
D03*
X166811Y174803D02*
D03*
X112598Y19685D02*
D03*
D96*
X77953Y7283D02*
D03*
X43898D02*
D03*
D97*
X77953Y23819D02*
D03*
X43898Y23819D02*
D03*
D98*
X72303Y21771D02*
D03*
X49547D02*
D03*
D99*
X101378Y153937D02*
D03*
X195890Y124409D02*
D03*
X211614D02*
D03*
X227247D02*
D03*
X211614Y152753D02*
D03*
X195866Y152559D02*
D03*
X227247Y133857D02*
D03*
X211614D02*
D03*
X195890Y133793D02*
D03*
X227247Y143305D02*
D03*
X211568D02*
D03*
X195890Y143176D02*
D03*
X236221Y67716D02*
D03*
X191614Y74803D02*
D03*
X203150Y74761D02*
D03*
X214370Y74803D02*
D03*
X226181D02*
D03*
X198209Y88583D02*
D03*
X208858Y88779D02*
D03*
X214173Y84646D02*
D03*
X203150D02*
D03*
X191614D02*
D03*
X187205Y88779D02*
D03*
X220079Y50000D02*
D03*
X77953Y113189D02*
D03*
X220079Y43996D02*
D03*
X234252Y61024D02*
D03*
X100591Y116732D02*
D03*
X225590Y5709D02*
D03*
X169685Y17323D02*
D03*
X54331Y57874D02*
D03*
X45866Y58047D02*
D03*
X42126Y60120D02*
D03*
X54477Y63057D02*
D03*
X54331Y53303D02*
D03*
X165003Y79331D02*
D03*
Y64764D02*
D03*
Y71456D02*
D03*
X80666Y72638D02*
D03*
X159323Y110433D02*
D03*
X148819Y110236D02*
D03*
X148866Y99606D02*
D03*
X141560Y110433D02*
D03*
X131323D02*
D03*
X138976Y199746D02*
D03*
X101969Y184128D02*
D03*
X82297Y181352D02*
D03*
X65748Y192126D02*
D03*
X19331Y177165D02*
D03*
X14764Y185827D02*
D03*
X7874Y73318D02*
D03*
Y60498D02*
D03*
X51968Y34369D02*
D03*
X39954Y34627D02*
D03*
X65661Y87549D02*
D03*
X55709Y87598D02*
D03*
X172291Y43701D02*
D03*
Y50787D02*
D03*
X172441Y37598D02*
D03*
X160803Y50042D02*
D03*
X160660Y41929D02*
D03*
X173228Y56890D02*
D03*
X160787D02*
D03*
X209777Y175787D02*
D03*
X220866D02*
D03*
X198688D02*
D03*
X187598D02*
D03*
X181496Y167598D02*
D03*
X181693Y178740D02*
D03*
X182874Y190698D02*
D03*
X174487Y189764D02*
D03*
X181679Y196870D02*
D03*
X154724Y187247D02*
D03*
X149803Y197638D02*
D03*
X123228Y190157D02*
D03*
X127953Y187205D02*
D03*
Y193701D02*
D03*
X112598Y195276D02*
D03*
X100610Y200591D02*
D03*
X101918Y190945D02*
D03*
X97047Y184128D02*
D03*
X93385Y189408D02*
D03*
X86503D02*
D03*
X87008Y182480D02*
D03*
X74488Y188397D02*
D03*
X63189Y188919D02*
D03*
X70570Y181490D02*
D03*
X74002Y177074D02*
D03*
X74016Y168504D02*
D03*
X49242Y200293D02*
D03*
X57224Y200709D02*
D03*
X42323Y200875D02*
D03*
X155917Y207480D02*
D03*
X186811Y202359D02*
D03*
X177559Y211614D02*
D03*
X187205Y187205D02*
D03*
X198031Y193701D02*
D03*
X208268D02*
D03*
X224606Y184055D02*
D03*
X229213Y175120D02*
D03*
X233268Y184055D02*
D03*
X241413Y175787D02*
D03*
X226181Y190827D02*
D03*
X208268Y184252D02*
D03*
Y187205D02*
D03*
X196850Y184252D02*
D03*
X196457Y187402D02*
D03*
X65354Y164173D02*
D03*
X3740Y182480D02*
D03*
X-9646D02*
D03*
X9843Y187205D02*
D03*
X18898Y182480D02*
D03*
X25394Y175394D02*
D03*
X26181Y182480D02*
D03*
X17368Y163318D02*
D03*
X9040Y158071D02*
D03*
X9064Y163386D02*
D03*
X-8327Y170052D02*
D03*
X-2559D02*
D03*
X12205Y177165D02*
D03*
X1969D02*
D03*
X-8268Y177165D02*
D03*
X52165Y126181D02*
D03*
Y133661D02*
D03*
X64173Y133122D02*
D03*
X70931Y121653D02*
D03*
X64173Y121653D02*
D03*
X41350Y160827D02*
D03*
X41339Y157480D02*
D03*
X34699Y163386D02*
D03*
X25083D02*
D03*
X34699Y168237D02*
D03*
Y158268D02*
D03*
X25083D02*
D03*
X-8268Y147441D02*
D03*
Y162283D02*
D03*
X-2559Y154997D02*
D03*
Y162283D02*
D03*
Y147441D02*
D03*
X35Y136811D02*
D03*
X14370Y143040D02*
D03*
X-1378Y125984D02*
D03*
X7677D02*
D03*
X-1378Y117639D02*
D03*
X7677Y117717D02*
D03*
X-16383Y117639D02*
D03*
X-9893Y109449D02*
D03*
X-6075Y96653D02*
D03*
X-16383Y103649D02*
D03*
X14370Y102165D02*
D03*
X-6075D02*
D03*
X-9893Y117717D02*
D03*
X-8327Y129724D02*
D03*
X129587Y149409D02*
D03*
Y154997D02*
D03*
X141339Y150197D02*
D03*
X122835Y155709D02*
D03*
Y149409D02*
D03*
X129587Y160585D02*
D03*
X122835Y160630D02*
D03*
X138976Y140354D02*
D03*
X208858Y70669D02*
D03*
X219488D02*
D03*
X198228D02*
D03*
X187795D02*
D03*
X196457Y61024D02*
D03*
X187795Y54330D02*
D03*
Y61024D02*
D03*
X181679Y45276D02*
D03*
X185768D02*
D03*
X182084Y51378D02*
D03*
Y38386D02*
D03*
X197047Y22835D02*
D03*
X208858Y17717D02*
D03*
X229134Y9252D02*
D03*
X201378D02*
D03*
X161221Y25000D02*
D03*
X152953Y31057D02*
D03*
Y11811D02*
D03*
Y19488D02*
D03*
X86811Y48460D02*
D03*
X144346Y19473D02*
D03*
X144291Y11811D02*
D03*
X144205Y26969D02*
D03*
X133858Y56890D02*
D03*
X148698Y50042D02*
D03*
X142886Y43110D02*
D03*
X136415D02*
D03*
X148622Y56890D02*
D03*
X148698Y45472D02*
D03*
X142913Y56890D02*
D03*
X133858Y63779D02*
D03*
X111811Y44291D02*
D03*
X112303Y35630D02*
D03*
X219199Y26394D02*
D03*
X223228Y23228D02*
D03*
X234449D02*
D03*
X232283Y12992D02*
D03*
X208858Y8858D02*
D03*
X210571Y3543D02*
D03*
X184843Y8465D02*
D03*
X175591Y9055D02*
D03*
X158268Y31102D02*
D03*
X169685Y9184D02*
D03*
X161221Y11811D02*
D03*
X124803Y19504D02*
D03*
X135433Y19473D02*
D03*
X136126Y26909D02*
D03*
Y11811D02*
D03*
X121247D02*
D03*
X121861Y26909D02*
D03*
X121235Y44280D02*
D03*
X102953Y44291D02*
D03*
X96653Y19488D02*
D03*
X103937Y11811D02*
D03*
X103274Y26909D02*
D03*
X94488Y33268D02*
D03*
X87992Y33298D02*
D03*
Y21457D02*
D03*
X68799Y30709D02*
D03*
X28645Y54724D02*
D03*
X28740Y44870D02*
D03*
X46063Y42026D02*
D03*
X54477Y40876D02*
D03*
X33838Y39094D02*
D03*
X28346Y22835D02*
D03*
X38481Y22835D02*
D03*
X25000Y18014D02*
D03*
X61221Y3347D02*
D03*
X90386Y9843D02*
D03*
X8434Y3150D02*
D03*
X-5118Y9646D02*
D03*
Y32283D02*
D03*
X2557Y24718D02*
D03*
X15503Y22638D02*
D03*
X-16552Y24718D02*
D03*
X47244Y107087D02*
D03*
X72835Y133122D02*
D03*
X90354Y150774D02*
D03*
X93110Y161221D02*
D03*
X48228Y167913D02*
D03*
X48287Y182283D02*
D03*
X41339Y180954D02*
D03*
X34055D02*
D03*
X-4947Y187205D02*
D03*
X-16383Y177074D02*
D03*
Y162283D02*
D03*
Y148327D02*
D03*
Y129724D02*
D03*
X32084Y116732D02*
D03*
Y109646D02*
D03*
X26181Y116732D02*
D03*
X26378Y109646D02*
D03*
X4147Y102165D02*
D03*
X-16383Y110644D02*
D03*
X1661Y96653D02*
D03*
X-16552D02*
D03*
X-4528Y61453D02*
D03*
X-16552Y61787D02*
D03*
X-4367Y51968D02*
D03*
X-16552Y70639D02*
D03*
X-4528Y70472D02*
D03*
X8268Y22638D02*
D03*
X96131Y3347D02*
D03*
X72638D02*
D03*
X50621D02*
D03*
X25787Y4921D02*
D03*
X14370Y11000D02*
D03*
X1299Y3150D02*
D03*
X-10630Y15354D02*
D03*
X44882Y188583D02*
D03*
X52067Y138090D02*
D03*
X160039Y160039D02*
D03*
X177362Y116732D02*
D03*
X184252Y73032D02*
D03*
X180118Y95866D02*
D03*
X149213Y116535D02*
D03*
X144685Y113779D02*
D03*
X144488Y99016D02*
D03*
X162795Y157283D02*
D03*
X176535Y81260D02*
D03*
X138976Y131496D02*
D03*
X129331Y145197D02*
D03*
X191732Y145394D02*
D03*
X187402Y151299D02*
D03*
X144291Y134252D02*
D03*
X193110Y183898D02*
D03*
X142520Y137402D02*
D03*
X149427Y187677D02*
D03*
X123976Y183898D02*
D03*
X94882Y180709D02*
D03*
X87402Y177953D02*
D03*
X141732Y96260D02*
D03*
X133189Y97520D02*
D03*
X138976Y90551D02*
D03*
X146732Y30315D02*
D03*
X66535Y93307D02*
D03*
X75000Y121653D02*
D03*
X76772Y96457D02*
D03*
X131693Y36417D02*
D03*
X82677Y45669D02*
D03*
X45276Y48425D02*
D03*
X48425Y45669D02*
D03*
X35335Y122736D02*
D03*
X35433Y132972D02*
D03*
Y138090D02*
D03*
X35394Y145767D02*
D03*
X112205Y162205D02*
D03*
X108071Y162598D02*
D03*
X196850Y12205D02*
D03*
X210118Y31890D02*
D03*
X81693Y127362D02*
D03*
X83661Y148441D02*
D03*
X89370Y142323D02*
D03*
X162236Y194685D02*
D03*
X181693Y202165D02*
D03*
X150591Y205118D02*
D03*
X124803Y196653D02*
D03*
X117520Y198819D02*
D03*
X107677Y199409D02*
D03*
X99606Y206496D02*
D03*
X74016Y204567D02*
D03*
X45945Y204567D02*
D03*
X69134D02*
D03*
X-11772Y144134D02*
D03*
X11259Y154803D02*
D03*
X96142Y144291D02*
D03*
X128543Y64370D02*
D03*
X95079Y73440D02*
D03*
X96850Y77953D02*
D03*
X95866Y111024D02*
D03*
X126181Y97441D02*
D03*
X116732Y96456D02*
D03*
X128583Y74212D02*
D03*
X110256Y71456D02*
D03*
X18898Y96456D02*
D03*
X65059Y20374D02*
D03*
X55610Y32578D02*
D03*
X110256Y64035D02*
D03*
X6114Y77559D02*
D03*
X210157Y34989D02*
D03*
X163583Y8464D02*
D03*
X188071Y5118D02*
D03*
D100*
X232634Y73185D02*
D03*
X220669Y150787D02*
D03*
X234252Y87598D02*
D03*
X237598Y81890D02*
D03*
X112008Y121063D02*
D03*
X119706D02*
D03*
X112008Y127565D02*
D03*
X119706D02*
D03*
X119727Y134094D02*
D03*
X112029D02*
D03*
X104331Y121035D02*
D03*
Y127565D02*
D03*
Y134094D02*
D03*
X220669Y161024D02*
D03*
X169291Y148622D02*
D03*
X30118Y175787D02*
D03*
X45276Y209646D02*
D03*
X30118Y194488D02*
D03*
X5118Y167323D02*
D03*
X22047Y148031D02*
D03*
X26770Y94882D02*
D03*
X45866Y83465D02*
D03*
X18110Y130118D02*
D03*
X17913Y136811D02*
D03*
Y115157D02*
D03*
X41929Y101969D02*
D03*
X58484Y66732D02*
D03*
X225197Y156693D02*
D03*
X229528Y17086D02*
D03*
X191614Y66535D02*
D03*
X222716D02*
D03*
X213071D02*
D03*
X229213Y61811D02*
D03*
X73477Y75236D02*
D03*
X140236Y4724D02*
D03*
X84095Y13780D02*
D03*
D101*
X21850Y54330D02*
D03*
D102*
X188155Y195703D02*
D03*
X193110Y190748D02*
D03*
D103*
X210118Y35630D02*
D03*
D104*
X215039Y43996D02*
D03*
X213071D02*
D03*
X211102D02*
D03*
X209134D02*
D03*
X207165D02*
D03*
X205197D02*
D03*
X205197Y27264D02*
D03*
X207165D02*
D03*
X209134D02*
D03*
X211102D02*
D03*
X213071D02*
D03*
X215039D02*
D03*
D105*
X201752Y40551D02*
D03*
Y38583D02*
D03*
Y36614D02*
D03*
Y34646D02*
D03*
Y32677D02*
D03*
Y30709D02*
D03*
X218484D02*
D03*
Y32677D02*
D03*
Y34646D02*
D03*
Y36614D02*
D03*
Y38583D02*
D03*
Y40551D02*
D03*
M02*
