G04*
G04 #@! TF.GenerationSoftware,Altium Limited,Altium Designer,18.1.9 (240)*
G04*
G04 Layer_Physical_Order=1*
G04 Layer_Color=255*
%FSLAX25Y25*%
%MOIN*%
G70*
G01*
G75*
%ADD11C,0.02362*%
%ADD15C,0.01181*%
%ADD21R,0.04567X0.05787*%
%ADD22R,0.07500X0.09000*%
%ADD23O,0.01181X0.04724*%
%ADD24O,0.04724X0.01181*%
%ADD25R,0.07874X0.03937*%
%ADD26R,0.05787X0.04567*%
%ADD27O,0.02400X0.08000*%
%ADD28R,0.05000X0.04000*%
%ADD29R,0.04000X0.04000*%
%ADD30R,0.05906X0.09843*%
%ADD31R,0.03937X0.01772*%
%ADD32R,0.06890X0.08661*%
%ADD33R,0.08661X0.06890*%
%ADD34R,0.02362X0.04331*%
%ADD35R,0.01181X0.04331*%
%ADD36R,0.07874X0.05906*%
%ADD37O,0.06693X0.01378*%
%ADD38R,0.06693X0.01378*%
%ADD39R,0.03600X0.03600*%
%ADD40R,0.05000X0.03600*%
G04:AMPARAMS|DCode=41|XSize=27.56mil|YSize=56.81mil|CornerRadius=0mil|HoleSize=0mil|Usage=FLASHONLY|Rotation=75.000|XOffset=0mil|YOffset=0mil|HoleType=Round|Shape=Rectangle|*
%AMROTATEDRECTD41*
4,1,4,0.02387,-0.02066,-0.03100,-0.00596,-0.02387,0.02066,0.03100,0.00596,0.02387,-0.02066,0.0*
%
%ADD41ROTATEDRECTD41*%

%ADD42R,0.06299X0.03150*%
%ADD43R,0.03150X0.06299*%
G04:AMPARAMS|DCode=44|XSize=27.56mil|YSize=56.81mil|CornerRadius=0mil|HoleSize=0mil|Usage=FLASHONLY|Rotation=105.000|XOffset=0mil|YOffset=0mil|HoleType=Round|Shape=Rectangle|*
%AMROTATEDRECTD44*
4,1,4,0.03100,-0.00596,-0.02387,-0.02066,-0.03100,0.00596,0.02387,0.02066,0.03100,-0.00596,0.0*
%
%ADD44ROTATEDRECTD44*%

%ADD45R,0.05681X0.02756*%
%ADD84C,0.03937*%
%ADD85C,0.03543*%
%ADD86C,0.05000*%
%ADD87R,0.03937X0.03937*%
%ADD88C,0.03937*%
%ADD89C,0.03937*%
%ADD90R,0.06693X0.06693*%
%ADD91C,0.06693*%
%ADD92C,0.05118*%
%ADD93O,0.08661X0.04724*%
%ADD94C,0.05512*%
%ADD95C,0.17717*%
%ADD96O,0.04724X0.05906*%
%ADD97O,0.04724X0.07874*%
%ADD98C,0.02756*%
%ADD99C,0.02362*%
%ADD100C,0.03543*%
%ADD101C,0.04724*%
G36*
X117272Y210827D02*
X117260Y210939D01*
X117224Y211039D01*
X117165Y211128D01*
X117081Y211205D01*
X116974Y211270D01*
X116842Y211323D01*
X116687Y211364D01*
X116508Y211394D01*
X116306Y211411D01*
X116079Y211417D01*
Y212598D01*
X116306Y212604D01*
X116508Y212622D01*
X116687Y212651D01*
X116842Y212693D01*
X116974Y212746D01*
X117081Y212811D01*
X117165Y212888D01*
X117224Y212976D01*
X117260Y213077D01*
X117272Y213189D01*
Y210827D01*
D02*
G37*
G36*
X45258Y207874D02*
X45235Y207867D01*
X45198Y207844D01*
X45149Y207807D01*
X45009Y207687D01*
X44569Y207267D01*
X44426Y207125D01*
X42755Y208795D01*
X43504Y209628D01*
X45258Y207874D01*
D02*
G37*
G36*
X46727Y203673D02*
X46687Y203614D01*
X46651Y203546D01*
X46621Y203470D01*
X46595Y203386D01*
X46573Y203293D01*
X46557Y203191D01*
X46545Y203081D01*
X46535Y202835D01*
X45354D01*
X45352Y202962D01*
X45333Y203191D01*
X45316Y203293D01*
X45295Y203386D01*
X45269Y203470D01*
X45239Y203546D01*
X45203Y203614D01*
X45163Y203673D01*
X45118Y203724D01*
X46772D01*
X46727Y203673D01*
D02*
G37*
G36*
X116676Y197992D02*
X116626Y198037D01*
X116567Y198077D01*
X116499Y198113D01*
X116423Y198143D01*
X116338Y198169D01*
X116245Y198191D01*
X116144Y198207D01*
X116034Y198219D01*
X115788Y198228D01*
Y199409D01*
X115915Y199412D01*
X116144Y199431D01*
X116245Y199447D01*
X116338Y199469D01*
X116423Y199495D01*
X116499Y199525D01*
X116567Y199561D01*
X116626Y199601D01*
X116676Y199646D01*
Y197992D01*
D02*
G37*
G36*
X195711Y195431D02*
X196362Y194996D01*
X197130Y194843D01*
X224251D01*
X242761Y176334D01*
Y166260D01*
X235001D01*
Y159960D01*
X235001D01*
Y154055D01*
Y148543D01*
X235001D01*
Y142638D01*
X235001D01*
Y136338D01*
X235001D01*
Y130827D01*
X235001D01*
Y126507D01*
X234501Y126240D01*
X234473Y126259D01*
Y150197D01*
X234378Y150916D01*
X234100Y151587D01*
X233658Y152162D01*
X228876Y156945D01*
X228856Y156975D01*
X228725Y157106D01*
X228485Y157359D01*
X228457Y157566D01*
X228120Y158381D01*
X227584Y159080D01*
X226885Y159616D01*
X226070Y159953D01*
X225197Y160068D01*
X224392Y159962D01*
X224292Y160003D01*
X224235Y160046D01*
X223955Y160342D01*
X224045Y161024D01*
X223930Y161897D01*
X223592Y162711D01*
X223056Y163410D01*
X222357Y163947D01*
X222162Y164027D01*
X222262Y164527D01*
X228072D01*
Y164527D01*
X233977D01*
Y173976D01*
X227678D01*
Y173976D01*
X222166D01*
Y173976D01*
X215867D01*
Y173976D01*
X210355D01*
Y173976D01*
X204056D01*
Y173976D01*
X198150D01*
Y173976D01*
X192639D01*
Y173976D01*
X186339D01*
Y164527D01*
X192245D01*
Y164527D01*
X198544D01*
Y164527D01*
X204450D01*
Y164527D01*
X209962D01*
Y164527D01*
X216261D01*
Y164527D01*
X219077D01*
X219176Y164027D01*
X218982Y163947D01*
X218283Y163410D01*
X217746Y162711D01*
X217409Y161897D01*
X217294Y161024D01*
X217409Y160150D01*
X217746Y159336D01*
X217851Y159200D01*
X217885Y158555D01*
X217890Y158536D01*
Y153211D01*
X217882Y153176D01*
X217882Y152990D01*
X217874Y152641D01*
X217746Y152475D01*
X217409Y151661D01*
X217294Y150787D01*
X217409Y149914D01*
X217746Y149100D01*
X218283Y148401D01*
X218982Y147864D01*
X219796Y147527D01*
X220669Y147412D01*
X221543Y147527D01*
X222357Y147864D01*
X223056Y148401D01*
X223592Y149100D01*
X223930Y149914D01*
X224045Y150787D01*
X223930Y151661D01*
X223592Y152475D01*
X223488Y152611D01*
X223454Y153256D01*
X223477Y153292D01*
X223949Y153588D01*
X224323Y153433D01*
X224494Y153410D01*
X224973Y152979D01*
X224990Y152969D01*
X228913Y149046D01*
Y124606D01*
X229008Y123887D01*
X229286Y123216D01*
X229727Y122641D01*
X232169Y120200D01*
X232744Y119758D01*
X233415Y119480D01*
X234134Y119386D01*
X234165D01*
X234197Y119379D01*
X235001Y119364D01*
Y119016D01*
X236413D01*
X236463Y119002D01*
X236526Y119009D01*
X236588Y118997D01*
X236682Y119016D01*
X238944D01*
X239346Y118613D01*
Y117964D01*
X182283D01*
X181661Y117841D01*
X181134Y117488D01*
X180781Y116961D01*
X180658Y116339D01*
Y98954D01*
X180282Y98624D01*
X180118Y98646D01*
X179946Y98623D01*
X179570Y98953D01*
Y115082D01*
X179770Y115342D01*
X180047Y116013D01*
X180142Y116732D01*
X180047Y117452D01*
X179770Y118122D01*
X179328Y118698D01*
X178752Y119140D01*
X178082Y119417D01*
X177362Y119512D01*
X176643Y119417D01*
X175972Y119140D01*
X175397Y118698D01*
X174955Y118122D01*
X174677Y117452D01*
X174583Y116732D01*
X174677Y116013D01*
X174955Y115342D01*
X175154Y115082D01*
Y108593D01*
X174685Y108420D01*
X174211Y108975D01*
X172962Y110041D01*
X171562Y110899D01*
X170045Y111528D01*
X168448Y111911D01*
X166811Y112040D01*
X165174Y111911D01*
X163577Y111528D01*
X162060Y110899D01*
X160660Y110041D01*
X159411Y108975D01*
X158801Y108260D01*
X158301Y108445D01*
Y114037D01*
X164356Y120092D01*
X164835Y120809D01*
X165003Y121653D01*
Y123898D01*
X173760D01*
Y125548D01*
X175669D01*
Y124527D01*
X185118D01*
Y130433D01*
Y136338D01*
X185118D01*
Y142244D01*
X185118D01*
Y143186D01*
X190082D01*
X190342Y142986D01*
X191013Y142709D01*
X191732Y142614D01*
X192452Y142709D01*
X193122Y142986D01*
X193698Y143428D01*
X194140Y144004D01*
X194417Y144674D01*
X194512Y145394D01*
X194417Y146113D01*
X194140Y146783D01*
X193698Y147359D01*
X193122Y147801D01*
X192452Y148079D01*
X191732Y148173D01*
X191013Y148079D01*
X190342Y147801D01*
X190082Y147601D01*
X185118D01*
Y148543D01*
X185118D01*
Y149091D01*
X185752D01*
X186012Y148892D01*
X186682Y148614D01*
X187402Y148519D01*
X188121Y148614D01*
X188791Y148892D01*
X189367Y149333D01*
X189809Y149909D01*
X190086Y150580D01*
X190181Y151299D01*
X190086Y152018D01*
X189809Y152689D01*
X189367Y153264D01*
X188791Y153706D01*
X188121Y153984D01*
X187402Y154079D01*
X186682Y153984D01*
X186012Y153706D01*
X185752Y153507D01*
X185118D01*
Y154449D01*
X185118D01*
Y159960D01*
X185158D01*
Y166260D01*
X179090D01*
X178899Y166722D01*
X179514Y167336D01*
X179992Y168053D01*
X180160Y168898D01*
Y180582D01*
X181269Y181690D01*
X191460D01*
X191720Y181490D01*
X192391Y181213D01*
X193110Y181118D01*
X193830Y181213D01*
X194500Y181490D01*
X195076Y181932D01*
X195518Y182508D01*
X195795Y183178D01*
X195890Y183898D01*
X195795Y184617D01*
X195518Y185287D01*
X195076Y185863D01*
X194500Y186305D01*
X193830Y186583D01*
X193110Y186677D01*
X192391Y186583D01*
X191720Y186305D01*
X191460Y186105D01*
X180354D01*
X179509Y185937D01*
X178793Y185459D01*
X176392Y183057D01*
X175913Y182341D01*
X175745Y181496D01*
Y181086D01*
X175438Y181000D01*
X175245Y180993D01*
X174211Y182203D01*
X172962Y183270D01*
X171562Y184128D01*
X170045Y184756D01*
X168448Y185139D01*
X166811Y185268D01*
X165174Y185139D01*
X163577Y184756D01*
X162060Y184128D01*
X160660Y183270D01*
X159411Y182203D01*
X158344Y180954D01*
X157486Y179554D01*
X157423Y179400D01*
X156932Y179498D01*
Y182380D01*
X156764Y183225D01*
X156286Y183941D01*
X152155Y188072D01*
X152112Y188397D01*
X151835Y189067D01*
X151393Y189643D01*
X150817Y190084D01*
X150147Y190362D01*
X149427Y190457D01*
X148708Y190362D01*
X148038Y190084D01*
X147462Y189643D01*
X147020Y189067D01*
X146742Y188397D01*
X146648Y187677D01*
X146742Y186958D01*
X146888Y186605D01*
X146554Y186105D01*
X125626D01*
X125366Y186305D01*
X124696Y186583D01*
X123976Y186677D01*
X123257Y186583D01*
X122587Y186305D01*
X122011Y185863D01*
X121569Y185287D01*
X121291Y184617D01*
X121197Y183898D01*
X121260Y183416D01*
X120909Y182916D01*
X96532D01*
X96272Y183116D01*
X95601Y183394D01*
X94882Y183488D01*
X94162Y183394D01*
X93492Y183116D01*
X92916Y182674D01*
X92475Y182098D01*
X92197Y181428D01*
X92102Y180709D01*
X92125Y180536D01*
X91795Y180160D01*
X89051D01*
X88791Y180360D01*
X88121Y180638D01*
X87402Y180732D01*
X86682Y180638D01*
X86012Y180360D01*
X85436Y179918D01*
X84994Y179343D01*
X84717Y178672D01*
X84622Y177953D01*
X84684Y177479D01*
X84250Y177117D01*
X83489Y177432D01*
X82205Y177602D01*
X80920Y177432D01*
X79723Y176936D01*
X78695Y176148D01*
X77906Y175120D01*
X77410Y173923D01*
X77241Y172638D01*
X77410Y171353D01*
X77906Y170156D01*
X78695Y169128D01*
X79723Y168339D01*
X80920Y167843D01*
X82205Y167674D01*
X82281Y167684D01*
X82858Y167668D01*
X82851Y167168D01*
X73552D01*
X72483Y168237D01*
Y177074D01*
X72315Y177919D01*
X71837Y178635D01*
X63084Y187388D01*
X62368Y187866D01*
X61523Y188034D01*
X61467D01*
X59948Y193703D01*
X53278Y191916D01*
X49002D01*
X48153Y192765D01*
Y202917D01*
X48352Y203177D01*
X48630Y203848D01*
X48725Y204567D01*
X48630Y205286D01*
X48352Y205957D01*
X47910Y206533D01*
X47724Y206676D01*
X47662Y207259D01*
X48199Y207958D01*
X48536Y208772D01*
X48651Y209646D01*
X48536Y210519D01*
X48199Y211333D01*
X47662Y212032D01*
X46995Y212544D01*
X46904Y212662D01*
X46822Y213077D01*
X48272Y214528D01*
X114241D01*
X114486Y214065D01*
X114480Y214028D01*
X113793Y213569D01*
X111431Y211207D01*
X110952Y210490D01*
X110784Y209646D01*
Y200591D01*
X110952Y199746D01*
X111431Y199029D01*
X113203Y197258D01*
X113919Y196779D01*
X114764Y196611D01*
X115870D01*
X116130Y196412D01*
X116800Y196134D01*
X117520Y196039D01*
X118239Y196134D01*
X118910Y196412D01*
X119485Y196853D01*
X119927Y197429D01*
X120205Y198100D01*
X120299Y198819D01*
X120205Y199538D01*
X119927Y200209D01*
X119485Y200784D01*
X118910Y201226D01*
X118239Y201504D01*
X117520Y201599D01*
X116800Y201504D01*
X116130Y201226D01*
X115870Y201027D01*
X115678D01*
X115200Y201505D01*
Y208731D01*
X115280Y208811D01*
X115673Y209055D01*
Y209055D01*
X115673Y209055D01*
X124504D01*
Y214528D01*
X176613D01*
X195711Y195431D01*
D02*
G37*
G36*
X32639Y195338D02*
X31890Y194506D01*
X30136Y196259D01*
X30159Y196267D01*
X30196Y196289D01*
X30245Y196326D01*
X30385Y196446D01*
X30825Y196866D01*
X30968Y197008D01*
X32639Y195338D01*
D02*
G37*
G36*
X43476Y203327D02*
X43538Y203177D01*
X43737Y202917D01*
Y191850D01*
X43877Y191149D01*
X43492Y190990D01*
X43232Y190790D01*
X31243D01*
X31144Y191290D01*
X31806Y191565D01*
X32505Y192101D01*
X33041Y192800D01*
X33378Y193614D01*
X33401Y193784D01*
X33832Y194264D01*
X33842Y194281D01*
X42985Y203424D01*
X43476Y203327D01*
D02*
G37*
G36*
X53361Y190296D02*
X53847Y188530D01*
X53804Y188642D01*
X53741Y188742D01*
X53657Y188830D01*
X53553Y188906D01*
X53428Y188971D01*
X53283Y189024D01*
X53117Y189065D01*
X52931Y189094D01*
X52723Y189112D01*
X52496Y189118D01*
X52192Y190299D01*
X53361Y190296D01*
D02*
G37*
G36*
X26999Y190686D02*
X26970Y190484D01*
X26964Y190286D01*
X26982Y190091D01*
X27023Y189900D01*
X27088Y189713D01*
X27176Y189529D01*
X27288Y189349D01*
X27424Y189173D01*
X27583Y189000D01*
X26748Y188165D01*
X26575Y188324D01*
X26399Y188460D01*
X26219Y188572D01*
X26035Y188660D01*
X25848Y188725D01*
X25657Y188766D01*
X25462Y188784D01*
X25264Y188778D01*
X25062Y188749D01*
X24857Y188696D01*
X27052Y190891D01*
X26999Y190686D01*
D02*
G37*
G36*
X150612Y187598D02*
X150626Y187528D01*
X150649Y187455D01*
X150681Y187379D01*
X150722Y187301D01*
X150773Y187220D01*
X150833Y187137D01*
X150902Y187051D01*
X151069Y186870D01*
X150234Y186035D01*
X150143Y186123D01*
X149968Y186272D01*
X149884Y186332D01*
X149803Y186382D01*
X149725Y186424D01*
X149650Y186456D01*
X149577Y186479D01*
X149507Y186492D01*
X149439Y186496D01*
X150609Y187665D01*
X150612Y187598D01*
D02*
G37*
G36*
X192267Y183071D02*
X192216Y183116D01*
X192157Y183156D01*
X192090Y183191D01*
X192014Y183222D01*
X191929Y183248D01*
X191836Y183269D01*
X191734Y183286D01*
X191624Y183298D01*
X191379Y183307D01*
Y184488D01*
X191506Y184491D01*
X191734Y184509D01*
X191836Y184526D01*
X191929Y184547D01*
X192014Y184573D01*
X192090Y184604D01*
X192157Y184639D01*
X192216Y184679D01*
X192267Y184724D01*
Y183071D01*
D02*
G37*
G36*
X124870Y184679D02*
X124929Y184639D01*
X124997Y184604D01*
X125073Y184573D01*
X125158Y184547D01*
X125251Y184526D01*
X125352Y184509D01*
X125462Y184498D01*
X125708Y184488D01*
Y183307D01*
X125581Y183305D01*
X125352Y183286D01*
X125251Y183269D01*
X125158Y183248D01*
X125073Y183222D01*
X124997Y183191D01*
X124929Y183156D01*
X124870Y183116D01*
X124820Y183071D01*
Y184724D01*
X124870Y184679D01*
D02*
G37*
G36*
X88296Y178735D02*
X88355Y178694D01*
X88422Y178659D01*
X88498Y178628D01*
X88583Y178602D01*
X88676Y178581D01*
X88777Y178565D01*
X88888Y178553D01*
X89133Y178543D01*
Y177362D01*
X89006Y177360D01*
X88777Y177341D01*
X88676Y177324D01*
X88583Y177303D01*
X88498Y177277D01*
X88422Y177246D01*
X88355Y177211D01*
X88296Y177171D01*
X88245Y177126D01*
Y178779D01*
X88296Y178735D01*
D02*
G37*
G36*
X31405Y177016D02*
X31447Y177006D01*
X31508Y176997D01*
X31692Y176983D01*
X32300Y176969D01*
X32502Y176969D01*
Y174606D01*
X31383Y174547D01*
Y177028D01*
X31405Y177016D01*
D02*
G37*
G36*
X22181Y172722D02*
X22217Y172622D01*
X22276Y172533D01*
X22360Y172456D01*
X22467Y172391D01*
X22598Y172338D01*
X22753Y172297D01*
X22932Y172267D01*
X23135Y172250D01*
X23362Y172244D01*
Y171063D01*
X23135Y171057D01*
X22932Y171039D01*
X22753Y171010D01*
X22598Y170968D01*
X22467Y170915D01*
X22360Y170850D01*
X22276Y170773D01*
X22217Y170685D01*
X22181Y170584D01*
X22169Y170472D01*
Y172834D01*
X22181Y172722D01*
D02*
G37*
G36*
X14343Y170472D02*
X14331Y170584D01*
X14295Y170685D01*
X14235Y170773D01*
X14152Y170850D01*
X14044Y170915D01*
X13913Y170968D01*
X13758Y171010D01*
X13579Y171039D01*
X13376Y171057D01*
X13150Y171063D01*
Y172244D01*
X13376Y172250D01*
X13579Y172267D01*
X13758Y172297D01*
X13913Y172338D01*
X14044Y172391D01*
X14152Y172456D01*
X14235Y172533D01*
X14295Y172622D01*
X14331Y172722D01*
X14343Y172834D01*
Y170472D01*
D02*
G37*
G36*
X115555Y172130D02*
X115614Y171277D01*
X115671Y170899D01*
X115744Y170553D01*
X115834Y170240D01*
X115943Y169958D01*
X116068Y169709D01*
X116211Y169492D01*
X116371Y169306D01*
X115536Y168471D01*
X115351Y168631D01*
X115134Y168774D01*
X114884Y168900D01*
X114603Y169008D01*
X114289Y169099D01*
X113943Y169172D01*
X113565Y169228D01*
X113155Y169267D01*
X112238Y169291D01*
X115551Y172604D01*
X115555Y172130D01*
D02*
G37*
G36*
X85555D02*
X85615Y171277D01*
X85671Y170899D01*
X85744Y170553D01*
X85834Y170240D01*
X85943Y169958D01*
X86068Y169709D01*
X86211Y169492D01*
X86371Y169306D01*
X85536Y168471D01*
X85351Y168631D01*
X85134Y168774D01*
X84885Y168900D01*
X84603Y169008D01*
X84289Y169099D01*
X83943Y169172D01*
X83565Y169228D01*
X83155Y169267D01*
X82238Y169291D01*
X85551Y172604D01*
X85555Y172130D01*
D02*
G37*
G36*
X145036Y175660D02*
Y139470D01*
X144536Y139301D01*
X144485Y139367D01*
X143910Y139809D01*
X143239Y140086D01*
X142520Y140181D01*
X141800Y140086D01*
X141130Y139809D01*
X140870Y139609D01*
X137362D01*
X136517Y139441D01*
X135801Y138963D01*
X133606Y136767D01*
X133197Y136809D01*
X132965Y137275D01*
X133142Y137541D01*
X133310Y138386D01*
X133142Y139231D01*
X132664Y139947D01*
X131947Y140425D01*
X131538Y140507D01*
Y143547D01*
X131738Y143807D01*
X132016Y144477D01*
X132110Y145197D01*
X132016Y145916D01*
X131738Y146587D01*
X131296Y147162D01*
X130721Y147604D01*
X130050Y147882D01*
X129331Y147977D01*
X128611Y147882D01*
X127941Y147604D01*
X127365Y147162D01*
X126923Y146587D01*
X126646Y145916D01*
X126551Y145197D01*
X126646Y144477D01*
X126923Y143807D01*
X127123Y143547D01*
Y140593D01*
X125272D01*
X125077Y141093D01*
X125465Y141675D01*
X125633Y142519D01*
Y146063D01*
X125465Y146908D01*
X124986Y147624D01*
X124270Y148102D01*
X123425Y148271D01*
X122580Y148102D01*
X122441Y148009D01*
X122302Y148102D01*
X121696Y148223D01*
Y167362D01*
X122072Y167692D01*
X122205Y167674D01*
X123489Y167843D01*
X124687Y168339D01*
X125715Y169128D01*
X126503Y170156D01*
X126948Y171230D01*
X126949Y171230D01*
X127461D01*
X127461Y171230D01*
X127906Y170156D01*
X128695Y169128D01*
X129723Y168339D01*
X130920Y167843D01*
X132205Y167674D01*
X133489Y167843D01*
X134687Y168339D01*
X135715Y169128D01*
X136503Y170156D01*
X136999Y171353D01*
X137169Y172638D01*
X136999Y173923D01*
X136503Y175120D01*
X136368Y175297D01*
X136589Y175745D01*
X144952D01*
X145036Y175660D01*
D02*
G37*
G36*
X35981Y168967D02*
Y157202D01*
X35748Y157010D01*
X23948D01*
Y159330D01*
X12924D01*
Y157615D01*
X12895Y157572D01*
X12424Y157303D01*
X11979Y157488D01*
X11259Y157582D01*
X10540Y157488D01*
X9870Y157210D01*
X9294Y156768D01*
X8852Y156193D01*
X8574Y155522D01*
X8480Y154803D01*
X8574Y154083D01*
X8852Y153413D01*
X9294Y152837D01*
X9870Y152395D01*
X10540Y152118D01*
X11259Y152023D01*
X11979Y152118D01*
X12424Y152302D01*
X12895Y152034D01*
X12924Y151991D01*
Y150811D01*
X8435D01*
X7898Y151348D01*
Y164900D01*
X7905Y164935D01*
X7905Y165120D01*
X7914Y165469D01*
X8041Y165635D01*
X8378Y166449D01*
X8493Y167323D01*
X8378Y168196D01*
X8068Y168946D01*
X8259Y169446D01*
X12744D01*
Y167126D01*
X23768D01*
Y169446D01*
X35503D01*
X35981Y168967D01*
D02*
G37*
G36*
X9577Y194395D02*
X9560Y194372D01*
X9064Y193175D01*
X8895Y191890D01*
X9064Y190605D01*
X9560Y189408D01*
X10348Y188380D01*
X11376Y187591D01*
X12574Y187095D01*
X13858Y186926D01*
X15143Y187095D01*
X15417Y187209D01*
X18360Y184266D01*
X19076Y183787D01*
X19921Y183619D01*
X51559D01*
X51743Y183119D01*
X50671Y182203D01*
X49604Y180954D01*
X48746Y179554D01*
X48118Y178037D01*
X47734Y176440D01*
X47605Y174803D01*
X47734Y173166D01*
X48118Y171569D01*
X48746Y170052D01*
X49604Y168651D01*
X50671Y167403D01*
X50879Y167225D01*
X50706Y166756D01*
X44512D01*
Y173031D01*
X44417Y173751D01*
X44140Y174421D01*
X43698Y174997D01*
X40942Y177753D01*
X40366Y178195D01*
X39696Y178472D01*
X38976Y178567D01*
X32541D01*
X32506Y178574D01*
X32321Y178575D01*
X31972Y178583D01*
X31806Y178710D01*
X30992Y179048D01*
X30118Y179163D01*
X29245Y179048D01*
X28431Y178710D01*
X27731Y178174D01*
X27195Y177475D01*
X26858Y176661D01*
X26743Y175787D01*
X26858Y174914D01*
X27087Y174361D01*
X26780Y173861D01*
X23768D01*
Y176181D01*
X12744D01*
Y173861D01*
X3149D01*
X2304Y173693D01*
X1588Y173214D01*
X-774Y170852D01*
X-1252Y170136D01*
X-1420Y169291D01*
Y141279D01*
X-9564D01*
Y142484D01*
X-9364Y142744D01*
X-9087Y143414D01*
X-8992Y144134D01*
X-9087Y144853D01*
X-9364Y145524D01*
X-9806Y146099D01*
X-10382Y146541D01*
X-11052Y146819D01*
X-11772Y146914D01*
X-12491Y146819D01*
X-13161Y146541D01*
X-13737Y146099D01*
X-14179Y145524D01*
X-14457Y144853D01*
X-14551Y144134D01*
X-14457Y143414D01*
X-14179Y142744D01*
X-13980Y142484D01*
Y141279D01*
X-15630D01*
Y132342D01*
X-7525D01*
X-7449Y131761D01*
X-7171Y131091D01*
X-6729Y130515D01*
X-4367Y128153D01*
X-3791Y127711D01*
X-3121Y127433D01*
X-2402Y127338D01*
X12744D01*
Y125633D01*
X12598D01*
X11754Y125465D01*
X11037Y124986D01*
X9344Y123293D01*
X8866Y122577D01*
X8698Y121732D01*
Y113917D01*
X7047D01*
Y111657D01*
X5919D01*
Y113917D01*
X-1797D01*
Y104980D01*
X5919D01*
Y107241D01*
X7047D01*
Y104980D01*
X15089D01*
X15095Y104944D01*
X15118Y104669D01*
X15127Y104291D01*
X15156Y104164D01*
X15228Y103611D01*
X15506Y102941D01*
X15948Y102365D01*
X16926Y101387D01*
X16735Y100925D01*
X9921D01*
Y91988D01*
X17638D01*
Y93545D01*
X18053Y93823D01*
X18178Y93771D01*
X18898Y93677D01*
X19617Y93771D01*
X20287Y94049D01*
X20863Y94491D01*
X21305Y95067D01*
X21583Y95737D01*
X21677Y96456D01*
X21583Y97176D01*
X21305Y97846D01*
X20863Y98422D01*
X20515Y98689D01*
X20685Y99189D01*
X40055D01*
X40242Y99045D01*
X41056Y98708D01*
X41929Y98593D01*
X42803Y98708D01*
X43617Y99045D01*
X44316Y99582D01*
X44366Y99647D01*
X44840Y99486D01*
Y94587D01*
X44377Y94396D01*
X41926Y96847D01*
X41350Y97289D01*
X40680Y97567D01*
X39961Y97662D01*
X29193D01*
X29158Y97669D01*
X28973Y97669D01*
X28624Y97677D01*
X28458Y97805D01*
X27644Y98142D01*
X26770Y98257D01*
X25897Y98142D01*
X25083Y97805D01*
X24384Y97269D01*
X23847Y96570D01*
X23510Y95755D01*
X23395Y94882D01*
X23510Y94008D01*
X23847Y93194D01*
X24384Y92495D01*
X24573Y92350D01*
X24403Y91850D01*
X21319D01*
Y90200D01*
X20657D01*
Y90452D01*
X19165D01*
X19071Y90471D01*
X18976Y90452D01*
X13571D01*
Y85531D01*
X18976D01*
X19071Y85512D01*
X19165Y85531D01*
X20657D01*
Y85784D01*
X21319D01*
Y84134D01*
X30256D01*
Y85784D01*
X30925D01*
Y84134D01*
Y77126D01*
X37686D01*
X37770Y77077D01*
X38073Y76626D01*
X37992Y76221D01*
Y76063D01*
X37961Y75907D01*
Y62638D01*
X38083Y62023D01*
X38432Y61502D01*
X38952Y61154D01*
X39567Y61032D01*
X49657D01*
X49812Y61063D01*
X49970Y61063D01*
X50204Y61109D01*
X50350Y61170D01*
X50505Y61201D01*
X50726Y61292D01*
X50857Y61380D01*
X51003Y61440D01*
X51201Y61573D01*
X51313Y61685D01*
X51445Y61773D01*
X51529Y61857D01*
X51529Y61857D01*
X51617Y61988D01*
X51644Y62016D01*
X51659Y62052D01*
X51877Y62378D01*
X51877Y62378D01*
X51877Y62378D01*
X51923Y62610D01*
X51999Y62992D01*
Y70442D01*
X57388D01*
X57487Y69942D01*
X56796Y69655D01*
X56097Y69119D01*
X55561Y68420D01*
X55224Y67606D01*
X55109Y66732D01*
X55224Y65859D01*
X55561Y65045D01*
X55665Y64908D01*
X55699Y64264D01*
X55704Y64245D01*
Y62838D01*
X55685Y62693D01*
Y57093D01*
X55704Y56949D01*
Y54768D01*
X55799Y54048D01*
X56077Y53378D01*
X56518Y52802D01*
X57241Y52079D01*
X57050Y51617D01*
X54643D01*
X50171Y56088D01*
X49455Y56567D01*
X48610Y56735D01*
X44724D01*
Y58996D01*
X32734D01*
X32711Y59001D01*
X32676Y58996D01*
X32530D01*
X32398Y59110D01*
X32149Y59358D01*
X32314Y59901D01*
X32657Y59969D01*
X33093Y60150D01*
X33614Y60498D01*
X33947Y60831D01*
X34295Y61352D01*
X34476Y61787D01*
X34598Y62402D01*
Y72245D01*
X34476Y72859D01*
X34475Y72859D01*
X34350Y73163D01*
X34350Y73163D01*
X34002Y73684D01*
X33769Y73917D01*
X33248Y74265D01*
X33248Y74265D01*
X32944Y74391D01*
X32944Y74391D01*
X32330Y74513D01*
X21779D01*
Y80904D01*
X21657Y81518D01*
X21657Y81518D01*
X21462Y81987D01*
X21114Y82508D01*
X20755Y82867D01*
X20657Y82932D01*
Y82972D01*
X20598D01*
X20235Y83215D01*
X19766Y83409D01*
X19766Y83409D01*
X19151Y83531D01*
X14565D01*
X13951Y83409D01*
X13590Y83260D01*
X13069Y82912D01*
X13069Y82912D01*
X12793Y82636D01*
X12445Y82115D01*
X12296Y81754D01*
X12296Y81754D01*
X12174Y81140D01*
Y75274D01*
X11795Y75199D01*
X11795Y75199D01*
X10937Y74844D01*
X10937Y74843D01*
X10416Y74495D01*
X10416Y74495D01*
X9759Y73839D01*
X9411Y73318D01*
X9056Y72460D01*
X8934Y71845D01*
Y62245D01*
X9056Y61631D01*
X9056Y61631D01*
X9206Y61267D01*
X9555Y60746D01*
X9555Y60746D01*
X9833Y60468D01*
X10354Y60120D01*
X10717Y59969D01*
X11332Y59847D01*
X15919D01*
X16110Y59385D01*
X15171Y58446D01*
X14693Y57730D01*
X14524Y56885D01*
Y50418D01*
X12763Y48657D01*
X12679Y48577D01*
X12664Y48567D01*
X12569Y48519D01*
X12426Y48464D01*
X12234Y48408D01*
X11994Y48357D01*
X11726Y48318D01*
X10985Y48266D01*
X10625Y48263D01*
X10539Y48274D01*
X9255Y48105D01*
X8057Y47609D01*
X7145Y46909D01*
X6645Y47079D01*
Y72628D01*
X6614Y72783D01*
Y72941D01*
X6532Y73357D01*
X6496Y73442D01*
Y73622D01*
X6447D01*
X6440Y73658D01*
X6278Y74050D01*
X6190Y74181D01*
X6144Y74293D01*
X6150Y74364D01*
X6403Y74817D01*
X6833Y74874D01*
X7504Y75151D01*
X8080Y75593D01*
X8521Y76169D01*
X8799Y76839D01*
X8894Y77559D01*
X8878Y77675D01*
X9208Y78051D01*
X9657D01*
Y81475D01*
X9745Y81533D01*
X9857Y81645D01*
X9988Y81733D01*
X10072Y81817D01*
X10072Y81817D01*
X10160Y81949D01*
X10188Y81976D01*
X10203Y82012D01*
X10420Y82338D01*
X10420Y82338D01*
X10420Y82338D01*
X10467Y82571D01*
X10543Y82953D01*
Y88988D01*
X10512Y89143D01*
X10512Y89301D01*
X10465Y89535D01*
X10416Y89653D01*
X10416Y89656D01*
X10404Y89685D01*
X10374Y89836D01*
X10326Y89952D01*
X10238Y90084D01*
X10226Y90114D01*
X10225Y90115D01*
X10175Y90234D01*
X9915Y90620D01*
X9805Y90730D01*
X9718Y90860D01*
X9585Y90949D01*
X9471Y91062D01*
X9327Y91121D01*
X9197Y91208D01*
X9040Y91239D01*
X8891Y91300D01*
X8736Y91300D01*
X8583Y91330D01*
X8093Y91330D01*
X8093Y91330D01*
X8093Y91330D01*
X4007D01*
X3852Y91299D01*
X3694Y91299D01*
X3434Y91247D01*
X3288Y91187D01*
X3133Y91156D01*
X2888Y91055D01*
X2757Y90967D01*
X2611Y90907D01*
X2391Y90759D01*
X2279Y90648D01*
X2147Y90560D01*
X2053Y90466D01*
X2053Y90466D01*
X1979Y90391D01*
X1891Y90260D01*
X1779Y90148D01*
X1661Y89972D01*
X1601Y89826D01*
X1513Y89694D01*
X1432Y89498D01*
X1401Y89343D01*
X1340Y89197D01*
X1299Y88990D01*
Y88850D01*
X-15423D01*
X-15578Y88819D01*
X-15737D01*
X-16152Y88736D01*
X-16298Y88676D01*
X-16453Y88645D01*
X-16845Y88483D01*
X-16976Y88395D01*
X-17122Y88334D01*
X-17178Y88297D01*
X-17678Y88564D01*
Y176334D01*
X831Y194843D01*
X9356D01*
X9577Y194395D01*
D02*
G37*
G36*
X6347Y166036D02*
X6337Y165994D01*
X6328Y165933D01*
X6314Y165749D01*
X6300Y165141D01*
X6299Y164939D01*
X3937D01*
X3878Y166058D01*
X6358D01*
X6347Y166036D01*
D02*
G37*
G36*
X59259Y161442D02*
X59319Y160821D01*
X59372Y160568D01*
X59439Y160355D01*
X59521Y160180D01*
X59619Y160044D01*
X59731Y159947D01*
X59858Y159889D01*
X60000Y159869D01*
X56141D01*
X56283Y159889D01*
X56410Y159947D01*
X56523Y160044D01*
X56620Y160180D01*
X56703Y160355D01*
X56770Y160568D01*
X56822Y160821D01*
X56860Y161112D01*
X56882Y161442D01*
X56890Y161811D01*
X59252D01*
X59259Y161442D01*
D02*
G37*
G36*
X68068Y170369D02*
Y167323D01*
X68236Y166478D01*
X68714Y165762D01*
X70902Y163575D01*
X70695Y163075D01*
X65661D01*
Y159843D01*
X65538Y159822D01*
X65245Y159797D01*
X64843Y159786D01*
X64814Y159779D01*
X62775D01*
X62746Y159786D01*
X62345Y159797D01*
X62052Y159822D01*
X61929Y159843D01*
Y161468D01*
X60870D01*
X60863Y161536D01*
X60857Y161844D01*
X60830Y161969D01*
X60756Y162531D01*
X60478Y163201D01*
X60036Y163777D01*
X59831Y163982D01*
X59987Y164533D01*
X61305Y164850D01*
X62822Y165478D01*
X64222Y166336D01*
X65471Y167403D01*
X66537Y168651D01*
X67395Y170052D01*
X67568Y170468D01*
X68068Y170369D01*
D02*
G37*
G36*
X221898Y159737D02*
X221888Y159695D01*
X221879Y159633D01*
X221865Y159450D01*
X221851Y158842D01*
X221850Y158640D01*
X219488D01*
X219429Y159758D01*
X221909D01*
X221898Y159737D01*
D02*
G37*
G36*
X67260Y154638D02*
X67236Y154862D01*
X67164Y155063D01*
X67046Y155240D01*
X66880Y155393D01*
X66666Y155523D01*
X66405Y155630D01*
X66096Y155712D01*
X65740Y155771D01*
X65336Y155807D01*
X64885Y155819D01*
Y158181D01*
X65336Y158193D01*
X65740Y158228D01*
X66096Y158287D01*
X66405Y158370D01*
X66666Y158476D01*
X66880Y158606D01*
X67046Y158760D01*
X67164Y158937D01*
X67236Y159137D01*
X67260Y159362D01*
Y154638D01*
D02*
G37*
G36*
X60354Y159137D02*
X60425Y158937D01*
X60544Y158760D01*
X60710Y158606D01*
X60924Y158476D01*
X61185Y158370D01*
X61494Y158287D01*
X61850Y158228D01*
X62253Y158193D01*
X62704Y158181D01*
Y155819D01*
X62253Y155807D01*
X61850Y155771D01*
X61494Y155712D01*
X61185Y155630D01*
X60924Y155523D01*
X60710Y155393D01*
X60544Y155240D01*
X60425Y155063D01*
X60354Y154862D01*
X60330Y154638D01*
Y159362D01*
X60354Y159137D01*
D02*
G37*
G36*
X226976Y156652D02*
X226998Y156615D01*
X227035Y156565D01*
X227155Y156426D01*
X227575Y155986D01*
X227717Y155843D01*
X226047Y154172D01*
X225215Y154921D01*
X226968Y156675D01*
X226976Y156652D01*
D02*
G37*
G36*
X12153Y155585D02*
X12212Y155544D01*
X12280Y155509D01*
X12356Y155478D01*
X12441Y155452D01*
X12534Y155431D01*
X12635Y155414D01*
X12745Y155403D01*
X12991Y155393D01*
Y154212D01*
X12864Y154210D01*
X12635Y154191D01*
X12534Y154174D01*
X12441Y154153D01*
X12356Y154127D01*
X12280Y154096D01*
X12212Y154061D01*
X12153Y154021D01*
X12103Y153976D01*
Y155630D01*
X12153Y155585D01*
D02*
G37*
G36*
X22361Y155872D02*
X22397Y155771D01*
X22456Y155683D01*
X22540Y155606D01*
X22647Y155541D01*
X22779Y155488D01*
X22934Y155446D01*
X23113Y155417D01*
X23315Y155399D01*
X23542Y155393D01*
Y154212D01*
X23315Y154206D01*
X23113Y154189D01*
X22934Y154159D01*
X22779Y154118D01*
X22647Y154065D01*
X22540Y154000D01*
X22456Y153923D01*
X22397Y153834D01*
X22361Y153734D01*
X22349Y153622D01*
Y155984D01*
X22361Y155872D01*
D02*
G37*
G36*
X14523Y153622D02*
X14511Y153734D01*
X14475Y153834D01*
X14416Y153923D01*
X14332Y154000D01*
X14225Y154065D01*
X14094Y154118D01*
X13938Y154159D01*
X13759Y154189D01*
X13557Y154206D01*
X13330Y154212D01*
Y155393D01*
X13557Y155399D01*
X13759Y155417D01*
X13938Y155446D01*
X14094Y155488D01*
X14225Y155541D01*
X14332Y155606D01*
X14416Y155683D01*
X14475Y155771D01*
X14511Y155872D01*
X14523Y155984D01*
Y153622D01*
D02*
G37*
G36*
X58860Y156095D02*
X58818Y155984D01*
X58781Y155833D01*
X58750Y155639D01*
X58701Y155129D01*
X58666Y154118D01*
X59252D01*
X59140Y154106D01*
X59039Y154071D01*
X58951Y154012D01*
X58874Y153929D01*
X58809Y153823D01*
X58756Y153693D01*
X58714Y153539D01*
X58685Y153362D01*
X58667Y153161D01*
X58661Y152937D01*
X57480D01*
X57474Y153161D01*
X57457Y153362D01*
X57427Y153539D01*
X57386Y153693D01*
X57333Y153823D01*
X57268Y153929D01*
X57191Y154012D01*
X57102Y154071D01*
X57002Y154106D01*
X56890Y154118D01*
X57474D01*
X57468Y154206D01*
X57360Y155833D01*
X57323Y155984D01*
X57282Y156095D01*
X57235Y156165D01*
X58906D01*
X58860Y156095D01*
D02*
G37*
G36*
X221909Y152053D02*
X219429D01*
X219440Y152074D01*
X219450Y152116D01*
X219459Y152178D01*
X219473Y152361D01*
X219488Y152969D01*
X219488Y153171D01*
X221850D01*
X221909Y152053D01*
D02*
G37*
G36*
X186558Y150472D02*
X186507Y150517D01*
X186449Y150557D01*
X186381Y150593D01*
X186305Y150623D01*
X186220Y150649D01*
X186127Y150671D01*
X186026Y150687D01*
X185916Y150699D01*
X185670Y150708D01*
Y151890D01*
X185797Y151892D01*
X186026Y151911D01*
X186127Y151927D01*
X186220Y151949D01*
X186305Y151975D01*
X186381Y152005D01*
X186449Y152041D01*
X186507Y152081D01*
X186558Y152126D01*
Y150472D01*
D02*
G37*
G36*
X183531Y152368D02*
X183567Y152268D01*
X183627Y152179D01*
X183710Y152102D01*
X183818Y152037D01*
X183949Y151984D01*
X184104Y151943D01*
X184283Y151913D01*
X184486Y151895D01*
X184712Y151890D01*
Y150708D01*
X184486Y150703D01*
X184283Y150685D01*
X184104Y150655D01*
X183949Y150614D01*
X183818Y150561D01*
X183710Y150496D01*
X183627Y150419D01*
X183567Y150330D01*
X183531Y150230D01*
X183519Y150118D01*
Y152480D01*
X183531Y152368D01*
D02*
G37*
G36*
X41342Y162011D02*
X41917Y161569D01*
X42588Y161291D01*
X43307Y161196D01*
X54212D01*
Y152531D01*
X55863D01*
Y150635D01*
X55360D01*
X54856Y150534D01*
X50621D01*
X49776Y150366D01*
X49060Y149888D01*
X48485Y149313D01*
X47943Y149478D01*
X47906Y149664D01*
X47427Y150380D01*
X40397Y157411D01*
Y162302D01*
X40859Y162494D01*
X41342Y162011D01*
D02*
G37*
G36*
X58667Y149971D02*
X58685Y149768D01*
X58714Y149589D01*
X58756Y149434D01*
X58809Y149303D01*
X58874Y149196D01*
X58951Y149112D01*
X59039Y149053D01*
X59140Y149017D01*
X59252Y149005D01*
X56890D01*
X57002Y149017D01*
X57102Y149053D01*
X57191Y149112D01*
X57268Y149196D01*
X57333Y149303D01*
X57386Y149434D01*
X57427Y149589D01*
X57457Y149768D01*
X57474Y149971D01*
X57480Y150198D01*
X58661D01*
X58667Y149971D01*
D02*
G37*
G36*
X103501Y153023D02*
Y148113D01*
X103001Y147846D01*
X102617Y148102D01*
X101772Y148271D01*
X100927Y148102D01*
X100210Y147624D01*
X99732Y146908D01*
X99651Y146499D01*
X97792Y146499D01*
X97532Y146699D01*
X96861Y146976D01*
X96142Y147071D01*
X95422Y146976D01*
X94752Y146699D01*
X94176Y146257D01*
X93735Y145681D01*
X93457Y145011D01*
X93394Y144531D01*
X91020D01*
X90760Y144730D01*
X90089Y145008D01*
X89370Y145103D01*
X88651Y145008D01*
X87980Y144730D01*
X87405Y144288D01*
X87264Y144105D01*
X86764Y144122D01*
X86701Y144217D01*
X85296Y145621D01*
X85357Y146268D01*
X85627Y146476D01*
X86069Y147051D01*
X86346Y147722D01*
X86441Y148441D01*
X86346Y149161D01*
X86069Y149831D01*
X85627Y150407D01*
X85051Y150848D01*
X84381Y151126D01*
X83661Y151221D01*
X82942Y151126D01*
X82272Y150848D01*
X82012Y150649D01*
X76696D01*
X76310Y150925D01*
Y162753D01*
X93771D01*
X103501Y153023D01*
D02*
G37*
G36*
X20782Y146791D02*
X20760Y146803D01*
X20719Y146813D01*
X20657Y146821D01*
X20473Y146836D01*
X19866Y146850D01*
X19664Y146850D01*
Y149213D01*
X20782Y149272D01*
Y146791D01*
D02*
G37*
G36*
X30346Y147638D02*
X30246Y147602D01*
X30157Y147543D01*
X30081Y147461D01*
X30016Y147354D01*
X29962Y147224D01*
X29921Y147071D01*
X29918Y147051D01*
X29921Y147030D01*
X29962Y146875D01*
X30016Y146744D01*
X30081Y146637D01*
X30157Y146553D01*
X30246Y146493D01*
X30346Y146458D01*
X30458Y146446D01*
X28096D01*
X28208Y146458D01*
X28309Y146493D01*
X28397Y146553D01*
X28474Y146637D01*
X28539Y146744D01*
X28592Y146875D01*
X28634Y147030D01*
X28637Y147051D01*
X28634Y147071D01*
X28592Y147224D01*
X28539Y147354D01*
X28474Y147461D01*
X28397Y147543D01*
X28309Y147602D01*
X28208Y147638D01*
X28096Y147650D01*
X30458D01*
X30346Y147638D01*
D02*
G37*
G36*
X170484Y147450D02*
X170492Y147357D01*
X170531D01*
X170520Y147335D01*
X170510Y147294D01*
X170503Y147241D01*
X170520Y147047D01*
X170579Y146690D01*
X170661Y146382D01*
X170768Y146121D01*
X170898Y145907D01*
X171051Y145741D01*
X171228Y145622D01*
X171429Y145551D01*
X171653Y145527D01*
X166929D01*
X167154Y145551D01*
X167354Y145622D01*
X167532Y145741D01*
X167685Y145907D01*
X167815Y146121D01*
X167921Y146382D01*
X168004Y146690D01*
X168063Y147047D01*
X168066Y147079D01*
X168051Y147357D01*
X168090D01*
X168098Y147450D01*
X168110Y147901D01*
X170472D01*
X170484Y147450D01*
D02*
G37*
G36*
X34550Y144941D02*
X34500Y144986D01*
X34440Y145026D01*
X34373Y145061D01*
X34297Y145092D01*
X34212Y145118D01*
X34119Y145139D01*
X34018Y145156D01*
X33908Y145168D01*
X33662Y145177D01*
Y146358D01*
X33789Y146360D01*
X34018Y146379D01*
X34119Y146396D01*
X34212Y146417D01*
X34297Y146443D01*
X34373Y146474D01*
X34440Y146509D01*
X34500Y146549D01*
X34550Y146594D01*
Y144941D01*
D02*
G37*
G36*
X190889Y144567D02*
X190838Y144612D01*
X190779Y144652D01*
X190712Y144687D01*
X190636Y144718D01*
X190551Y144744D01*
X190458Y144765D01*
X190356Y144782D01*
X190246Y144793D01*
X190001Y144803D01*
Y145984D01*
X190128Y145986D01*
X190356Y146005D01*
X190458Y146022D01*
X190551Y146043D01*
X190636Y146069D01*
X190712Y146100D01*
X190779Y146135D01*
X190838Y146175D01*
X190889Y146220D01*
Y144567D01*
D02*
G37*
G36*
X183531Y146462D02*
X183567Y146362D01*
X183627Y146273D01*
X183710Y146197D01*
X183818Y146132D01*
X183949Y146079D01*
X184104Y146037D01*
X184283Y146008D01*
X184486Y145990D01*
X184712Y145984D01*
Y144803D01*
X184486Y144797D01*
X184283Y144779D01*
X184104Y144750D01*
X183949Y144709D01*
X183818Y144655D01*
X183710Y144590D01*
X183627Y144514D01*
X183567Y144425D01*
X183531Y144325D01*
X183519Y144212D01*
Y146575D01*
X183531Y146462D01*
D02*
G37*
G36*
X130113Y144303D02*
X130072Y144244D01*
X130037Y144176D01*
X130006Y144100D01*
X129980Y144016D01*
X129959Y143922D01*
X129943Y143821D01*
X129931Y143711D01*
X129921Y143465D01*
X128740D01*
X128738Y143592D01*
X128719Y143821D01*
X128702Y143922D01*
X128681Y144016D01*
X128655Y144100D01*
X128624Y144176D01*
X128589Y144244D01*
X128549Y144303D01*
X128504Y144353D01*
X130157D01*
X130113Y144303D01*
D02*
G37*
G36*
X97036Y145073D02*
X97095Y145033D01*
X97162Y144998D01*
X97238Y144967D01*
X97323Y144941D01*
X97416Y144920D01*
X97518Y144903D01*
X97628Y144891D01*
X97873Y144882D01*
X97873Y143701D01*
X97746Y143698D01*
X97518Y143679D01*
X97416Y143663D01*
X97323Y143642D01*
X97238Y143616D01*
X97162Y143585D01*
X97095Y143550D01*
X97036Y143509D01*
X96985Y143465D01*
X96985Y145118D01*
X97036Y145073D01*
D02*
G37*
G36*
X101194Y143110D02*
X101182Y143222D01*
X101146Y143323D01*
X101086Y143411D01*
X101003Y143488D01*
X100896Y143553D01*
X100764Y143606D01*
X100609Y143648D01*
X100430Y143677D01*
X100227Y143695D01*
X100001Y143701D01*
Y144882D01*
X100227Y144888D01*
X100430Y144905D01*
X100609Y144935D01*
X100764Y144976D01*
X100896Y145029D01*
X101003Y145094D01*
X101086Y145171D01*
X101146Y145260D01*
X101182Y145360D01*
X101194Y145472D01*
Y143110D01*
D02*
G37*
G36*
X-10945Y143290D02*
X-10990Y143240D01*
X-11030Y143181D01*
X-11066Y143113D01*
X-11096Y143037D01*
X-11122Y142953D01*
X-11143Y142859D01*
X-11160Y142758D01*
X-11172Y142648D01*
X-11181Y142402D01*
X-12362Y142402D01*
X-12365Y142529D01*
X-12384Y142758D01*
X-12400Y142860D01*
X-12421Y142953D01*
X-12447Y143037D01*
X-12478Y143113D01*
X-12514Y143181D01*
X-12554Y143240D01*
X-12598Y143290D01*
X-10945Y143290D01*
D02*
G37*
G36*
X90264Y143105D02*
X90323Y143065D01*
X90391Y143029D01*
X90467Y142998D01*
X90551Y142972D01*
X90644Y142951D01*
X90746Y142935D01*
X90856Y142923D01*
X91102Y142913D01*
Y141732D01*
X90974Y141730D01*
X90746Y141711D01*
X90644Y141694D01*
X90551Y141673D01*
X90467Y141647D01*
X90391Y141616D01*
X90323Y141581D01*
X90264Y141541D01*
X90214Y141496D01*
Y143150D01*
X90264Y143105D01*
D02*
G37*
G36*
X30346Y142518D02*
X30246Y142482D01*
X30157Y142423D01*
X30081Y142339D01*
X30016Y142232D01*
X29962Y142101D01*
X29921Y141946D01*
X29918Y141929D01*
X29921Y141912D01*
X29962Y141757D01*
X30016Y141626D01*
X30081Y141518D01*
X30157Y141435D01*
X30246Y141375D01*
X30346Y141340D01*
X30458Y141328D01*
X28096D01*
X28208Y141340D01*
X28309Y141375D01*
X28397Y141435D01*
X28474Y141518D01*
X28539Y141626D01*
X28592Y141757D01*
X28634Y141912D01*
X28636Y141929D01*
X28634Y141946D01*
X28592Y142101D01*
X28539Y142232D01*
X28474Y142339D01*
X28397Y142423D01*
X28309Y142482D01*
X28208Y142518D01*
X28096Y142530D01*
X30458D01*
X30346Y142518D01*
D02*
G37*
G36*
X-11175Y140649D02*
X-11158Y140448D01*
X-11128Y140271D01*
X-11087Y140118D01*
X-11034Y139988D01*
X-10969Y139881D01*
X-10892Y139799D01*
X-10803Y139740D01*
X-10703Y139704D01*
X-10591Y139692D01*
X-12953D01*
X-12841Y139704D01*
X-12740Y139740D01*
X-12652Y139799D01*
X-12575Y139881D01*
X-12510Y139988D01*
X-12457Y140118D01*
X-12415Y140271D01*
X-12386Y140448D01*
X-12368Y140649D01*
X-12362Y140874D01*
X-11181D01*
X-11175Y140649D01*
D02*
G37*
G36*
X129927Y139930D02*
X129945Y139727D01*
X129974Y139548D01*
X130016Y139393D01*
X130069Y139262D01*
X130134Y139154D01*
X130211Y139071D01*
X130299Y139011D01*
X130400Y138976D01*
X130512Y138963D01*
X128150D01*
X128262Y138976D01*
X128362Y139011D01*
X128451Y139071D01*
X128528Y139154D01*
X128593Y139262D01*
X128646Y139393D01*
X128687Y139548D01*
X128717Y139727D01*
X128734Y139930D01*
X128740Y140157D01*
X129921D01*
X129927Y139930D01*
D02*
G37*
G36*
X96461Y139771D02*
X96492Y139452D01*
X96520Y139322D01*
X96555Y139213D01*
X96599Y139123D01*
X96650Y139053D01*
X96709Y139003D01*
X96776Y138973D01*
X96851Y138963D01*
X94881D01*
X94956Y138973D01*
X95023Y139003D01*
X95082Y139053D01*
X95134Y139123D01*
X95177Y139213D01*
X95213Y139322D01*
X95240Y139452D01*
X95260Y139602D01*
X95272Y139771D01*
X95276Y139961D01*
X96457D01*
X96461Y139771D01*
D02*
G37*
G36*
X52961Y138872D02*
X53020Y138832D01*
X53088Y138797D01*
X53164Y138766D01*
X53248Y138740D01*
X53342Y138719D01*
X53443Y138702D01*
X53553Y138690D01*
X53799Y138681D01*
Y137500D01*
X53672Y137497D01*
X53443Y137478D01*
X53342Y137462D01*
X53248Y137441D01*
X53164Y137415D01*
X53088Y137384D01*
X53020Y137349D01*
X52961Y137308D01*
X52911Y137264D01*
Y138917D01*
X52961Y138872D01*
D02*
G37*
G36*
X68233Y136909D02*
X68221Y137021D01*
X68185Y137122D01*
X68125Y137210D01*
X68042Y137287D01*
X67935Y137352D01*
X67803Y137405D01*
X67648Y137447D01*
X67469Y137476D01*
X67266Y137494D01*
X67040Y137500D01*
Y138681D01*
X67266Y138687D01*
X67469Y138705D01*
X67648Y138734D01*
X67803Y138775D01*
X67935Y138829D01*
X68042Y138893D01*
X68125Y138970D01*
X68185Y139059D01*
X68221Y139159D01*
X68233Y139271D01*
Y136909D01*
D02*
G37*
G36*
X141676Y136575D02*
X141626Y136620D01*
X141567Y136660D01*
X141499Y136695D01*
X141423Y136726D01*
X141338Y136752D01*
X141245Y136773D01*
X141144Y136790D01*
X141034Y136802D01*
X140788Y136811D01*
Y137992D01*
X140915Y137995D01*
X141144Y138013D01*
X141245Y138030D01*
X141338Y138051D01*
X141423Y138077D01*
X141499Y138108D01*
X141567Y138143D01*
X141626Y138183D01*
X141676Y138228D01*
Y136575D01*
D02*
G37*
G36*
X59086Y137400D02*
X58986Y137364D01*
X58897Y137305D01*
X58821Y137221D01*
X58756Y137114D01*
X58702Y136983D01*
X58661Y136827D01*
X58658Y136811D01*
X58661Y136794D01*
X58702Y136639D01*
X58756Y136508D01*
X58821Y136400D01*
X58897Y136317D01*
X58986Y136257D01*
X59086Y136221D01*
X59199Y136209D01*
X56836D01*
X56949Y136221D01*
X57049Y136257D01*
X57138Y136317D01*
X57214Y136400D01*
X57279Y136508D01*
X57332Y136639D01*
X57374Y136794D01*
X57376Y136811D01*
X57374Y136827D01*
X57332Y136983D01*
X57279Y137114D01*
X57214Y137221D01*
X57138Y137305D01*
X57049Y137364D01*
X56949Y137400D01*
X56836Y137412D01*
X59199D01*
X59086Y137400D01*
D02*
G37*
G36*
X30346D02*
X30246Y137364D01*
X30157Y137305D01*
X30081Y137221D01*
X30016Y137114D01*
X29962Y136983D01*
X29921Y136827D01*
X29918Y136811D01*
X29921Y136794D01*
X29962Y136639D01*
X30016Y136508D01*
X30081Y136400D01*
X30157Y136317D01*
X30246Y136257D01*
X30346Y136221D01*
X30458Y136209D01*
X28096D01*
X28208Y136221D01*
X28309Y136257D01*
X28397Y136317D01*
X28474Y136400D01*
X28539Y136508D01*
X28592Y136639D01*
X28634Y136794D01*
X28636Y136811D01*
X28634Y136827D01*
X28592Y136983D01*
X28539Y137114D01*
X28474Y137221D01*
X28397Y137305D01*
X28309Y137364D01*
X28208Y137400D01*
X28096Y137412D01*
X30458D01*
X30346Y137400D01*
D02*
G37*
G36*
X13812Y138949D02*
X13883Y138748D01*
X14002Y138571D01*
X14168Y138417D01*
X14382Y138287D01*
X14643Y138181D01*
X14952Y138098D01*
X15308Y138039D01*
X15711Y138004D01*
X15740Y138003D01*
X16648Y138051D01*
Y135571D01*
X16627Y135582D01*
X16585Y135592D01*
X16523Y135601D01*
X16340Y135615D01*
X15948Y135624D01*
X15711Y135618D01*
X15308Y135582D01*
X14952Y135523D01*
X14643Y135441D01*
X14382Y135334D01*
X14168Y135205D01*
X14002Y135051D01*
X13883Y134874D01*
X13812Y134673D01*
X13788Y134449D01*
Y139173D01*
X13812Y138949D01*
D02*
G37*
G36*
X80666Y140030D02*
Y137008D01*
X80834Y136163D01*
X81313Y135447D01*
X81610Y135150D01*
X81418Y134688D01*
X76378D01*
X75533Y134520D01*
X74851Y134064D01*
X74714Y134094D01*
X74351Y134282D01*
Y141139D01*
X79558D01*
X80666Y140030D01*
D02*
G37*
G36*
X66634Y133622D02*
X73690D01*
X73897Y133122D01*
X73396Y132621D01*
X61179D01*
X60675Y132721D01*
X55360D01*
X54477Y132545D01*
X53728Y132045D01*
X53228Y131296D01*
X53052Y130413D01*
X53228Y129530D01*
X53492Y129134D01*
X53228Y128737D01*
X53052Y127854D01*
X53228Y126971D01*
X53492Y126575D01*
X53228Y126178D01*
X53052Y125295D01*
X53065Y125232D01*
X52747Y124845D01*
X51027D01*
Y135057D01*
X51527Y135382D01*
X52067Y135311D01*
X52787Y135405D01*
X53111Y135232D01*
X53228Y134648D01*
X53728Y133899D01*
X54477Y133399D01*
X55360Y133223D01*
X60675D01*
X61558Y133399D01*
X62307Y133899D01*
X62807Y134648D01*
X62983Y135531D01*
X63271Y135882D01*
X66634D01*
Y133622D01*
D02*
G37*
G36*
X170360Y133988D02*
X170260Y133953D01*
X170171Y133893D01*
X170095Y133809D01*
X170029Y133702D01*
X169976Y133571D01*
X169935Y133416D01*
X169905Y133237D01*
X169888Y133034D01*
X169882Y132807D01*
X168701D01*
X168695Y133034D01*
X168677Y133237D01*
X168648Y133416D01*
X168606Y133571D01*
X168553Y133702D01*
X168488Y133809D01*
X168411Y133893D01*
X168323Y133953D01*
X168222Y133988D01*
X168110Y134000D01*
X170472D01*
X170360Y133988D01*
D02*
G37*
G36*
X-3366Y133926D02*
X-3412Y133883D01*
X-3452Y133810D01*
X-3486Y133707D01*
X-3516Y133576D01*
X-3540Y133415D01*
X-3572Y133006D01*
X-3583Y132480D01*
X-5945D01*
X-5948Y132758D01*
X-6012Y133576D01*
X-6041Y133707D01*
X-6076Y133810D01*
X-6116Y133883D01*
X-6162Y133926D01*
X-6213Y133941D01*
X-3315D01*
X-3366Y133926D01*
D02*
G37*
G36*
X34590Y132145D02*
X34539Y132190D01*
X34480Y132230D01*
X34412Y132266D01*
X34336Y132297D01*
X34252Y132323D01*
X34159Y132344D01*
X34057Y132360D01*
X33947Y132372D01*
X33702Y132382D01*
Y133563D01*
X33829Y133565D01*
X34057Y133584D01*
X34159Y133600D01*
X34252Y133622D01*
X34336Y133648D01*
X34412Y133678D01*
X34480Y133714D01*
X34539Y133754D01*
X34590Y133799D01*
Y132145D01*
D02*
G37*
G36*
X30346Y132282D02*
X30246Y132246D01*
X30157Y132187D01*
X30081Y132103D01*
X30016Y131996D01*
X29962Y131864D01*
X29921Y131709D01*
X29918Y131693D01*
X29921Y131676D01*
X29962Y131521D01*
X30016Y131390D01*
X30081Y131282D01*
X30157Y131199D01*
X30246Y131139D01*
X30346Y131103D01*
X30458Y131091D01*
X28096D01*
X28208Y131103D01*
X28309Y131139D01*
X28397Y131199D01*
X28474Y131282D01*
X28539Y131390D01*
X28592Y131521D01*
X28634Y131676D01*
X28636Y131693D01*
X28634Y131709D01*
X28592Y131864D01*
X28539Y131996D01*
X28474Y132103D01*
X28397Y132187D01*
X28309Y132246D01*
X28208Y132282D01*
X28096Y132294D01*
X30458D01*
X30346Y132282D01*
D02*
G37*
G36*
X169888Y130982D02*
X169905Y130779D01*
X169935Y130600D01*
X169976Y130445D01*
X170029Y130314D01*
X170095Y130206D01*
X170171Y130123D01*
X170260Y130063D01*
X170360Y130027D01*
X170472Y130015D01*
X168110D01*
X168222Y130027D01*
X168323Y130063D01*
X168411Y130123D01*
X168488Y130206D01*
X168553Y130314D01*
X168606Y130445D01*
X168648Y130600D01*
X168677Y130779D01*
X168695Y130982D01*
X168701Y131208D01*
X169882D01*
X169888Y130982D01*
D02*
G37*
G36*
X16845Y128878D02*
X16823Y128889D01*
X16782Y128899D01*
X16720Y128908D01*
X16536Y128922D01*
X15929Y128936D01*
X15727Y128937D01*
Y131299D01*
X16845Y131358D01*
Y128878D01*
D02*
G37*
G36*
X177268Y126575D02*
X177256Y126687D01*
X177220Y126787D01*
X177161Y126876D01*
X177077Y126953D01*
X176970Y127017D01*
X176839Y127071D01*
X176683Y127112D01*
X176505Y127142D01*
X176302Y127159D01*
X176075Y127165D01*
Y128346D01*
X176302Y128352D01*
X176505Y128370D01*
X176683Y128399D01*
X176839Y128441D01*
X176970Y128494D01*
X177077Y128559D01*
X177161Y128636D01*
X177220Y128724D01*
X177256Y128825D01*
X177268Y128937D01*
Y126575D01*
D02*
G37*
G36*
X172173Y128825D02*
X172209Y128724D01*
X172269Y128636D01*
X172352Y128559D01*
X172459Y128494D01*
X172591Y128441D01*
X172746Y128399D01*
X172925Y128370D01*
X173128Y128352D01*
X173354Y128346D01*
Y127165D01*
X173128Y127159D01*
X172925Y127142D01*
X172746Y127112D01*
X172591Y127071D01*
X172459Y127017D01*
X172352Y126953D01*
X172269Y126876D01*
X172209Y126787D01*
X172173Y126687D01*
X172161Y126575D01*
Y128937D01*
X172173Y128825D01*
D02*
G37*
G36*
X30346Y127164D02*
X30246Y127128D01*
X30157Y127068D01*
X30081Y126985D01*
X30016Y126877D01*
X29962Y126746D01*
X29921Y126591D01*
X29918Y126575D01*
X29921Y126558D01*
X29962Y126403D01*
X30016Y126271D01*
X30081Y126164D01*
X30157Y126081D01*
X30246Y126021D01*
X30346Y125985D01*
X30458Y125973D01*
X28096D01*
X28208Y125985D01*
X28309Y126021D01*
X28397Y126081D01*
X28474Y126164D01*
X28539Y126271D01*
X28592Y126403D01*
X28634Y126558D01*
X28636Y126575D01*
X28634Y126591D01*
X28592Y126746D01*
X28539Y126877D01*
X28474Y126985D01*
X28397Y127068D01*
X28309Y127128D01*
X28208Y127164D01*
X28096Y127176D01*
X30458D01*
X30346Y127164D01*
D02*
G37*
G36*
X40551Y125295D02*
X39370Y123523D01*
X39358Y123748D01*
X39323Y123949D01*
X39264Y124126D01*
X39181Y124279D01*
X39075Y124409D01*
X38945Y124515D01*
X38791Y124598D01*
X38614Y124657D01*
X38413Y124693D01*
X38189Y124704D01*
Y125885D01*
X38413Y125897D01*
X38614Y125933D01*
X38791Y125992D01*
X38945Y126075D01*
X39075Y126181D01*
X39181Y126311D01*
X39264Y126464D01*
X39323Y126641D01*
X39358Y126842D01*
X39370Y127067D01*
X40551Y125295D01*
D02*
G37*
G36*
X14343Y122244D02*
X14331Y122356D01*
X14295Y122457D01*
X14235Y122545D01*
X14152Y122622D01*
X14045Y122687D01*
X13913Y122740D01*
X13758Y122782D01*
X13579Y122811D01*
X13376Y122829D01*
X13150Y122835D01*
Y124016D01*
X13376Y124022D01*
X13579Y124039D01*
X13758Y124069D01*
X13913Y124110D01*
X14045Y124163D01*
X14152Y124228D01*
X14235Y124305D01*
X14295Y124394D01*
X14331Y124494D01*
X14343Y124606D01*
Y122244D01*
D02*
G37*
G36*
X5318Y146066D02*
X5894Y145624D01*
X6564Y145346D01*
X7283Y145252D01*
X19624D01*
X19659Y145245D01*
X19845Y145244D01*
X20193Y145236D01*
X20360Y145108D01*
X21174Y144771D01*
X22047Y144656D01*
X22921Y144771D01*
X23735Y145108D01*
X23974Y145291D01*
X24442Y145115D01*
X24487Y144884D01*
X24752Y144488D01*
X24487Y144092D01*
X24312Y143208D01*
X24487Y142325D01*
X24752Y141929D01*
X24487Y141533D01*
X24312Y140649D01*
X24487Y139766D01*
X24752Y139370D01*
X24487Y138974D01*
X24312Y138090D01*
X24487Y137207D01*
X24752Y136811D01*
X24487Y136415D01*
X24312Y135531D01*
X24487Y134648D01*
X24752Y134252D01*
X24487Y133855D01*
X24312Y132972D01*
X24487Y132089D01*
X24752Y131693D01*
X24487Y131296D01*
X24312Y130413D01*
X24487Y129530D01*
X24752Y129134D01*
X24487Y128737D01*
X24312Y127854D01*
X24487Y126971D01*
X24752Y126575D01*
X24487Y126178D01*
X24312Y125295D01*
X24487Y124412D01*
X24752Y124015D01*
X24487Y123619D01*
X24312Y122736D01*
X24487Y121853D01*
X24752Y121456D01*
X24566Y121178D01*
X24114Y121061D01*
X23978Y121061D01*
X23768Y121230D01*
Y127953D01*
X21232D01*
X21011Y128401D01*
X21033Y128430D01*
X21371Y129244D01*
X21486Y130118D01*
X21371Y130992D01*
X21033Y131806D01*
X20497Y132505D01*
X19798Y133041D01*
X19331Y133235D01*
Y133776D01*
X19601Y133888D01*
X20300Y134424D01*
X20836Y135123D01*
X21174Y135937D01*
X21289Y136811D01*
X21174Y137684D01*
X20836Y138498D01*
X20300Y139198D01*
X19601Y139734D01*
X18787Y140071D01*
X17913Y140186D01*
X17040Y140071D01*
X16226Y139734D01*
X16089Y139629D01*
X15872Y139618D01*
X15387Y139948D01*
Y141279D01*
X3175D01*
X2995Y141459D01*
Y147682D01*
X3495Y147889D01*
X5318Y146066D01*
D02*
G37*
G36*
X59086Y122046D02*
X58986Y122010D01*
X58897Y121950D01*
X58821Y121867D01*
X58756Y121759D01*
X58702Y121628D01*
X58661Y121473D01*
X58658Y121456D01*
X58661Y121440D01*
X58702Y121285D01*
X58756Y121153D01*
X58821Y121046D01*
X58897Y120963D01*
X58986Y120903D01*
X59086Y120867D01*
X59199Y120855D01*
X56836D01*
X56949Y120867D01*
X57049Y120903D01*
X57138Y120963D01*
X57214Y121046D01*
X57279Y121153D01*
X57332Y121285D01*
X57374Y121440D01*
X57376Y121456D01*
X57374Y121473D01*
X57332Y121628D01*
X57279Y121759D01*
X57214Y121867D01*
X57138Y121950D01*
X57049Y122010D01*
X56949Y122046D01*
X56836Y122058D01*
X59199D01*
X59086Y122046D01*
D02*
G37*
G36*
X30346D02*
X30246Y122010D01*
X30157Y121950D01*
X30081Y121867D01*
X30016Y121759D01*
X29962Y121628D01*
X29921Y121473D01*
X29918Y121456D01*
X29921Y121440D01*
X29962Y121285D01*
X30016Y121153D01*
X30081Y121046D01*
X30157Y120963D01*
X30246Y120903D01*
X30346Y120867D01*
X30458Y120855D01*
X28096D01*
X28208Y120867D01*
X28309Y120903D01*
X28397Y120963D01*
X28474Y121046D01*
X28539Y121153D01*
X28592Y121285D01*
X28634Y121440D01*
X28636Y121456D01*
X28634Y121473D01*
X28592Y121628D01*
X28539Y121759D01*
X28474Y121867D01*
X28397Y121950D01*
X28309Y122010D01*
X28208Y122046D01*
X28096Y122058D01*
X30458D01*
X30346Y122046D01*
D02*
G37*
G36*
X236588Y120602D02*
X236564Y120675D01*
X236493Y120740D01*
X236375Y120797D01*
X236210Y120847D01*
X235997Y120889D01*
X235737Y120923D01*
X235076Y120969D01*
X234225Y120984D01*
Y123346D01*
X234674Y123350D01*
X235997Y123442D01*
X236210Y123484D01*
X236375Y123533D01*
X236493Y123591D01*
X236564Y123655D01*
X236588Y123728D01*
Y120602D01*
D02*
G37*
G36*
X37453Y120692D02*
X37753Y120539D01*
Y116279D01*
X33078D01*
Y107523D01*
X25718D01*
X25042Y108198D01*
Y117978D01*
X25483Y118214D01*
X25737Y118044D01*
X26620Y117869D01*
X31935D01*
X32818Y118044D01*
X33567Y118545D01*
X34067Y119294D01*
X34149Y119703D01*
X34615Y120051D01*
X35335Y119956D01*
X36054Y120051D01*
X36725Y120329D01*
X37253Y120734D01*
X37453Y120692D01*
D02*
G37*
G36*
X22161Y120476D02*
X22161Y120451D01*
X22180Y120409D01*
X22219Y120351D01*
X22278Y120276D01*
X22455Y120075D01*
X22867Y119649D01*
X21197D01*
X21030Y119808D01*
X20863Y119950D01*
X20696Y120075D01*
X20528Y120184D01*
X20361Y120276D01*
X20195Y120351D01*
X20027Y120409D01*
X19860Y120451D01*
X19693Y120476D01*
X19526Y120484D01*
X22181D01*
X22161Y120476D01*
D02*
G37*
G36*
X72404Y122587D02*
X72315Y122373D01*
X72220Y121653D01*
X72302Y121035D01*
X71813Y120937D01*
X71097Y120459D01*
X69578Y118940D01*
X63127D01*
X62836Y119440D01*
X62983Y120177D01*
X62807Y121060D01*
X62543Y121456D01*
X62807Y121853D01*
X62983Y122736D01*
X63271Y123087D01*
X72070D01*
X72404Y122587D01*
D02*
G37*
G36*
X148369Y115709D02*
X148319Y115753D01*
X148259Y115794D01*
X148192Y115829D01*
X148116Y115860D01*
X148031Y115886D01*
X147938Y115907D01*
X147837Y115924D01*
X147727Y115935D01*
X147481Y115945D01*
Y117126D01*
X147608Y117128D01*
X147837Y117147D01*
X147938Y117164D01*
X148031Y117185D01*
X148116Y117211D01*
X148192Y117242D01*
X148259Y117277D01*
X148319Y117317D01*
X148369Y117362D01*
Y115709D01*
D02*
G37*
G36*
X178144Y115838D02*
X178104Y115779D01*
X178068Y115712D01*
X178038Y115636D01*
X178012Y115551D01*
X177991Y115458D01*
X177974Y115356D01*
X177962Y115246D01*
X177953Y115001D01*
X176772D01*
X176769Y115128D01*
X176750Y115356D01*
X176734Y115458D01*
X176713Y115551D01*
X176687Y115636D01*
X176656Y115712D01*
X176620Y115779D01*
X176580Y115838D01*
X176535Y115889D01*
X178189D01*
X178144Y115838D01*
D02*
G37*
G36*
X130400Y116142D02*
X130299Y116106D01*
X130211Y116047D01*
X130134Y115963D01*
X130069Y115856D01*
X130016Y115725D01*
X129974Y115570D01*
X129945Y115391D01*
X129927Y115188D01*
X129921Y114961D01*
X128740D01*
X128734Y115188D01*
X128717Y115391D01*
X128687Y115570D01*
X128646Y115725D01*
X128593Y115856D01*
X128527Y115963D01*
X128451Y116047D01*
X128362Y116106D01*
X128262Y116142D01*
X128150Y116154D01*
X130512D01*
X130400Y116142D01*
D02*
G37*
G36*
X96935D02*
X96835Y116106D01*
X96746Y116047D01*
X96669Y115963D01*
X96604Y115856D01*
X96551Y115725D01*
X96510Y115570D01*
X96480Y115391D01*
X96463Y115188D01*
X96457Y114961D01*
X95276D01*
X95270Y115188D01*
X95252Y115391D01*
X95223Y115570D01*
X95181Y115725D01*
X95128Y115856D01*
X95063Y115963D01*
X94986Y116047D01*
X94898Y116106D01*
X94797Y116142D01*
X94685Y116154D01*
X97047D01*
X96935Y116142D01*
D02*
G37*
G36*
X40043Y114082D02*
X39847Y113880D01*
X39529Y113509D01*
X39407Y113341D01*
X39310Y113185D01*
X39238Y113040D01*
X39190Y112907D01*
X39167Y112785D01*
X39169Y112675D01*
X39196Y112577D01*
X38313Y114681D01*
X38360Y114603D01*
X38424Y114555D01*
X38505Y114537D01*
X38603Y114549D01*
X38718Y114592D01*
X38849Y114664D01*
X38997Y114766D01*
X39162Y114898D01*
X39344Y115060D01*
X39543Y115252D01*
X40043Y114082D01*
D02*
G37*
G36*
X19105Y114244D02*
X19134Y113892D01*
X19154D01*
X19142Y113871D01*
X19137Y113850D01*
X19138Y113842D01*
X19193Y113488D01*
X19269Y113181D01*
X19367Y112921D01*
X19487Y112708D01*
X19629Y112543D01*
X19792Y112425D01*
X19978Y112354D01*
X20185Y112330D01*
X15642D01*
X15849Y112354D01*
X16035Y112425D01*
X16198Y112543D01*
X16340Y112708D01*
X16460Y112921D01*
X16558Y113181D01*
X16634Y113488D01*
X16679Y113780D01*
X16673Y113892D01*
X16693D01*
X16721Y114244D01*
X16732Y114693D01*
X19094D01*
X19105Y114244D01*
D02*
G37*
G36*
X11502Y113285D02*
X11520Y113082D01*
X11549Y112903D01*
X11591Y112748D01*
X11644Y112617D01*
X11709Y112509D01*
X11785Y112426D01*
X11874Y112366D01*
X11974Y112330D01*
X12087Y112319D01*
X9724D01*
X9837Y112330D01*
X9937Y112366D01*
X10026Y112426D01*
X10102Y112509D01*
X10167Y112617D01*
X10220Y112748D01*
X10262Y112903D01*
X10291Y113082D01*
X10309Y113285D01*
X10315Y113512D01*
X11496D01*
X11502Y113285D01*
D02*
G37*
G36*
X96457Y112755D02*
X96459Y112628D01*
X96478Y112399D01*
X96495Y112298D01*
X96516Y112205D01*
X96542Y112120D01*
X96573Y112044D01*
X96608Y111977D01*
X96648Y111918D01*
X96693Y111867D01*
X95039Y111867D01*
X95084Y111918D01*
X95124Y111977D01*
X95160Y112044D01*
X95191Y112120D01*
X95217Y112205D01*
X95238Y112298D01*
X95254Y112399D01*
X95266Y112510D01*
X95276Y112755D01*
X96457Y112755D01*
D02*
G37*
G36*
X95023Y110197D02*
X94972Y110242D01*
X94913Y110282D01*
X94845Y110317D01*
X94769Y110348D01*
X94685Y110374D01*
X94592Y110395D01*
X94490Y110412D01*
X94380Y110424D01*
X94135Y110433D01*
Y111614D01*
X94262Y111617D01*
X94490Y111635D01*
X94592Y111652D01*
X94685Y111673D01*
X94769Y111699D01*
X94845Y111730D01*
X94913Y111765D01*
X94972Y111805D01*
X95023Y111850D01*
Y110197D01*
D02*
G37*
G36*
X124015Y111896D02*
X124051Y111795D01*
X124110Y111706D01*
X124194Y111630D01*
X124301Y111565D01*
X124433Y111512D01*
X124588Y111470D01*
X124767Y111441D01*
X124969Y111423D01*
X125196Y111417D01*
Y110236D01*
X124969Y110230D01*
X124767Y110212D01*
X124588Y110183D01*
X124433Y110142D01*
X124301Y110088D01*
X124194Y110023D01*
X124110Y109947D01*
X124051Y109858D01*
X124015Y109758D01*
X124003Y109645D01*
Y112008D01*
X124015Y111896D01*
D02*
G37*
G36*
X82919Y109348D02*
X82937Y109145D01*
X82967Y108966D01*
X83008Y108811D01*
X83061Y108680D01*
X83126Y108572D01*
X83203Y108489D01*
X83291Y108429D01*
X83392Y108393D01*
X83504Y108381D01*
X81142D01*
X81254Y108393D01*
X81354Y108429D01*
X81443Y108489D01*
X81520Y108572D01*
X81585Y108680D01*
X81638Y108811D01*
X81679Y108966D01*
X81709Y109145D01*
X81726Y109348D01*
X81732Y109575D01*
X82913D01*
X82919Y109348D01*
D02*
G37*
G36*
X8646Y108268D02*
X8634Y108380D01*
X8598Y108480D01*
X8539Y108569D01*
X8455Y108646D01*
X8348Y108711D01*
X8217Y108764D01*
X8061Y108805D01*
X7882Y108835D01*
X7680Y108852D01*
X7453Y108858D01*
Y110039D01*
X7680Y110045D01*
X7882Y110063D01*
X8061Y110092D01*
X8217Y110134D01*
X8348Y110187D01*
X8455Y110252D01*
X8539Y110329D01*
X8598Y110417D01*
X8634Y110518D01*
X8646Y110630D01*
Y108268D01*
D02*
G37*
G36*
X4332Y110518D02*
X4368Y110417D01*
X4428Y110329D01*
X4511Y110252D01*
X4619Y110187D01*
X4750Y110134D01*
X4905Y110092D01*
X5084Y110063D01*
X5287Y110045D01*
X5514Y110039D01*
Y108858D01*
X5287Y108852D01*
X5084Y108835D01*
X4905Y108805D01*
X4750Y108764D01*
X4619Y108711D01*
X4511Y108646D01*
X4428Y108569D01*
X4368Y108480D01*
X4332Y108380D01*
X4320Y108268D01*
Y110630D01*
X4332Y110518D01*
D02*
G37*
G36*
X47848Y112612D02*
X48565Y112134D01*
X49409Y111966D01*
X54587D01*
X54687Y111466D01*
X53320Y110899D01*
X51919Y110041D01*
X50671Y108975D01*
X49604Y107726D01*
X48746Y106326D01*
X48324Y105308D01*
X47735Y105191D01*
X46049Y106876D01*
X45333Y107355D01*
X44488Y107523D01*
X40795D01*
Y112518D01*
X40967Y112719D01*
X41522Y113274D01*
X42000Y113990D01*
X42168Y114835D01*
Y117639D01*
X42630Y117830D01*
X47848Y112612D01*
D02*
G37*
G36*
X91602Y106581D02*
X91638Y106480D01*
X91698Y106392D01*
X91781Y106315D01*
X91888Y106250D01*
X92020Y106197D01*
X92175Y106156D01*
X92354Y106126D01*
X92557Y106108D01*
X92783Y106102D01*
Y104921D01*
X92557Y104915D01*
X92354Y104898D01*
X92175Y104868D01*
X92020Y104827D01*
X91888Y104774D01*
X91781Y104709D01*
X91698Y104632D01*
X91638Y104543D01*
X91602Y104443D01*
X91590Y104331D01*
Y106693D01*
X91602Y106581D01*
D02*
G37*
G36*
X19949Y106545D02*
X19770Y106478D01*
X19612Y106366D01*
X19474Y106209D01*
X19358Y106008D01*
X19263Y105762D01*
X19189Y105471D01*
X19137Y105136D01*
X19105Y104756D01*
X19094Y104331D01*
X16732D01*
X16722Y104756D01*
X16690Y105136D01*
X16637Y105471D01*
X16563Y105762D01*
X16468Y106008D01*
X16352Y106209D01*
X16215Y106366D01*
X16057Y106478D01*
X15878Y106545D01*
X15677Y106567D01*
X20150D01*
X19949Y106545D01*
D02*
G37*
G36*
X91856Y118179D02*
X92098Y117642D01*
X92055Y117577D01*
X91887Y116732D01*
X92055Y115887D01*
X92533Y115171D01*
X93250Y114692D01*
X93658Y114611D01*
Y113231D01*
X83268D01*
X82423Y113063D01*
X81707Y112585D01*
X80762Y111640D01*
X80283Y110924D01*
X80115Y110079D01*
Y109980D01*
X78465D01*
Y102602D01*
X73622D01*
X72777Y102433D01*
X72061Y101955D01*
X68567Y98461D01*
X68114Y98715D01*
X68407Y99937D01*
X68536Y101575D01*
X68407Y103212D01*
X68024Y104808D01*
X67395Y106326D01*
X66537Y107726D01*
X65471Y108975D01*
X64222Y110041D01*
X62822Y110899D01*
X61455Y111466D01*
X61554Y111966D01*
X72441D01*
X73286Y112134D01*
X74002Y112612D01*
X75324Y113934D01*
X86417D01*
X87262Y114102D01*
X87978Y114581D01*
X91610Y118212D01*
X91856Y118179D01*
D02*
G37*
G36*
X16051Y97525D02*
X16087Y97425D01*
X16146Y97336D01*
X16230Y97260D01*
X16337Y97195D01*
X16468Y97141D01*
X16623Y97100D01*
X16803Y97071D01*
X17005Y97053D01*
X17205Y97048D01*
X17293Y97049D01*
X17522Y97068D01*
X17623Y97085D01*
X17716Y97106D01*
X17801Y97132D01*
X17877Y97163D01*
X17944Y97198D01*
X18003Y97238D01*
X18054Y97283D01*
X18054Y95630D01*
X18003Y95675D01*
X17944Y95715D01*
X17877Y95750D01*
X17801Y95781D01*
X17716Y95807D01*
X17623Y95828D01*
X17522Y95845D01*
X17412Y95856D01*
X17193Y95865D01*
X17005Y95860D01*
X16803Y95842D01*
X16623Y95813D01*
X16468Y95771D01*
X16337Y95718D01*
X16230Y95653D01*
X16146Y95577D01*
X16087Y95488D01*
X16051Y95388D01*
X16039Y95275D01*
Y97637D01*
X16051Y97525D01*
D02*
G37*
G36*
X77553Y95563D02*
X77513Y95504D01*
X77478Y95436D01*
X77447Y95360D01*
X77421Y95275D01*
X77400Y95182D01*
X77384Y95081D01*
X77372Y94971D01*
X77362Y94725D01*
X76181D01*
X76179Y94852D01*
X76160Y95081D01*
X76143Y95182D01*
X76122Y95275D01*
X76096Y95360D01*
X76065Y95436D01*
X76030Y95504D01*
X75990Y95563D01*
X75945Y95613D01*
X77598D01*
X77553Y95563D01*
D02*
G37*
G36*
X136769Y97904D02*
Y92201D01*
X136569Y91941D01*
X136291Y91271D01*
X136218Y90715D01*
X135718Y90748D01*
Y92808D01*
X126781D01*
Y91157D01*
X124118D01*
X124067Y91172D01*
X123989Y91202D01*
X123890Y91251D01*
X123770Y91323D01*
X123651Y91405D01*
X123295Y91704D01*
X123126Y91869D01*
X123104Y91898D01*
X122240Y92561D01*
X121235Y92977D01*
X120156Y93119D01*
X120120Y93115D01*
X119862Y93118D01*
X119638Y93131D01*
X119443Y93154D01*
X119277Y93184D01*
X119143Y93218D01*
X119038Y93253D01*
X118962Y93287D01*
X118915Y93313D01*
X118422Y93805D01*
X118455Y94304D01*
X118698Y94491D01*
X119140Y95067D01*
X119417Y95737D01*
X119512Y96456D01*
X119467Y96800D01*
X119940Y97034D01*
X121094Y95880D01*
X121810Y95401D01*
X122655Y95233D01*
X124531D01*
X124791Y95034D01*
X125462Y94756D01*
X126181Y94661D01*
X126900Y94756D01*
X127571Y95034D01*
X128147Y95475D01*
X128588Y96051D01*
X128866Y96722D01*
X128961Y97441D01*
X128938Y97613D01*
X129268Y97989D01*
X136684D01*
X136769Y97904D01*
D02*
G37*
G36*
X28057Y96111D02*
X28099Y96101D01*
X28160Y96092D01*
X28344Y96078D01*
X28952Y96064D01*
X29154Y96063D01*
Y93701D01*
X28035Y93642D01*
Y96122D01*
X28057Y96111D01*
D02*
G37*
G36*
X99564Y142083D02*
Y141063D01*
X99732Y140218D01*
X100210Y139502D01*
X102888Y136825D01*
X103604Y136346D01*
X104449Y136178D01*
X125509D01*
X125776Y135678D01*
X125519Y135293D01*
X125351Y134449D01*
X125519Y133604D01*
X125612Y133464D01*
X125519Y133325D01*
X125351Y132480D01*
X125519Y131635D01*
X125612Y131496D01*
X125519Y131357D01*
X125351Y130512D01*
X125519Y129667D01*
X125612Y129527D01*
X125519Y129388D01*
X125351Y128543D01*
X125519Y127698D01*
X125612Y127559D01*
X125519Y127419D01*
X125351Y126575D01*
X125519Y125730D01*
X125612Y125590D01*
X125519Y125451D01*
X125351Y124606D01*
X125519Y123761D01*
X125612Y123622D01*
X125519Y123483D01*
X125351Y122638D01*
X125519Y121793D01*
X125612Y121653D01*
X125519Y121514D01*
X125351Y120669D01*
X125519Y119824D01*
X125612Y119685D01*
X125519Y119545D01*
X125351Y118701D01*
X125519Y117856D01*
X125612Y117716D01*
X125519Y117577D01*
X125351Y116732D01*
X125519Y115887D01*
X125998Y115171D01*
X126714Y114692D01*
X127155Y114605D01*
X127291Y113919D01*
X127770Y113203D01*
X128754Y112218D01*
X129470Y111740D01*
X130315Y111572D01*
X143035D01*
X143295Y111372D01*
X143966Y111095D01*
X144685Y111000D01*
X145405Y111095D01*
X146075Y111372D01*
X146651Y111814D01*
X147092Y112390D01*
X147370Y113060D01*
X147465Y113779D01*
X147608Y113919D01*
X147929Y114084D01*
X148493Y113850D01*
X149213Y113756D01*
X149932Y113850D01*
X150391Y114041D01*
X150891Y113763D01*
Y93186D01*
X148101Y90397D01*
X142520D01*
X142174Y90328D01*
X141730Y90750D01*
X141661Y91271D01*
X141384Y91941D01*
X141184Y92201D01*
Y93173D01*
X141560Y93503D01*
X141732Y93480D01*
X142452Y93575D01*
X143122Y93853D01*
X143698Y94294D01*
X144140Y94870D01*
X144417Y95540D01*
X144509Y96239D01*
X145208Y96331D01*
X145878Y96609D01*
X146454Y97050D01*
X146896Y97626D01*
X147173Y98296D01*
X147268Y99016D01*
X147173Y99735D01*
X146896Y100406D01*
X146696Y100666D01*
Y104724D01*
X146528Y105569D01*
X146049Y106286D01*
X143884Y108451D01*
X143168Y108930D01*
X142323Y109098D01*
X131033D01*
X127742Y112388D01*
X127026Y112866D01*
X126181Y113034D01*
X125546D01*
X125465Y113443D01*
X124986Y114159D01*
X124270Y114638D01*
X123425Y114806D01*
X122580Y114638D01*
X122441Y114545D01*
X122302Y114638D01*
X121457Y114806D01*
X120612Y114638D01*
X120472Y114545D01*
X120333Y114638D01*
X119728Y114758D01*
Y115697D01*
X119559Y116542D01*
X119081Y117258D01*
X118046Y118293D01*
X117329Y118772D01*
X116484Y118940D01*
X102241D01*
X101980Y119140D01*
X101310Y119417D01*
X100591Y119512D01*
X100020Y119437D01*
X99751Y119741D01*
X99733Y119767D01*
X99689Y119879D01*
X99846Y120669D01*
X99677Y121514D01*
X99584Y121653D01*
X99677Y121793D01*
X99846Y122638D01*
X99677Y123483D01*
X99584Y123622D01*
X99677Y123761D01*
X99846Y124606D01*
X99677Y125451D01*
X99584Y125590D01*
X99677Y125730D01*
X99846Y126575D01*
X99677Y127419D01*
X99584Y127559D01*
X99677Y127698D01*
X99846Y128543D01*
X99677Y129388D01*
X99584Y129527D01*
X99677Y129667D01*
X99846Y130512D01*
X99677Y131357D01*
X99584Y131496D01*
X99677Y131635D01*
X99846Y132480D01*
X99677Y133325D01*
X99584Y133464D01*
X99677Y133604D01*
X99846Y134449D01*
X99677Y135293D01*
X99584Y135433D01*
X99677Y135572D01*
X99846Y136417D01*
X99677Y137262D01*
X99584Y137401D01*
X99677Y137541D01*
X99846Y138386D01*
X99677Y139231D01*
X99199Y139947D01*
X98483Y140425D01*
X97961Y140529D01*
X97906Y140805D01*
X97544Y141348D01*
X97536Y141689D01*
X97884Y142084D01*
X99564Y142083D01*
D02*
G37*
G36*
X68177Y94114D02*
X68089Y94022D01*
X67941Y93847D01*
X67881Y93764D01*
X67830Y93683D01*
X67789Y93605D01*
X67757Y93529D01*
X67734Y93457D01*
X67721Y93386D01*
X67716Y93319D01*
X66547Y94488D01*
X66615Y94492D01*
X66685Y94506D01*
X66758Y94528D01*
X66833Y94560D01*
X66911Y94602D01*
X66992Y94652D01*
X67076Y94713D01*
X67162Y94782D01*
X67342Y94949D01*
X68177Y94114D01*
D02*
G37*
G36*
X139569Y92156D02*
X139588Y91927D01*
X139605Y91825D01*
X139626Y91732D01*
X139652Y91648D01*
X139683Y91572D01*
X139718Y91504D01*
X139758Y91445D01*
X139803Y91395D01*
X138150D01*
X138195Y91445D01*
X138235Y91504D01*
X138270Y91572D01*
X138301Y91648D01*
X138327Y91732D01*
X138348Y91825D01*
X138365Y91927D01*
X138376Y92037D01*
X138386Y92283D01*
X139567D01*
X139569Y92156D01*
D02*
G37*
G36*
X117881Y92077D02*
X118054Y91954D01*
X118246Y91847D01*
X118458Y91754D01*
X118688Y91676D01*
X118938Y91613D01*
X119208Y91565D01*
X119496Y91531D01*
X119803Y91513D01*
X120130Y91509D01*
X117597Y88975D01*
X117593Y89302D01*
X117540Y89898D01*
X117492Y90167D01*
X117429Y90417D01*
X117351Y90648D01*
X117258Y90859D01*
X117151Y91051D01*
X117029Y91224D01*
X116892Y91378D01*
X117727Y92214D01*
X117881Y92077D01*
D02*
G37*
G36*
X104522Y91378D02*
X104385Y91224D01*
X104263Y91051D01*
X104155Y90859D01*
X104063Y90648D01*
X103985Y90417D01*
X103922Y90167D01*
X103873Y89898D01*
X103840Y89609D01*
X103821Y89302D01*
X103817Y88975D01*
X101284Y91509D01*
X101610Y91513D01*
X102206Y91565D01*
X102475Y91613D01*
X102725Y91676D01*
X102956Y91754D01*
X103167Y91847D01*
X103360Y91954D01*
X103533Y92077D01*
X103687Y92214D01*
X104522Y91378D01*
D02*
G37*
G36*
X78895Y90506D02*
Y77477D01*
X79063Y76632D01*
X79541Y75916D01*
X83579Y71879D01*
X83693Y71802D01*
X83542Y71302D01*
X70983D01*
X70913Y71369D01*
X70729Y71802D01*
X70869Y72011D01*
X70929Y72157D01*
X71017Y72288D01*
X71084Y72450D01*
X71088Y72449D01*
X71274Y72449D01*
X71623Y72440D01*
X71789Y72313D01*
X72603Y71976D01*
X73477Y71861D01*
X74350Y71976D01*
X75164Y72313D01*
X75863Y72849D01*
X76400Y73548D01*
X76737Y74362D01*
X76852Y75236D01*
X76737Y76110D01*
X76400Y76924D01*
X75863Y77623D01*
X75164Y78159D01*
X74350Y78496D01*
X73477Y78611D01*
X72603Y78496D01*
X71876Y78195D01*
X71684Y78230D01*
X71362Y78448D01*
X71349Y78515D01*
X71322Y78579D01*
Y78579D01*
X71288Y78661D01*
X71257Y78816D01*
X71231Y78879D01*
X71143Y79011D01*
X71082Y79157D01*
X71044Y79214D01*
X70933Y79326D01*
X70845Y79457D01*
X70821Y79482D01*
X70820Y79482D01*
X70820Y79482D01*
X70689Y79570D01*
X70601Y79657D01*
X70487Y79705D01*
X70300Y79830D01*
X70300Y79830D01*
X70300Y79830D01*
X70078Y79874D01*
X70022Y79897D01*
X69962D01*
X69685Y79952D01*
X69685Y79952D01*
X69685Y79952D01*
X47438D01*
X47338Y80452D01*
X47554Y80541D01*
X48253Y81078D01*
X48789Y81777D01*
X49126Y82591D01*
X49242Y83465D01*
X49126Y84338D01*
X48789Y85152D01*
X48685Y85289D01*
X48651Y85933D01*
X48646Y85952D01*
Y87968D01*
X49146Y88277D01*
X49803Y88147D01*
X75000D01*
X75845Y88315D01*
X76561Y88793D01*
X78333Y90565D01*
X78395Y90657D01*
X78895Y90506D01*
D02*
G37*
G36*
X128368Y87769D02*
X128356Y87881D01*
X128321Y87981D01*
X128262Y88070D01*
X128179Y88147D01*
X128073Y88212D01*
X127943Y88265D01*
X127789Y88306D01*
X127612Y88336D01*
X127411Y88353D01*
X127187Y88359D01*
Y89540D01*
X127411Y89546D01*
X127612Y89564D01*
X127789Y89593D01*
X127943Y89635D01*
X128073Y89688D01*
X128179Y89753D01*
X128262Y89830D01*
X128321Y89918D01*
X128356Y90019D01*
X128368Y90131D01*
Y87769D01*
D02*
G37*
G36*
X93580Y90019D02*
X93616Y89918D01*
X93676Y89830D01*
X93759Y89753D01*
X93867Y89688D01*
X93998Y89635D01*
X94153Y89593D01*
X94332Y89564D01*
X94535Y89546D01*
X94761Y89540D01*
Y88359D01*
X94535Y88353D01*
X94332Y88336D01*
X94153Y88306D01*
X93998Y88265D01*
X93867Y88212D01*
X93759Y88147D01*
X93676Y88070D01*
X93616Y87981D01*
X93580Y87881D01*
X93568Y87769D01*
Y90131D01*
X93580Y90019D01*
D02*
G37*
G36*
X122217Y90513D02*
X122675Y90129D01*
X122900Y89973D01*
X123121Y89840D01*
X123339Y89732D01*
X123554Y89648D01*
X123766Y89588D01*
X123975Y89552D01*
X124181Y89540D01*
Y88359D01*
X123975Y88347D01*
X123766Y88311D01*
X123554Y88251D01*
X123339Y88167D01*
X123121Y88059D01*
X122900Y87927D01*
X122675Y87771D01*
X122448Y87591D01*
X122217Y87387D01*
X121983Y87158D01*
Y90741D01*
X122217Y90513D01*
D02*
G37*
G36*
X99430Y87158D02*
X99197Y87387D01*
X98738Y87771D01*
X98514Y87927D01*
X98292Y88059D01*
X98074Y88167D01*
X97859Y88251D01*
X97647Y88311D01*
X97438Y88347D01*
X97233Y88359D01*
Y89540D01*
X97438Y89552D01*
X97647Y89588D01*
X97859Y89648D01*
X98074Y89732D01*
X98292Y89840D01*
X98514Y89973D01*
X98738Y90129D01*
X98966Y90309D01*
X99197Y90513D01*
X99430Y90741D01*
Y87158D01*
D02*
G37*
G36*
X19082Y88812D02*
X19118Y88764D01*
X19177Y88721D01*
X19260Y88684D01*
X19366Y88653D01*
X19496Y88628D01*
X19649Y88608D01*
X20027Y88585D01*
X20252Y88582D01*
Y87401D01*
X20027Y87398D01*
X19496Y87356D01*
X19366Y87331D01*
X19260Y87299D01*
X19177Y87262D01*
X19118Y87220D01*
X19082Y87172D01*
X19071Y87118D01*
Y88866D01*
X19082Y88812D01*
D02*
G37*
G36*
X32512Y86811D02*
X32500Y86923D01*
X32465Y87023D01*
X32406Y87112D01*
X32323Y87189D01*
X32217Y87254D01*
X32087Y87307D01*
X31933Y87348D01*
X31756Y87378D01*
X31555Y87395D01*
X31331Y87401D01*
Y88582D01*
X31555Y88588D01*
X31756Y88606D01*
X31933Y88636D01*
X32087Y88677D01*
X32217Y88730D01*
X32323Y88795D01*
X32406Y88872D01*
X32465Y88960D01*
X32500Y89061D01*
X32512Y89173D01*
Y86811D01*
D02*
G37*
G36*
X28681Y89061D02*
X28716Y88960D01*
X28775Y88872D01*
X28858Y88795D01*
X28964Y88730D01*
X29094Y88677D01*
X29248Y88636D01*
X29425Y88606D01*
X29626Y88588D01*
X29850Y88582D01*
Y87401D01*
X29626Y87395D01*
X29425Y87378D01*
X29248Y87348D01*
X29094Y87307D01*
X28964Y87254D01*
X28858Y87189D01*
X28775Y87112D01*
X28716Y87023D01*
X28681Y86923D01*
X28669Y86811D01*
Y89173D01*
X28681Y89061D01*
D02*
G37*
G36*
X22918Y86811D02*
X22906Y86923D01*
X22870Y87023D01*
X22810Y87112D01*
X22727Y87189D01*
X22619Y87254D01*
X22488Y87307D01*
X22333Y87348D01*
X22154Y87378D01*
X21951Y87395D01*
X21724Y87401D01*
Y88582D01*
X21951Y88588D01*
X22154Y88606D01*
X22333Y88636D01*
X22488Y88677D01*
X22619Y88730D01*
X22727Y88795D01*
X22810Y88872D01*
X22870Y88960D01*
X22906Y89061D01*
X22918Y89173D01*
Y86811D01*
D02*
G37*
G36*
X121395Y86711D02*
X121112Y86551D01*
X119781Y85690D01*
X119621Y85562D01*
X119353Y85321D01*
X117933Y85571D01*
X118086Y85742D01*
X118207Y85919D01*
X118297Y86101D01*
X118354Y86288D01*
X118380Y86480D01*
X118374Y86678D01*
X118337Y86881D01*
X118267Y87089D01*
X118166Y87302D01*
X118033Y87520D01*
X121395Y86711D01*
D02*
G37*
G36*
X103318Y87390D02*
X103223Y87167D01*
X103158Y86951D01*
X103125Y86741D01*
X103122Y86538D01*
X103151Y86341D01*
X103210Y86151D01*
X103300Y85967D01*
X103421Y85790D01*
X103573Y85619D01*
X102214Y85308D01*
X102093Y85422D01*
X101952Y85540D01*
X101608Y85793D01*
X101181Y86066D01*
X100389Y86516D01*
X100084Y86676D01*
X103444Y87619D01*
X103318Y87390D01*
D02*
G37*
G36*
X136291Y89832D02*
X136569Y89161D01*
X137011Y88586D01*
X137586Y88144D01*
X138257Y87866D01*
X138490Y87836D01*
X138733Y87299D01*
X138708Y87262D01*
X138540Y86417D01*
Y77686D01*
X137274Y76420D01*
X130233D01*
X129973Y76620D01*
X129302Y76897D01*
X128583Y76992D01*
X127863Y76897D01*
X127193Y76620D01*
X126933Y76420D01*
X118559D01*
X118140Y76615D01*
Y81552D01*
X118141Y81559D01*
X118140Y81575D01*
Y81714D01*
X118145Y81749D01*
X118140Y81773D01*
Y81783D01*
X118325Y82006D01*
X120628Y84308D01*
X120660Y84338D01*
X120720Y84385D01*
X121943Y85176D01*
X122183Y85312D01*
X122190Y85318D01*
X122240Y85339D01*
X123104Y86001D01*
X123126Y86030D01*
X123310Y86210D01*
X123479Y86359D01*
X123633Y86481D01*
X123770Y86577D01*
X123890Y86648D01*
X123989Y86697D01*
X124067Y86727D01*
X124118Y86742D01*
X126781D01*
Y85091D01*
X135718D01*
Y90355D01*
X136218Y90387D01*
X136291Y89832D01*
D02*
G37*
G36*
X47106Y84730D02*
X44626D01*
X44637Y84751D01*
X44647Y84793D01*
X44656Y84855D01*
X44670Y85038D01*
X44684Y85646D01*
X44685Y85848D01*
X47047D01*
X47106Y84730D01*
D02*
G37*
G36*
X117388Y83355D02*
X117180Y83139D01*
X116847Y82740D01*
X116721Y82557D01*
X116622Y82384D01*
X116551Y82223D01*
X116508Y82072D01*
X116491Y81932D01*
X116502Y81803D01*
X116541Y81685D01*
X115493Y83954D01*
X115556Y83861D01*
X115643Y83807D01*
X115752Y83793D01*
X115885Y83819D01*
X116040Y83884D01*
X116219Y83988D01*
X116420Y84132D01*
X116645Y84316D01*
X117163Y84801D01*
X117388Y83355D01*
D02*
G37*
G36*
X44601Y82224D02*
X44579Y82236D01*
X44538Y82246D01*
X44476Y82254D01*
X44292Y82269D01*
X43685Y82283D01*
X43483Y82284D01*
Y84646D01*
X44601Y84705D01*
Y82224D01*
D02*
G37*
G36*
X238827Y80603D02*
X238817Y80561D01*
X238808Y80500D01*
X238794Y80316D01*
X238780Y79708D01*
X238779Y79506D01*
X236417D01*
X236358Y80625D01*
X238839D01*
X238827Y80603D01*
D02*
G37*
G36*
X177317Y80366D02*
X177277Y80307D01*
X177242Y80239D01*
X177211Y80163D01*
X177185Y80079D01*
X177164Y79985D01*
X177147Y79884D01*
X177145Y79865D01*
X177150Y79814D01*
X177179Y79635D01*
X177220Y79480D01*
X177274Y79349D01*
X177339Y79242D01*
X177415Y79158D01*
X177504Y79098D01*
X177604Y79063D01*
X177717Y79051D01*
X175354D01*
X175467Y79063D01*
X175567Y79098D01*
X175655Y79158D01*
X175732Y79242D01*
X175797Y79349D01*
X175850Y79480D01*
X175892Y79635D01*
X175921Y79814D01*
X175925Y79862D01*
X175924Y79884D01*
X175907Y79985D01*
X175886Y80079D01*
X175860Y80163D01*
X175829Y80239D01*
X175794Y80307D01*
X175753Y80366D01*
X175709Y80416D01*
X177362D01*
X177317Y80366D01*
D02*
G37*
G36*
X7183Y79638D02*
X7083Y79602D01*
X6994Y79542D01*
X6917Y79459D01*
X6852Y79351D01*
X6799Y79220D01*
X6758Y79065D01*
X6731Y78903D01*
X6742Y78833D01*
X6764Y78740D01*
X6790Y78655D01*
X6820Y78579D01*
X6856Y78512D01*
X6896Y78453D01*
X6941Y78402D01*
X5287Y78402D01*
X5332Y78453D01*
X5372Y78512D01*
X5408Y78579D01*
X5438Y78655D01*
X5464Y78740D01*
X5486Y78833D01*
X5497Y78903D01*
X5470Y79065D01*
X5429Y79220D01*
X5376Y79351D01*
X5311Y79459D01*
X5234Y79542D01*
X5146Y79602D01*
X5045Y79638D01*
X4933Y79650D01*
X7295D01*
X7183Y79638D01*
D02*
G37*
G36*
X97347Y86727D02*
X97425Y86697D01*
X97524Y86648D01*
X97643Y86577D01*
X97762Y86494D01*
X98119Y86195D01*
X98288Y86030D01*
X98310Y86001D01*
X99173Y85339D01*
X99272Y85298D01*
X99297Y85276D01*
X99319Y85269D01*
X99337Y85255D01*
X99619Y85106D01*
X100351Y84691D01*
X100698Y84469D01*
X100956Y84279D01*
X103415Y81820D01*
Y76615D01*
X102996Y76420D01*
X99740D01*
X99489Y76682D01*
X99391Y76885D01*
X99535Y77233D01*
X99630Y77953D01*
X99535Y78672D01*
X99258Y79343D01*
X98816Y79918D01*
X98240Y80360D01*
X97570Y80638D01*
X96850Y80732D01*
X96131Y80638D01*
X95461Y80360D01*
X94885Y79918D01*
X94443Y79343D01*
X94211Y78783D01*
X86938D01*
X85869Y79852D01*
Y84756D01*
X86230Y85091D01*
X95167D01*
Y86742D01*
X97295D01*
X97347Y86727D01*
D02*
G37*
G36*
X96839Y76772D02*
X96771Y76768D01*
X96701Y76754D01*
X96628Y76732D01*
X96553Y76700D01*
X96474Y76658D01*
X96394Y76607D01*
X96310Y76547D01*
X96224Y76478D01*
X96044Y76311D01*
X95208Y77146D01*
X95297Y77237D01*
X95445Y77412D01*
X95505Y77496D01*
X95556Y77577D01*
X95597Y77655D01*
X95629Y77731D01*
X95652Y77803D01*
X95665Y77873D01*
X95669Y77941D01*
X96839Y76772D01*
D02*
G37*
G36*
X151559Y74106D02*
X151548Y74218D01*
X151512Y74319D01*
X151452Y74407D01*
X151368Y74484D01*
X151261Y74549D01*
X151130Y74602D01*
X150975Y74644D01*
X150796Y74673D01*
X150593Y74691D01*
X150366Y74697D01*
Y75878D01*
X150593Y75884D01*
X150796Y75901D01*
X150975Y75931D01*
X151130Y75972D01*
X151261Y76025D01*
X151368Y76090D01*
X151452Y76167D01*
X151512Y76256D01*
X151548Y76356D01*
X151559Y76468D01*
Y74106D01*
D02*
G37*
G36*
X72211Y73996D02*
X72190Y74007D01*
X72148Y74017D01*
X72087Y74026D01*
X71903Y74040D01*
X71295Y74054D01*
X71093Y74055D01*
Y76417D01*
X72211Y76476D01*
Y73996D01*
D02*
G37*
G36*
X148293Y76516D02*
X148451Y76382D01*
X148611Y76264D01*
X148773Y76161D01*
X148937Y76075D01*
X149104Y76004D01*
X149272Y75949D01*
X149443Y75909D01*
X149616Y75886D01*
X149791Y75878D01*
Y74697D01*
X149616Y74689D01*
X149443Y74665D01*
X149272Y74626D01*
X149104Y74571D01*
X148937Y74500D01*
X148773Y74413D01*
X148611Y74311D01*
X148451Y74193D01*
X148293Y74059D01*
X148138Y73909D01*
Y76665D01*
X148293Y76516D01*
D02*
G37*
G36*
X184845Y74636D02*
X184864Y74407D01*
X184880Y74306D01*
X184902Y74213D01*
X184928Y74128D01*
X184958Y74052D01*
X184994Y73985D01*
X185034Y73926D01*
X185079Y73875D01*
X183425D01*
X183470Y73926D01*
X183510Y73985D01*
X183546Y74052D01*
X183576Y74128D01*
X183602Y74213D01*
X183624Y74306D01*
X183640Y74407D01*
X183652Y74517D01*
X183661Y74763D01*
X184843D01*
X184845Y74636D01*
D02*
G37*
G36*
X235154Y74035D02*
X234405Y73203D01*
X232651Y74956D01*
X232675Y74964D01*
X232711Y74986D01*
X232761Y75023D01*
X232901Y75143D01*
X233341Y75563D01*
X233484Y75705D01*
X235154Y74035D01*
D02*
G37*
G36*
X94235Y72613D02*
X94185Y72658D01*
X94126Y72698D01*
X94058Y72733D01*
X93982Y72764D01*
X93897Y72790D01*
X93804Y72811D01*
X93703Y72828D01*
X93593Y72840D01*
X93347Y72849D01*
Y74030D01*
X93474Y74033D01*
X93703Y74052D01*
X93804Y74068D01*
X93897Y74089D01*
X93982Y74115D01*
X94058Y74146D01*
X94126Y74181D01*
X94185Y74222D01*
X94235Y74266D01*
Y72613D01*
D02*
G37*
G36*
X159411Y94174D02*
X160660Y93108D01*
X162060Y92250D01*
X163577Y91622D01*
X165174Y91238D01*
X166811Y91109D01*
X168448Y91238D01*
X170045Y91622D01*
X171562Y92250D01*
X172962Y93108D01*
X174211Y94174D01*
X174685Y94730D01*
X175154Y94557D01*
Y86614D01*
X175322Y85769D01*
X175801Y85053D01*
X176337Y84518D01*
X176157Y83990D01*
X175816Y83945D01*
X175146Y83667D01*
X174570Y83225D01*
X174128Y82650D01*
X173851Y81979D01*
X173756Y81260D01*
X173787Y81025D01*
X173457Y80650D01*
X172677D01*
Y71713D01*
X178895D01*
Y71201D01*
X172677D01*
Y63606D01*
X157638D01*
Y71201D01*
X149921D01*
Y70044D01*
X149896Y70004D01*
X149873Y69973D01*
X149829Y69929D01*
X149761Y69882D01*
X149566Y69810D01*
X149421Y69790D01*
X149371Y69833D01*
X149251Y69948D01*
X149238Y69957D01*
X148519Y70508D01*
X147657Y70865D01*
X146732Y70987D01*
X145807Y70865D01*
X144945Y70508D01*
X144205Y69940D01*
X143637Y69200D01*
X143280Y68338D01*
X143158Y67413D01*
X143222Y66928D01*
X142749Y66694D01*
X140542Y68901D01*
X140687Y69380D01*
X140872Y69417D01*
X141589Y69895D01*
X144346Y72652D01*
X144945Y72192D01*
X145807Y71835D01*
X146732Y71713D01*
X147657Y71835D01*
X148519Y72192D01*
X149238Y72744D01*
X149251Y72752D01*
X149371Y72867D01*
X149449Y72934D01*
X149461Y72942D01*
X149731Y72878D01*
X149824Y72832D01*
X149875Y72793D01*
X149905Y72762D01*
X149958Y72693D01*
X149961Y72689D01*
Y71713D01*
X157677D01*
Y80650D01*
X149961D01*
Y77885D01*
X149958Y77881D01*
X149905Y77812D01*
X149875Y77782D01*
X149824Y77742D01*
X149731Y77696D01*
X149461Y77632D01*
X149449Y77641D01*
X149371Y77707D01*
X149251Y77822D01*
X149238Y77831D01*
X148519Y78382D01*
X147657Y78739D01*
X146732Y78861D01*
X146054Y78772D01*
X145554Y79127D01*
Y83619D01*
X150394D01*
X151239Y83787D01*
X151955Y84266D01*
X157654Y89965D01*
X158133Y90681D01*
X158301Y91526D01*
Y94705D01*
X158801Y94889D01*
X159411Y94174D01*
D02*
G37*
G36*
X231501Y89511D02*
X231329Y89286D01*
X230992Y88472D01*
X230877Y87598D01*
X230992Y86725D01*
X231329Y85911D01*
X231865Y85212D01*
X232564Y84675D01*
X233378Y84338D01*
X234252Y84223D01*
X234573Y84265D01*
X234843Y83797D01*
X234675Y83577D01*
X234338Y82763D01*
X234223Y81890D01*
X234338Y81016D01*
X234675Y80202D01*
X234780Y80066D01*
X234814Y79422D01*
X234819Y79403D01*
Y79301D01*
X232382Y76864D01*
X232352Y76844D01*
X232220Y76713D01*
X231968Y76473D01*
X231760Y76445D01*
X230946Y76108D01*
X230247Y75572D01*
X229711Y74872D01*
X229373Y74058D01*
X229258Y73185D01*
X229373Y72311D01*
X229711Y71497D01*
X230247Y70798D01*
X230946Y70262D01*
X231760Y69924D01*
X232634Y69810D01*
X233507Y69924D01*
X234321Y70262D01*
X235020Y70798D01*
X235557Y71497D01*
X235894Y72311D01*
X235916Y72482D01*
X236348Y72961D01*
X236358Y72978D01*
X238884Y75504D01*
X239346Y75313D01*
Y67725D01*
X238574Y66953D01*
X233828D01*
X232280Y68501D01*
X231705Y68943D01*
X231034Y69220D01*
X230315Y69315D01*
X224591D01*
X224404Y69459D01*
X223590Y69796D01*
X222716Y69911D01*
X221843Y69796D01*
X221029Y69459D01*
X220893Y69354D01*
X220248Y69320D01*
X220229Y69315D01*
X215494D01*
X215459Y69322D01*
X215273Y69323D01*
X214925Y69331D01*
X214758Y69459D01*
X213945Y69796D01*
X213071Y69911D01*
X212197Y69796D01*
X211383Y69459D01*
X211247Y69354D01*
X210603Y69320D01*
X210584Y69315D01*
X194037D01*
X194002Y69322D01*
X193817Y69323D01*
X193468Y69331D01*
X193302Y69459D01*
X192488Y69796D01*
X191614Y69911D01*
X190741Y69796D01*
X189927Y69459D01*
X189790Y69354D01*
X189146Y69320D01*
X189127Y69315D01*
X187008D01*
X186288Y69220D01*
X185618Y68943D01*
X185042Y68501D01*
X181111Y64569D01*
X180598Y64764D01*
X180586Y64967D01*
X180892Y65171D01*
X182664Y66943D01*
X183142Y67659D01*
X183310Y68504D01*
Y69942D01*
X183810Y70310D01*
X184252Y70252D01*
X184971Y70346D01*
X185642Y70624D01*
X186217Y71066D01*
X186659Y71642D01*
X186937Y72312D01*
X187032Y73032D01*
X186937Y73751D01*
X186659Y74421D01*
X186460Y74681D01*
Y84252D01*
X186292Y85097D01*
X185813Y85813D01*
X182326Y89300D01*
Y89959D01*
X231280D01*
X231501Y89511D01*
D02*
G37*
G36*
X151520Y66232D02*
X151508Y66344D01*
X151472Y66445D01*
X151413Y66533D01*
X151329Y66610D01*
X151222Y66675D01*
X151091Y66728D01*
X150935Y66770D01*
X150757Y66799D01*
X150554Y66817D01*
X150327Y66823D01*
Y68004D01*
X150554Y68010D01*
X150757Y68027D01*
X150935Y68057D01*
X151091Y68098D01*
X151222Y68151D01*
X151329Y68216D01*
X151413Y68293D01*
X151472Y68382D01*
X151508Y68482D01*
X151520Y68594D01*
Y66232D01*
D02*
G37*
G36*
X148293Y68642D02*
X148451Y68508D01*
X148611Y68390D01*
X148773Y68287D01*
X148937Y68201D01*
X149104Y68130D01*
X149272Y68075D01*
X149443Y68035D01*
X149616Y68012D01*
X149791Y68004D01*
Y66823D01*
X149616Y66815D01*
X149443Y66791D01*
X149272Y66752D01*
X149104Y66697D01*
X148937Y66626D01*
X148773Y66539D01*
X148611Y66437D01*
X148451Y66319D01*
X148293Y66185D01*
X148138Y66035D01*
Y68791D01*
X148293Y68642D01*
D02*
G37*
G36*
X221451Y65295D02*
X221430Y65307D01*
X221388Y65316D01*
X221326Y65325D01*
X221143Y65340D01*
X220535Y65354D01*
X220333Y65354D01*
Y67716D01*
X221451Y67776D01*
Y65295D01*
D02*
G37*
G36*
X214358Y67764D02*
X214399Y67754D01*
X214461Y67746D01*
X214645Y67731D01*
X215252Y67717D01*
X215454Y67716D01*
Y65354D01*
X214336Y65295D01*
Y67776D01*
X214358Y67764D01*
D02*
G37*
G36*
X211806Y65295D02*
X211784Y65307D01*
X211742Y65316D01*
X211681Y65325D01*
X211497Y65340D01*
X210889Y65354D01*
X210687Y65354D01*
Y67716D01*
X211806Y67776D01*
Y65295D01*
D02*
G37*
G36*
X192901Y67764D02*
X192943Y67754D01*
X193004Y67746D01*
X193188Y67731D01*
X193796Y67717D01*
X193998Y67716D01*
Y65354D01*
X192879Y65295D01*
Y67776D01*
X192901Y67764D01*
D02*
G37*
G36*
X190349Y65295D02*
X190327Y65307D01*
X190286Y65316D01*
X190224Y65325D01*
X190041Y65340D01*
X189433Y65354D01*
X189231Y65354D01*
Y67716D01*
X190349Y67776D01*
Y65295D01*
D02*
G37*
G36*
X59713Y65445D02*
X59703Y65404D01*
X59694Y65342D01*
X59680Y65158D01*
X59666Y64551D01*
X59665Y64349D01*
X57303D01*
X57244Y65467D01*
X59724D01*
X59713Y65445D01*
D02*
G37*
G36*
X64079Y64712D02*
X64115Y64332D01*
X64146Y64157D01*
X64186Y63990D01*
X64235Y63832D01*
X64293Y63683D01*
X64361Y63544D01*
X64437Y63414D01*
X64522Y63292D01*
X62446D01*
X62531Y63414D01*
X62607Y63544D01*
X62674Y63683D01*
X62732Y63832D01*
X62782Y63990D01*
X62822Y64157D01*
X62853Y64332D01*
X62875Y64518D01*
X62893Y64916D01*
X64074D01*
X64079Y64712D01*
D02*
G37*
G36*
X69079D02*
X69115Y64332D01*
X69146Y64157D01*
X69186Y63990D01*
X69235Y63832D01*
X69294Y63683D01*
X69361Y63544D01*
X69437Y63414D01*
X69522Y63292D01*
X67446D01*
X67531Y63414D01*
X67607Y63544D01*
X67674Y63683D01*
X67732Y63832D01*
X67782Y63990D01*
X67822Y64157D01*
X67853Y64332D01*
X67875Y64518D01*
X67893Y64916D01*
X69074D01*
X69079Y64712D01*
D02*
G37*
G36*
X69709Y78322D02*
X69747Y78265D01*
X69774Y78202D01*
X69787Y78134D01*
Y78100D01*
Y76515D01*
X70141Y76461D01*
X70543Y76428D01*
X70992Y76417D01*
Y74055D01*
X70543Y74044D01*
X70141Y74011D01*
X69787Y73957D01*
Y73738D01*
X69702Y73308D01*
X69534Y72903D01*
X69290Y72539D01*
X69135Y72384D01*
X68799Y72047D01*
X51275D01*
X51208Y72044D01*
X51075Y72018D01*
X50950Y71966D01*
X50838Y71891D01*
X50787Y71845D01*
X50699Y71747D01*
X50552Y71528D01*
X50452Y71285D01*
X50400Y71026D01*
X50394Y70895D01*
Y62992D01*
X50394D01*
X50309Y62908D01*
X50111Y62775D01*
X49891Y62684D01*
X49657Y62638D01*
X39567D01*
Y75577D01*
Y75907D01*
X39696Y76557D01*
X39949Y77168D01*
X40317Y77719D01*
X40551Y77953D01*
X40645Y78046D01*
X40865Y78193D01*
X41110Y78295D01*
X41369Y78347D01*
X69685D01*
X69709Y78322D01*
D02*
G37*
G36*
X123100Y66529D02*
X122651Y66506D01*
X122249Y66435D01*
X121895Y66317D01*
X121588Y66151D01*
X121328Y65939D01*
X121116Y65679D01*
X120950Y65372D01*
X120832Y65018D01*
X120761Y64616D01*
X120744Y64290D01*
X120749Y64085D01*
X120785Y63681D01*
X120844Y63325D01*
X120927Y63016D01*
X121033Y62755D01*
X121163Y62542D01*
X121316Y62375D01*
X121493Y62257D01*
X121694Y62185D01*
X121919Y62162D01*
X117194D01*
X117419Y62185D01*
X117620Y62257D01*
X117797Y62375D01*
X117950Y62542D01*
X118080Y62755D01*
X118186Y63016D01*
X118269Y63325D01*
X118328Y63681D01*
X118364Y64085D01*
X118369Y64290D01*
X118352Y64616D01*
X118281Y65018D01*
X118163Y65372D01*
X117997Y65679D01*
X117785Y65939D01*
X117525Y66151D01*
X117218Y66317D01*
X116864Y66435D01*
X116462Y66506D01*
X116013Y66529D01*
X119556Y68892D01*
X123100Y66529D01*
D02*
G37*
G36*
X102423Y64085D02*
X102458Y63681D01*
X102517Y63325D01*
X102600Y63016D01*
X102707Y62755D01*
X102836Y62542D01*
X102990Y62375D01*
X103167Y62257D01*
X103368Y62185D01*
X103592Y62162D01*
X98868D01*
X99092Y62185D01*
X99293Y62257D01*
X99470Y62375D01*
X99624Y62542D01*
X99754Y62755D01*
X99860Y63016D01*
X99943Y63325D01*
X100002Y63681D01*
X100037Y64085D01*
X100049Y64536D01*
X102411D01*
X102423Y64085D01*
D02*
G37*
G36*
X129355Y63503D02*
X129317Y63444D01*
X129283Y63376D01*
X129254Y63299D01*
X129229Y63214D01*
X129209Y63121D01*
X129193Y63019D01*
X129175Y62789D01*
X129175Y62753D01*
X129179Y62588D01*
X129197Y62385D01*
X129226Y62206D01*
X129268Y62051D01*
X129321Y61920D01*
X129386Y61812D01*
X129463Y61729D01*
X129551Y61669D01*
X129652Y61633D01*
X129764Y61621D01*
X127402D01*
X127514Y61633D01*
X127614Y61669D01*
X127703Y61729D01*
X127779Y61812D01*
X127845Y61920D01*
X127898Y62051D01*
X127939Y62206D01*
X127969Y62385D01*
X127986Y62588D01*
X127990Y62730D01*
X127990Y62744D01*
X127970Y62972D01*
X127953Y63073D01*
X127930Y63166D01*
X127903Y63250D01*
X127871Y63325D01*
X127834Y63392D01*
X127792Y63450D01*
X127745Y63499D01*
X129398Y63555D01*
X129355Y63503D01*
D02*
G37*
G36*
X111038Y63141D02*
X110998Y63082D01*
X110963Y63015D01*
X110932Y62939D01*
X110906Y62854D01*
X110885Y62761D01*
X110868Y62660D01*
X110856Y62549D01*
X110856Y62548D01*
X110871Y62385D01*
X110900Y62206D01*
X110941Y62051D01*
X110995Y61920D01*
X111059Y61812D01*
X111136Y61729D01*
X111225Y61669D01*
X111325Y61633D01*
X111437Y61621D01*
X109075D01*
X109187Y61633D01*
X109288Y61669D01*
X109376Y61729D01*
X109453Y61812D01*
X109518Y61920D01*
X109571Y62051D01*
X109613Y62206D01*
X109642Y62385D01*
X109655Y62532D01*
X109644Y62660D01*
X109628Y62761D01*
X109607Y62854D01*
X109581Y62939D01*
X109550Y63015D01*
X109515Y63082D01*
X109474Y63141D01*
X109430Y63192D01*
X111083D01*
X111038Y63141D01*
D02*
G37*
G36*
X19620Y81731D02*
X19979Y81373D01*
X20173Y80904D01*
Y80650D01*
Y73716D01*
X20189Y73558D01*
X20309Y73266D01*
X20532Y73043D01*
X20824Y72923D01*
X20981Y72907D01*
X32330D01*
X32634Y72781D01*
X32866Y72549D01*
X32992Y72245D01*
Y72080D01*
Y62638D01*
Y62402D01*
X32812Y61966D01*
X32478Y61633D01*
X32043Y61453D01*
X11332D01*
X10968Y61603D01*
X10690Y61882D01*
X10539Y62245D01*
Y62442D01*
Y71381D01*
Y71845D01*
X10895Y72703D01*
X11552Y73360D01*
X12410Y73716D01*
X12874D01*
X13051Y73733D01*
X13377Y73868D01*
X13627Y74118D01*
X13762Y74444D01*
X13779Y74621D01*
Y80945D01*
Y81140D01*
X13929Y81500D01*
X14205Y81776D01*
X14565Y81926D01*
X19151D01*
X19620Y81731D01*
D02*
G37*
G36*
X98348Y57631D02*
X98325Y57836D01*
X98254Y58020D01*
X98136Y58182D01*
X97970Y58323D01*
X97758Y58442D01*
X97498Y58539D01*
X97191Y58615D01*
X96837Y58669D01*
X96435Y58701D01*
X96404Y58702D01*
X96370Y58701D01*
X95968Y58669D01*
X95614Y58614D01*
X95307Y58538D01*
X95047Y58440D01*
X94835Y58320D01*
X94669Y58178D01*
X94551Y58014D01*
X94480Y57829D01*
X94456Y57622D01*
Y62165D01*
X94480Y61958D01*
X94551Y61772D01*
X94669Y61609D01*
X94835Y61467D01*
X95047Y61347D01*
X95307Y61249D01*
X95614Y61173D01*
X95968Y61118D01*
X96370Y61085D01*
X96401Y61085D01*
X96435Y61085D01*
X96837Y61118D01*
X97191Y61173D01*
X97498Y61250D01*
X97758Y61349D01*
X97970Y61470D01*
X98136Y61613D01*
X98254Y61778D01*
X98325Y61965D01*
X98348Y62174D01*
Y57631D01*
D02*
G37*
G36*
X88693Y57622D02*
X88670Y57829D01*
X88599Y58014D01*
X88481Y58178D01*
X88315Y58320D01*
X88103Y58440D01*
X87843Y58538D01*
X87536Y58614D01*
X87181Y58669D01*
X86780Y58701D01*
X86762Y58702D01*
X86724Y58701D01*
X86323Y58667D01*
X85968Y58609D01*
X85661Y58530D01*
X85401Y58427D01*
X85189Y58301D01*
X85023Y58153D01*
X84905Y57982D01*
X84834Y57788D01*
X84811Y57571D01*
Y62114D01*
X84834Y61916D01*
X84905Y61740D01*
X85023Y61584D01*
X85189Y61449D01*
X85401Y61334D01*
X85661Y61241D01*
X85968Y61168D01*
X86323Y61116D01*
X86724Y61085D01*
X86742Y61084D01*
X86780Y61085D01*
X87181Y61118D01*
X87536Y61173D01*
X87843Y61249D01*
X88103Y61347D01*
X88315Y61467D01*
X88481Y61609D01*
X88599Y61772D01*
X88670Y61958D01*
X88693Y62165D01*
Y57622D01*
D02*
G37*
G36*
X230441Y60524D02*
X230432Y60483D01*
X230423Y60421D01*
X230408Y60237D01*
X230394Y59630D01*
X230394Y59427D01*
X228031D01*
X227972Y60546D01*
X230453D01*
X230441Y60524D01*
D02*
G37*
G36*
X74694Y62031D02*
X74765Y61830D01*
X74884Y61653D01*
X75050Y61500D01*
X75264Y61370D01*
X75525Y61263D01*
X75833Y61181D01*
X76190Y61122D01*
X76593Y61086D01*
X76876Y61079D01*
X77134Y61085D01*
X77536Y61116D01*
X77890Y61168D01*
X78197Y61241D01*
X78457Y61334D01*
X78670Y61449D01*
X78835Y61584D01*
X78953Y61740D01*
X79024Y61916D01*
X79047Y62114D01*
Y57571D01*
X79024Y57788D01*
X78953Y57982D01*
X78835Y58153D01*
X78670Y58301D01*
X78457Y58427D01*
X78197Y58530D01*
X77890Y58609D01*
X77536Y58667D01*
X77134Y58701D01*
X76867Y58708D01*
X76593Y58700D01*
X76190Y58665D01*
X75833Y58606D01*
X75525Y58523D01*
X75264Y58417D01*
X75050Y58287D01*
X74884Y58134D01*
X74765Y57956D01*
X74694Y57756D01*
X74670Y57531D01*
Y62256D01*
X74694Y62031D01*
D02*
G37*
G36*
X142719Y58861D02*
X143295Y58420D01*
X143966Y58142D01*
X144685Y58047D01*
X181299D01*
X182019Y58142D01*
X182689Y58420D01*
X183265Y58861D01*
X188159Y63756D01*
X189191D01*
X189226Y63749D01*
X189412Y63748D01*
X189760Y63740D01*
X189927Y63612D01*
X190741Y63275D01*
X191614Y63160D01*
X192488Y63275D01*
X193302Y63612D01*
X193438Y63717D01*
X194082Y63751D01*
X194101Y63756D01*
X210648D01*
X210683Y63749D01*
X210868Y63748D01*
X211217Y63740D01*
X211383Y63612D01*
X212197Y63275D01*
X213071Y63160D01*
X213945Y63275D01*
X214758Y63612D01*
X214895Y63717D01*
X215539Y63751D01*
X215558Y63756D01*
X220293D01*
X220328Y63749D01*
X220514Y63748D01*
X220862Y63740D01*
X221029Y63612D01*
X221843Y63275D01*
X222716Y63160D01*
X223590Y63275D01*
X224404Y63612D01*
X224591Y63756D01*
X225893D01*
X226189Y63256D01*
X225952Y62685D01*
X225837Y61811D01*
X225952Y60937D01*
X226290Y60123D01*
X226394Y59987D01*
X226428Y59343D01*
X226433Y59324D01*
Y58859D01*
X225450Y57995D01*
X225055Y57694D01*
X224719Y57473D01*
X224587Y57401D01*
X224077D01*
X224048Y57408D01*
X224012Y57401D01*
X220610D01*
Y56321D01*
X219571D01*
Y57529D01*
X210634D01*
Y56445D01*
X210182Y56344D01*
X209728Y56448D01*
Y57529D01*
X200791D01*
Y56916D01*
X199725D01*
X199630Y56935D01*
X199536Y56916D01*
X194468D01*
Y50167D01*
X199536D01*
X199630Y50148D01*
X199725Y50167D01*
X200791D01*
Y49812D01*
X202283D01*
X202378Y49793D01*
X202473Y49812D01*
X202502D01*
X202584Y49806D01*
X202601Y49812D01*
X207919D01*
X207936Y49806D01*
X208018Y49812D01*
X208050D01*
X208146Y49793D01*
X208239Y49812D01*
X209728D01*
Y50637D01*
X210182Y50740D01*
X210634Y50637D01*
Y49812D01*
X212126D01*
X212221Y49793D01*
X212315Y49812D01*
X212344D01*
X212426Y49806D01*
X212443Y49812D01*
X217324D01*
X217394Y49281D01*
X217671Y48610D01*
X217871Y48350D01*
Y45646D01*
X217671Y45386D01*
X217394Y44715D01*
X217299Y43996D01*
X217394Y43276D01*
X217671Y42606D01*
X217719Y42544D01*
X217470Y42047D01*
X210571D01*
Y40968D01*
X209665D01*
Y42047D01*
X202520D01*
X202491Y42056D01*
X202402Y42049D01*
X202315Y42066D01*
X202220Y42047D01*
X200728D01*
Y41523D01*
X199725D01*
X199630Y41542D01*
X199536Y41523D01*
X194468D01*
Y34774D01*
X199536D01*
X199630Y34755D01*
X199725Y34774D01*
X200728D01*
Y34330D01*
X202220D01*
X202315Y34312D01*
X202409Y34330D01*
X202504Y34323D01*
X202528Y34330D01*
X209665D01*
Y35409D01*
X210571D01*
Y34330D01*
X217713D01*
X217739Y34322D01*
X217831Y34330D01*
X217921Y34312D01*
X218016Y34330D01*
X219508D01*
Y35351D01*
X219620Y35368D01*
X219919Y35393D01*
X220059Y35396D01*
X220199Y35393D01*
X220498Y35368D01*
X220610Y35351D01*
Y34330D01*
Y27323D01*
X229547D01*
Y31090D01*
X232590D01*
X233435Y31258D01*
X234151Y31737D01*
X235892Y33477D01*
X236370Y34194D01*
X236454Y34614D01*
X236946D01*
Y21782D01*
X235030Y19866D01*
X231951D01*
X231916Y19873D01*
X231730Y19874D01*
X231382Y19882D01*
X231215Y20009D01*
X230401Y20347D01*
X229528Y20462D01*
X228654Y20347D01*
X227840Y20009D01*
X227141Y19473D01*
X226604Y18774D01*
X226267Y17960D01*
X226152Y17086D01*
X226267Y16213D01*
X226604Y15399D01*
X227141Y14700D01*
X227840Y14163D01*
X228654Y13826D01*
X229528Y13711D01*
X230401Y13826D01*
X231215Y14163D01*
X231351Y14268D01*
X231996Y14302D01*
X232015Y14307D01*
X235421D01*
X235613Y13845D01*
X223775Y2007D01*
X205787D01*
Y8622D01*
X194764D01*
Y7326D01*
X189720D01*
X189461Y7525D01*
X188790Y7803D01*
X188071Y7898D01*
X187351Y7803D01*
X186681Y7525D01*
X186105Y7084D01*
X185663Y6508D01*
X185386Y5838D01*
X185291Y5118D01*
X185386Y4399D01*
X185663Y3728D01*
X186105Y3153D01*
X186681Y2711D01*
X187173Y2507D01*
X187073Y2007D01*
X177988D01*
X177819Y2507D01*
X178147Y2759D01*
X183344Y7956D01*
X183785Y8531D01*
X184063Y9202D01*
X184158Y9921D01*
Y14596D01*
X184839Y15278D01*
X184963Y15275D01*
X185262Y15250D01*
X185374Y15233D01*
Y14212D01*
X186866D01*
X186961Y14194D01*
X187051Y14211D01*
X187143Y14204D01*
X187169Y14212D01*
X192516D01*
X192542Y14204D01*
X192634Y14211D01*
X192724Y14194D01*
X192819Y14212D01*
X194287D01*
X194637Y13848D01*
X194443Y13595D01*
X194165Y12924D01*
X194071Y12205D01*
X194165Y11485D01*
X194443Y10815D01*
X194885Y10239D01*
X195460Y9798D01*
X196131Y9520D01*
X196850Y9425D01*
X197570Y9520D01*
X198240Y9798D01*
X198500Y9997D01*
X213701D01*
X214546Y10165D01*
X215262Y10644D01*
X218926Y14307D01*
X218954Y14332D01*
X219042Y14398D01*
X219117Y14447D01*
X219177Y14481D01*
X219223Y14502D01*
X219254Y14513D01*
X219272Y14517D01*
X219279Y14518D01*
X219363Y14523D01*
X219382Y14527D01*
X225079D01*
Y21614D01*
X214055D01*
Y15681D01*
X212786Y14412D01*
X206240D01*
X205787Y14527D01*
Y21614D01*
X196445D01*
X196350Y21633D01*
X196256Y21614D01*
X194764D01*
Y21614D01*
X194311Y21729D01*
Y21929D01*
X192819D01*
X192724Y21948D01*
X192637Y22436D01*
X192629Y22746D01*
X192622Y22775D01*
Y30228D01*
X192629Y30256D01*
X192639Y30658D01*
X192665Y30951D01*
X192685Y31074D01*
X193917D01*
Y37823D01*
X192685D01*
X192665Y37946D01*
X192639Y38239D01*
X192629Y38641D01*
X192622Y38670D01*
Y45621D01*
X192629Y45649D01*
X192639Y46051D01*
X192665Y46344D01*
X192685Y46467D01*
X193917D01*
Y53216D01*
X185768D01*
Y46467D01*
X187000D01*
X187020Y46344D01*
X187046Y46051D01*
X187056Y45649D01*
X187063Y45621D01*
Y38670D01*
X187056Y38641D01*
X187046Y38239D01*
X187020Y37946D01*
X187000Y37823D01*
X185768D01*
Y31074D01*
X187000D01*
X187020Y30951D01*
X187046Y30658D01*
X187056Y30256D01*
X187063Y30228D01*
Y22775D01*
X187056Y22746D01*
X187048Y22436D01*
X186961Y21948D01*
X186866Y21929D01*
X185374D01*
Y20908D01*
X185262Y20891D01*
X184963Y20867D01*
X184560Y20857D01*
X184530Y20850D01*
X183701D01*
X182981Y20756D01*
X182311Y20478D01*
X181735Y20036D01*
X179412Y17713D01*
X178971Y17138D01*
X178693Y16467D01*
X178598Y15748D01*
Y11073D01*
X175030Y7504D01*
X166662D01*
X166302Y8004D01*
X166362Y8464D01*
X166268Y9184D01*
X165990Y9854D01*
X165548Y10430D01*
X164972Y10872D01*
X164302Y11149D01*
X163583Y11244D01*
X162863Y11149D01*
X162193Y10872D01*
X161933Y10672D01*
X118780D01*
X118644Y11153D01*
X118750Y11218D01*
X119999Y12285D01*
X121065Y13533D01*
X121923Y14934D01*
X122552Y16451D01*
X122935Y18048D01*
X123064Y19685D01*
X122935Y21322D01*
X122552Y22919D01*
X121923Y24436D01*
X121065Y25836D01*
X119999Y27085D01*
X118750Y28152D01*
X117350Y29010D01*
X115832Y29638D01*
X114236Y30021D01*
X112598Y30150D01*
X110961Y30021D01*
X109364Y29638D01*
X107847Y29010D01*
X106447Y28152D01*
X105198Y27085D01*
X104132Y25836D01*
X103274Y24436D01*
X102645Y22919D01*
X102262Y21322D01*
X102133Y19685D01*
X102262Y18048D01*
X102645Y16451D01*
X103274Y14934D01*
X104132Y13533D01*
X105198Y12285D01*
X106447Y11218D01*
X106553Y11153D01*
X106417Y10672D01*
X103457D01*
X94851Y19277D01*
X94135Y19756D01*
X93290Y19924D01*
X75178D01*
X74942Y20424D01*
X75180Y21000D01*
X75282Y21771D01*
X75180Y22542D01*
X74883Y23260D01*
X74409Y23877D01*
X73792Y24350D01*
X73130Y24625D01*
Y29724D01*
X64443D01*
X64252Y30224D01*
X65045Y31017D01*
X65524Y31733D01*
X65692Y32578D01*
Y33092D01*
X65694Y33136D01*
X65703Y33217D01*
X65718Y33301D01*
X65735Y33369D01*
X65751Y33422D01*
X65767Y33462D01*
X65780Y33489D01*
X65790Y33506D01*
X65836Y33572D01*
X65866Y33639D01*
X65908Y33694D01*
X65951Y33799D01*
X66005Y33880D01*
X66024Y33974D01*
X66187Y34369D01*
X66283Y35093D01*
Y40693D01*
X66187Y41418D01*
X66037Y41780D01*
X66371Y42280D01*
X70597D01*
X70931Y41780D01*
X70780Y41418D01*
X70685Y40693D01*
Y35093D01*
X70780Y34369D01*
X71060Y33694D01*
X71505Y33114D01*
X72084Y32669D01*
X72759Y32390D01*
X73484Y32294D01*
X74208Y32390D01*
X74883Y32669D01*
X75463Y33114D01*
X75908Y33694D01*
X76187Y34369D01*
X76283Y35093D01*
Y39174D01*
X76745Y39365D01*
X77907Y38203D01*
X78623Y37724D01*
X79468Y37556D01*
X92323D01*
X93168Y37724D01*
X93884Y38203D01*
X97414Y41732D01*
X101378D01*
Y48819D01*
X101788Y49036D01*
X105699D01*
Y49036D01*
X106182Y48995D01*
Y47571D01*
X114331D01*
Y54720D01*
X109172D01*
X108852Y54934D01*
X108008Y55102D01*
X105699D01*
Y56029D01*
X106182Y56071D01*
X106182Y56071D01*
X106182Y56071D01*
X114331D01*
Y63220D01*
X113419D01*
X112995Y63720D01*
X113036Y64035D01*
X112984Y64431D01*
X113373Y64931D01*
X115910D01*
X115929Y64926D01*
X116280Y64908D01*
X116468Y64874D01*
X116579Y64837D01*
X116628Y64811D01*
X116644Y64798D01*
X116657Y64782D01*
X116683Y64733D01*
X116720Y64622D01*
X116753Y64434D01*
X116762Y64268D01*
X116760Y64176D01*
X116734Y63883D01*
X116714Y63760D01*
X115088D01*
Y56044D01*
Y49036D01*
X124025D01*
Y49036D01*
X124508Y48995D01*
Y48005D01*
X124244Y47803D01*
X123676Y47063D01*
X123319Y46201D01*
X123197Y45276D01*
X123319Y44351D01*
X123676Y43489D01*
X124244Y42748D01*
X124984Y42180D01*
X125846Y41824D01*
X126771Y41702D01*
X127650Y41817D01*
X128150Y41732D01*
Y41732D01*
X129485D01*
Y38067D01*
X129286Y37807D01*
X129008Y37137D01*
X128913Y36417D01*
X129008Y35698D01*
X129286Y35028D01*
X129727Y34452D01*
X130303Y34010D01*
X130973Y33732D01*
X131693Y33638D01*
X132412Y33732D01*
X133083Y34010D01*
X133658Y34452D01*
X134100Y35028D01*
X134378Y35698D01*
X134473Y36417D01*
X134378Y37137D01*
X134100Y37807D01*
X133901Y38067D01*
Y41732D01*
X135236D01*
Y48819D01*
X132658D01*
Y54720D01*
X127499D01*
X127179Y54934D01*
X126334Y55102D01*
X124025D01*
Y56029D01*
X124508Y56071D01*
X124508Y56071D01*
X124508Y56071D01*
X132658D01*
Y63220D01*
X131500D01*
X131311Y63503D01*
X131237Y63720D01*
X131323Y64370D01*
X131299Y64555D01*
X131628Y64931D01*
X136650D01*
X142719Y58861D01*
D02*
G37*
G36*
X229631Y56425D02*
X229134Y55912D01*
X228361Y55006D01*
X228083Y54612D01*
X227878Y54258D01*
X227747Y53944D01*
X227688Y53669D01*
X227702Y53434D01*
X227789Y53240D01*
X227948Y53084D01*
X224009Y55803D01*
X224228Y55706D01*
X224490Y55687D01*
X224798Y55745D01*
X225149Y55880D01*
X225544Y56093D01*
X225984Y56384D01*
X226468Y56752D01*
X227569Y57720D01*
X228185Y58320D01*
X229631Y56425D01*
D02*
G37*
G36*
X31247Y57982D02*
X31719Y57576D01*
X31921Y57432D01*
X32099Y57327D01*
X32255Y57262D01*
X32387Y57237D01*
X32497Y57251D01*
X32583Y57304D01*
X32647Y57397D01*
X31599Y55128D01*
X31637Y55247D01*
X31648Y55375D01*
X31632Y55515D01*
X31588Y55666D01*
X31517Y55827D01*
X31419Y56000D01*
X31293Y56183D01*
X31140Y56378D01*
X30959Y56583D01*
X30751Y56799D01*
X30977Y58244D01*
X31247Y57982D01*
D02*
G37*
G36*
X202378Y51399D02*
X202355Y51582D01*
X202284Y51745D01*
X202166Y51889D01*
X202000Y52014D01*
X201788Y52120D01*
X201528Y52207D01*
X201221Y52274D01*
X200982Y52306D01*
X200481Y52263D01*
X200221Y52209D01*
X200009Y52142D01*
X199843Y52063D01*
X199725Y51972D01*
X199654Y51869D01*
X199630Y51753D01*
Y55330D01*
X199654Y55214D01*
X199725Y55111D01*
X199843Y55020D01*
X200009Y54941D01*
X200221Y54874D01*
X200481Y54820D01*
X200788Y54777D01*
X200876Y54772D01*
X201221Y54829D01*
X201528Y54912D01*
X201788Y55018D01*
X202000Y55148D01*
X202166Y55301D01*
X202284Y55479D01*
X202355Y55679D01*
X202378Y55904D01*
Y51399D01*
D02*
G37*
G36*
X212221D02*
X212197Y51582D01*
X212126Y51745D01*
X212008Y51889D01*
X211843Y52014D01*
X211630Y52120D01*
X211370Y52207D01*
X211063Y52274D01*
X210709Y52322D01*
X210307Y52351D01*
X210181Y52354D01*
X210055Y52351D01*
X209299Y52274D01*
X208992Y52207D01*
X208732Y52120D01*
X208520Y52014D01*
X208354Y51889D01*
X208236Y51745D01*
X208165Y51582D01*
X208142Y51399D01*
X208130Y55904D01*
X208154Y55679D01*
X208225Y55479D01*
X208345Y55301D01*
X208511Y55148D01*
X208725Y55018D01*
X208986Y54912D01*
X209294Y54829D01*
X209650Y54770D01*
X210053Y54734D01*
X210180Y54731D01*
X210307Y54734D01*
X210709Y54770D01*
X211063Y54829D01*
X211370Y54912D01*
X211630Y55018D01*
X211843Y55148D01*
X212008Y55301D01*
X212126Y55479D01*
X212197Y55679D01*
X212221Y55904D01*
Y51399D01*
D02*
G37*
G36*
X43137Y55596D02*
X43173Y55496D01*
X43233Y55407D01*
X43316Y55330D01*
X43424Y55265D01*
X43555Y55212D01*
X43710Y55171D01*
X43889Y55142D01*
X44092Y55124D01*
X44319Y55118D01*
Y53937D01*
X44092Y53931D01*
X43889Y53913D01*
X43710Y53884D01*
X43555Y53842D01*
X43424Y53789D01*
X43316Y53724D01*
X43233Y53647D01*
X43173Y53559D01*
X43137Y53458D01*
X43126Y53346D01*
Y55708D01*
X43137Y55596D01*
D02*
G37*
G36*
X126095Y53133D02*
X126107Y51713D01*
X126094Y51825D01*
X126057Y51926D01*
X125997Y52014D01*
X125913Y52091D01*
X125806Y52156D01*
X125675Y52209D01*
X125520Y52251D01*
X125341Y52280D01*
X125139Y52298D01*
X124914Y52304D01*
Y53485D01*
X126095Y53133D01*
D02*
G37*
G36*
X122438Y53963D02*
X122474Y53863D01*
X122534Y53774D01*
X122617Y53697D01*
X122724Y53632D01*
X122856Y53579D01*
X123011Y53538D01*
X123190Y53509D01*
X123393Y53491D01*
X123619Y53485D01*
Y52304D01*
X123393Y52298D01*
X123190Y52280D01*
X123011Y52251D01*
X122856Y52209D01*
X122724Y52156D01*
X122617Y52091D01*
X122534Y52014D01*
X122474Y51926D01*
X122438Y51825D01*
X122426Y51713D01*
Y54075D01*
X122438Y53963D01*
D02*
G37*
G36*
X107768Y53133D02*
X107780Y51713D01*
X107767Y51825D01*
X107731Y51926D01*
X107671Y52014D01*
X107587Y52091D01*
X107480Y52156D01*
X107348Y52209D01*
X107194Y52251D01*
X107015Y52280D01*
X106813Y52298D01*
X106587Y52304D01*
Y53485D01*
X107768Y53133D01*
D02*
G37*
G36*
X104112Y53963D02*
X104148Y53863D01*
X104207Y53774D01*
X104291Y53697D01*
X104398Y53632D01*
X104529Y53579D01*
X104684Y53538D01*
X104863Y53509D01*
X105066Y53491D01*
X105293Y53485D01*
Y52304D01*
X105066Y52298D01*
X104863Y52280D01*
X104684Y52251D01*
X104529Y52209D01*
X104398Y52156D01*
X104291Y52091D01*
X104207Y52014D01*
X104148Y51926D01*
X104112Y51825D01*
X104100Y51713D01*
Y54075D01*
X104112Y53963D01*
D02*
G37*
G36*
X41935Y51634D02*
X41835Y51598D01*
X41746Y51539D01*
X41669Y51457D01*
X41604Y51350D01*
X41551Y51220D01*
X41510Y51067D01*
X41480Y50890D01*
X41462Y50689D01*
X41457Y50464D01*
X40275D01*
X40270Y50689D01*
X40252Y50890D01*
X40222Y51067D01*
X40181Y51220D01*
X40128Y51350D01*
X40063Y51457D01*
X39986Y51539D01*
X39898Y51598D01*
X39797Y51634D01*
X39685Y51646D01*
X42047D01*
X41935Y51634D01*
D02*
G37*
G36*
X-17149Y72221D02*
X-17003Y72161D01*
X-16871Y72073D01*
X-16684Y71996D01*
X-16529Y71965D01*
X-16383Y71904D01*
X-16185Y71865D01*
X-16027D01*
X-15872Y71834D01*
X-3102D01*
Y50582D01*
X-14445D01*
X-14600Y50551D01*
X-14758Y50551D01*
X-15459Y50412D01*
X-15605Y50351D01*
X-15760Y50320D01*
X-16421Y50047D01*
X-16552Y49959D01*
X-16698Y49898D01*
X-17178Y49578D01*
X-17538Y49707D01*
X-17678Y49823D01*
Y71988D01*
X-17580Y72082D01*
X-17178Y72241D01*
X-17149Y72221D01*
D02*
G37*
G36*
X77045Y57097D02*
X77339Y57072D01*
X77461Y57052D01*
Y55984D01*
X78953D01*
X79047Y55965D01*
X79134Y55982D01*
X79221Y55975D01*
X79251Y55984D01*
X84607D01*
X84637Y55975D01*
X84725Y55982D01*
X84811Y55965D01*
X84906Y55984D01*
X86398D01*
Y56620D01*
X86734Y56817D01*
X87106Y56598D01*
Y56035D01*
X88598D01*
X88693Y56016D01*
X88783Y56034D01*
X88875Y56027D01*
X88902Y56035D01*
X94248D01*
X94275Y56027D01*
X94366Y56034D01*
X94456Y56016D01*
X94551Y56035D01*
X96043D01*
Y56633D01*
X96400Y56842D01*
X96762Y56629D01*
Y49036D01*
X96351Y48819D01*
X94291D01*
X94291Y48819D01*
X93791Y48734D01*
X92913Y48849D01*
X91988Y48728D01*
X91126Y48371D01*
X90386Y47803D01*
X89818Y47063D01*
X89461Y46201D01*
X89339Y45276D01*
X89391Y44877D01*
X89045Y44531D01*
X85638D01*
X85488Y44756D01*
X85373Y45031D01*
X85457Y45669D01*
X85362Y46389D01*
X85084Y47059D01*
X84643Y47635D01*
X84067Y48077D01*
X83397Y48354D01*
X82677Y48449D01*
X81958Y48354D01*
X81696Y48246D01*
X78972Y50971D01*
X78255Y51449D01*
X77411Y51617D01*
X74426D01*
X74235Y52079D01*
X75442Y53286D01*
X75884Y53862D01*
X76162Y54533D01*
X76256Y55252D01*
Y56894D01*
X76277Y57052D01*
X76392Y57071D01*
X76685Y57097D01*
X76868Y57101D01*
X77045Y57097D01*
D02*
G37*
G36*
X236946Y50110D02*
X230256D01*
Y48743D01*
X229547D01*
Y53071D01*
X229554Y53107D01*
X229547Y53138D01*
Y53902D01*
X229630Y54019D01*
X230323Y54831D01*
X230785Y55308D01*
X230802Y55335D01*
X231178Y55711D01*
X231620Y56287D01*
X231898Y56958D01*
X231992Y57677D01*
Y59388D01*
X231999Y59423D01*
X232000Y59609D01*
X232008Y59957D01*
X232136Y60123D01*
X232473Y60937D01*
X232517Y61270D01*
X232677Y61393D01*
X236946D01*
Y50110D01*
D02*
G37*
G36*
X41462Y48523D02*
X41480Y48322D01*
X41510Y48145D01*
X41551Y47992D01*
X41604Y47862D01*
X41669Y47756D01*
X41746Y47673D01*
X41835Y47614D01*
X41935Y47578D01*
X42047Y47567D01*
X39685D01*
X39797Y47578D01*
X39898Y47614D01*
X39986Y47673D01*
X40063Y47756D01*
X40128Y47862D01*
X40181Y47992D01*
X40222Y48145D01*
X40252Y48322D01*
X40270Y48523D01*
X40275Y48748D01*
X41457D01*
X41462Y48523D01*
D02*
G37*
G36*
X191980Y48042D02*
X191779Y47971D01*
X191602Y47852D01*
X191449Y47686D01*
X191319Y47472D01*
X191213Y47211D01*
X191130Y46902D01*
X191071Y46546D01*
X191035Y46142D01*
X191024Y45691D01*
X188661D01*
X188650Y46142D01*
X188614Y46546D01*
X188555Y46902D01*
X188472Y47211D01*
X188366Y47472D01*
X188236Y47686D01*
X188083Y47852D01*
X187906Y47971D01*
X187705Y48042D01*
X187480Y48066D01*
X192205D01*
X191980Y48042D01*
D02*
G37*
G36*
X231855Y45354D02*
X231843Y45466D01*
X231807Y45567D01*
X231747Y45655D01*
X231664Y45732D01*
X231556Y45797D01*
X231425Y45850D01*
X231270Y45891D01*
X231091Y45921D01*
X230888Y45939D01*
X230662Y45945D01*
Y47126D01*
X230888Y47132D01*
X231091Y47149D01*
X231270Y47179D01*
X231425Y47220D01*
X231556Y47273D01*
X231664Y47338D01*
X231747Y47415D01*
X231807Y47504D01*
X231843Y47604D01*
X231855Y47716D01*
Y45354D01*
D02*
G37*
G36*
X227960Y47604D02*
X227996Y47504D01*
X228056Y47415D01*
X228139Y47338D01*
X228247Y47273D01*
X228378Y47220D01*
X228533Y47179D01*
X228712Y47149D01*
X228915Y47132D01*
X229141Y47126D01*
Y45945D01*
X228915Y45939D01*
X228712Y45921D01*
X228533Y45891D01*
X228378Y45850D01*
X228247Y45797D01*
X228139Y45732D01*
X228056Y45655D01*
X227996Y45567D01*
X227960Y45466D01*
X227948Y45354D01*
Y47716D01*
X227960Y47604D01*
D02*
G37*
G36*
X15069Y47005D02*
X14641Y46568D01*
X14546Y46457D01*
X14403Y46240D01*
X14277Y45990D01*
X14169Y45709D01*
X14078Y45395D01*
X14005Y45049D01*
X13949Y44671D01*
X13911Y44261D01*
X13886Y43344D01*
X12870Y44359D01*
X12739Y44119D01*
X12610Y43821D01*
X12533Y43551D01*
X12508Y43310D01*
X10538Y45279D01*
X10779Y45305D01*
X11049Y45382D01*
X11347Y45510D01*
X11588Y45642D01*
X10573Y46657D01*
X11047Y46661D01*
X11900Y46720D01*
X12278Y46776D01*
X12624Y46850D01*
X12937Y46940D01*
X13219Y47049D01*
X13468Y47174D01*
X13682Y47315D01*
X14233Y47840D01*
X15069Y47005D01*
D02*
G37*
G36*
X132762Y43307D02*
X132661Y43272D01*
X132573Y43213D01*
X132496Y43130D01*
X132431Y43024D01*
X132378Y42894D01*
X132337Y42740D01*
X132307Y42563D01*
X132289Y42362D01*
X132283Y42138D01*
X131102D01*
X131096Y42362D01*
X131079Y42563D01*
X131049Y42740D01*
X131008Y42894D01*
X130955Y43024D01*
X130890Y43130D01*
X130813Y43213D01*
X130724Y43272D01*
X130624Y43307D01*
X130512Y43319D01*
X132874D01*
X132762Y43307D01*
D02*
G37*
G36*
X8583Y89724D02*
X8842Y89338D01*
X8890Y89222D01*
X8937Y88988D01*
Y82953D01*
X8937D01*
X8853Y82868D01*
X8655Y82736D01*
X8434Y82645D01*
X8201Y82598D01*
X3347D01*
Y76503D01*
X3364Y76148D01*
X3503Y75450D01*
X3775Y74792D01*
X4170Y74201D01*
X4409Y73937D01*
X4559Y73787D01*
X4795Y73435D01*
X4957Y73044D01*
X5039Y72628D01*
Y72416D01*
Y42244D01*
X4665Y41870D01*
X3784Y41281D01*
X2806Y40876D01*
X1767Y40669D01*
X-15163D01*
X-15786Y40793D01*
X-16373Y41036D01*
X-16901Y41390D01*
X-17126Y41614D01*
X-17126Y46932D01*
X-17064Y47243D01*
X-16942Y47537D01*
X-16766Y47801D01*
X-16654Y47913D01*
X-16401Y48166D01*
X-15806Y48563D01*
X-15146Y48837D01*
X-14445Y48976D01*
X-2388D01*
X-2335Y48979D01*
X-2232Y49000D01*
X-2135Y49040D01*
X-2047Y49098D01*
X-2008Y49134D01*
X-1893Y49261D01*
X-1702Y49546D01*
X-1571Y49862D01*
X-1505Y50198D01*
X-1496Y50370D01*
Y73440D01*
X-15872D01*
X-16070Y73479D01*
X-16257Y73557D01*
X-16425Y73669D01*
X-16496Y73740D01*
X-16665Y73909D01*
X-16929Y74305D01*
X-17112Y74745D01*
X-17205Y75213D01*
Y85632D01*
X-17143Y85944D01*
X-17021Y86238D01*
X-16845Y86502D01*
X-16732Y86614D01*
X-16582Y86764D01*
X-16230Y86999D01*
X-15839Y87161D01*
X-15423Y87244D01*
X1924D01*
X2055Y87251D01*
X2314Y87302D01*
X2557Y87403D01*
X2776Y87549D01*
X2874Y87638D01*
Y88676D01*
X2915Y88884D01*
X2996Y89080D01*
X3114Y89256D01*
X3189Y89331D01*
X3283Y89424D01*
X3503Y89571D01*
X3747Y89673D01*
X4007Y89724D01*
X8093D01*
X8583Y89724D01*
D02*
G37*
G36*
X29847Y55416D02*
X29906Y55350D01*
X29999Y55231D01*
X30000Y55230D01*
Y55216D01*
X29994Y55193D01*
X30000Y55158D01*
Y55018D01*
X29998Y55002D01*
X30000Y54996D01*
Y50059D01*
X38658D01*
Y49153D01*
X37008D01*
Y40216D01*
X44724D01*
Y45339D01*
X45100Y45669D01*
X45276Y45645D01*
X45708Y45198D01*
X45740Y44950D01*
X46018Y44280D01*
X46460Y43704D01*
X47035Y43262D01*
X47706Y42984D01*
X48425Y42890D01*
X49145Y42984D01*
X49301Y43049D01*
X49423Y42927D01*
X50139Y42448D01*
X50984Y42280D01*
X55597D01*
X55931Y41780D01*
X55781Y41418D01*
X55685Y40693D01*
Y35424D01*
X55610Y35358D01*
X54891Y35263D01*
X54220Y34986D01*
X53644Y34544D01*
X53203Y33968D01*
X52925Y33298D01*
X52846Y32697D01*
X52387Y32449D01*
X51867Y32969D01*
X51291Y33411D01*
X50621Y33689D01*
X49901Y33783D01*
X42815D01*
X42095Y33689D01*
X41425Y33411D01*
X40849Y32969D01*
X38769Y30889D01*
X38307Y31080D01*
Y31201D01*
X36815D01*
X36720Y31219D01*
X36630Y31201D01*
X36538Y31209D01*
X36512Y31201D01*
X29370D01*
Y30916D01*
X26870D01*
Y33268D01*
X16831D01*
Y30916D01*
X14559D01*
X14205Y31267D01*
Y36735D01*
X14223Y36830D01*
X14223Y36834D01*
X14223Y36838D01*
X14212Y39118D01*
X14232Y39579D01*
X14276Y40001D01*
X14295Y40110D01*
X14299Y40127D01*
X14838Y40829D01*
X15334Y42026D01*
X15503Y43311D01*
X15493Y43387D01*
X15514Y44164D01*
X15544Y44478D01*
X15586Y44765D01*
X15637Y45005D01*
X15692Y45197D01*
X15747Y45340D01*
X15795Y45435D01*
X15813Y45462D01*
X16369Y46018D01*
X16831Y45827D01*
Y39567D01*
X26870D01*
Y51378D01*
X25226D01*
Y52262D01*
X25289Y52345D01*
X25686Y53303D01*
X25821Y54330D01*
X25686Y55358D01*
X25289Y56316D01*
X25229Y56394D01*
X25451Y56842D01*
X28421D01*
X29847Y55416D01*
D02*
G37*
G36*
X202315Y35917D02*
X202291Y36117D01*
X202221Y36295D01*
X202102Y36453D01*
X201937Y36590D01*
X201725Y36705D01*
X201465Y36799D01*
X201158Y36873D01*
X200921Y36908D01*
X200481Y36870D01*
X200221Y36816D01*
X200009Y36749D01*
X199843Y36670D01*
X199725Y36579D01*
X199654Y36476D01*
X199630Y36361D01*
Y39937D01*
X199654Y39821D01*
X199725Y39718D01*
X199843Y39627D01*
X200009Y39548D01*
X200221Y39481D01*
X200481Y39427D01*
X200788Y39384D01*
X200841Y39381D01*
X201158Y39432D01*
X201465Y39511D01*
X201725Y39612D01*
X201937Y39737D01*
X202102Y39884D01*
X202221Y40053D01*
X202291Y40245D01*
X202315Y40460D01*
Y35917D01*
D02*
G37*
G36*
X222197D02*
X222173Y36125D01*
X222103Y36310D01*
X221984Y36473D01*
X221819Y36615D01*
X221606Y36735D01*
X221347Y36833D01*
X221040Y36910D01*
X220685Y36964D01*
X220284Y36997D01*
X220059Y37002D01*
X219834Y36997D01*
X219433Y36964D01*
X219078Y36910D01*
X218772Y36833D01*
X218512Y36735D01*
X218299Y36615D01*
X218134Y36473D01*
X218016Y36310D01*
X217945Y36125D01*
X217921Y35917D01*
Y40460D01*
X217945Y40253D01*
X218016Y40068D01*
X218134Y39904D01*
X218299Y39762D01*
X218512Y39643D01*
X218772Y39544D01*
X219078Y39468D01*
X219433Y39413D01*
X219834Y39381D01*
X220059Y39375D01*
X220284Y39381D01*
X220685Y39413D01*
X221040Y39468D01*
X221347Y39544D01*
X221606Y39643D01*
X221819Y39762D01*
X221984Y39904D01*
X222103Y40068D01*
X222173Y40253D01*
X222197Y40460D01*
Y35917D01*
D02*
G37*
G36*
X132286Y38022D02*
X132305Y37793D01*
X132321Y37692D01*
X132343Y37599D01*
X132369Y37514D01*
X132399Y37438D01*
X132435Y37370D01*
X132475Y37311D01*
X132520Y37261D01*
X130866D01*
X130911Y37311D01*
X130951Y37370D01*
X130987Y37438D01*
X131017Y37514D01*
X131043Y37599D01*
X131065Y37692D01*
X131081Y37793D01*
X131093Y37903D01*
X131102Y38149D01*
X132283D01*
X132286Y38022D01*
D02*
G37*
G36*
X12880Y40897D02*
X12821Y40777D01*
X12768Y40625D01*
X12723Y40441D01*
X12685Y40225D01*
X12630Y39697D01*
X12606Y39148D01*
X12618Y36830D01*
X8642D01*
X8646Y36870D01*
X8649Y36988D01*
X8655Y38940D01*
X8597Y39843D01*
X8562Y40092D01*
X8518Y40308D01*
X8466Y40494D01*
X8406Y40647D01*
X8338Y40768D01*
X8262Y40858D01*
X12946Y40985D01*
X12880Y40897D01*
D02*
G37*
G36*
X191035Y38148D02*
X191071Y37744D01*
X191130Y37388D01*
X191213Y37079D01*
X191319Y36818D01*
X191449Y36604D01*
X191602Y36438D01*
X191779Y36320D01*
X191980Y36248D01*
X192205Y36225D01*
X187480D01*
X187705Y36248D01*
X187906Y36320D01*
X188083Y36438D01*
X188236Y36604D01*
X188366Y36818D01*
X188472Y37079D01*
X188555Y37388D01*
X188614Y37744D01*
X188650Y38148D01*
X188661Y38599D01*
X191024D01*
X191035Y38148D01*
D02*
G37*
G36*
X235384Y36201D02*
X235287Y36166D01*
X235202Y36107D01*
X235127Y36025D01*
X235064Y35919D01*
X235013Y35790D01*
X234973Y35637D01*
X234944Y35461D01*
X234927Y35262D01*
X234921Y35038D01*
X233740D01*
X233734Y35262D01*
X233717Y35461D01*
X233689Y35637D01*
X233649Y35790D01*
X233597Y35919D01*
X233534Y36025D01*
X233460Y36107D01*
X233374Y36166D01*
X233277Y36201D01*
X233168Y36213D01*
X235493D01*
X235384Y36201D01*
D02*
G37*
G36*
X-9010Y38710D02*
X-8934Y38683D01*
X-8829Y38660D01*
X-8694Y38639D01*
X-8335Y38608D01*
X-7573Y38584D01*
X-7259Y38583D01*
Y35039D01*
X-7573Y35038D01*
X-8829Y34962D01*
X-8934Y34938D01*
X-9010Y34912D01*
X-9056Y34882D01*
Y38740D01*
X-9010Y38710D01*
D02*
G37*
G36*
X59437Y34373D02*
X59361Y34243D01*
X59294Y34103D01*
X59235Y33955D01*
X59186Y33797D01*
X59146Y33630D01*
X59120Y33483D01*
X59150Y33327D01*
X59208Y33114D01*
X59283Y32909D01*
X59375Y32711D01*
X59484Y32520D01*
X59609Y32336D01*
X59751Y32158D01*
X59910Y31988D01*
X59074Y31153D01*
X58904Y31311D01*
X58727Y31453D01*
X58542Y31578D01*
X58351Y31687D01*
X58153Y31779D01*
X57948Y31854D01*
X57736Y31913D01*
X57517Y31954D01*
X57291Y31979D01*
X57187Y31983D01*
X56986Y31967D01*
X56884Y31950D01*
X56791Y31929D01*
X56707Y31903D01*
X56631Y31872D01*
X56563Y31837D01*
X56504Y31796D01*
X56453Y31751D01*
Y33405D01*
X56504Y33360D01*
X56563Y33320D01*
X56631Y33285D01*
X56707Y33254D01*
X56791Y33228D01*
X56884Y33207D01*
X56986Y33190D01*
X56989Y33190D01*
X57137Y33216D01*
X57315Y33275D01*
X57468Y33358D01*
X57598Y33464D01*
X57704Y33594D01*
X57787Y33748D01*
X57791Y33759D01*
X57782Y33797D01*
X57732Y33955D01*
X57674Y34103D01*
X57607Y34243D01*
X57531Y34373D01*
X57446Y34494D01*
X59522D01*
X59437Y34373D01*
D02*
G37*
G36*
X64437Y34373D02*
X64361Y34243D01*
X64293Y34103D01*
X64235Y33955D01*
X64186Y33797D01*
X64146Y33630D01*
X64115Y33454D01*
X64092Y33269D01*
X64074Y32871D01*
X62893D01*
X62889Y33074D01*
X62853Y33454D01*
X62822Y33630D01*
X62782Y33797D01*
X62732Y33955D01*
X62674Y34103D01*
X62607Y34243D01*
X62531Y34373D01*
X62446Y34494D01*
X64522D01*
X64437Y34373D01*
D02*
G37*
G36*
X229141Y32707D02*
X228916Y32701D01*
X228714Y32684D01*
X228535Y32654D01*
X228380Y32613D01*
X228249Y32560D01*
X228142Y32495D01*
X228058Y32418D01*
X227998Y32329D01*
X227961Y32229D01*
X227948Y32117D01*
X227960Y33452D01*
X227972Y33535D01*
X228008Y33609D01*
X228067Y33675D01*
X228149Y33731D01*
X228256Y33779D01*
X228386Y33819D01*
X228539Y33849D01*
X228716Y33871D01*
X228917Y33884D01*
X229141Y33888D01*
Y32707D01*
D02*
G37*
G36*
X191980Y32649D02*
X191779Y32578D01*
X191602Y32459D01*
X191449Y32293D01*
X191319Y32079D01*
X191213Y31818D01*
X191130Y31509D01*
X191071Y31153D01*
X191035Y30749D01*
X191024Y30298D01*
X188661D01*
X188650Y30749D01*
X188614Y31153D01*
X188555Y31509D01*
X188472Y31818D01*
X188366Y32079D01*
X188236Y32293D01*
X188083Y32459D01*
X187906Y32578D01*
X187705Y32649D01*
X187480Y32673D01*
X192205D01*
X191980Y32649D01*
D02*
G37*
G36*
X1138Y35060D02*
X2097Y34258D01*
X2561Y33932D01*
X3014Y33657D01*
X3456Y33431D01*
X3887Y33256D01*
X4308Y33130D01*
X4718Y33055D01*
X5118Y33030D01*
X142Y29054D01*
X117Y29454D01*
X42Y29864D01*
X-84Y30285D01*
X-259Y30716D01*
X-485Y31159D01*
X-760Y31611D01*
X-1086Y32075D01*
X-1462Y32550D01*
X-2364Y33530D01*
X642Y35536D01*
X1138Y35060D01*
D02*
G37*
G36*
X36744Y29406D02*
X36815Y29221D01*
X36933Y29058D01*
X37098Y28916D01*
X37311Y28796D01*
X37571Y28698D01*
X37878Y28622D01*
X38232Y28567D01*
X38634Y28534D01*
X38999Y28525D01*
X39153Y28523D01*
Y26161D01*
X39069Y26161D01*
X38634Y26150D01*
X38232Y26118D01*
X37878Y26063D01*
X37571Y25987D01*
X37311Y25889D01*
X37098Y25769D01*
X36933Y25627D01*
X36815Y25463D01*
X36744Y25278D01*
X36720Y25071D01*
Y26058D01*
X35418Y25983D01*
X35255Y25936D01*
X35160Y25883D01*
Y28802D01*
X35255Y28749D01*
X35418Y28701D01*
X35648Y28660D01*
X35946Y28624D01*
X36720Y28579D01*
Y29614D01*
X36744Y29406D01*
D02*
G37*
G36*
X48697Y25984D02*
X48720Y25803D01*
Y24624D01*
X48058Y24350D01*
X47441Y23877D01*
X46968Y23260D01*
X46670Y22542D01*
X46569Y21771D01*
X46670Y21000D01*
X46786Y20722D01*
X46452Y20222D01*
X39954D01*
Y21557D01*
X28930D01*
Y15771D01*
X21343D01*
X20803Y16329D01*
X20663Y16488D01*
Y21456D01*
X26870D01*
Y23768D01*
X29370D01*
Y23484D01*
X36512D01*
X36538Y23475D01*
X36630Y23483D01*
X36720Y23465D01*
X36815Y23484D01*
X38307D01*
Y24505D01*
X38419Y24522D01*
X38718Y24546D01*
X39091Y24555D01*
X39160Y24555D01*
X39270Y24578D01*
X39873Y24657D01*
X40543Y24935D01*
X41119Y25377D01*
X43966Y28224D01*
X48697D01*
Y25984D01*
D02*
G37*
G36*
X-17119Y39641D02*
X-16987Y39553D01*
X-16400Y39310D01*
X-16245Y39279D01*
X-16099Y39219D01*
X-15476Y39094D01*
X-15318D01*
X-15307Y39092D01*
X-15057Y38765D01*
X-14985Y38564D01*
X-15243Y37941D01*
X-15392Y36811D01*
X-15243Y35680D01*
X-14807Y34627D01*
X-14112Y33722D01*
X-13403Y33178D01*
X-13372Y33105D01*
Y32643D01*
X-13403Y32570D01*
X-14112Y32026D01*
X-14807Y31121D01*
X-15243Y30067D01*
X-15392Y28937D01*
X-15243Y27806D01*
X-14807Y26753D01*
X-14112Y25848D01*
X-13208Y25154D01*
X-12154Y24718D01*
X-11024Y24569D01*
X-9893Y24718D01*
X-8840Y25154D01*
X-7935Y25848D01*
X-7241Y26753D01*
X-6804Y27806D01*
X-6656Y28937D01*
X-6804Y30067D01*
X-7241Y31121D01*
X-7935Y32026D01*
X-8644Y32570D01*
X-8676Y32643D01*
Y33105D01*
X-8644Y33178D01*
X-8380Y33380D01*
X-7520Y33432D01*
X-7251Y33433D01*
X-7242Y33435D01*
X-4537D01*
X-3547Y32445D01*
X-3546Y32443D01*
X-2684Y31506D01*
X-2373Y31114D01*
X-2104Y30732D01*
X-1888Y30375D01*
X-1721Y30048D01*
X-1600Y29752D01*
X-1522Y29489D01*
X-1480Y29258D01*
X-1461Y28954D01*
X-1445Y28894D01*
Y27468D01*
X-65D01*
X-36Y27459D01*
X68Y27468D01*
X126D01*
X242Y27452D01*
X302Y27468D01*
X6705D01*
X7055Y27113D01*
Y23767D01*
X14205D01*
Y23768D01*
X16831D01*
Y21557D01*
X11321D01*
X11226Y21576D01*
X11131Y21557D01*
X9639D01*
Y20841D01*
X9233Y20808D01*
X8836Y20801D01*
X8804Y20794D01*
X7967D01*
X7938Y20800D01*
X7535Y20810D01*
X7236Y20835D01*
X7124Y20852D01*
Y21872D01*
X5632D01*
X5537Y21891D01*
X5447Y21873D01*
X5355Y21881D01*
X5328Y21872D01*
X-1813D01*
Y14156D01*
X5328D01*
X5355Y14147D01*
X5447Y14155D01*
X5537Y14137D01*
X5632Y14156D01*
X7124D01*
Y15177D01*
X7236Y15194D01*
X7535Y15218D01*
X7938Y15228D01*
X7967Y15235D01*
X8780D01*
X8805Y15228D01*
X9597Y15200D01*
X9639Y15195D01*
Y14471D01*
X11131D01*
X11226Y14452D01*
X11321Y14471D01*
X13664D01*
X13682Y14466D01*
X13935Y14453D01*
X14113Y14426D01*
X14299Y14378D01*
X14499Y14308D01*
X14711Y14211D01*
X14938Y14086D01*
X15179Y13929D01*
X15432Y13738D01*
X15697Y13512D01*
X16001Y13224D01*
X16026Y13208D01*
X18208Y11026D01*
X18783Y10585D01*
X19454Y10307D01*
X20173Y10212D01*
X45286D01*
X47385Y8113D01*
X47960Y7671D01*
X48631Y7394D01*
X49350Y7299D01*
X70512D01*
X71231Y7394D01*
X71902Y7671D01*
X72478Y8113D01*
X75364Y11000D01*
X81608D01*
X81626Y10995D01*
X82271Y10961D01*
X82407Y10856D01*
X83221Y10519D01*
X84095Y10404D01*
X84968Y10519D01*
X85782Y10856D01*
X85918Y10961D01*
X86562Y10995D01*
X86581Y11000D01*
X91040D01*
X99281Y2759D01*
X99609Y2507D01*
X99440Y2007D01*
X20663D01*
Y8565D01*
X9639D01*
Y2007D01*
X831D01*
X-17678Y20516D01*
Y39461D01*
X-17178Y39665D01*
X-17119Y39641D01*
D02*
G37*
G36*
X191035Y22253D02*
X191071Y21850D01*
X191130Y21494D01*
X191213Y21185D01*
X191319Y20924D01*
X191449Y20710D01*
X191602Y20544D01*
X191779Y20425D01*
X191980Y20354D01*
X192205Y20330D01*
X187480D01*
X187705Y20354D01*
X187906Y20425D01*
X188083Y20544D01*
X188236Y20710D01*
X188366Y20924D01*
X188472Y21185D01*
X188555Y21494D01*
X188614Y21850D01*
X188650Y22253D01*
X188661Y22704D01*
X191024D01*
X191035Y22253D01*
D02*
G37*
G36*
X38367Y19083D02*
X38403Y18983D01*
X38463Y18894D01*
X38546Y18817D01*
X38653Y18752D01*
X38785Y18699D01*
X38940Y18658D01*
X39119Y18628D01*
X39322Y18611D01*
X39548Y18605D01*
Y17424D01*
X39322Y17418D01*
X39119Y17400D01*
X38940Y17370D01*
X38785Y17329D01*
X38653Y17276D01*
X38546Y17211D01*
X38463Y17134D01*
X38403Y17046D01*
X38367Y16945D01*
X38355Y16833D01*
Y19195D01*
X38367Y19083D01*
D02*
G37*
G36*
X192748Y20135D02*
X192819Y19950D01*
X192937Y19786D01*
X193102Y19644D01*
X193315Y19524D01*
X193575Y19426D01*
X193882Y19350D01*
X194236Y19295D01*
X194556Y19269D01*
X195193Y19322D01*
X195500Y19376D01*
X195760Y19446D01*
X195972Y19531D01*
X196138Y19632D01*
X196256Y19748D01*
X196327Y19880D01*
X196350Y20027D01*
Y16114D01*
X196327Y16262D01*
X196256Y16393D01*
X196138Y16510D01*
X195972Y16610D01*
X195760Y16696D01*
X195500Y16766D01*
X195193Y16820D01*
X194839Y16859D01*
X194529Y16870D01*
X194236Y16846D01*
X193882Y16792D01*
X193575Y16715D01*
X193315Y16617D01*
X193102Y16497D01*
X192937Y16355D01*
X192819Y16192D01*
X192748Y16006D01*
X192724Y15799D01*
Y20342D01*
X192748Y20135D01*
D02*
G37*
G36*
X11226Y16058D02*
X11202Y16205D01*
X11131Y16337D01*
X11013Y16453D01*
X10848Y16554D01*
X10635Y16639D01*
X10375Y16709D01*
X10068Y16763D01*
X9714Y16802D01*
X8864Y16833D01*
Y19195D01*
X9312Y19203D01*
X10068Y19265D01*
X10375Y19319D01*
X10635Y19389D01*
X10848Y19474D01*
X11013Y19575D01*
X11131Y19692D01*
X11202Y19823D01*
X11226Y19971D01*
Y16058D01*
D02*
G37*
G36*
X230814Y18315D02*
X230856Y18305D01*
X230918Y18296D01*
X231101Y18282D01*
X231709Y18268D01*
X231911Y18268D01*
Y15905D01*
X230793Y15846D01*
Y18327D01*
X230814Y18315D01*
D02*
G37*
G36*
X186961Y15799D02*
X186937Y16006D01*
X186866Y16192D01*
X186748Y16355D01*
X186583Y16497D01*
X186370Y16617D01*
X186110Y16715D01*
X185803Y16792D01*
X185449Y16846D01*
X185047Y16879D01*
X184599Y16890D01*
Y19252D01*
X185047Y19263D01*
X185449Y19295D01*
X185803Y19350D01*
X186110Y19426D01*
X186370Y19524D01*
X186583Y19644D01*
X186748Y19786D01*
X186866Y19950D01*
X186937Y20135D01*
X186961Y20342D01*
Y15799D01*
D02*
G37*
G36*
X5560Y20078D02*
X5631Y19893D01*
X5749Y19730D01*
X5915Y19588D01*
X6127Y19468D01*
X6387Y19370D01*
X6694Y19293D01*
X7049Y19239D01*
X7450Y19206D01*
X7899Y19195D01*
Y16833D01*
X7450Y16822D01*
X7049Y16790D01*
X6694Y16735D01*
X6387Y16659D01*
X6127Y16560D01*
X5915Y16441D01*
X5749Y16299D01*
X5631Y16135D01*
X5560Y15950D01*
X5537Y15743D01*
Y20286D01*
X5560Y20078D01*
D02*
G37*
G36*
X219116Y16118D02*
X218950Y16092D01*
X218784Y16050D01*
X218618Y15991D01*
X218451Y15914D01*
X218284Y15821D01*
X218116Y15711D01*
X217948Y15584D01*
X217779Y15440D01*
X217610Y15279D01*
X215940D01*
X216092Y15440D01*
X216211Y15584D01*
X216296Y15711D01*
X216347Y15821D01*
X216364Y15914D01*
X216347Y15991D01*
X216296Y16050D01*
X216211Y16092D01*
X216092Y16118D01*
X215940Y16126D01*
X219281D01*
X219116Y16118D01*
D02*
G37*
G36*
X19076Y16058D02*
X19036Y16041D01*
X19035Y15991D01*
X19074Y15907D01*
X19152Y15790D01*
X19270Y15640D01*
X19623Y15239D01*
X20448Y14387D01*
X17107D01*
X16772Y14706D01*
X16437Y14992D01*
X16102Y15244D01*
X15767Y15462D01*
X15433Y15647D01*
X15099Y15799D01*
X14765Y15917D01*
X14432Y16001D01*
X14099Y16052D01*
X13767Y16070D01*
X19076Y16058D01*
D02*
G37*
G36*
X85381Y15008D02*
X85423Y14998D01*
X85485Y14989D01*
X85668Y14975D01*
X86276Y14961D01*
X86478Y14960D01*
X86478Y12598D01*
X85360Y12539D01*
X84095Y13779D01*
X82829Y12539D01*
X81711Y12598D01*
X81711Y14960D01*
X81913Y14961D01*
X82521Y14975D01*
X82704Y14989D01*
X82766Y14998D01*
X82807Y15008D01*
X82829Y15020D01*
X84095Y13779D01*
X85360Y15020D01*
X85381Y15008D01*
D02*
G37*
G36*
X197744Y12987D02*
X197803Y12946D01*
X197871Y12911D01*
X197947Y12880D01*
X198032Y12854D01*
X198125Y12833D01*
X198226Y12817D01*
X198336Y12805D01*
X198582Y12795D01*
Y11614D01*
X198455Y11612D01*
X198226Y11593D01*
X198125Y11576D01*
X198032Y11555D01*
X197947Y11529D01*
X197871Y11498D01*
X197803Y11463D01*
X197744Y11423D01*
X197694Y11378D01*
Y13032D01*
X197744Y12987D01*
D02*
G37*
G36*
X162739Y7638D02*
X162689Y7683D01*
X162630Y7723D01*
X162562Y7758D01*
X162486Y7789D01*
X162401Y7815D01*
X162308Y7836D01*
X162207Y7853D01*
X162097Y7864D01*
X161851Y7874D01*
Y9055D01*
X161978Y9057D01*
X162207Y9076D01*
X162308Y9093D01*
X162401Y9114D01*
X162486Y9140D01*
X162562Y9171D01*
X162630Y9206D01*
X162689Y9246D01*
X162739Y9291D01*
Y7638D01*
D02*
G37*
G36*
X188965Y5900D02*
X189024Y5860D01*
X189091Y5824D01*
X189167Y5794D01*
X189252Y5768D01*
X189345Y5746D01*
X189447Y5730D01*
X189557Y5718D01*
X189802Y5709D01*
Y4527D01*
X189675Y4525D01*
X189447Y4506D01*
X189345Y4490D01*
X189252Y4468D01*
X189167Y4442D01*
X189091Y4412D01*
X189024Y4376D01*
X188965Y4336D01*
X188914Y4291D01*
Y5945D01*
X188965Y5900D01*
D02*
G37*
G36*
X196362Y3937D02*
X196350Y4049D01*
X196315Y4150D01*
X196255Y4238D01*
X196171Y4315D01*
X196064Y4380D01*
X195933Y4433D01*
X195778Y4474D01*
X195599Y4504D01*
X195396Y4522D01*
X195169Y4527D01*
Y5709D01*
X195396Y5714D01*
X195599Y5732D01*
X195778Y5762D01*
X195933Y5803D01*
X196064Y5856D01*
X196171Y5921D01*
X196255Y5998D01*
X196315Y6087D01*
X196350Y6187D01*
X196362Y6299D01*
Y3937D01*
D02*
G37*
G36*
X141523Y5953D02*
X141565Y5943D01*
X141626Y5934D01*
X141810Y5920D01*
X142418Y5906D01*
X142620Y5905D01*
Y3543D01*
X141501Y3484D01*
Y5964D01*
X141523Y5953D01*
D02*
G37*
G36*
X138971Y3484D02*
X138949Y3495D01*
X138908Y3505D01*
X138846Y3514D01*
X138663Y3528D01*
X138055Y3542D01*
X137853Y3543D01*
Y5905D01*
X138971Y5964D01*
Y3484D01*
D02*
G37*
%LPC*%
G36*
X141697Y208029D02*
X140169Y202324D01*
X148699Y200039D01*
X149178Y201826D01*
X149506D01*
X150351Y201994D01*
X150934Y202384D01*
X151310Y202433D01*
X151980Y202711D01*
X152556Y203153D01*
X152998Y203728D01*
X153276Y204399D01*
X153370Y205118D01*
X153276Y205837D01*
X152998Y206508D01*
X152556Y207084D01*
X151980Y207525D01*
X151310Y207803D01*
X150591Y207898D01*
X149871Y207803D01*
X149201Y207525D01*
X148625Y207084D01*
X148183Y206508D01*
X148102Y206312D01*
X141697Y208029D01*
D02*
G37*
G36*
X125325Y205079D02*
X123796Y199375D01*
X123796Y199375D01*
X123796Y199375D01*
X123445Y199074D01*
X123413Y199061D01*
X122838Y198619D01*
X122396Y198043D01*
X122118Y197373D01*
X122023Y196653D01*
X122118Y195934D01*
X122396Y195264D01*
X122838Y194688D01*
X123413Y194246D01*
X124084Y193969D01*
X124803Y193874D01*
X125523Y193969D01*
X126193Y194246D01*
X126453Y194446D01*
X127362D01*
X128207Y194614D01*
X128923Y195092D01*
X130387Y196556D01*
X130865Y197272D01*
X131100Y197418D01*
X132326Y197089D01*
X133855Y202794D01*
X125325Y205079D01*
D02*
G37*
G36*
X181693Y204945D02*
X180973Y204850D01*
X180303Y204573D01*
X179727Y204131D01*
X179286Y203555D01*
X179008Y202885D01*
X178965Y202560D01*
X175166Y198761D01*
X173800D01*
X167130Y200548D01*
X165602Y194844D01*
X174132Y192559D01*
X174611Y194346D01*
X176081D01*
X176926Y194514D01*
X177642Y194992D01*
X182087Y199438D01*
X182412Y199480D01*
X183083Y199758D01*
X183658Y200200D01*
X184100Y200776D01*
X184378Y201446D01*
X184473Y202165D01*
X184378Y202885D01*
X184100Y203555D01*
X183658Y204131D01*
X183083Y204573D01*
X182412Y204850D01*
X181693Y204945D01*
D02*
G37*
G36*
X97455Y211924D02*
X88925Y209639D01*
X90454Y203934D01*
X96962Y205678D01*
X97199Y205106D01*
X97641Y204531D01*
X98216Y204089D01*
X98887Y203811D01*
X99606Y203716D01*
X100122Y203784D01*
X100622Y203449D01*
Y201968D01*
X102830D01*
Y200277D01*
X102998Y199433D01*
X103476Y198716D01*
X104344Y197848D01*
X105061Y197370D01*
X105905Y197202D01*
X106027D01*
X106287Y197002D01*
X106958Y196724D01*
X107677Y196630D01*
X108397Y196724D01*
X109067Y197002D01*
X109643Y197444D01*
X110084Y198020D01*
X110362Y198690D01*
X110457Y199409D01*
X110362Y200129D01*
X110084Y200799D01*
X109643Y201375D01*
X109497Y201487D01*
X109453Y201968D01*
X109453Y201969D01*
X109453Y201969D01*
Y207874D01*
X102018D01*
X102014Y207886D01*
X101572Y208462D01*
X100996Y208903D01*
X100326Y209181D01*
X100001Y209224D01*
X99734Y209490D01*
X99018Y209969D01*
X98173Y210137D01*
X97934D01*
X97455Y211924D01*
D02*
G37*
G36*
X69134Y207347D02*
X68414Y207252D01*
X67744Y206974D01*
X67168Y206533D01*
X66727Y205957D01*
X66449Y205286D01*
X66354Y204567D01*
X66449Y203848D01*
X66653Y203354D01*
X66465Y202786D01*
X64122Y202158D01*
X65651Y196454D01*
X72582Y198311D01*
X75266Y195627D01*
X75982Y195149D01*
X76827Y194981D01*
X77271D01*
X77750Y193194D01*
X86279Y195479D01*
X84751Y201184D01*
X78081Y199396D01*
X77742D01*
X76263Y200875D01*
Y202968D01*
X76423Y203177D01*
X76701Y203848D01*
X76795Y204567D01*
X76701Y205286D01*
X76423Y205957D01*
X75981Y206533D01*
X75406Y206974D01*
X74735Y207252D01*
X74016Y207347D01*
X73296Y207252D01*
X72626Y206974D01*
X72050Y206533D01*
X71890Y206324D01*
X71260D01*
X71099Y206533D01*
X70524Y206974D01*
X69853Y207252D01*
X69134Y207347D01*
D02*
G37*
G36*
X150758Y197599D02*
X149230Y191894D01*
X157759Y189609D01*
X158238Y191396D01*
X161155D01*
X162000Y191564D01*
X162578Y191950D01*
X162956Y192000D01*
X163626Y192278D01*
X164202Y192719D01*
X164644Y193295D01*
X164921Y193966D01*
X165016Y194685D01*
X164921Y195405D01*
X164644Y196075D01*
X164202Y196651D01*
X163626Y197092D01*
X162956Y197370D01*
X162236Y197465D01*
X161517Y197370D01*
X160846Y197092D01*
X160271Y196651D01*
X159829Y196075D01*
X159720Y195812D01*
X157428D01*
X150758Y197599D01*
D02*
G37*
%LPD*%
G36*
X149149Y203443D02*
X148922Y203437D01*
X148715Y203420D01*
X148528Y203390D01*
X148362Y203349D01*
X148217Y203296D01*
X148092Y203232D01*
X147988Y203155D01*
X147904Y203067D01*
X147841Y202967D01*
X147798Y202856D01*
X148284Y204621D01*
X149453Y204624D01*
X149149Y203443D01*
D02*
G37*
G36*
X130010Y199365D02*
X129897Y199383D01*
X129796Y199375D01*
X129707Y199339D01*
X129630Y199276D01*
X129565Y199186D01*
X129511Y199069D01*
X129470Y198925D01*
X129440Y198754D01*
X129422Y198556D01*
X129416Y198331D01*
X128235Y198647D01*
X128229Y198875D01*
X128212Y199083D01*
X128182Y199270D01*
X128141Y199436D01*
X128088Y199582D01*
X128024Y199706D01*
X127947Y199810D01*
X127859Y199894D01*
X127759Y199956D01*
X127648Y199998D01*
X130010Y199365D01*
D02*
G37*
G36*
X181681Y200984D02*
X181614Y200980D01*
X181544Y200967D01*
X181471Y200944D01*
X181395Y200912D01*
X181317Y200871D01*
X181236Y200820D01*
X181153Y200760D01*
X181067Y200690D01*
X180886Y200523D01*
X180051Y201359D01*
X180139Y201450D01*
X180287Y201625D01*
X180348Y201709D01*
X180398Y201789D01*
X180440Y201868D01*
X180472Y201943D01*
X180494Y202016D01*
X180508Y202086D01*
X180512Y202153D01*
X181681Y200984D01*
D02*
G37*
G36*
X174582Y195963D02*
X174355Y195957D01*
X174148Y195939D01*
X173961Y195910D01*
X173795Y195869D01*
X173650Y195816D01*
X173525Y195751D01*
X173421Y195675D01*
X173337Y195587D01*
X173274Y195487D01*
X173231Y195376D01*
X173717Y197141D01*
X174886Y197144D01*
X174582Y195963D01*
D02*
G37*
G36*
X96597Y208996D02*
X96660Y208896D01*
X96744Y208808D01*
X96848Y208731D01*
X96973Y208667D01*
X97119Y208614D01*
X97285Y208573D01*
X97471Y208543D01*
X97678Y208526D01*
X97906Y208520D01*
X98141Y207480D01*
X98800Y208138D01*
X98891Y208050D01*
X99066Y207902D01*
X99150Y207841D01*
X99230Y207791D01*
X99309Y207749D01*
X99384Y207717D01*
X99457Y207695D01*
X99527Y207681D01*
X99594Y207677D01*
X98425Y206508D01*
X98421Y206575D01*
X98408Y206645D01*
X98385Y206718D01*
X98353Y206794D01*
X98312Y206872D01*
X98261Y206953D01*
X98201Y207036D01*
X98131Y207122D01*
X97964Y207303D01*
X98001Y207339D01*
X97040Y207342D01*
X96555Y209107D01*
X96597Y208996D01*
D02*
G37*
G36*
X106106Y203555D02*
X106006Y203520D01*
X105917Y203460D01*
X105841Y203376D01*
X105776Y203269D01*
X105722Y203138D01*
X105681Y202983D01*
X105652Y202804D01*
X105634Y202601D01*
X105628Y202374D01*
X104447D01*
X104441Y202601D01*
X104423Y202804D01*
X104394Y202983D01*
X104352Y203138D01*
X104299Y203269D01*
X104234Y203376D01*
X104157Y203460D01*
X104069Y203520D01*
X103969Y203555D01*
X103856Y203567D01*
X106219D01*
X106106Y203555D01*
D02*
G37*
G36*
X106718Y198721D02*
X106697Y198739D01*
X106664Y198756D01*
X106619Y198771D01*
X106560Y198784D01*
X106490Y198794D01*
X106310Y198810D01*
X106080Y198818D01*
X105946Y198819D01*
Y200000D01*
X106080Y200001D01*
X106560Y200035D01*
X106619Y200048D01*
X106664Y200063D01*
X106697Y200080D01*
X106718Y200098D01*
Y198721D01*
D02*
G37*
G36*
X74827Y203700D02*
X74789Y203641D01*
X74756Y203572D01*
X74726Y203496D01*
X74702Y203411D01*
X74682Y203317D01*
X74666Y203215D01*
X74648Y202986D01*
X74646Y202859D01*
X73465Y202814D01*
X73462Y202941D01*
X73442Y203169D01*
X73425Y203270D01*
X73403Y203362D01*
X73376Y203446D01*
X73343Y203522D01*
X73307Y203589D01*
X73264Y203647D01*
X73218Y203696D01*
X74870Y203751D01*
X74827Y203700D01*
D02*
G37*
G36*
X69929Y203685D02*
X69890Y203625D01*
X69855Y203558D01*
X69825Y203481D01*
X69800Y203397D01*
X69779Y203303D01*
X69763Y203202D01*
X69751Y203091D01*
X69747Y202993D01*
X69748Y202977D01*
X69766Y202779D01*
X69795Y202608D01*
X69837Y202464D01*
X69890Y202347D01*
X69956Y202257D01*
X70033Y202194D01*
X70122Y202158D01*
X70223Y202150D01*
X70336Y202168D01*
X67973Y201535D01*
X68085Y201577D01*
X68185Y201639D01*
X68273Y201723D01*
X68349Y201827D01*
X68414Y201951D01*
X68467Y202097D01*
X68508Y202263D01*
X68537Y202450D01*
X68555Y202658D01*
X68560Y202860D01*
X68558Y202953D01*
X68539Y203181D01*
X68522Y203282D01*
X68501Y203375D01*
X68474Y203460D01*
X68443Y203535D01*
X68406Y203603D01*
X68365Y203661D01*
X68320Y203711D01*
X69973Y203736D01*
X69929Y203685D01*
D02*
G37*
G36*
X78165Y197776D02*
X78650Y196011D01*
X78607Y196122D01*
X78544Y196222D01*
X78461Y196310D01*
X78356Y196387D01*
X78232Y196451D01*
X78086Y196504D01*
X77920Y196545D01*
X77734Y196575D01*
X77527Y196592D01*
X77299Y196598D01*
X76995Y197779D01*
X78165Y197776D01*
D02*
G37*
G36*
X158210Y193013D02*
X157982Y193007D01*
X157775Y192990D01*
X157589Y192960D01*
X157423Y192919D01*
X157277Y192867D01*
X157153Y192802D01*
X157048Y192726D01*
X156965Y192637D01*
X156902Y192537D01*
X156859Y192426D01*
X157344Y194191D01*
X158513Y194194D01*
X158210Y193013D01*
D02*
G37*
%LPC*%
G36*
X157638Y41379D02*
X142913D01*
Y32442D01*
X144377D01*
X144507Y31942D01*
X144325Y31705D01*
X144047Y31034D01*
X143953Y30315D01*
X144047Y29596D01*
X144325Y28925D01*
X144767Y28349D01*
X145342Y27908D01*
X146013Y27630D01*
X146732Y27535D01*
X147452Y27630D01*
X148122Y27908D01*
X148698Y28349D01*
X149140Y28925D01*
X149417Y29596D01*
X149512Y30315D01*
X149417Y31034D01*
X149140Y31705D01*
X148979Y31914D01*
Y32442D01*
X157638D01*
Y34703D01*
X158861D01*
Y33535D01*
X165611D01*
Y40285D01*
X158861D01*
Y39118D01*
X157638D01*
Y41379D01*
D02*
G37*
G36*
X120079Y39543D02*
X119015Y39403D01*
X118024Y38992D01*
X117173Y38339D01*
X116519Y37488D01*
X116109Y36497D01*
X115969Y35433D01*
X116109Y34369D01*
X116519Y33378D01*
X117173Y32527D01*
X118024Y31874D01*
X119015Y31463D01*
X120079Y31323D01*
X121142Y31463D01*
X122134Y31874D01*
X122985Y32527D01*
X123638Y33378D01*
X124049Y34369D01*
X124189Y35433D01*
X124049Y36497D01*
X123638Y37488D01*
X122985Y38339D01*
X122134Y38992D01*
X121142Y39403D01*
X120079Y39543D01*
D02*
G37*
G36*
X104921D02*
X103858Y39403D01*
X102866Y38992D01*
X102015Y38339D01*
X101362Y37488D01*
X100951Y36497D01*
X100811Y35433D01*
X100951Y34369D01*
X101362Y33378D01*
X102015Y32527D01*
X102866Y31874D01*
X103858Y31463D01*
X104921Y31323D01*
X105985Y31463D01*
X106976Y31874D01*
X107827Y32527D01*
X108481Y33378D01*
X108891Y34369D01*
X109031Y35433D01*
X108891Y36497D01*
X108481Y37488D01*
X107827Y38339D01*
X106976Y38992D01*
X105985Y39403D01*
X104921Y39543D01*
D02*
G37*
G36*
X174311Y36485D02*
X166161D01*
Y29735D01*
X168028D01*
Y26700D01*
X168015Y26653D01*
X167987Y26580D01*
X167942Y26487D01*
X167875Y26374D01*
X167798Y26263D01*
X167514Y25922D01*
X167356Y25760D01*
X167330Y25741D01*
X166677Y24889D01*
X166266Y23898D01*
X166126Y22835D01*
X166266Y21771D01*
X166677Y20779D01*
X167330Y19928D01*
X168181Y19275D01*
X169173Y18865D01*
X170236Y18724D01*
X171300Y18865D01*
X172291Y19275D01*
X173142Y19928D01*
X173796Y20779D01*
X174206Y21771D01*
X174346Y22835D01*
X174206Y23898D01*
X173796Y24889D01*
X173142Y25741D01*
X173117Y25760D01*
X172944Y25938D01*
X172802Y26098D01*
X172687Y26244D01*
X172598Y26374D01*
X172531Y26487D01*
X172485Y26580D01*
X172457Y26653D01*
X172444Y26700D01*
Y29735D01*
X174311D01*
Y36485D01*
D02*
G37*
G36*
X140236Y26944D02*
X139172Y26804D01*
X138181Y26394D01*
X137330Y25741D01*
X136677Y24889D01*
X136266Y23898D01*
X136126Y22835D01*
X136266Y21771D01*
X136677Y20779D01*
X137330Y19928D01*
X138181Y19275D01*
X139172Y18865D01*
X140236Y18724D01*
X141300Y18865D01*
X142291Y19275D01*
X143142Y19928D01*
X143796Y20779D01*
X144206Y21771D01*
X144346Y22835D01*
X144206Y23898D01*
X143796Y24889D01*
X143142Y25741D01*
X142291Y26394D01*
X141300Y26804D01*
X140236Y26944D01*
D02*
G37*
%LPD*%
G36*
X160448Y35729D02*
X160436Y35841D01*
X160401Y35942D01*
X160342Y36030D01*
X160259Y36107D01*
X160153Y36172D01*
X160023Y36225D01*
X159870Y36266D01*
X159692Y36296D01*
X159492Y36314D01*
X159267Y36320D01*
Y37501D01*
X159492Y37507D01*
X159692Y37524D01*
X159870Y37554D01*
X160023Y37595D01*
X160153Y37648D01*
X160259Y37713D01*
X160342Y37790D01*
X160401Y37879D01*
X160436Y37979D01*
X160448Y38091D01*
Y35729D01*
D02*
G37*
G36*
X156051Y37979D02*
X156087Y37879D01*
X156146Y37790D01*
X156230Y37713D01*
X156337Y37648D01*
X156468Y37595D01*
X156624Y37554D01*
X156803Y37524D01*
X157005Y37507D01*
X157232Y37501D01*
Y36320D01*
X157005Y36314D01*
X156803Y36296D01*
X156624Y36266D01*
X156468Y36225D01*
X156337Y36172D01*
X156230Y36107D01*
X156146Y36030D01*
X156087Y35942D01*
X156051Y35841D01*
X156039Y35729D01*
Y38091D01*
X156051Y37979D01*
D02*
G37*
G36*
X147841Y34017D02*
X147740Y33981D01*
X147652Y33922D01*
X147575Y33840D01*
X147510Y33733D01*
X147457Y33603D01*
X147415Y33450D01*
X147386Y33273D01*
X147368Y33072D01*
X147362Y32847D01*
X146181D01*
X146175Y33072D01*
X146158Y33273D01*
X146128Y33450D01*
X146087Y33603D01*
X146034Y33733D01*
X145968Y33840D01*
X145892Y33922D01*
X145803Y33981D01*
X145703Y34017D01*
X145591Y34029D01*
X147953D01*
X147841Y34017D01*
D02*
G37*
G36*
X147362Y32023D02*
X147364Y31896D01*
X147382Y31666D01*
X147398Y31565D01*
X147418Y31471D01*
X147443Y31386D01*
X147472Y31310D01*
X147506Y31241D01*
X147544Y31182D01*
X147587Y31130D01*
X145934Y31185D01*
X145981Y31235D01*
X146023Y31293D01*
X146060Y31360D01*
X146092Y31435D01*
X146119Y31519D01*
X146142Y31612D01*
X146159Y31713D01*
X146171Y31823D01*
X146181Y32068D01*
X147362Y32023D01*
D02*
G37*
G36*
X171305Y31322D02*
X171205Y31286D01*
X171116Y31227D01*
X171039Y31143D01*
X170974Y31036D01*
X170921Y30905D01*
X170880Y30750D01*
X170850Y30571D01*
X170833Y30368D01*
X170827Y30141D01*
X169646D01*
X169640Y30368D01*
X169622Y30571D01*
X169592Y30750D01*
X169551Y30905D01*
X169498Y31036D01*
X169433Y31143D01*
X169356Y31227D01*
X169268Y31286D01*
X169167Y31322D01*
X169055Y31334D01*
X171417D01*
X171305Y31322D01*
D02*
G37*
G36*
X170838Y26561D02*
X170873Y26356D01*
X170931Y26148D01*
X171012Y25937D01*
X171117Y25724D01*
X171244Y25508D01*
X171395Y25290D01*
X171569Y25069D01*
X171766Y24846D01*
X171986Y24620D01*
X168486D01*
X168707Y24846D01*
X169078Y25290D01*
X169228Y25508D01*
X169356Y25724D01*
X169460Y25937D01*
X169541Y26148D01*
X169599Y26356D01*
X169634Y26561D01*
X169646Y26764D01*
X170827D01*
X170838Y26561D01*
D02*
G37*
D11*
X213071Y66535D02*
X222716D01*
X215102Y53541D02*
X225079D01*
X197843D02*
X215102D01*
X232634Y73185D02*
X237598Y78150D01*
Y81890D01*
X220669Y150787D02*
Y161024D01*
Y150774D02*
Y150787D01*
X232677Y64173D02*
X239725D01*
X230315Y66535D02*
X232677Y64173D01*
X222716Y66535D02*
X230315D01*
X81929Y59893D02*
X91575D01*
X242126Y66574D02*
Y89547D01*
X239725Y64173D02*
X242126Y66574D01*
X239725Y20631D02*
Y63779D01*
X242126Y89547D02*
Y119764D01*
X236201Y89547D02*
X242126D01*
X234252Y87598D02*
X236201Y89547D01*
X239725Y122165D02*
X242126Y119764D01*
X234134Y122165D02*
X239725D01*
X231693Y124606D02*
X234134Y122165D01*
X231693Y124606D02*
Y150197D01*
X225197Y156693D02*
X231693Y150197D01*
X229213Y42323D02*
X238189D01*
X226791Y39901D02*
X229213Y42323D01*
X73467Y75236D02*
X73477Y75226D01*
X74213Y13779D02*
X92192D01*
X58071Y157000D02*
Y161811D01*
X55906Y163976D02*
X58071Y161811D01*
X43307Y163976D02*
X55906D01*
X169291Y143268D02*
Y148622D01*
X41732Y165551D02*
X43307Y163976D01*
X41732Y165551D02*
Y173031D01*
X38976Y175787D02*
X41732Y173031D01*
X30118Y175787D02*
X38976D01*
X58071Y157000D02*
X70986D01*
X30118Y194488D02*
X45276Y209645D01*
X5118Y150197D02*
Y167323D01*
Y150197D02*
X7283Y148031D01*
X22047D01*
X26770Y94882D02*
X39961D01*
X45866Y88976D01*
Y83465D02*
Y88976D01*
X36302Y81892D02*
X37874Y83465D01*
X45866D01*
X-2402Y130118D02*
X18110D01*
X-4764Y132480D02*
X-2402Y130118D01*
X11529Y136811D02*
X17913D01*
Y109449D02*
Y115157D01*
X20276Y101969D02*
X41929D01*
X17913Y104331D02*
X20276Y101969D01*
X17913Y104331D02*
Y109449D01*
X-4764Y132480D02*
Y136811D01*
X58484Y59893D02*
Y66732D01*
X181378Y9921D02*
Y15748D01*
X176181Y4724D02*
X181378Y9921D01*
X140236Y4724D02*
X176181D01*
X236181Y17086D02*
X239725Y20631D01*
X229528Y17086D02*
X236181D01*
X191614Y66535D02*
X213071D01*
X187008D02*
X191614D01*
X181299Y60827D02*
X187008Y66535D01*
X144685Y60827D02*
X181299D01*
X225079Y38189D02*
X225689D01*
X215039D02*
X225079D01*
X119556Y67711D02*
X137801D01*
X104025D02*
X119556D01*
Y67716D01*
Y59902D02*
Y67711D01*
X137801D02*
X144685Y60827D01*
X65748Y75236D02*
X73467D01*
X46437Y12992D02*
X49350Y10079D01*
X70512D02*
X74213Y13779D01*
X49350Y10079D02*
X70512D01*
X2655Y18014D02*
X15151D01*
X20173Y12992D01*
X101247Y4724D02*
X140236D01*
X73484Y59893D02*
X73484Y59893D01*
X73477Y59886D02*
X73484Y59893D01*
X73477Y55252D02*
Y59886D01*
X71535Y53311D02*
X73477Y55252D01*
X59941Y53311D02*
X71535D01*
X58484Y54768D02*
Y59893D01*
Y54768D02*
X59941Y53311D01*
X81878Y59893D02*
X81929Y59842D01*
X73484Y59893D02*
X81878D01*
X51476Y25984D02*
Y29428D01*
X49901Y31003D02*
X51476Y29428D01*
X101230Y59902D02*
Y64915D01*
X101221Y59893D02*
X101230Y59902D01*
X33838Y27342D02*
X39153D01*
X92192Y13779D02*
X101247Y4724D01*
X101230Y64915D02*
X104025Y67711D01*
X91575Y59893D02*
X101221D01*
X42815Y31003D02*
X49901D01*
X20173Y12992D02*
X46437D01*
X39153Y27342D02*
X42815Y31003D01*
X229213Y57677D02*
Y61811D01*
X225079Y53543D02*
X225689D01*
X226791Y54646D01*
Y55256D01*
X229213Y57677D01*
X225689Y38189D02*
X226791Y39291D01*
Y39901D01*
X205197Y38189D02*
X215039D01*
X205157Y38149D02*
X205197Y38189D01*
X197843Y38149D02*
X205157D01*
X189842Y34449D02*
Y49841D01*
Y18071D02*
Y34449D01*
Y18071D02*
X200275D01*
X183701D02*
X189842D01*
X181378Y15748D02*
X183701Y18071D01*
D15*
X137600Y202953D02*
X143364Y197189D01*
X136867Y140551D02*
X142126D01*
X101575Y154921D02*
X103740Y152756D01*
X64368Y193604D02*
X70986D01*
X234842Y69095D02*
X236221Y67716D01*
X225591Y69095D02*
X234842D01*
X219488Y70669D02*
X224016D01*
X225591Y69095D01*
X77953Y113189D02*
X87008D01*
X75787D02*
X77953D01*
X95866Y116732D02*
X116484D01*
X141339Y150197D02*
Y171772D01*
X142205Y172638D01*
X220079Y43996D02*
Y50000D01*
X225079Y46535D02*
X234331D01*
X227196Y33298D02*
X232590D01*
X225079Y31181D02*
X227196Y33298D01*
X232590D02*
X234331Y35038D01*
Y38189D01*
X95866Y118701D02*
X98453D01*
X99606Y119882D02*
X100759Y121035D01*
X99606Y119854D02*
Y119882D01*
X98453Y118701D02*
X99606Y119854D01*
X100759Y121035D02*
X104331D01*
X119727Y134094D02*
X122050Y136417D01*
X129331D01*
X49803Y122637D02*
X58017D01*
X48819Y123622D02*
X49803Y122637D01*
X48819Y123622D02*
Y146524D01*
X77500Y137787D02*
Y138090D01*
X72835Y133122D02*
X77500Y137787D01*
X117520Y110827D02*
Y115697D01*
X116484Y116732D02*
X117520Y115697D01*
X104449Y138386D02*
X129331D01*
X101772Y141063D02*
X104449Y138386D01*
X101772Y141063D02*
Y144291D01*
X36418Y171653D02*
X38189Y169882D01*
Y156496D02*
Y169882D01*
Y156496D02*
X45866Y148819D01*
X18256Y171653D02*
X36418D01*
X48087Y189708D02*
X56447D01*
X45945Y191850D02*
X48087Y189708D01*
X45945Y191850D02*
Y204567D01*
X61523Y185827D02*
X70276Y177074D01*
X19921Y185827D02*
X61523D01*
X13858Y191890D02*
X19921Y185827D01*
X27165Y188583D02*
X44882D01*
X23858Y191890D02*
X27165Y188583D01*
X3149Y171653D02*
X18256D01*
X787Y169291D02*
X3149Y171653D01*
X787Y140544D02*
Y169291D01*
Y140544D02*
X4521Y136811D01*
X43944Y111811D02*
X74409D01*
X75787Y113189D01*
X52067Y138090D02*
X58017D01*
X50621Y148327D02*
X58017D01*
X48819Y146524D02*
X50621Y148327D01*
X45866Y122047D02*
Y148819D01*
Y122047D02*
X51181Y116732D01*
X70492D01*
X49409Y114173D02*
X72441D01*
X42913Y120669D02*
X49409Y114173D01*
X42913Y120669D02*
Y147638D01*
X35748Y154803D02*
X42913Y147638D01*
X12598Y123425D02*
X18256D01*
X10905Y121732D02*
X12598Y123425D01*
X10905Y109449D02*
Y121732D01*
X24803Y105315D02*
X44488D01*
X22835Y107283D02*
X24803Y105315D01*
X22835Y107283D02*
Y118846D01*
X119488Y104331D02*
Y110827D01*
Y104331D02*
X123622Y100197D01*
X160039Y122835D02*
Y160039D01*
X157480Y126181D02*
Y162598D01*
X151968Y120669D02*
X157480Y126181D01*
Y162598D02*
X158858Y163976D01*
X87402Y177953D02*
X145866D01*
X94882Y180709D02*
X146653D01*
X123976Y183898D02*
X147008D01*
X145866Y177953D02*
X147244Y176575D01*
X146653Y180709D02*
X150000Y177362D01*
X147008Y183898D02*
X152362Y178543D01*
X142323Y106890D02*
X144488Y104724D01*
X130118Y106890D02*
X142323D01*
X126181Y110827D02*
X130118Y106890D01*
X144488Y99016D02*
Y104724D01*
X146772Y30315D02*
Y36910D01*
X141732Y96260D02*
Y101181D01*
X140354Y102559D02*
X141732Y101181D01*
X125197Y102559D02*
X140354D01*
X184252Y73032D02*
Y84252D01*
X180118Y88386D02*
X184252Y84252D01*
X180118Y88386D02*
Y95866D01*
X177362Y86614D02*
Y116732D01*
Y86614D02*
X181102Y82874D01*
Y68504D02*
Y82874D01*
X136417Y116535D02*
X149213D01*
X134252Y118701D02*
X136417Y116535D01*
X129331Y118701D02*
X134252D01*
X179331Y66732D02*
X181102Y68504D01*
X176535Y66732D02*
X179331D01*
X162795Y121653D02*
Y157283D01*
X156093Y114951D02*
X162795Y121653D01*
X156093Y91526D02*
Y114951D01*
X158858Y163976D02*
X173031D01*
X153098Y115894D02*
X160039Y122835D01*
X153098Y92272D02*
Y115894D01*
X149016Y88189D02*
X153098Y92272D01*
X142520Y88189D02*
X149016D01*
X150394Y85827D02*
X156093Y91526D01*
X144291Y85827D02*
X150394D01*
X123425Y110827D02*
X126181D01*
X130315Y113779D02*
X144685D01*
X129331Y114764D02*
X130315Y113779D01*
X129331Y114764D02*
Y116732D01*
X176535Y76181D02*
Y81260D01*
X129331Y120669D02*
X151968D01*
X154724Y126969D02*
Y182380D01*
X150393Y122638D02*
X154724Y126969D01*
X129331Y122638D02*
X150393D01*
X152362Y128347D02*
Y178543D01*
X148622Y124606D02*
X152362Y128347D01*
X129331Y124606D02*
X148622D01*
X150000Y129528D02*
Y177362D01*
X147047Y126575D02*
X150000Y129528D01*
X129331Y126575D02*
X147047D01*
X147244Y130512D02*
Y176575D01*
X145275Y128543D02*
X147244Y130512D01*
X137482Y128543D02*
X145275D01*
X131918Y130512D02*
X137992D01*
X138976Y131496D01*
X137624Y134252D02*
X144291D01*
X135852Y132480D02*
X137624Y134252D01*
X137362Y137402D02*
X142520D01*
X134409Y134449D02*
X137362Y137402D01*
X133548Y134449D02*
X134409D01*
X129331Y136417D02*
X132733D01*
X136867Y140551D01*
X133548Y134449D02*
X133548Y134449D01*
X132733Y132480D02*
X135852D01*
X132733Y132480D02*
X132733Y132480D01*
X131918Y130512D02*
X131918Y130512D01*
X137482Y128543D02*
X137482Y128543D01*
X129840Y128543D02*
X137482D01*
X129840Y128543D02*
X129840Y128543D01*
X131471Y132480D02*
X132733D01*
X132286Y134449D02*
X133548D01*
X132286Y134449D02*
X132286Y134449D01*
X131471Y132480D02*
X131471Y132480D01*
X129331Y128543D02*
X129840D01*
X129331Y130512D02*
X131918D01*
X129331Y132480D02*
X131471D01*
X129331Y134449D02*
X132286D01*
X129331Y138386D02*
Y145197D01*
X180394Y145394D02*
X191732D01*
X180394Y151299D02*
X187402D01*
X173031Y163976D02*
X177953Y168898D01*
X180354Y183898D02*
X193110D01*
X177953Y181496D02*
X180354Y183898D01*
X177953Y168898D02*
Y181496D01*
X169291Y127756D02*
Y136260D01*
X169291Y127756D02*
X180394D01*
X149427Y187677D02*
X154724Y182380D01*
X121457Y106299D02*
X125197Y102559D01*
X133071Y93307D02*
X134055D01*
X123819D02*
X133071D01*
Y97402D01*
X133189Y97520D01*
X138976Y90551D02*
Y98819D01*
X137598Y100197D02*
X138976Y98819D01*
X123622Y100197D02*
X137598D01*
X75000Y90354D02*
X76772Y92126D01*
X49803Y90354D02*
X75000D01*
X47047Y93110D02*
X49803Y90354D01*
X66535Y93307D02*
X73622Y100394D01*
X100000D01*
X103740Y104134D01*
Y110827D01*
X93504Y172638D02*
X109646Y156496D01*
X92205Y172638D02*
X93504D01*
X140748Y76772D02*
Y86417D01*
X138189Y74212D02*
X140748Y76772D01*
X128583Y74212D02*
X138189D01*
X143347Y74775D02*
Y84882D01*
X140027Y71456D02*
X143347Y74775D01*
X110256Y71456D02*
X140027D01*
X143347Y84882D02*
X144291Y85827D01*
X140748Y86417D02*
X142520Y88189D01*
X47047Y93110D02*
Y102756D01*
X76772Y92126D02*
Y96457D01*
X44488Y105315D02*
X47047Y102756D01*
X18256Y123425D02*
X22835Y118846D01*
X39961Y125295D02*
Y139103D01*
Y114835D02*
Y125295D01*
X38414Y140649D02*
X39961Y139103D01*
X29277Y140649D02*
X38414D01*
X36936Y111811D02*
X39961Y114835D01*
X29277Y125295D02*
X39961D01*
X92323Y39764D02*
X97835Y45276D01*
X79468Y39764D02*
X92323D01*
X74744Y44488D02*
X79468Y39764D01*
X50984Y44488D02*
X74744D01*
X49803Y45669D02*
X50984Y44488D01*
X48425Y45669D02*
X49803D01*
X131693Y36417D02*
Y45276D01*
X81151Y45669D02*
X82677D01*
X77411Y49409D02*
X81151Y45669D01*
X53728Y49409D02*
X77411D01*
X48610Y54527D02*
X53728Y49409D01*
X40866Y54527D02*
X48610D01*
X89960Y42323D02*
X92913Y45276D01*
X80539Y42323D02*
X89960D01*
X76011Y46850D02*
X80539Y42323D01*
X52362Y46850D02*
X76011D01*
X50787Y48425D02*
X52362Y46850D01*
X45276Y48425D02*
X50787D01*
X29277Y122736D02*
X35335D01*
X29277Y132972D02*
X35433D01*
X29277Y138090D02*
X35433D01*
X29277Y145767D02*
X35394D01*
X112205Y161024D02*
Y162205D01*
X108071Y161417D02*
Y162598D01*
X112205Y161024D02*
X113583Y159646D01*
Y144291D02*
Y159646D01*
X108071Y161417D02*
X111614Y157874D01*
Y144291D02*
Y157874D01*
X213701Y12205D02*
X219567Y18071D01*
X196850Y12205D02*
X213701D01*
X18436Y154803D02*
X35748D01*
X70492Y116732D02*
X72658Y118898D01*
X72441Y114173D02*
X74410Y116142D01*
X90945Y120669D02*
X95866D01*
X86417Y116142D02*
X90945Y120669D01*
X74410Y116142D02*
X86417D01*
X89370Y122638D02*
X95866D01*
X85630Y118898D02*
X89370Y122638D01*
X72658Y118898D02*
X85630D01*
X87992Y124606D02*
X95866D01*
X85039Y121653D02*
X87992Y124606D01*
X75000Y121653D02*
X85039D01*
X87008Y113189D02*
X92519Y118701D01*
X95866D01*
X84252Y124409D02*
X86417Y126575D01*
X76575Y124409D02*
X84252D01*
X75689Y125295D02*
X76575Y124409D01*
X84449Y128543D02*
X95866D01*
X83268Y127362D02*
X84449Y128543D01*
X81693Y127362D02*
X83268D01*
X86417Y126575D02*
X95866D01*
X58017Y125295D02*
X75689D01*
X95866Y128543D02*
X95866Y128543D01*
X78149Y130512D02*
X95866D01*
X75492Y127854D02*
X78149Y130512D01*
X58017Y127854D02*
X75492D01*
X76378Y132480D02*
X95866D01*
X74311Y130413D02*
X76378Y132480D01*
X58017Y130413D02*
X74311D01*
X89370Y142323D02*
X93504D01*
X95866Y139961D01*
Y138386D02*
Y139961D01*
X64956Y148441D02*
X83661D01*
X85140Y137892D02*
Y142656D01*
X82028Y145767D02*
X85140Y142656D01*
X65925Y145767D02*
X82028D01*
X63366Y143208D02*
X65925Y145767D01*
X85433Y134449D02*
X95866D01*
X82874Y137008D02*
X85433Y134449D01*
X82874Y137008D02*
Y140945D01*
X86614Y136417D02*
X95866D01*
X85140Y137892D02*
X86614Y136417D01*
X80472Y143347D02*
X82874Y140945D01*
X67008Y143347D02*
X80472D01*
X95866Y132480D02*
X95866Y132480D01*
X115551Y144291D02*
Y163583D01*
X113583Y165551D02*
X115551Y163583D01*
X104134Y165551D02*
X113583D01*
X102205Y167480D02*
X104134Y165551D01*
X119488Y169921D02*
X122205Y172638D01*
X119488Y144291D02*
Y169921D01*
X117520Y144291D02*
Y167323D01*
X112205Y172638D02*
X117520Y167323D01*
X102205Y167480D02*
Y172638D01*
X109646Y144291D02*
Y156496D01*
X107677Y144291D02*
Y155118D01*
X95669Y167126D02*
X107677Y155118D01*
X87717Y167126D02*
X95669D01*
X82205Y172638D02*
X87717Y167126D01*
X70276Y167323D02*
Y177074D01*
Y167323D02*
X72638Y164961D01*
X94685D02*
X105709Y153937D01*
X72638Y164961D02*
X94685D01*
X105709Y144291D02*
Y153937D01*
X143364Y197189D02*
X146624Y200449D01*
X156093D01*
X135636Y202953D02*
X137600D01*
X130660Y207929D02*
X135636Y202953D01*
X79416Y204034D02*
Y209337D01*
X82086Y212008D01*
X105037D01*
X127652Y204921D02*
X130660Y207929D01*
X120089Y204921D02*
X127652D01*
X87892Y201084D02*
X95789D01*
X84943Y204034D02*
X87892Y201084D01*
X79416Y204034D02*
X84943D01*
X61419Y196553D02*
X64368Y193604D01*
X54613Y196553D02*
X61419D01*
X154259Y193604D02*
X161155D01*
X176081Y196553D02*
X181693Y202165D01*
X170631Y196553D02*
X176081D01*
X149506Y204034D02*
X150591Y205118D01*
X145198Y204034D02*
X149506D01*
X127362Y196653D02*
X128826Y198117D01*
Y201084D01*
X124803Y196653D02*
X127362D01*
X114764Y198819D02*
X117520D01*
X112992Y200591D02*
X114764Y198819D01*
X112992Y200591D02*
Y209646D01*
X115354Y212008D01*
X120089D01*
X105905Y199409D02*
X107677D01*
X105037Y200277D02*
X105905Y199409D01*
X105037Y200277D02*
Y204921D01*
X93954Y207929D02*
X98173D01*
X99606Y206496D01*
X74055Y199961D02*
Y204567D01*
Y199961D02*
X76827Y197189D01*
X81250D01*
X69151Y200449D02*
Y204567D01*
X103740Y144291D02*
Y152756D01*
X58017Y148327D02*
X58071Y148380D01*
Y157000D01*
X58017Y138090D02*
X70492D01*
X81102Y94095D02*
X85433Y98425D01*
X102559D01*
X153779Y36910D02*
X162236D01*
X170236Y22835D02*
Y33110D01*
X29277Y120177D02*
Y122736D01*
Y140649D02*
Y143208D01*
Y145767D02*
Y148327D01*
Y135531D02*
Y138090D01*
Y130413D02*
Y132972D01*
X64311Y140649D02*
X67008Y143347D01*
X58017Y143208D02*
X63366D01*
X62283Y145767D02*
X64956Y148441D01*
X58017Y145767D02*
X62283D01*
X58017Y140649D02*
X64311D01*
X29277Y125295D02*
Y127854D01*
X58017Y120177D02*
Y122637D01*
Y135531D02*
Y138090D01*
X2061Y109449D02*
X10905D01*
X11259Y154803D02*
X18436D01*
X-11772Y136811D02*
Y144134D01*
X96142Y144291D02*
X101772Y144291D01*
X107677Y99410D02*
Y110827D01*
X103937Y95669D02*
X107677Y99410D01*
X86614Y95669D02*
X103937D01*
X105709Y101575D02*
Y110827D01*
X102559Y98425D02*
X105709Y101575D01*
X101772Y106890D02*
Y110827D01*
X100394Y105512D02*
X101772Y106890D01*
X89331Y105512D02*
X100394D01*
X83268Y111024D02*
X95866D01*
X82323Y110079D02*
X83268Y111024D01*
X82323Y105512D02*
Y110079D01*
X128543Y64370D02*
X128583Y64331D01*
Y59645D02*
Y64331D01*
X153098Y67413D02*
X153779Y66732D01*
X146732Y67413D02*
X153098D01*
X152925Y75287D02*
X153819Y76181D01*
X146732Y75287D02*
X152925D01*
X95472Y76575D02*
X96850Y77953D01*
X86024Y76575D02*
X95472D01*
X83661Y78937D02*
X86024Y76575D01*
X85140Y73440D02*
X95079D01*
X81102Y77477D02*
X85140Y73440D01*
X81102Y77477D02*
Y94095D01*
X83661Y78937D02*
Y92716D01*
X86614Y95669D01*
X118110Y79919D02*
X120133Y81942D01*
X118110Y77637D02*
Y79919D01*
X117286Y76812D02*
X118110Y77637D01*
X87930Y93307D02*
X99410D01*
X86221Y82844D02*
Y91597D01*
X87930Y93307D01*
X86221Y82844D02*
X87123Y81942D01*
X90699D01*
X101917D01*
X103612Y80246D01*
Y77619D02*
Y80246D01*
Y77619D02*
X104419Y76812D01*
X117286D01*
X120133Y81942D02*
X131250D01*
X134698D01*
X135630Y82874D01*
Y91732D01*
X134055Y93307D02*
X135630Y91732D01*
X115551Y101575D02*
X123819Y93307D01*
X101258Y87099D02*
Y88950D01*
Y87099D02*
X107273Y81084D01*
X120156Y86958D02*
Y88950D01*
X114281Y81084D02*
X120156Y86958D01*
Y88950D02*
X131250D01*
X90699D02*
X101258D01*
X25787Y87992D02*
X35394D01*
X29335Y59050D02*
X33858Y54527D01*
X95866Y111024D02*
Y116732D01*
X121457Y106299D02*
Y110827D01*
X117520Y102576D02*
X122655Y97441D01*
X126181D01*
X117520Y102576D02*
Y110827D01*
X115551Y101575D02*
Y110827D01*
X113583Y99606D02*
X116732Y96456D01*
X111614Y97491D02*
X120156Y88950D01*
X113583Y99606D02*
Y110827D01*
X99616Y74212D02*
X128583D01*
X100630Y71456D02*
X110256D01*
X66334Y69094D02*
X94498D01*
X69215Y66338D02*
X95512D01*
X63484Y59893D02*
Y66284D01*
X66294Y69094D01*
X95512Y66338D02*
X100630Y71456D01*
X94498Y69094D02*
X99616Y74212D01*
X34442Y18014D02*
X46946D01*
X51181Y13779D01*
X68209D02*
X72146Y17716D01*
X51181Y13779D02*
X68209D01*
X72146Y17716D02*
X93290D01*
X68484Y59893D02*
Y65646D01*
X69176Y66338D01*
X6114Y77559D02*
Y80511D01*
X6114Y77559D02*
X6114Y77559D01*
X16732Y56885D02*
X18898Y59050D01*
Y96456D02*
X18898Y96456D01*
X52067Y23149D02*
X53051Y22165D01*
X52067Y23149D02*
Y25393D01*
X51476Y25984D02*
X52067Y25393D01*
X58664Y19389D02*
X61217D01*
X58484Y32578D02*
X59941Y31121D01*
X63878Y23030D02*
Y25984D01*
Y23030D02*
X65059Y21849D01*
X68484D02*
X69783Y23148D01*
Y25393D01*
X70374Y25984D01*
X109756Y51145D02*
X110256D01*
X128083D02*
X128583D01*
X40866Y44685D02*
Y54527D01*
X53051Y19586D02*
Y22165D01*
X61217Y19389D02*
X61909Y20081D01*
X57972D02*
X58664Y19389D01*
X59941Y25984D02*
Y31121D01*
X61909Y25984D02*
Y31004D01*
X58484Y32578D02*
Y37893D01*
X65453Y17027D02*
X68484Y20058D01*
X65059Y20374D02*
Y21849D01*
X68484Y20058D02*
Y21849D01*
X108008Y52894D02*
X109756Y51145D01*
X110256Y59645D02*
Y64035D01*
X16732Y49504D02*
Y56885D01*
X57972Y20081D02*
Y25984D01*
X61909Y20081D02*
Y25984D01*
X18898Y59050D02*
X29335D01*
X17114Y87992D02*
X25787D01*
X13779Y96456D02*
X18898D01*
X55610Y17027D02*
X65453D01*
X53051Y19586D02*
X55610Y17027D01*
Y32578D02*
X58484D01*
X61909Y31004D02*
X63484Y32578D01*
Y37893D01*
X93290Y17716D02*
X102542Y8464D01*
X119556Y52894D02*
X126334D01*
X128083Y51145D01*
X101258Y88950D02*
X109646Y97337D01*
X10539Y43311D02*
X16732Y49504D01*
X101230Y52894D02*
X108008D01*
X111614Y97491D02*
Y110827D01*
X109646Y97337D02*
Y110827D01*
X188071Y5118D02*
X200275D01*
X102542Y8464D02*
X163583D01*
D21*
X169528Y66732D02*
D03*
X176535D02*
D03*
Y76181D02*
D03*
X169528D02*
D03*
X89331Y105512D02*
D03*
X82323D02*
D03*
X13779Y96456D02*
D03*
X6771Y96456D02*
D03*
X33858Y44685D02*
D03*
X40866D02*
D03*
X107273Y81084D02*
D03*
X114281D02*
D03*
X40866Y54527D02*
D03*
X33858D02*
D03*
X-4764Y136811D02*
D03*
X-11772D02*
D03*
X11529D02*
D03*
X4521D02*
D03*
X17913Y109449D02*
D03*
X10905D02*
D03*
X-4947Y109449D02*
D03*
X2061D02*
D03*
X43944Y111811D02*
D03*
X36936D02*
D03*
X77500Y138090D02*
D03*
X70492D02*
D03*
X51063Y157000D02*
D03*
X58071D02*
D03*
X146772Y36910D02*
D03*
X153779D02*
D03*
X160827Y76181D02*
D03*
X153819D02*
D03*
X160787Y66732D02*
D03*
X153779Y66732D02*
D03*
D22*
X85159Y157000D02*
D03*
X70986D02*
D03*
D23*
X101772Y110827D02*
D03*
X103740D02*
D03*
X105709D02*
D03*
X107677Y110827D02*
D03*
X109646Y110827D02*
D03*
X111614D02*
D03*
X113583D02*
D03*
X115551D02*
D03*
X117520Y110827D02*
D03*
X119488D02*
D03*
X121457D02*
D03*
X123425Y110827D02*
D03*
Y144291D02*
D03*
X121457Y144291D02*
D03*
X119488D02*
D03*
X117520D02*
D03*
X115551Y144291D02*
D03*
X113583D02*
D03*
X111614D02*
D03*
X109646D02*
D03*
X107677Y144291D02*
D03*
X105709Y144291D02*
D03*
X103740D02*
D03*
X101772D02*
D03*
D24*
X129331Y116732D02*
D03*
Y118701D02*
D03*
Y120669D02*
D03*
X129331Y122638D02*
D03*
Y124606D02*
D03*
Y126575D02*
D03*
Y128543D02*
D03*
Y130512D02*
D03*
Y132480D02*
D03*
Y134449D02*
D03*
Y136417D02*
D03*
Y138386D02*
D03*
X95866D02*
D03*
Y136417D02*
D03*
Y134449D02*
D03*
Y132480D02*
D03*
Y130512D02*
D03*
Y128543D02*
D03*
Y126575D02*
D03*
Y124606D02*
D03*
Y122638D02*
D03*
X95866Y120669D02*
D03*
Y118701D02*
D03*
Y116732D02*
D03*
D25*
X34442Y5022D02*
D03*
Y18014D02*
D03*
X15151D02*
D03*
Y5022D02*
D03*
X219567Y5079D02*
D03*
Y18071D02*
D03*
X200275D02*
D03*
Y5079D02*
D03*
D26*
X2655Y18014D02*
D03*
Y11006D02*
D03*
X-12402Y91260D02*
D03*
Y84252D02*
D03*
X-2756Y84252D02*
D03*
Y91260D02*
D03*
X25787Y87992D02*
D03*
Y80984D02*
D03*
X55905Y75236D02*
D03*
Y82244D02*
D03*
X65748Y75236D02*
D03*
Y82244D02*
D03*
X90699Y81942D02*
D03*
Y88950D02*
D03*
X81929Y52834D02*
D03*
Y59842D02*
D03*
X91575Y52886D02*
D03*
Y59893D02*
D03*
X131250Y81942D02*
D03*
Y88950D02*
D03*
X33838Y34350D02*
D03*
Y27342D02*
D03*
X35394Y80984D02*
D03*
Y87992D02*
D03*
X101230Y52894D02*
D03*
Y59902D02*
D03*
X119556D02*
D03*
Y52894D02*
D03*
X225079Y53543D02*
D03*
Y46535D02*
D03*
X169291Y127756D02*
D03*
Y120748D02*
D03*
X169291Y143268D02*
D03*
Y136260D02*
D03*
X189842Y18071D02*
D03*
Y11063D02*
D03*
X205260Y46662D02*
D03*
Y53670D02*
D03*
X215102Y46662D02*
D03*
Y53670D02*
D03*
X205197Y38189D02*
D03*
Y31181D02*
D03*
X215039Y38189D02*
D03*
Y31181D02*
D03*
X225079Y38189D02*
D03*
Y31181D02*
D03*
D27*
X68484Y37893D02*
D03*
X58484D02*
D03*
X63484D02*
D03*
X73484Y37893D02*
D03*
X58484Y59893D02*
D03*
X63484D02*
D03*
X68484D02*
D03*
X73484D02*
D03*
D28*
X2630Y31042D02*
D03*
X110256Y59645D02*
D03*
Y51145D02*
D03*
X128583Y59645D02*
D03*
Y51145D02*
D03*
X234331Y46535D02*
D03*
Y55035D02*
D03*
Y38189D02*
D03*
Y29689D02*
D03*
D29*
X10630Y27342D02*
D03*
Y34842D02*
D03*
D30*
X16929Y67126D02*
D03*
X1969Y67126D02*
D03*
D31*
X17114Y80511D02*
D03*
Y84252D02*
D03*
X17114Y87992D02*
D03*
X6114Y87992D02*
D03*
X6114Y84252D02*
D03*
X6114Y80511D02*
D03*
D32*
X21850Y45472D02*
D03*
Y27362D02*
D03*
D33*
X45276Y67126D02*
D03*
X27165D02*
D03*
D34*
X73523Y25984D02*
D03*
X70374D02*
D03*
X51476D02*
D03*
X48327D02*
D03*
D35*
X67815D02*
D03*
X65846D02*
D03*
X63878D02*
D03*
X61909D02*
D03*
X59941D02*
D03*
X57972D02*
D03*
X56004D02*
D03*
X54035D02*
D03*
D36*
X-12976Y123347D02*
D03*
X18256Y123425D02*
D03*
X-12976Y171575D02*
D03*
X18256Y171653D02*
D03*
X-12795Y154724D02*
D03*
X18436Y154803D02*
D03*
D37*
X58017Y120177D02*
D03*
Y122736D02*
D03*
X29277Y120177D02*
D03*
Y122736D02*
D03*
Y145767D02*
D03*
Y143208D02*
D03*
Y140649D02*
D03*
Y138090D02*
D03*
Y135531D02*
D03*
Y132972D02*
D03*
Y130413D02*
D03*
Y127854D02*
D03*
Y125295D02*
D03*
X58017Y148327D02*
D03*
Y145767D02*
D03*
Y143208D02*
D03*
Y140649D02*
D03*
Y138090D02*
D03*
Y135531D02*
D03*
Y132972D02*
D03*
Y130413D02*
D03*
Y127854D02*
D03*
Y125295D02*
D03*
D38*
X29277Y148327D02*
D03*
D39*
X197843Y30649D02*
D03*
Y38149D02*
D03*
X162236Y36910D02*
D03*
Y29410D02*
D03*
X197843Y46042D02*
D03*
Y53541D02*
D03*
D40*
X189842Y34449D02*
D03*
X170236Y33110D02*
D03*
X189842Y49841D02*
D03*
D41*
X154259Y193604D02*
D03*
X156093Y200449D02*
D03*
X168797Y189708D02*
D03*
X170631Y196553D02*
D03*
X145198Y204034D02*
D03*
X143364Y197189D02*
D03*
X130660Y207929D02*
D03*
X128826Y201084D02*
D03*
D42*
X239725Y122165D02*
D03*
X239725Y127677D02*
D03*
X239725Y133582D02*
D03*
X239725Y139488D02*
D03*
X239725Y145393D02*
D03*
X239725Y151299D02*
D03*
Y157204D02*
D03*
X239725Y163110D02*
D03*
X180394Y122165D02*
D03*
X180394Y127677D02*
D03*
Y133582D02*
D03*
X180394Y139488D02*
D03*
X180394Y145394D02*
D03*
X180394Y151299D02*
D03*
X180394Y157205D02*
D03*
X180434Y163110D02*
D03*
D43*
X230828Y169252D02*
D03*
X224922Y169252D02*
D03*
X219017Y169252D02*
D03*
X201300Y169252D02*
D03*
X207206Y169252D02*
D03*
X213111Y169252D02*
D03*
X195395Y169252D02*
D03*
X189489Y169252D02*
D03*
D44*
X69151Y200449D02*
D03*
X70986Y193604D02*
D03*
X54613Y196553D02*
D03*
X56447Y189708D02*
D03*
X93954Y207929D02*
D03*
X95789Y201084D02*
D03*
X79416Y204034D02*
D03*
X81250Y197189D02*
D03*
D45*
X120089Y212008D02*
D03*
Y204921D02*
D03*
X105037Y212008D02*
D03*
Y204921D02*
D03*
D84*
X10630Y34842D02*
Y43220D01*
X10539Y43311D02*
X10630Y43220D01*
X21850Y27342D02*
X33838D01*
X10630D02*
X21850D01*
D85*
X-3139Y36811D02*
X2630Y31042D01*
X-11024Y36811D02*
X-3139D01*
X21850Y45472D02*
Y54330D01*
D86*
X170236Y22835D02*
D03*
X140236D02*
D03*
X120079Y35433D02*
D03*
X104921D02*
D03*
D87*
X97835Y45276D02*
D03*
X131693D02*
D03*
D88*
X92913D02*
D03*
X126771D02*
D03*
D89*
X146732Y67413D02*
D03*
Y75287D02*
D03*
D90*
X3858Y191890D02*
D03*
X142205Y172638D02*
D03*
X10539Y53311D02*
D03*
D91*
X13858Y191890D02*
D03*
X23858D02*
D03*
X132205Y172638D02*
D03*
X122205D02*
D03*
X112205D02*
D03*
X102205D02*
D03*
X92205D02*
D03*
X82205D02*
D03*
X10539Y43311D02*
D03*
D92*
X101258Y88950D02*
D03*
X120156D02*
D03*
D93*
X-11024Y20669D02*
D03*
X-11024Y52952D02*
D03*
D94*
X-11024Y44685D02*
D03*
Y36811D02*
D03*
Y28937D02*
D03*
D95*
X58071Y101575D02*
D03*
X58071Y174803D02*
D03*
X166811Y101575D02*
D03*
X166811Y174803D02*
D03*
X112598Y19685D02*
D03*
D96*
X77953Y7283D02*
D03*
X43898D02*
D03*
D97*
X77953Y23819D02*
D03*
X43898Y23819D02*
D03*
D98*
X72303Y21771D02*
D03*
X49547D02*
D03*
D99*
X101378Y153937D02*
D03*
X195890Y124409D02*
D03*
X211614D02*
D03*
X227247D02*
D03*
X211614Y152753D02*
D03*
X195866Y152559D02*
D03*
X227247Y133857D02*
D03*
X211614D02*
D03*
X195890Y133793D02*
D03*
X227247Y143305D02*
D03*
X211568D02*
D03*
X195890Y143176D02*
D03*
X236221Y67716D02*
D03*
X191614Y74803D02*
D03*
X203150Y74761D02*
D03*
X214370Y74803D02*
D03*
X226181D02*
D03*
X198209Y88583D02*
D03*
X208858Y88779D02*
D03*
X214173Y84646D02*
D03*
X203150D02*
D03*
X191614D02*
D03*
X187205Y88779D02*
D03*
X220079Y50000D02*
D03*
X77953Y113189D02*
D03*
X220079Y43996D02*
D03*
X234252Y61024D02*
D03*
X100591Y116732D02*
D03*
X225590Y5709D02*
D03*
X169685Y17323D02*
D03*
X54331Y57874D02*
D03*
X45866Y58047D02*
D03*
X42126Y60120D02*
D03*
X54477Y63057D02*
D03*
X54331Y53303D02*
D03*
X165003Y79331D02*
D03*
Y64764D02*
D03*
Y71456D02*
D03*
X80666Y72638D02*
D03*
X159323Y110433D02*
D03*
X148819Y110236D02*
D03*
X148866Y99606D02*
D03*
X141560Y110433D02*
D03*
X131323D02*
D03*
X138976Y199746D02*
D03*
X101969Y184128D02*
D03*
X82297Y181352D02*
D03*
X65748Y192126D02*
D03*
X19331Y177165D02*
D03*
X14764Y185827D02*
D03*
X7874Y73318D02*
D03*
Y60498D02*
D03*
X51968Y34369D02*
D03*
X39954Y34627D02*
D03*
X65661Y87549D02*
D03*
X55709Y87598D02*
D03*
X172291Y43701D02*
D03*
Y50787D02*
D03*
X172441Y37598D02*
D03*
X160803Y50042D02*
D03*
X160660Y41929D02*
D03*
X173228Y56890D02*
D03*
X160787D02*
D03*
X209777Y175787D02*
D03*
X220866D02*
D03*
X198688D02*
D03*
X187598D02*
D03*
X181496Y167598D02*
D03*
X181693Y178740D02*
D03*
X182874Y190698D02*
D03*
X174487Y189764D02*
D03*
X181679Y196870D02*
D03*
X154724Y187247D02*
D03*
X149803Y197638D02*
D03*
X123228Y190157D02*
D03*
X127953Y187205D02*
D03*
Y193701D02*
D03*
X112598Y195276D02*
D03*
X100610Y200591D02*
D03*
X101918Y190945D02*
D03*
X97047Y184128D02*
D03*
X93385Y189408D02*
D03*
X86503D02*
D03*
X87008Y182480D02*
D03*
X74488Y188397D02*
D03*
X63189Y188919D02*
D03*
X70570Y181490D02*
D03*
X74002Y177074D02*
D03*
X74016Y168504D02*
D03*
X49242Y200293D02*
D03*
X57224Y200709D02*
D03*
X42323Y200875D02*
D03*
X155917Y207480D02*
D03*
X186811Y202359D02*
D03*
X177559Y211614D02*
D03*
X187205Y187205D02*
D03*
X198031Y193701D02*
D03*
X208268D02*
D03*
X224606Y184055D02*
D03*
X229213Y175120D02*
D03*
X233268Y184055D02*
D03*
X241413Y175787D02*
D03*
X226181Y190827D02*
D03*
X208268Y184252D02*
D03*
Y187205D02*
D03*
X196850Y184252D02*
D03*
X196457Y187402D02*
D03*
X65354Y164173D02*
D03*
X3740Y182480D02*
D03*
X-9646D02*
D03*
X9843Y187205D02*
D03*
X18898Y182480D02*
D03*
X25394Y175394D02*
D03*
X26181Y182480D02*
D03*
X17368Y163318D02*
D03*
X9040Y158071D02*
D03*
X9064Y163386D02*
D03*
X-8327Y170052D02*
D03*
X-2559D02*
D03*
X12205Y177165D02*
D03*
X1969D02*
D03*
X-8268Y177165D02*
D03*
X52165Y126181D02*
D03*
Y133661D02*
D03*
X64173Y133122D02*
D03*
X70931Y121653D02*
D03*
X64173Y121653D02*
D03*
X41350Y160827D02*
D03*
X41339Y157480D02*
D03*
X34699Y163386D02*
D03*
X25083D02*
D03*
X34699Y168237D02*
D03*
Y158268D02*
D03*
X25083D02*
D03*
X-8268Y147441D02*
D03*
Y162283D02*
D03*
X-2559Y154997D02*
D03*
Y162283D02*
D03*
Y147441D02*
D03*
X35Y136811D02*
D03*
X14370Y143040D02*
D03*
X-1378Y125984D02*
D03*
X7677D02*
D03*
X-1378Y117639D02*
D03*
X7677Y117717D02*
D03*
X-16383Y117639D02*
D03*
X-9893Y109449D02*
D03*
X-6075Y96653D02*
D03*
X-16383Y103649D02*
D03*
X14370Y102165D02*
D03*
X-6075D02*
D03*
X-9893Y117717D02*
D03*
X-8327Y129724D02*
D03*
X129587Y149409D02*
D03*
Y154997D02*
D03*
X141339Y150197D02*
D03*
X122835Y155709D02*
D03*
Y149409D02*
D03*
X129587Y160585D02*
D03*
X122835Y160630D02*
D03*
X138976Y140354D02*
D03*
X208858Y70669D02*
D03*
X219488D02*
D03*
X198228D02*
D03*
X187795D02*
D03*
X196457Y61024D02*
D03*
X187795Y54330D02*
D03*
Y61024D02*
D03*
X181679Y45276D02*
D03*
X185768D02*
D03*
X182084Y51378D02*
D03*
Y38386D02*
D03*
X197047Y22835D02*
D03*
X208858Y17717D02*
D03*
X229134Y9252D02*
D03*
X201378D02*
D03*
X161221Y25000D02*
D03*
X152953Y31057D02*
D03*
Y11811D02*
D03*
Y19488D02*
D03*
X86811Y48460D02*
D03*
X144346Y19473D02*
D03*
X144291Y11811D02*
D03*
X144205Y26969D02*
D03*
X133858Y56890D02*
D03*
X148698Y50042D02*
D03*
X142886Y43110D02*
D03*
X136415D02*
D03*
X148622Y56890D02*
D03*
X148698Y45472D02*
D03*
X142913Y56890D02*
D03*
X133858Y63779D02*
D03*
X111811Y44291D02*
D03*
X112303Y35630D02*
D03*
X219199Y26394D02*
D03*
X223228Y23228D02*
D03*
X234449D02*
D03*
X232283Y12992D02*
D03*
X208858Y8858D02*
D03*
X210571Y3543D02*
D03*
X184843Y8465D02*
D03*
X175591Y9055D02*
D03*
X158268Y31102D02*
D03*
X169685Y9184D02*
D03*
X161221Y11811D02*
D03*
X124803Y19504D02*
D03*
X135433Y19473D02*
D03*
X136126Y26909D02*
D03*
Y11811D02*
D03*
X121247D02*
D03*
X121861Y26909D02*
D03*
X121235Y44280D02*
D03*
X102953Y44291D02*
D03*
X96653Y19488D02*
D03*
X103937Y11811D02*
D03*
X103274Y26909D02*
D03*
X94488Y33268D02*
D03*
X87992Y33298D02*
D03*
Y21457D02*
D03*
X68799Y30709D02*
D03*
X28645Y54724D02*
D03*
X28740Y44870D02*
D03*
X46063Y42026D02*
D03*
X54477Y40876D02*
D03*
X33838Y39094D02*
D03*
X28346Y22835D02*
D03*
X38481Y22835D02*
D03*
X25000Y18014D02*
D03*
X61221Y3347D02*
D03*
X90386Y9843D02*
D03*
X8434Y3150D02*
D03*
X-5118Y9646D02*
D03*
Y32283D02*
D03*
X2557Y24718D02*
D03*
X15503Y22638D02*
D03*
X-16552Y24718D02*
D03*
X47244Y107087D02*
D03*
X72835Y133122D02*
D03*
X90354Y150774D02*
D03*
X93110Y161221D02*
D03*
X48228Y167913D02*
D03*
X48287Y182283D02*
D03*
X41339Y180954D02*
D03*
X34055D02*
D03*
X-4947Y187205D02*
D03*
X-16383Y177074D02*
D03*
Y162283D02*
D03*
Y148327D02*
D03*
Y129724D02*
D03*
X32084Y116732D02*
D03*
Y109646D02*
D03*
X26181Y116732D02*
D03*
X26378Y109646D02*
D03*
X4147Y102165D02*
D03*
X-16383Y110644D02*
D03*
X1661Y96653D02*
D03*
X-16552D02*
D03*
X-4528Y61453D02*
D03*
X-16552Y61787D02*
D03*
X-4367Y51968D02*
D03*
X-16552Y70639D02*
D03*
X-4528Y70472D02*
D03*
X8268Y22638D02*
D03*
X96131Y3347D02*
D03*
X72638D02*
D03*
X50621D02*
D03*
X25787Y4921D02*
D03*
X14370Y11000D02*
D03*
X1299Y3150D02*
D03*
X-10630Y15354D02*
D03*
X44882Y188583D02*
D03*
X52067Y138090D02*
D03*
X160039Y160039D02*
D03*
X177362Y116732D02*
D03*
X184252Y73032D02*
D03*
X180118Y95866D02*
D03*
X149213Y116535D02*
D03*
X144685Y113779D02*
D03*
X144488Y99016D02*
D03*
X162795Y157283D02*
D03*
X176535Y81260D02*
D03*
X138976Y131496D02*
D03*
X129331Y145197D02*
D03*
X191732Y145394D02*
D03*
X187402Y151299D02*
D03*
X144291Y134252D02*
D03*
X193110Y183898D02*
D03*
X142520Y137402D02*
D03*
X149427Y187677D02*
D03*
X123976Y183898D02*
D03*
X94882Y180709D02*
D03*
X87402Y177953D02*
D03*
X141732Y96260D02*
D03*
X133189Y97520D02*
D03*
X138976Y90551D02*
D03*
X146732Y30315D02*
D03*
X66535Y93307D02*
D03*
X75000Y121653D02*
D03*
X76772Y96457D02*
D03*
X131693Y36417D02*
D03*
X82677Y45669D02*
D03*
X45276Y48425D02*
D03*
X48425Y45669D02*
D03*
X35335Y122736D02*
D03*
X35433Y132972D02*
D03*
Y138090D02*
D03*
X35394Y145767D02*
D03*
X112205Y162205D02*
D03*
X108071Y162598D02*
D03*
X196850Y12205D02*
D03*
X210118Y31890D02*
D03*
X81693Y127362D02*
D03*
X83661Y148441D02*
D03*
X89370Y142323D02*
D03*
X162236Y194685D02*
D03*
X181693Y202165D02*
D03*
X150591Y205118D02*
D03*
X124803Y196653D02*
D03*
X117520Y198819D02*
D03*
X107677Y199409D02*
D03*
X99606Y206496D02*
D03*
X74016Y204567D02*
D03*
X45945Y204567D02*
D03*
X69134D02*
D03*
X-11772Y144134D02*
D03*
X11259Y154803D02*
D03*
X96142Y144291D02*
D03*
X128543Y64370D02*
D03*
X95079Y73440D02*
D03*
X96850Y77953D02*
D03*
X95866Y111024D02*
D03*
X126181Y97441D02*
D03*
X116732Y96456D02*
D03*
X128583Y74212D02*
D03*
X110256Y71456D02*
D03*
X18898Y96456D02*
D03*
X65059Y20374D02*
D03*
X55610Y32578D02*
D03*
X110256Y64035D02*
D03*
X6114Y77559D02*
D03*
X210157Y34989D02*
D03*
X163583Y8464D02*
D03*
X188071Y5118D02*
D03*
D100*
X232634Y73185D02*
D03*
X220669Y150787D02*
D03*
X234252Y87598D02*
D03*
X237598Y81890D02*
D03*
X112008Y121063D02*
D03*
X119706D02*
D03*
X112008Y127565D02*
D03*
X119706D02*
D03*
X119727Y134094D02*
D03*
X112029D02*
D03*
X104331Y121035D02*
D03*
Y127565D02*
D03*
Y134094D02*
D03*
X220669Y161024D02*
D03*
X169291Y148622D02*
D03*
X30118Y175787D02*
D03*
X45276Y209646D02*
D03*
X30118Y194488D02*
D03*
X5118Y167323D02*
D03*
X22047Y148031D02*
D03*
X26770Y94882D02*
D03*
X45866Y83465D02*
D03*
X18110Y130118D02*
D03*
X17913Y136811D02*
D03*
Y115157D02*
D03*
X41929Y101969D02*
D03*
X58484Y66732D02*
D03*
X225197Y156693D02*
D03*
X229528Y17086D02*
D03*
X191614Y66535D02*
D03*
X222716D02*
D03*
X213071D02*
D03*
X229213Y61811D02*
D03*
X73477Y75236D02*
D03*
X140236Y4724D02*
D03*
X84095Y13780D02*
D03*
D101*
X21850Y54330D02*
D03*
M02*
