G04*
G04 #@! TF.GenerationSoftware,Altium Limited,Altium Designer,18.1.9 (240)*
G04*
G04 Layer_Color=8388736*
%FSLAX25Y25*%
%MOIN*%
G70*
G01*
G75*
%ADD13C,0.00787*%
%ADD46R,0.05367X0.06587*%
%ADD47R,0.08300X0.09800*%
%ADD48O,0.01981X0.05524*%
%ADD49O,0.05524X0.01981*%
%ADD50R,0.08674X0.04737*%
%ADD51R,0.06587X0.05367*%
%ADD52O,0.03200X0.08800*%
%ADD53R,0.05800X0.04800*%
%ADD54R,0.04800X0.04800*%
%ADD55R,0.06706X0.10642*%
%ADD56R,0.04737X0.02572*%
%ADD57R,0.07690X0.09461*%
%ADD58R,0.09461X0.07690*%
%ADD59R,0.03162X0.05131*%
%ADD60R,0.01981X0.05131*%
%ADD61R,0.08674X0.06706*%
%ADD62O,0.07493X0.02178*%
%ADD63R,0.07493X0.02178*%
%ADD64R,0.04400X0.04400*%
%ADD65R,0.05800X0.04400*%
G04:AMPARAMS|DCode=66|XSize=35.56mil|YSize=64.81mil|CornerRadius=0mil|HoleSize=0mil|Usage=FLASHONLY|Rotation=75.000|XOffset=0mil|YOffset=0mil|HoleType=Round|Shape=Rectangle|*
%AMROTATEDRECTD66*
4,1,4,0.02670,-0.02556,-0.03590,-0.00879,-0.02670,0.02556,0.03590,0.00879,0.02670,-0.02556,0.0*
%
%ADD66ROTATEDRECTD66*%

%ADD67R,0.07099X0.03950*%
%ADD68R,0.03950X0.07099*%
G04:AMPARAMS|DCode=69|XSize=35.56mil|YSize=64.81mil|CornerRadius=0mil|HoleSize=0mil|Usage=FLASHONLY|Rotation=105.000|XOffset=0mil|YOffset=0mil|HoleType=Round|Shape=Rectangle|*
%AMROTATEDRECTD69*
4,1,4,0.03590,-0.00879,-0.02670,-0.02556,-0.03590,0.00879,0.02670,0.02556,0.03590,-0.00879,0.0*
%
%ADD69ROTATEDRECTD69*%

%ADD70R,0.06481X0.03556*%
%ADD71C,0.05800*%
%ADD72R,0.04737X0.04737*%
%ADD73C,0.04737*%
%ADD74C,0.04737*%
%ADD75R,0.07493X0.07493*%
%ADD76C,0.07493*%
%ADD77C,0.05918*%
%ADD78O,0.09461X0.05524*%
%ADD79C,0.06312*%
%ADD80C,0.18517*%
%ADD81O,0.05524X0.06706*%
%ADD82O,0.05524X0.08674*%
%ADD83C,0.03556*%
G36*
X101811Y136614D02*
X123031D01*
Y119134D01*
X122992Y119095D01*
X101772D01*
Y136614D01*
X101772Y136614D01*
Y136653D01*
X101811Y136614D01*
D02*
G37*
D13*
X123031Y136653D02*
X123031Y119095D01*
X101732Y119095D02*
X122992Y119095D01*
X101772Y136653D02*
X101772Y119095D01*
X101772Y136614D02*
X123031Y136614D01*
D46*
X169528Y66732D02*
D03*
X176535D02*
D03*
Y76181D02*
D03*
X169528D02*
D03*
X89331Y105512D02*
D03*
X82323D02*
D03*
X13779Y96456D02*
D03*
X6771Y96456D02*
D03*
X33858Y44685D02*
D03*
X40866D02*
D03*
X107273Y81084D02*
D03*
X114281D02*
D03*
X40866Y54527D02*
D03*
X33858D02*
D03*
X-4764Y136811D02*
D03*
X-11772D02*
D03*
X11529D02*
D03*
X4521D02*
D03*
X17913Y109449D02*
D03*
X10905D02*
D03*
X-4947Y109449D02*
D03*
X2061D02*
D03*
X43944Y111811D02*
D03*
X36936D02*
D03*
X77500Y138090D02*
D03*
X70492D02*
D03*
X51063Y157000D02*
D03*
X58071D02*
D03*
X146772Y36910D02*
D03*
X153779D02*
D03*
X160827Y76181D02*
D03*
X153819D02*
D03*
X160787Y66732D02*
D03*
X153779Y66732D02*
D03*
D47*
X85159Y157000D02*
D03*
X70986D02*
D03*
D48*
X101772Y110827D02*
D03*
X103740D02*
D03*
X105709D02*
D03*
X107677Y110827D02*
D03*
X109646Y110827D02*
D03*
X111614D02*
D03*
X113583D02*
D03*
X115551D02*
D03*
X117520Y110827D02*
D03*
X119488D02*
D03*
X121457D02*
D03*
X123425Y110827D02*
D03*
Y144291D02*
D03*
X121457Y144291D02*
D03*
X119488D02*
D03*
X117520D02*
D03*
X115551Y144291D02*
D03*
X113583D02*
D03*
X111614D02*
D03*
X109646D02*
D03*
X107677Y144291D02*
D03*
X105709Y144291D02*
D03*
X103740D02*
D03*
X101772D02*
D03*
D49*
X129331Y116732D02*
D03*
Y118701D02*
D03*
Y120669D02*
D03*
X129331Y122638D02*
D03*
Y124606D02*
D03*
Y126575D02*
D03*
Y128543D02*
D03*
Y130512D02*
D03*
Y132480D02*
D03*
Y134449D02*
D03*
Y136417D02*
D03*
Y138386D02*
D03*
X95866D02*
D03*
Y136417D02*
D03*
Y134449D02*
D03*
Y132480D02*
D03*
Y130512D02*
D03*
Y128543D02*
D03*
Y126575D02*
D03*
Y124606D02*
D03*
Y122638D02*
D03*
X95866Y120669D02*
D03*
Y118701D02*
D03*
Y116732D02*
D03*
D50*
X34442Y5022D02*
D03*
Y18014D02*
D03*
X15151D02*
D03*
Y5022D02*
D03*
X219567Y5079D02*
D03*
Y18071D02*
D03*
X200275D02*
D03*
Y5079D02*
D03*
D51*
X2655Y18014D02*
D03*
Y11006D02*
D03*
X-12402Y91260D02*
D03*
Y84252D02*
D03*
X-2756Y84252D02*
D03*
Y91260D02*
D03*
X25787Y87992D02*
D03*
Y80984D02*
D03*
X55905Y75236D02*
D03*
Y82244D02*
D03*
X65748Y75236D02*
D03*
Y82244D02*
D03*
X90699Y81942D02*
D03*
Y88950D02*
D03*
X81929Y52834D02*
D03*
Y59842D02*
D03*
X91575Y52886D02*
D03*
Y59893D02*
D03*
X131250Y81942D02*
D03*
Y88950D02*
D03*
X33838Y34350D02*
D03*
Y27342D02*
D03*
X35394Y80984D02*
D03*
Y87992D02*
D03*
X101230Y52894D02*
D03*
Y59902D02*
D03*
X119556D02*
D03*
Y52894D02*
D03*
X225079Y53543D02*
D03*
Y46535D02*
D03*
X169291Y127756D02*
D03*
Y120748D02*
D03*
X169291Y143268D02*
D03*
Y136260D02*
D03*
X189842Y18071D02*
D03*
Y11063D02*
D03*
X205260Y46662D02*
D03*
Y53670D02*
D03*
X215102Y46662D02*
D03*
Y53670D02*
D03*
X205197Y38189D02*
D03*
Y31181D02*
D03*
X215039Y38189D02*
D03*
Y31181D02*
D03*
X225079Y38189D02*
D03*
Y31181D02*
D03*
D52*
X68484Y37893D02*
D03*
X58484D02*
D03*
X63484D02*
D03*
X73484Y37893D02*
D03*
X58484Y59893D02*
D03*
X63484D02*
D03*
X68484D02*
D03*
X73484D02*
D03*
D53*
X2630Y31042D02*
D03*
X110256Y59645D02*
D03*
Y51145D02*
D03*
X128583Y59645D02*
D03*
Y51145D02*
D03*
X234331Y46535D02*
D03*
Y55035D02*
D03*
Y38189D02*
D03*
Y29689D02*
D03*
D54*
X10630Y27342D02*
D03*
Y34842D02*
D03*
D55*
X16929Y67126D02*
D03*
X1969Y67126D02*
D03*
D56*
X17114Y80511D02*
D03*
Y84252D02*
D03*
X17114Y87992D02*
D03*
X6114Y87992D02*
D03*
X6114Y84252D02*
D03*
X6114Y80511D02*
D03*
D57*
X21850Y45472D02*
D03*
Y27362D02*
D03*
D58*
X45276Y67126D02*
D03*
X27165D02*
D03*
D59*
X73523Y25984D02*
D03*
X70374D02*
D03*
X51476D02*
D03*
X48327D02*
D03*
D60*
X67815D02*
D03*
X65846D02*
D03*
X63878D02*
D03*
X61909D02*
D03*
X59941D02*
D03*
X57972D02*
D03*
X56004D02*
D03*
X54035D02*
D03*
D61*
X-12976Y123347D02*
D03*
X18256Y123425D02*
D03*
X-12976Y171575D02*
D03*
X18256Y171653D02*
D03*
X-12795Y154724D02*
D03*
X18436Y154803D02*
D03*
D62*
X58017Y120177D02*
D03*
Y122736D02*
D03*
X29277Y120177D02*
D03*
Y122736D02*
D03*
Y145767D02*
D03*
Y143208D02*
D03*
Y140649D02*
D03*
Y138090D02*
D03*
Y135531D02*
D03*
Y132972D02*
D03*
Y130413D02*
D03*
Y127854D02*
D03*
Y125295D02*
D03*
X58017Y148327D02*
D03*
Y145767D02*
D03*
Y143208D02*
D03*
Y140649D02*
D03*
Y138090D02*
D03*
Y135531D02*
D03*
Y132972D02*
D03*
Y130413D02*
D03*
Y127854D02*
D03*
Y125295D02*
D03*
D63*
X29277Y148327D02*
D03*
D64*
X197843Y30649D02*
D03*
Y38149D02*
D03*
X162236Y36910D02*
D03*
Y29410D02*
D03*
X197843Y46042D02*
D03*
Y53541D02*
D03*
D65*
X189842Y34449D02*
D03*
X170236Y33110D02*
D03*
X189842Y49841D02*
D03*
D66*
X154259Y193604D02*
D03*
X156093Y200449D02*
D03*
X168797Y189708D02*
D03*
X170631Y196553D02*
D03*
X145198Y204034D02*
D03*
X143364Y197189D02*
D03*
X130660Y207929D02*
D03*
X128826Y201084D02*
D03*
D67*
X239725Y122165D02*
D03*
X239725Y127677D02*
D03*
X239725Y133582D02*
D03*
X239725Y139488D02*
D03*
X239725Y145393D02*
D03*
X239725Y151299D02*
D03*
Y157204D02*
D03*
X239725Y163110D02*
D03*
X180394Y122165D02*
D03*
X180394Y127677D02*
D03*
Y133582D02*
D03*
X180394Y139488D02*
D03*
X180394Y145394D02*
D03*
X180394Y151299D02*
D03*
X180394Y157205D02*
D03*
X180434Y163110D02*
D03*
D68*
X230828Y169252D02*
D03*
X224922Y169252D02*
D03*
X219017Y169252D02*
D03*
X201300Y169252D02*
D03*
X207206Y169252D02*
D03*
X213111Y169252D02*
D03*
X195395Y169252D02*
D03*
X189489Y169252D02*
D03*
D69*
X69151Y200449D02*
D03*
X70986Y193604D02*
D03*
X54613Y196553D02*
D03*
X56447Y189708D02*
D03*
X93954Y207929D02*
D03*
X95789Y201084D02*
D03*
X79416Y204034D02*
D03*
X81250Y197189D02*
D03*
D70*
X120089Y212008D02*
D03*
Y204921D02*
D03*
X105037Y212008D02*
D03*
Y204921D02*
D03*
D71*
X170236Y22835D02*
D03*
X140236D02*
D03*
X120079Y35433D02*
D03*
X104921D02*
D03*
D72*
X97835Y45276D02*
D03*
X131693D02*
D03*
D73*
X92913D02*
D03*
X126771D02*
D03*
D74*
X146732Y67413D02*
D03*
Y75287D02*
D03*
D75*
X3858Y191890D02*
D03*
X142205Y172638D02*
D03*
X10539Y53311D02*
D03*
D76*
X13858Y191890D02*
D03*
X23858D02*
D03*
X132205Y172638D02*
D03*
X122205D02*
D03*
X112205D02*
D03*
X102205D02*
D03*
X92205D02*
D03*
X82205D02*
D03*
X10539Y43311D02*
D03*
D77*
X101258Y88950D02*
D03*
X120156D02*
D03*
D78*
X-11024Y20669D02*
D03*
X-11024Y52952D02*
D03*
D79*
X-11024Y44685D02*
D03*
Y36811D02*
D03*
Y28937D02*
D03*
D80*
X58071Y101575D02*
D03*
X58071Y174803D02*
D03*
X166811Y101575D02*
D03*
X166811Y174803D02*
D03*
X112598Y19685D02*
D03*
D81*
X77953Y7283D02*
D03*
X43898D02*
D03*
D82*
X77953Y23819D02*
D03*
X43898Y23819D02*
D03*
D83*
X72303Y21771D02*
D03*
X49547D02*
D03*
M02*
