G04*
G04 #@! TF.GenerationSoftware,Altium Limited,Altium Designer,18.1.9 (240)*
G04*
G04 Layer_Color=128*
%FSLAX25Y25*%
%MOIN*%
G70*
G01*
G75*
%ADD21R,0.04567X0.05787*%
%ADD26R,0.05787X0.04567*%
G04:AMPARAMS|DCode=102|XSize=45.67mil|YSize=57.87mil|CornerRadius=0mil|HoleSize=0mil|Usage=FLASHONLY|Rotation=135.000|XOffset=0mil|YOffset=0mil|HoleType=Round|Shape=Rectangle|*
%AMROTATEDRECTD102*
4,1,4,0.03661,0.00432,-0.00432,-0.03661,-0.03661,-0.00432,0.00432,0.03661,0.03661,0.00432,0.0*
%
%ADD102ROTATEDRECTD102*%

%ADD103R,0.09843X0.09843*%
%ADD104R,0.01181X0.03937*%
%ADD105R,0.03937X0.01181*%
D21*
X213425Y190748D02*
D03*
X220433D02*
D03*
X89291Y111024D02*
D03*
X82284D02*
D03*
X134252Y154921D02*
D03*
X141260D02*
D03*
X134252Y145197D02*
D03*
X141260D02*
D03*
X133189Y103504D02*
D03*
X126181D02*
D03*
X97008Y195079D02*
D03*
X90000D02*
D03*
X74488Y195079D02*
D03*
X81496D02*
D03*
X36142Y195079D02*
D03*
X43150D02*
D03*
X58465Y195079D02*
D03*
X51457D02*
D03*
X220945Y86614D02*
D03*
X227953D02*
D03*
X191614Y22441D02*
D03*
X184606D02*
D03*
X228819Y29724D02*
D03*
X235827Y29724D02*
D03*
X184606Y32283D02*
D03*
X191614D02*
D03*
X228819Y39567D02*
D03*
X235827D02*
D03*
D26*
X143898Y194685D02*
D03*
Y187677D02*
D03*
X143898Y204567D02*
D03*
Y211575D02*
D03*
X134252D02*
D03*
Y204567D02*
D03*
X172047Y204567D02*
D03*
Y211575D02*
D03*
X162205D02*
D03*
Y204567D02*
D03*
X96142Y148701D02*
D03*
Y155709D02*
D03*
X107874Y190905D02*
D03*
Y183898D02*
D03*
X117520Y204567D02*
D03*
Y211575D02*
D03*
X107677Y211575D02*
D03*
Y204567D02*
D03*
X117520Y190905D02*
D03*
Y183898D02*
D03*
X92060Y204567D02*
D03*
Y211575D02*
D03*
X82284D02*
D03*
Y204567D02*
D03*
X62402Y204567D02*
D03*
Y211575D02*
D03*
X52756D02*
D03*
Y204567D02*
D03*
X203819Y10118D02*
D03*
Y17126D02*
D03*
X213858Y10079D02*
D03*
Y17086D02*
D03*
X134055Y187677D02*
D03*
Y194685D02*
D03*
X203425Y54330D02*
D03*
Y61338D02*
D03*
X213071D02*
D03*
Y54330D02*
D03*
X222716Y61338D02*
D03*
Y54330D02*
D03*
X223898Y17086D02*
D03*
Y10079D02*
D03*
D102*
X188155Y195703D02*
D03*
X193110Y190748D02*
D03*
D103*
X210118Y35630D02*
D03*
D104*
X215039Y43996D02*
D03*
X213071D02*
D03*
X211102D02*
D03*
X209134D02*
D03*
X207165D02*
D03*
X205197D02*
D03*
X205197Y27264D02*
D03*
X207165D02*
D03*
X209134D02*
D03*
X211102D02*
D03*
X213071D02*
D03*
X215039D02*
D03*
D105*
X201752Y40551D02*
D03*
Y38583D02*
D03*
Y36614D02*
D03*
Y34646D02*
D03*
Y32677D02*
D03*
Y30709D02*
D03*
X218484D02*
D03*
Y32677D02*
D03*
Y34646D02*
D03*
Y36614D02*
D03*
Y38583D02*
D03*
Y40551D02*
D03*
M02*
