G04*
G04 #@! TF.GenerationSoftware,Altium Limited,Altium Designer,18.1.9 (240)*
G04*
G04 Layer_Color=32896*
%FSLAX25Y25*%
%MOIN*%
G70*
G01*
G75*
%ADD12C,0.01000*%
%ADD13C,0.00787*%
%ADD17C,0.00800*%
%ADD19C,0.00600*%
%ADD20C,0.00591*%
%ADD110C,0.02000*%
D12*
X177331Y22835D02*
G03*
X177331Y22835I-22047J0D01*
G01*
X218484Y43504D02*
G03*
X218484Y43504I-492J0D01*
G01*
X92500Y53622D02*
Y55512D01*
X97972Y53622D02*
Y55512D01*
X86712D02*
X92500D01*
X97972D02*
X104035D01*
X86701Y41724D02*
X86701Y55504D01*
X86870Y46457D02*
X88131Y46459D01*
X88130Y50237D02*
X88131Y46459D01*
X86710Y50237D02*
X88130D01*
X86712Y53585D02*
X104035Y53585D01*
X86712Y41732D02*
X104035D01*
Y41732D02*
Y55512D01*
X102618Y46417D02*
X103879Y46416D01*
X102618Y46417D02*
X102619Y50196D01*
X104039D01*
X136477D02*
X137897D01*
X136476Y46417D02*
X136477Y50196D01*
X136476Y46417D02*
X137737Y46416D01*
X137894Y41732D02*
Y55512D01*
X120571Y41732D02*
X137894D01*
X120571Y53585D02*
X137894Y53585D01*
X120568Y50237D02*
X121988D01*
X121989Y46459D01*
X120728Y46457D02*
X121989Y46459D01*
X120559Y41724D02*
X120560Y55504D01*
X131830Y55512D02*
X137894D01*
X120571D02*
X126358D01*
X131830Y53622D02*
Y55512D01*
X126358Y53622D02*
Y55512D01*
X-2362Y19882D02*
Y53740D01*
X-5880Y19882D02*
X-2362Y19882D01*
X-19685Y19882D02*
X-16168Y19882D01*
X-5880Y53740D02*
X-2362Y53740D01*
X-19685Y53740D02*
X-16168D01*
X-19685Y19882D02*
Y53740D01*
X-26772Y28937D02*
X-19685D01*
X-30709Y28937D02*
Y36811D01*
X-30649Y36870D01*
X-19685D01*
X-30709Y28937D02*
X-26772Y28937D01*
X-30709Y35218D02*
X-28346Y32856D01*
X-30709Y30494D02*
X-28346Y32856D01*
X3739Y44561D02*
Y52511D01*
X1209Y33601D02*
Y36681D01*
Y44561D01*
Y52511D02*
X3739D01*
X1209D02*
Y63301D01*
Y44561D02*
X3739D01*
X24339Y33601D02*
Y63301D01*
X1209Y33601D02*
X24339D01*
X1209Y63301D02*
X24339D01*
X221437Y40551D02*
Y43012D01*
X217500Y46949D02*
X221437Y43012D01*
X215039Y46949D02*
X217500D01*
X221437Y24311D02*
Y40551D01*
X198799Y24311D02*
X221437D01*
X198799D02*
Y46949D01*
X215039D01*
D13*
X80394Y115098D02*
G03*
X78819Y113524I0J-1575D01*
G01*
X78819Y108524D02*
G03*
X80394Y106949I1575J0D01*
G01*
X91181Y106949D02*
G03*
X92756Y108524I0J1575D01*
G01*
X92756Y113524D02*
G03*
X91181Y115099I-1575J0D01*
G01*
X143150Y150846D02*
G03*
X144724Y152421I-0J1575D01*
G01*
X144724Y157421D02*
G03*
X143150Y158996I-1575J0D01*
G01*
X132362Y158996D02*
G03*
X130787Y157421I0J-1575D01*
G01*
X130787Y152421D02*
G03*
X132362Y150846I1575J0D01*
G01*
X143150Y141122D02*
G03*
X144724Y142697I-0J1575D01*
G01*
X144724Y147697D02*
G03*
X143150Y149272I-1575J0D01*
G01*
X132362Y149272D02*
G03*
X130787Y147697I0J-1575D01*
G01*
X130787Y142697D02*
G03*
X132362Y141122I1575J0D01*
G01*
X100216Y157598D02*
G03*
X98642Y159173I-1575J-0D01*
G01*
X93642Y159173D02*
G03*
X92067Y157598I0J-1575D01*
G01*
X92067Y146811D02*
G03*
X93642Y145236I1575J0D01*
G01*
X98642Y145236D02*
G03*
X100217Y146811I0J1575D01*
G01*
X122716Y101004D02*
G03*
X124291Y99429I1575J0D01*
G01*
X124291Y107579D02*
G03*
X122716Y106004I0J-1575D01*
G01*
X136653Y106004D02*
G03*
X135079Y107579I-1575J0D01*
G01*
X135079Y99429D02*
G03*
X136653Y101004I-0J1575D01*
G01*
X229842Y82539D02*
G03*
X231417Y84114I-0J1575D01*
G01*
X231417Y89114D02*
G03*
X229842Y90689I-1575J0D01*
G01*
X219055Y90689D02*
G03*
X217480Y89114I0J-1575D01*
G01*
X217480Y84114D02*
G03*
X219055Y82539I1575J0D01*
G01*
X201319Y20590D02*
G03*
X199744Y19016I0J-1575D01*
G01*
X207894Y19015D02*
G03*
X206319Y20590I-1575J0D01*
G01*
X206319Y6653D02*
G03*
X207894Y8228I0J1575D01*
G01*
X199744Y8228D02*
G03*
X201319Y6653I1575J0D01*
G01*
X193504Y28208D02*
G03*
X195079Y29783I-0J1575D01*
G01*
X195079Y34783D02*
G03*
X193504Y36358I-1575J0D01*
G01*
X182717Y36358D02*
G03*
X181142Y34783I0J-1575D01*
G01*
X181142Y29783D02*
G03*
X182717Y28208I1575J0D01*
G01*
X207500Y63228D02*
G03*
X205925Y64803I-1575J-0D01*
G01*
X200925Y64803D02*
G03*
X199350Y63228I0J-1575D01*
G01*
X199350Y52441D02*
G03*
X200925Y50866I1575J0D01*
G01*
X205925Y50866D02*
G03*
X207500Y52441I0J1575D01*
G01*
X219823Y8189D02*
G03*
X221398Y6614I1575J0D01*
G01*
X226398Y6614D02*
G03*
X227972Y8189I0J1575D01*
G01*
X227972Y18976D02*
G03*
X226398Y20551I-1575J0D01*
G01*
X221398Y20551D02*
G03*
X219823Y18976I0J-1575D01*
G01*
X223898Y186673D02*
X223898Y194823D01*
X209961D02*
X209961Y186673D01*
X209961Y194823D02*
X215158D01*
X218701D02*
X223898D01*
X218701Y186673D02*
X223898Y186673D01*
X209961D02*
X215158Y186673D01*
X99094Y77350D02*
X138858Y77350D01*
X99094Y77350D02*
X99094Y65350D01*
X138858D01*
X138858Y77350D01*
X138858Y72925D02*
X143583Y75287D01*
X138858Y69775D02*
X143583Y67413D01*
X147972Y189409D02*
X147972Y184213D01*
X147972Y192953D02*
Y198150D01*
X139823Y192953D02*
X139823Y198150D01*
X139823Y184213D02*
X139823Y189409D01*
X139823Y184213D02*
X147972D01*
X139823Y198150D02*
X147972D01*
X194767Y194854D02*
X198441Y191180D01*
X188586Y201034D02*
X192261Y197360D01*
X182824Y195272D02*
X186498Y191597D01*
X189004Y189092D02*
X192679Y185417D01*
X198441Y191180D01*
X182824Y195272D02*
X188586Y201034D01*
X139823Y209842D02*
Y215039D01*
X139823Y201102D02*
X139823Y206299D01*
X147972Y201102D02*
Y206299D01*
Y209842D02*
Y215039D01*
X139823D02*
X147972D01*
X139823Y201102D02*
X147972Y201102D01*
X138327Y206299D02*
X138327Y201102D01*
X138327Y209842D02*
X138327Y215039D01*
X130177Y209842D02*
Y215039D01*
Y201102D02*
Y206299D01*
Y201102D02*
X138327Y201102D01*
X130177Y215039D02*
X138327Y215039D01*
X167972Y209842D02*
Y215039D01*
Y201102D02*
Y206299D01*
X176122Y201102D02*
Y206299D01*
Y209842D02*
Y215039D01*
X167972Y215039D02*
X176122Y215039D01*
X167972Y201102D02*
X176122Y201102D01*
X166279Y206299D02*
X166279Y201102D01*
X166279Y209842D02*
X166279Y215039D01*
X158130Y209842D02*
Y215039D01*
Y201102D02*
Y206299D01*
Y201102D02*
X166279Y201102D01*
X158130Y215039D02*
X166279Y215039D01*
X2489Y220756D02*
X4155Y222422D01*
X2489Y201890D02*
Y220756D01*
X5822Y201890D02*
Y220720D01*
Y220756D02*
X5858Y220720D01*
X4155Y222422D02*
X5822Y220756D01*
X14155Y222422D02*
X15822Y220756D01*
Y201890D02*
Y220720D01*
X12489Y201890D02*
Y220756D01*
X14155Y222422D01*
X22489Y220756D02*
X24155Y222422D01*
X22489Y201890D02*
Y220756D01*
X25822Y201890D02*
Y220720D01*
X24155Y222422D02*
X25822Y220756D01*
X28858Y196390D02*
Y201890D01*
X-1142D02*
X28858D01*
X-1142Y196390D02*
Y201890D01*
Y199390D02*
X1358Y196890D01*
X-1142Y196390D02*
X5858D01*
X28858D01*
X77205Y167638D02*
Y177638D01*
Y167638D02*
X147205Y167638D01*
X77205Y177638D02*
X147205Y177638D01*
Y167638D02*
Y177638D01*
X87559Y115098D02*
X91181D01*
X80394D02*
X84016D01*
X80394Y106949D02*
X84016Y106949D01*
X78819Y108524D02*
Y113524D01*
X87559Y106949D02*
X91181Y106949D01*
X92756Y108524D02*
Y113524D01*
X132362Y150846D02*
X135984D01*
X139528D02*
X143150D01*
X139528Y158996D02*
X143150Y158996D01*
X144724Y152421D02*
Y157421D01*
X132362Y158996D02*
X135984Y158996D01*
X130787Y152421D02*
Y157421D01*
X132362Y141122D02*
X135984D01*
X139528D02*
X143150D01*
X139528Y149272D02*
X143150Y149272D01*
X144724Y142697D02*
Y147697D01*
X132362Y149272D02*
X135984Y149272D01*
X130787Y142697D02*
Y147697D01*
X100216Y146811D02*
Y150433D01*
Y153976D02*
Y157598D01*
X92067Y157598D02*
X92067Y153976D01*
X93642Y159173D02*
X98642D01*
X92067Y146811D02*
X92067Y150433D01*
X93642Y145236D02*
X98642D01*
X122716Y101004D02*
Y106004D01*
X124291Y107579D02*
X127913Y107579D01*
X136653Y101004D02*
Y106004D01*
X131457Y107579D02*
X135079Y107579D01*
X131457Y99429D02*
X135079D01*
X124291D02*
X127913D01*
X-19882Y161811D02*
X29331D01*
X-19882Y114567D02*
X29331Y114567D01*
X29331Y106004D02*
X41535D01*
X41535Y88189D02*
X74606D01*
X29331Y170374D02*
X41535D01*
Y188189D02*
X74606D01*
X-19882Y114567D02*
Y161811D01*
X74606Y161811D02*
X80512Y161811D01*
X74606Y114567D02*
X80512D01*
Y161811D01*
X74606Y88189D02*
X74606Y114567D01*
X74606Y161811D02*
X74606Y188189D01*
X41535Y88189D02*
X41535Y106004D01*
X29331Y161811D02*
Y170374D01*
X41535D02*
Y188189D01*
X29331Y114567D02*
X29331Y106004D01*
X111949Y180433D02*
Y185630D01*
Y189173D02*
X111949Y194370D01*
X103799Y189173D02*
Y194370D01*
Y180433D02*
Y185630D01*
Y180433D02*
X111949Y180433D01*
X103799Y194370D02*
X111949Y194370D01*
X113445Y209842D02*
Y215039D01*
X113445Y201102D02*
X113445Y206299D01*
X121595Y201102D02*
Y206299D01*
Y209842D02*
Y215039D01*
X113445D02*
X121595D01*
X113445Y201102D02*
X121595D01*
X111752Y201102D02*
Y206299D01*
Y209842D02*
X111752Y215039D01*
X103602Y209842D02*
Y215039D01*
Y201102D02*
Y206299D01*
Y201102D02*
X111752D01*
X103602Y215039D02*
X111752Y215039D01*
X121595Y185630D02*
X121595Y180433D01*
X121595Y189173D02*
Y194370D01*
X113445Y189173D02*
Y194370D01*
Y180433D02*
Y185630D01*
Y180433D02*
X121595Y180433D01*
X113445Y194370D02*
X121595Y194370D01*
X86536Y191004D02*
X91732D01*
X95276D02*
X100472Y191004D01*
X95276Y199153D02*
X100472D01*
X86536D02*
X91732D01*
X86536Y191004D02*
Y199153D01*
X100472Y191004D02*
X100472Y199153D01*
X79764D02*
X84961D01*
X71024D02*
X76221D01*
X71024Y191004D02*
X76221D01*
X79764D02*
X84961D01*
Y199153D01*
X71024Y191004D02*
X71024Y199153D01*
X87986Y215039D02*
X87986Y209842D01*
Y201102D02*
Y206299D01*
X96135Y201102D02*
Y206299D01*
Y209842D02*
Y215039D01*
X87986D02*
X96135D01*
X87986Y201102D02*
X96135D01*
X86358Y201102D02*
Y206299D01*
Y209842D02*
Y215039D01*
X78209Y209842D02*
Y215039D01*
Y201102D02*
Y206299D01*
Y201102D02*
X86358Y201102D01*
X78209Y215039D02*
X86358D01*
X41417Y199153D02*
X46614D01*
X32677Y199153D02*
X37874Y199153D01*
X32677Y191004D02*
X37874D01*
X41417D02*
X46614D01*
Y199153D01*
X32677Y191004D02*
X32677Y199153D01*
X47992Y191004D02*
X53189Y191004D01*
X56732D02*
X61929D01*
X56732Y199153D02*
X61929Y199153D01*
X47992D02*
X53189Y199153D01*
X47992Y191004D02*
Y199153D01*
X61929D02*
X61929Y191004D01*
X58327Y215039D02*
X58327Y209842D01*
Y201102D02*
Y206299D01*
X66476Y201102D02*
Y206299D01*
Y209842D02*
Y215039D01*
X58327D02*
X66476D01*
X58327Y201102D02*
X66476D01*
X56831Y206299D02*
X56831Y201102D01*
X56831Y209842D02*
X56831Y215039D01*
X48681Y209842D02*
Y215039D01*
Y201102D02*
Y206299D01*
Y201102D02*
X56831Y201102D01*
X48681Y215039D02*
X56831D01*
X219055Y82539D02*
X222677D01*
X226220D02*
X229842D01*
X226220Y90689D02*
X229842Y90689D01*
X231417Y84114D02*
Y89114D01*
X219055Y90689D02*
X222677Y90689D01*
X217480Y84114D02*
Y89114D01*
X195551Y170374D02*
X195551Y161811D01*
X183346Y88189D02*
Y106004D01*
X195551D02*
Y114567D01*
X183346Y170374D02*
X183346Y188189D01*
X150276Y88189D02*
X150276Y114567D01*
X150276Y161811D02*
X150276Y188189D01*
X144370Y114567D02*
Y161811D01*
X150276D01*
X144370Y114567D02*
X150276Y114567D01*
X244764Y114567D02*
Y161811D01*
X150276Y88189D02*
X183346D01*
Y106004D02*
X195551D01*
X150276Y188189D02*
X183346D01*
X183346Y170374D02*
X195551D01*
X195551Y161811D02*
X244764Y161811D01*
X195551Y114567D02*
X244764D01*
X181142Y18366D02*
X186339D01*
X189882D02*
X195079D01*
X189882Y26516D02*
X195079D01*
X181142D02*
X186339D01*
X181142D02*
X181142Y18366D01*
X195079D02*
Y26516D01*
X201319Y20590D02*
X206319D01*
X207894Y15394D02*
X207894Y19015D01*
X201319Y6653D02*
X206319D01*
X207894Y11850D02*
X207894Y8228D01*
X199744Y8228D02*
Y11850D01*
Y15394D02*
Y19016D01*
X209783Y20551D02*
X209783Y15354D01*
X209783Y6614D02*
X209783Y11811D01*
X217933Y6614D02*
Y11811D01*
Y15354D02*
Y20551D01*
X209783Y20551D02*
X217933Y20551D01*
X209783Y6614D02*
X217933Y6614D01*
X129980Y198150D02*
X138130Y198150D01*
X129980Y184213D02*
X138130Y184213D01*
X129980Y184213D02*
X129980Y189409D01*
Y192953D02*
Y198150D01*
X138130Y192953D02*
X138130Y198150D01*
X138130Y189409D02*
X138130Y184213D01*
X239291Y25649D02*
Y33799D01*
X225354Y33799D02*
X225354Y25649D01*
X225354Y33799D02*
X230551Y33799D01*
X234095Y33799D02*
X239291Y33799D01*
X234095Y25649D02*
X239291D01*
X225354Y25649D02*
X230551Y25649D01*
X182717Y28208D02*
X186339D01*
X189882D02*
X193504D01*
X189882Y36358D02*
X193504Y36358D01*
X195079Y29783D02*
Y34783D01*
X182717Y36358D02*
X186339Y36358D01*
X181142Y29783D02*
Y34783D01*
X207500Y52441D02*
Y56063D01*
Y59606D02*
Y63228D01*
X199350Y63228D02*
X199350Y59606D01*
X200925Y64803D02*
X205925D01*
X199350Y52441D02*
X199350Y56063D01*
X200925Y50866D02*
X205925D01*
X208996Y50866D02*
X217146Y50866D01*
X208996Y64803D02*
X217146Y64803D01*
Y59606D02*
Y64803D01*
Y50866D02*
Y56063D01*
X208996Y50866D02*
X208996Y56063D01*
X208996Y64803D02*
X208996Y59606D01*
X218642Y50866D02*
X226791Y50866D01*
X218642Y64803D02*
X226791Y64803D01*
Y59606D02*
Y64803D01*
Y50866D02*
Y56063D01*
X218642Y50866D02*
X218642Y56063D01*
X218642Y64803D02*
X218642Y59606D01*
X219823Y15354D02*
Y18976D01*
Y8189D02*
Y11811D01*
X227972Y11811D02*
X227972Y8189D01*
X221398Y6614D02*
X226398D01*
X227972Y15354D02*
X227972Y18976D01*
X221398Y20551D02*
X226398D01*
X239291Y35492D02*
Y43642D01*
X225354Y35492D02*
Y43642D01*
X230551D01*
X234095D02*
X239291D01*
X234095Y35492D02*
X239291Y35492D01*
X225354D02*
X230551Y35492D01*
D17*
X123199Y79797D02*
G03*
X123207Y98103I106J9153D01*
G01*
X98214Y98103D02*
G03*
X98207Y79797I-106J-9153D01*
G01*
X98207Y79796D02*
X123199D01*
X98214Y98103D02*
X123207D01*
D19*
X109707Y92950D02*
X109707Y84950D01*
X109707Y92950D02*
X111707D01*
X111707Y84950D02*
X111707Y92950D01*
X109707Y84950D02*
X111707D01*
X108207Y92950D02*
X108207Y84950D01*
X113207D02*
X113207Y92950D01*
X113207Y88950D02*
X116207Y88950D01*
X105207D02*
X108207D01*
D20*
X222047Y180567D02*
Y184503D01*
X220079D01*
X219423Y183847D01*
Y182535D01*
X220079Y181879D01*
X222047D01*
X220735D02*
X219423Y180567D01*
X216144D02*
Y184503D01*
X218111Y182535D01*
X215488D01*
X211552Y184503D02*
X214176D01*
Y182535D01*
X212864Y183191D01*
X212208D01*
X211552Y182535D01*
Y181223D01*
X212208Y180567D01*
X213520D01*
X214176Y181223D01*
X15093Y185629D02*
X16405D01*
X15749D01*
Y182349D01*
X16405Y181693D01*
X17061D01*
X17717Y182349D01*
X11157Y181693D02*
X13781D01*
X11157Y184317D01*
Y184973D01*
X11813Y185629D01*
X13125D01*
X13781Y184973D01*
X114961Y103739D02*
Y103083D01*
X113649Y101771D01*
X112337Y103083D01*
Y103739D01*
X113649Y101771D02*
Y99803D01*
X108401D02*
X111025D01*
X108401Y102427D01*
Y103083D01*
X109057Y103739D01*
X110369D01*
X111025Y103083D01*
X97835Y74802D02*
Y74146D01*
X96523Y72834D01*
X95211Y74146D01*
Y74802D01*
X96523Y72834D02*
Y70866D01*
X93899D02*
X92587D01*
X93243D01*
Y74802D01*
X93899Y74146D01*
X227638Y49408D02*
Y46128D01*
X226982Y45472D01*
X225670D01*
X225014Y46128D01*
Y49408D01*
X221734Y45472D02*
Y49408D01*
X223702Y47440D01*
X221078D01*
X-8647Y59844D02*
X-7992Y60500D01*
X-6680D01*
X-6024Y59844D01*
Y59188D01*
X-6680Y58532D01*
X-7992D01*
X-8647Y57876D01*
Y57220D01*
X-7992Y56564D01*
X-6680D01*
X-6024Y57220D01*
X-9959Y60500D02*
Y56564D01*
X-11271Y57876D01*
X-12583Y56564D01*
Y60500D01*
X-13895Y56564D02*
X-15207D01*
X-14551D01*
Y60500D01*
X-13895Y59844D01*
X192992Y12795D02*
Y16731D01*
X191024D01*
X190368Y16075D01*
Y14763D01*
X191024Y14107D01*
X192992D01*
X191680D02*
X190368Y12795D01*
X189056D02*
X187744D01*
X188400D01*
Y16731D01*
X189056Y16075D01*
X185777Y16731D02*
X183153D01*
Y16075D01*
X185777Y13451D01*
Y12795D01*
X239252Y20079D02*
Y24014D01*
X237284D01*
X236628Y23358D01*
Y22046D01*
X237284Y21391D01*
X239252D01*
X237940D02*
X236628Y20079D01*
X235316D02*
X234004D01*
X234660D01*
Y24014D01*
X235316Y23358D01*
X232036D02*
X231381Y24014D01*
X230069D01*
X229413Y23358D01*
Y22702D01*
X230069Y22046D01*
X230725D01*
X230069D01*
X229413Y21391D01*
Y20734D01*
X230069Y20079D01*
X231381D01*
X232036Y20734D01*
X239055Y45079D02*
Y49014D01*
X237087D01*
X236431Y48358D01*
Y47046D01*
X237087Y46391D01*
X239055D01*
X237743D02*
X236431Y45079D01*
X235119D02*
X233807D01*
X234463D01*
Y49014D01*
X235119Y48358D01*
X231840Y45079D02*
X230528D01*
X231184D01*
Y49014D01*
X231840Y48358D01*
X137008Y179134D02*
Y183070D01*
X135040D01*
X134384Y182414D01*
Y181102D01*
X135040Y180446D01*
X137008D01*
X135696D02*
X134384Y179134D01*
X131104D02*
Y183070D01*
X133072Y181102D01*
X130448D01*
X127169Y179134D02*
Y183070D01*
X129136Y181102D01*
X126513D01*
X187402Y183268D02*
X190185Y186051D01*
X188793Y187442D01*
X187865D01*
X186938Y186514D01*
Y185587D01*
X188329Y184195D01*
X187402Y185123D02*
X185546D01*
X183227Y187442D02*
X186010Y190225D01*
Y187442D01*
X184155Y189297D01*
Y191153D02*
Y192080D01*
X183227Y193008D01*
X182299Y193008D01*
X181836Y192544D01*
Y191617D01*
X182299Y191153D01*
X181836Y191617D01*
X180908Y191617D01*
X180444Y191153D01*
X180444Y190225D01*
X181372Y189297D01*
X182299D01*
X149213Y178937D02*
Y182873D01*
X147245D01*
X146589Y182217D01*
Y180905D01*
X147245Y180249D01*
X149213D01*
X147901D02*
X146589Y178937D01*
X143309D02*
Y182873D01*
X145277Y180905D01*
X142653D01*
X138717Y178937D02*
X141341D01*
X138717Y181561D01*
Y182217D01*
X139373Y182873D01*
X140685D01*
X141341Y182217D01*
X177953Y195866D02*
Y199802D01*
X175985D01*
X175329Y199146D01*
Y197834D01*
X175985Y197178D01*
X177953D01*
X176641D02*
X175329Y195866D01*
X172049D02*
Y199802D01*
X174017Y197834D01*
X171393D01*
X170081Y199146D02*
X169425Y199802D01*
X168113D01*
X167457Y199146D01*
Y196522D01*
X168113Y195866D01*
X169425D01*
X170081Y196522D01*
Y199146D01*
X153543Y213976D02*
X149608D01*
Y212009D01*
X150264Y211353D01*
X151575D01*
X152231Y212009D01*
Y213976D01*
Y212665D02*
X153543Y211353D01*
X150264Y210041D02*
X149608Y209385D01*
Y208073D01*
X150264Y207417D01*
X150919D01*
X151575Y208073D01*
Y208729D01*
Y208073D01*
X152231Y207417D01*
X152887D01*
X153543Y208073D01*
Y209385D01*
X152887Y210041D01*
Y206105D02*
X153543Y205449D01*
Y204137D01*
X152887Y203481D01*
X150264D01*
X149608Y204137D01*
Y205449D01*
X150264Y206105D01*
X150919D01*
X151575Y205449D01*
Y203481D01*
X165354Y195866D02*
Y199802D01*
X163386D01*
X162731Y199146D01*
Y197834D01*
X163386Y197178D01*
X165354D01*
X164042D02*
X162731Y195866D01*
X161419Y199146D02*
X160763Y199802D01*
X159451D01*
X158795Y199146D01*
Y198490D01*
X159451Y197834D01*
X160107D01*
X159451D01*
X158795Y197178D01*
Y196522D01*
X159451Y195866D01*
X160763D01*
X161419Y196522D01*
X157483Y199802D02*
X154859D01*
Y199146D01*
X157483Y196522D01*
Y195866D01*
X128543Y213976D02*
X124608D01*
Y212009D01*
X125264Y211353D01*
X126575D01*
X127231Y212009D01*
Y213976D01*
Y212665D02*
X128543Y211353D01*
X125264Y210041D02*
X124608Y209385D01*
Y208073D01*
X125264Y207417D01*
X125919D01*
X126575Y208073D01*
Y208729D01*
Y208073D01*
X127231Y207417D01*
X127887D01*
X128543Y208073D01*
Y209385D01*
X127887Y210041D01*
X124608Y203481D02*
X125264Y204793D01*
X126575Y206105D01*
X127887D01*
X128543Y205449D01*
Y204137D01*
X127887Y203481D01*
X127231D01*
X126575Y204137D01*
Y206105D01*
X102362Y180709D02*
Y184644D01*
X100394D01*
X99738Y183988D01*
Y182676D01*
X100394Y182021D01*
X102362D01*
X101050D02*
X99738Y180709D01*
X98427Y183988D02*
X97771Y184644D01*
X96459D01*
X95803Y183988D01*
Y183333D01*
X96459Y182676D01*
X97115D01*
X96459D01*
X95803Y182021D01*
Y181365D01*
X96459Y180709D01*
X97771D01*
X98427Y181365D01*
X92523Y180709D02*
Y184644D01*
X94491Y182676D01*
X91867D01*
X86221Y185630D02*
Y189566D01*
X84253D01*
X83597Y188910D01*
Y187598D01*
X84253Y186942D01*
X86221D01*
X84909D02*
X83597Y185630D01*
X82285Y188910D02*
X81629Y189566D01*
X80317D01*
X79661Y188910D01*
Y188254D01*
X80317Y187598D01*
X80973D01*
X80317D01*
X79661Y186942D01*
Y186286D01*
X80317Y185630D01*
X81629D01*
X82285Y186286D01*
X78349Y188910D02*
X77693Y189566D01*
X76381D01*
X75725Y188910D01*
Y188254D01*
X76381Y187598D01*
X77037D01*
X76381D01*
X75725Y186942D01*
Y186286D01*
X76381Y185630D01*
X77693D01*
X78349Y186286D01*
X42520Y185236D02*
Y189172D01*
X40552D01*
X39896Y188516D01*
Y187204D01*
X40552Y186548D01*
X42520D01*
X41208D02*
X39896Y185236D01*
X38584Y188516D02*
X37928Y189172D01*
X36616D01*
X35960Y188516D01*
Y187860D01*
X36616Y187204D01*
X37272D01*
X36616D01*
X35960Y186548D01*
Y185892D01*
X36616Y185236D01*
X37928D01*
X38584Y185892D01*
X32024Y185236D02*
X34648D01*
X32024Y187860D01*
Y188516D01*
X32680Y189172D01*
X33992D01*
X34648Y188516D01*
X126772Y194095D02*
X122836D01*
Y192127D01*
X123492Y191471D01*
X124804D01*
X125460Y192127D01*
Y194095D01*
Y192783D02*
X126772Y191471D01*
X123492Y190159D02*
X122836Y189503D01*
Y188191D01*
X123492Y187535D01*
X124148D01*
X124804Y188191D01*
Y188847D01*
Y188191D01*
X125460Y187535D01*
X126116D01*
X126772Y188191D01*
Y189503D01*
X126116Y190159D01*
X126772Y186223D02*
Y184911D01*
Y185567D01*
X122836D01*
X123492Y186223D01*
X100216Y186024D02*
Y189959D01*
X98249D01*
X97593Y189303D01*
Y187991D01*
X98249Y187336D01*
X100216D01*
X98905D02*
X97593Y186024D01*
X96281Y189303D02*
X95625Y189959D01*
X94313D01*
X93657Y189303D01*
Y188647D01*
X94313Y187991D01*
X94969D01*
X94313D01*
X93657Y187336D01*
Y186680D01*
X94313Y186024D01*
X95625D01*
X96281Y186680D01*
X92345Y189303D02*
X91689Y189959D01*
X90377D01*
X89721Y189303D01*
Y186680D01*
X90377Y186024D01*
X91689D01*
X92345Y186680D01*
Y189303D01*
X67913Y199606D02*
X63978D01*
Y197638D01*
X64634Y196983D01*
X65946D01*
X66602Y197638D01*
Y199606D01*
Y198294D02*
X67913Y196983D01*
Y193047D02*
Y195671D01*
X65290Y193047D01*
X64634D01*
X63978Y193703D01*
Y195015D01*
X64634Y195671D01*
X67257Y191735D02*
X67913Y191079D01*
Y189767D01*
X67257Y189111D01*
X64634D01*
X63978Y189767D01*
Y191079D01*
X64634Y191735D01*
X65290D01*
X65946Y191079D01*
Y189111D01*
X123824Y196063D02*
Y199999D01*
X121856D01*
X121201Y199343D01*
Y198031D01*
X121856Y197375D01*
X123824D01*
X122512D02*
X121201Y196063D01*
X117265D02*
X119889D01*
X117265Y198687D01*
Y199343D01*
X117921Y199999D01*
X119233D01*
X119889Y199343D01*
X113329Y199999D02*
X114641Y199343D01*
X115953Y198031D01*
Y196719D01*
X115297Y196063D01*
X113985D01*
X113329Y196719D01*
Y197375D01*
X113985Y198031D01*
X115953D01*
X101575Y213779D02*
X97639D01*
Y211812D01*
X98295Y211156D01*
X99607D01*
X100263Y211812D01*
Y213779D01*
Y212468D02*
X101575Y211156D01*
Y207220D02*
Y209844D01*
X98951Y207220D01*
X98295D01*
X97639Y207876D01*
Y209188D01*
X98295Y209844D01*
X97639Y203284D02*
Y205908D01*
X99607D01*
X98951Y204596D01*
Y203940D01*
X99607Y203284D01*
X100919D01*
X101575Y203940D01*
Y205252D01*
X100919Y205908D01*
X71653Y213583D02*
X67718D01*
Y211615D01*
X68374Y210959D01*
X69686D01*
X70342Y211615D01*
Y213583D01*
Y212271D02*
X71653Y210959D01*
Y207023D02*
Y209647D01*
X69030Y207023D01*
X68374D01*
X67718Y207679D01*
Y208991D01*
X68374Y209647D01*
X71653Y203743D02*
X67718D01*
X69686Y205711D01*
Y203087D01*
X111811Y195866D02*
Y199802D01*
X109843D01*
X109187Y199146D01*
Y197834D01*
X109843Y197178D01*
X111811D01*
X110499D02*
X109187Y195866D01*
X105252D02*
X107875D01*
X105252Y198490D01*
Y199146D01*
X105907Y199802D01*
X107219D01*
X107875Y199146D01*
X103939D02*
X103284Y199802D01*
X101972D01*
X101316Y199146D01*
Y198490D01*
X101972Y197834D01*
X102628D01*
X101972D01*
X101316Y197178D01*
Y196522D01*
X101972Y195866D01*
X103284D01*
X103939Y196522D01*
X77165Y213583D02*
X73230D01*
Y211615D01*
X73886Y210959D01*
X75197D01*
X75853Y211615D01*
Y213583D01*
Y212271D02*
X77165Y210959D01*
Y207023D02*
Y209647D01*
X74541Y207023D01*
X73886D01*
X73230Y207679D01*
Y208991D01*
X73886Y209647D01*
X77165Y203087D02*
Y205711D01*
X74541Y203087D01*
X73886D01*
X73230Y203743D01*
Y205055D01*
X73886Y205711D01*
X45276Y209646D02*
X41340D01*
Y207678D01*
X41996Y207022D01*
X43308D01*
X43964Y207678D01*
Y209646D01*
Y208334D02*
X45276Y207022D01*
Y203086D02*
Y205710D01*
X42652Y203086D01*
X41996D01*
X41340Y203742D01*
Y205054D01*
X41996Y205710D01*
X45276Y201774D02*
Y200462D01*
Y201118D01*
X41340D01*
X41996Y201774D01*
X219370Y1575D02*
Y5510D01*
X217402D01*
X216746Y4854D01*
Y3542D01*
X217402Y2887D01*
X219370D01*
X218058D02*
X216746Y1575D01*
X215434D02*
X214122D01*
X214778D01*
Y5510D01*
X215434Y4854D01*
X209531Y5510D02*
X210843Y4854D01*
X212155Y3542D01*
Y2231D01*
X211499Y1575D01*
X210187D01*
X209531Y2231D01*
Y2887D01*
X210187Y3542D01*
X212155D01*
X216161Y66102D02*
Y70038D01*
X214194D01*
X213538Y69382D01*
Y68070D01*
X214194Y67414D01*
X216161D01*
X214849D02*
X213538Y66102D01*
X212226Y66758D02*
X211570Y66102D01*
X210258D01*
X209602Y66758D01*
Y69382D01*
X210258Y70038D01*
X211570D01*
X212226Y69382D01*
Y68726D01*
X211570Y68070D01*
X209602D01*
X225669Y66102D02*
Y70038D01*
X223701D01*
X223045Y69382D01*
Y68070D01*
X223701Y67414D01*
X225669D01*
X224357D02*
X223045Y66102D01*
X221734Y69382D02*
X221078Y70038D01*
X219766D01*
X219110Y69382D01*
Y68726D01*
X219766Y68070D01*
X219110Y67414D01*
Y66758D01*
X219766Y66102D01*
X221078D01*
X221734Y66758D01*
Y67414D01*
X221078Y68070D01*
X221734Y68726D01*
Y69382D01*
X221078Y68070D02*
X219766D01*
X172047Y49211D02*
Y45276D01*
X169423D01*
X165488Y48555D02*
X166144Y49211D01*
X167455D01*
X168112Y48555D01*
Y47899D01*
X167455Y47243D01*
X166144D01*
X165488Y46587D01*
Y45932D01*
X166144Y45276D01*
X167455D01*
X168112Y45932D01*
X164176Y45276D02*
X162864D01*
X163520D01*
Y49211D01*
X164176Y48555D01*
X83793Y182676D02*
X85105D01*
X84449D01*
Y179396D01*
X85105Y178740D01*
X85761D01*
X86417Y179396D01*
X82482Y178740D02*
Y182676D01*
X80514D01*
X79858Y182020D01*
Y180708D01*
X80514Y180052D01*
X82482D01*
X78546Y178740D02*
X77234D01*
X77890D01*
Y182676D01*
X78546Y182020D01*
X96510Y61180D02*
X97822D01*
X97166D01*
Y57900D01*
X97822Y57244D01*
X98478D01*
X99134Y57900D01*
X93230Y57244D02*
Y61180D01*
X95198Y59212D01*
X92574D01*
X130368Y61180D02*
X131680D01*
X131024D01*
Y57900D01*
X131680Y57244D01*
X132336D01*
X132992Y57900D01*
X129056Y60524D02*
X128400Y61180D01*
X127088D01*
X126433Y60524D01*
Y59868D01*
X127088Y59212D01*
X127744D01*
X127088D01*
X126433Y58556D01*
Y57900D01*
X127088Y57244D01*
X128400D01*
X129056Y57900D01*
X13124Y68502D02*
X14436D01*
X13780D01*
Y65223D01*
X14436Y64567D01*
X15092D01*
X15748Y65223D01*
X11812Y64567D02*
X10500D01*
X11156D01*
Y68502D01*
X11812Y67847D01*
X140683Y163516D02*
X141339Y164172D01*
X142651D01*
X143307Y163516D01*
Y160892D01*
X142651Y160236D01*
X141339D01*
X140683Y160892D01*
X136748Y160236D02*
X139371D01*
X136748Y162860D01*
Y163516D01*
X137404Y164172D01*
X138715D01*
X139371Y163516D01*
X132812Y164172D02*
X135436D01*
Y162204D01*
X134124Y162860D01*
X133468D01*
X132812Y162204D01*
Y160892D01*
X133468Y160236D01*
X134780D01*
X135436Y160892D01*
X132849Y112492D02*
X133505Y113148D01*
X134817D01*
X135472Y112492D01*
Y109869D01*
X134817Y109213D01*
X133505D01*
X132849Y109869D01*
X128913Y109213D02*
X131537D01*
X128913Y111836D01*
Y112492D01*
X129569Y113148D01*
X130881D01*
X131537Y112492D01*
X125633Y109213D02*
Y113148D01*
X127601Y111180D01*
X124977D01*
X100182Y165467D02*
X100838Y166123D01*
X102150D01*
X102806Y165467D01*
Y162843D01*
X102150Y162187D01*
X100838D01*
X100182Y162843D01*
X96247Y162187D02*
X98871D01*
X96247Y164811D01*
Y165467D01*
X96903Y166123D01*
X98215D01*
X98871Y165467D01*
X94935D02*
X94279Y166123D01*
X92967D01*
X92311Y165467D01*
Y164811D01*
X92967Y164155D01*
X93623D01*
X92967D01*
X92311Y163499D01*
Y162843D01*
X92967Y162187D01*
X94279D01*
X94935Y162843D01*
X88321Y119618D02*
X88977Y120274D01*
X90289D01*
X90945Y119618D01*
Y116995D01*
X90289Y116339D01*
X88977D01*
X88321Y116995D01*
X84385Y116339D02*
X87009D01*
X84385Y118962D01*
Y119618D01*
X85041Y120274D01*
X86353D01*
X87009Y119618D01*
X80450Y116339D02*
X83073D01*
X80450Y118962D01*
Y119618D01*
X81106Y120274D01*
X82417D01*
X83073Y119618D01*
X139502Y138811D02*
X140158Y139467D01*
X141470D01*
X142126Y138811D01*
Y136187D01*
X141470Y135531D01*
X140158D01*
X139502Y136187D01*
X135566Y135531D02*
X138190D01*
X135566Y138155D01*
Y138811D01*
X136222Y139467D01*
X137534D01*
X138190Y138811D01*
X134255Y135531D02*
X132943D01*
X133598D01*
Y139467D01*
X134255Y138811D01*
X190172Y41272D02*
X190827Y41928D01*
X192139D01*
X192795Y41272D01*
Y38648D01*
X192139Y37992D01*
X190827D01*
X190172Y38648D01*
X188859Y37992D02*
X187548D01*
X188204D01*
Y41928D01*
X188859Y41272D01*
X182956Y41928D02*
X184268Y41272D01*
X185580Y39960D01*
Y38648D01*
X184924Y37992D01*
X183612D01*
X182956Y38648D01*
Y39304D01*
X183612Y39960D01*
X185580D01*
X205132Y4854D02*
X205788Y5510D01*
X207100D01*
X207756Y4854D01*
Y2231D01*
X207100Y1575D01*
X205788D01*
X205132Y2231D01*
X203820Y1575D02*
X202508D01*
X203164D01*
Y5510D01*
X203820Y4854D01*
X197917Y5510D02*
X200540D01*
Y3542D01*
X199229Y4198D01*
X198573D01*
X197917Y3542D01*
Y2231D01*
X198573Y1575D01*
X199884D01*
X200540Y2231D01*
X205329Y69421D02*
X205985Y70077D01*
X207297D01*
X207953Y69421D01*
Y66798D01*
X207297Y66141D01*
X205985D01*
X205329Y66798D01*
X204017Y66141D02*
X202705D01*
X203361D01*
Y70077D01*
X204017Y69421D01*
X198769Y66141D02*
Y70077D01*
X200737Y68109D01*
X198113D01*
X233675Y16665D02*
X234331Y17321D01*
X235643D01*
X236299Y16665D01*
Y14042D01*
X235643Y13386D01*
X234331D01*
X233675Y14042D01*
X232364D02*
X231708Y13386D01*
X230396D01*
X229740Y14042D01*
Y16665D01*
X230396Y17321D01*
X231708D01*
X232364Y16665D01*
Y16010D01*
X231708Y15353D01*
X229740D01*
X213124Y87729D02*
X213780Y88385D01*
X215092D01*
X215748Y87729D01*
Y85105D01*
X215092Y84449D01*
X213780D01*
X213124Y85105D01*
X211812Y84449D02*
X210500D01*
X211156D01*
Y88385D01*
X211812Y87729D01*
D110*
X145536Y22835D02*
X151536D01*
X148536Y19835D02*
Y25835D01*
M02*
